<svg width="16" height="20" viewBox="0 0 16 20" fill="none" xmlns="http://www.w3.org/2000/svg">
<path d="M0.700195 0.700195V19.3002H15.7002V5.07598L11.3244 0.700195H0.700195ZM1.3002 1.3002H10.9002V5.5002H15.1002V18.7002H1.3002V1.3002ZM11.5002 1.72441L14.676 4.9002H11.5002V1.72441ZM2.8002 1.9002C2.63496 1.9002 2.5002 2.03496 2.5002 2.2002C2.5002 2.36543 2.63496 2.5002 2.8002 2.5002C2.96543 2.5002 3.1002 2.36543 3.1002 2.2002C3.1002 2.03496 2.96543 1.9002 2.8002 1.9002ZM2.8002 3.1002C2.63496 3.1002 2.5002 3.23496 2.5002 3.4002C2.5002 3.56543 2.63496 3.7002 2.8002 3.7002C2.96543 3.7002 3.1002 3.56543 3.1002 3.4002C3.1002 3.23496 2.96543 3.1002 2.8002 3.1002ZM2.8002 4.3002C2.63496 4.3002 2.5002 4.43496 2.5002 4.6002C2.5002 4.76543 2.63496 4.9002 2.8002 4.9002C2.96543 4.9002 3.1002 4.76543 3.1002 4.6002C3.1002 4.43496 2.96543 4.3002 2.8002 4.3002ZM2.8002 5.5002C2.63496 5.5002 2.5002 5.63496 2.5002 5.8002C2.5002 5.96543 2.63496 6.1002 2.8002 6.1002C2.96543 6.1002 3.1002 5.96543 3.1002 5.8002C3.1002 5.63496 2.96543 5.5002 2.8002 5.5002ZM2.8002 6.7002C2.63496 6.7002 2.5002 6.83496 2.5002 7.0002C2.5002 7.16543 2.63496 7.3002 2.8002 7.3002C2.96543 7.3002 3.1002 7.16543 3.1002 7.0002C3.1002 6.83496 2.96543 6.7002 2.8002 6.7002ZM2.8002 7.9002C2.63496 7.9002 2.5002 8.03496 2.5002 8.2002C2.5002 8.36543 2.63496 8.5002 2.8002 8.5002C2.96543 8.5002 3.1002 8.36543 3.1002 8.2002C3.1002 8.03496 2.96543 7.9002 2.8002 7.9002ZM4.6002 8.2002V8.8002H12.7002V8.2002H4.6002ZM2.8002 9.1002C2.63496 9.1002 2.5002 9.23496 2.5002 9.4002C2.5002 9.56543 2.63496 9.7002 2.8002 9.7002C2.96543 9.7002 3.1002 9.56543 3.1002 9.4002C3.1002 9.23496 2.96543 9.1002 2.8002 9.1002ZM4.6002 10.0002V10.6002H11.5002V10.0002H4.6002ZM2.8002 10.3002C2.63496 10.3002 2.5002 10.435 2.5002 10.6002C2.5002 10.7654 2.63496 10.9002 2.8002 10.9002C2.96543 10.9002 3.1002 10.7654 3.1002 10.6002C3.1002 10.435 2.96543 10.3002 2.8002 10.3002ZM2.8002 11.5002C2.63496 11.5002 2.5002 11.635 2.5002 11.8002C2.5002 11.9654 2.63496 12.1002 2.8002 12.1002C2.96543 12.1002 3.1002 11.9654 3.1002 11.8002C3.1002 11.635 2.96543 11.5002 2.8002 11.5002ZM4.6002 11.8002V12.4002H12.7002V11.8002H4.6002ZM2.8002 12.7002C2.63496 12.7002 2.5002 12.835 2.5002 13.0002C2.5002 13.1654 2.63496 13.3002 2.8002 13.3002C2.96543 13.3002 3.1002 13.1654 3.1002 13.0002C3.1002 12.835 2.96543 12.7002 2.8002 12.7002ZM4.6002 13.6002V14.2002H11.5002V13.6002H4.6002ZM2.8002 13.9002C2.63496 13.9002 2.5002 14.035 2.5002 14.2002C2.5002 14.3654 2.63496 14.5002 2.8002 14.5002C2.96543 14.5002 3.1002 14.3654 3.1002 14.2002C3.1002 14.035 2.96543 13.9002 2.8002 13.9002ZM2.8002 15.1002C2.63496 15.1002 2.5002 15.235 2.5002 15.4002C2.5002 15.5654 2.63496 15.7002 2.8002 15.7002C2.96543 15.7002 3.1002 15.5654 3.1002 15.4002C3.1002 15.235 2.96543 15.1002 2.8002 15.1002ZM2.8002 16.3002C2.63496 16.3002 2.5002 16.435 2.5002 16.6002C2.5002 16.7654 2.63496 16.9002 2.8002 16.9002C2.96543 16.9002 3.1002 16.7654 3.1002 16.6002C3.1002 16.435 2.96543 16.3002 2.8002 16.3002ZM2.8002 17.5002C2.63496 17.5002 2.5002 17.635 2.5002 17.8002C2.5002 17.9654 2.63496 18.1002 2.8002 18.1002C2.96543 18.1002 3.1002 17.9654 3.1002 17.8002C3.1002 17.635 2.96543 17.5002 2.8002 17.5002Z" fill="#62AA51"/>
</svg>
