<svg width="154" height="30" viewBox="0 0 154 30" fill="none" xmlns="http://www.w3.org/2000/svg">
<path fill-rule="evenodd" clip-rule="evenodd" d="M30.3889 0H30.5104C29.8121 0.575936 29.1274 1.16954 28.4647 1.78702C28.0374 2.1968 27.5918 2.60025 27.2602 3.09809C27.1532 3.2295 27.2473 3.49141 27.4257 3.46513C27.6563 3.36469 27.7968 3.13585 27.9806 2.97046C28.6765 2.30646 29.5129 1.74065 30.4702 1.58311C31.8167 1.26153 33.2201 1.54746 34.4838 2.05845C33.7217 2.16357 32.9574 2.25707 32.2029 2.41401C31.891 2.50056 31.5403 2.54073 31.2944 2.77501C31.5586 2.92953 31.8705 2.92333 32.1651 2.9481C32.7548 2.98753 33.3446 3.07181 33.9131 3.24174C35.082 3.58265 36.1188 4.28999 37 5.13086C35.2793 4.72274 33.4675 4.63317 31.7324 5.00413C30.4261 5.28553 29.1676 5.88382 28.1876 6.82061C27.012 7.95299 26.209 9.51133 26.0746 11.1662C25.9456 12.5961 26.2575 14.033 26.7774 15.3556C27.3027 16.6688 28.0276 17.8956 28.8966 19C28.1194 18.6422 27.371 18.214 26.6743 17.7131C26.1118 17.3018 25.5699 16.8404 25.1721 16.2569C24.9481 15.9105 24.7637 15.538 24.5148 15.2095C24.4365 15.1144 24.2984 14.9976 24.174 15.0727C24.1338 15.1739 24.158 15.2852 24.183 15.3881C24.4365 16.3464 24.7462 17.2933 25.1903 18.1792C24.2955 17.4386 23.4984 16.5251 23.0598 15.4267C22.7691 14.6429 22.6445 13.8019 22.6376 12.9663C22.6452 12.2135 22.7364 11.4405 23.0727 10.7603C23.0484 10.7464 22.999 10.7194 22.9739 10.7055C22.7508 10.8925 22.6408 11.1715 22.5337 11.4359C22.0578 12.6951 21.67 14.0129 21.6031 15.3687C21.2904 14.8401 21.1394 14.2286 21.0756 13.6195C20.8677 11.8007 21.7587 9.90163 23.2609 8.90911C23.5258 8.70112 23.9212 8.6904 24.1056 8.38045C23.997 8.32018 23.8757 8.27291 23.7504 8.29934C23.323 8.36112 22.9634 8.62303 22.6118 8.85806C21.5841 9.57779 20.6262 10.4535 20 11.5681C20.0881 10.3073 20.7075 9.04747 21.7944 8.39208C22.7986 7.74651 24.0335 7.6074 25.1942 7.71253C25.4248 7.74651 25.5638 7.50394 25.6267 7.31301C25.6904 7.15457 25.5463 7.03464 25.4659 6.91879C24.7591 5.97415 24.4116 4.746 24.5558 3.56256C24.7243 2.31432 25.5311 1.24295 26.5102 0.51869C25.5129 1.93399 24.9003 3.75816 25.3352 5.49579C25.3656 5.64411 25.5682 5.64653 25.6305 5.52041C25.7944 5.22526 25.7671 4.8688 25.7793 4.54118C25.7998 3.61829 26.0685 2.66671 26.6795 1.96722C27.0386 1.58235 27.4135 1.20897 27.8431 0.90597C28.5915 0.368702 29.4956 0.132165 30.3889 0Z" fill="#62AA51"/>
<mask id="mask0_2118_660" style="mask-type:luminance" maskUnits="userSpaceOnUse" x="0" y="8" width="47" height="22">
<path fill-rule="evenodd" clip-rule="evenodd" d="M0 8H47V30H0V8Z" fill="white"/>
</mask>
<g mask="url(#mask0_2118_660)">
<path fill-rule="evenodd" clip-rule="evenodd" d="M26.8289 8C29.1377 8.65208 31.3608 9.68747 33.2726 11.1787C34.228 11.9216 35.1036 12.7722 35.8898 13.7007C37.1433 15.1844 38.1661 16.8513 39.1513 18.5289C39.8627 19.7089 40.3878 20.9955 40.8174 22.3081C41.4461 24.2636 41.8816 26.2843 42.1376 28.326C43.8481 28.5101 45.5438 27.896 47 27.0143C46.4484 27.6581 45.8019 28.2125 45.1002 28.676C43.8466 29.4795 42.3815 29.8945 40.9128 29.9802C38.0026 30.146 35.1762 29.2417 32.4361 28.351C28.6267 27.1802 24.7855 26.0321 20.8304 25.5224C18.1584 25.1535 15.4509 25.8253 13 26.897C13.2351 26.5304 13.571 26.2493 13.9133 25.9927C14.8926 25.2913 15.9982 24.7938 17.1281 24.409C19.369 23.6631 21.7674 23.8296 24.0674 24.1432C25.9969 24.3538 27.8739 24.8763 29.7449 25.3807C32.3762 26.107 34.9897 26.8992 37.5945 27.7186C37.735 25.327 37.5124 22.9132 36.9452 20.5896C36.2891 18.0313 35.0068 15.6728 33.3857 13.6295C31.5583 11.3665 29.33 9.43366 26.8289 8ZM3.37134 27.0688C4.84176 26.8861 6.33176 27.0903 7.76415 27.4103C9.17548 27.7282 10.5427 28.1882 11.9323 28.5765C12.6793 28.7995 13.4509 28.9549 14.2335 29.0177C15.0754 29.0909 15.9547 29.1969 16.7728 28.9341C17.2143 28.8002 17.6003 28.5549 18 28.3416C17.5434 28.9118 16.9007 29.3362 16.2085 29.6235C15.1279 30.0689 13.8907 30.0933 12.754 29.8319C11.1953 29.5001 9.67839 29.0226 8.16294 28.552C6.85105 28.1672 5.51459 27.779 4.12783 27.7484C2.72615 27.7441 1.31335 27.938 0 28.4071C0.930944 27.6361 2.15217 27.2291 3.37134 27.0688Z" fill="#101E8E"/>
</g>
<path fill-rule="evenodd" clip-rule="evenodd" d="M94.5041 8C94.7776 8 95 7.77573 95 7.50005C95 7.22437 94.7776 7 94.5041 7C94.2215 7 94 7.21966 94 7.50005C94 7.78044 94.2215 8 94.5041 8Z" fill="#1D1D1B"/>
<path fill-rule="evenodd" clip-rule="evenodd" d="M124.496 10C124.779 10 125 9.78036 125 9.5C125 9.22435 124.774 9 124.496 9C124.227 9 124 9.22896 124 9.5C124 9.77565 124.222 10 124.496 10Z" fill="#1D1D1B"/>
<path fill-rule="evenodd" clip-rule="evenodd" d="M121.001 11.4744C121.002 11.4882 121.003 11.5025 121.003 11.5176V13.1216C121.003 15.0489 122.205 17 124.501 17C125.572 17 126.478 16.573 127.122 15.7654C127.68 15.065 128 14.1015 128 13.1216V10L126.757 10.2324L126.757 10.8301C126.758 10.8579 126.759 10.8883 126.759 10.9217V13.1216C126.759 14.3434 126.465 16.393 124.501 16.393C122.537 16.393 122.244 14.3434 122.244 13.1216V11.6932C122.244 11.3966 122.125 11.1201 121.908 10.915C121.69 10.7092 121.404 10.6045 121.105 10.6168L121 10.6214V11.4651L121.001 11.4744Z" fill="#1D1D1B"/>
<path fill-rule="evenodd" clip-rule="evenodd" d="M143 17.4959C143 17.7786 143.22 18 143.5 18C143.78 18 144 17.7786 144 17.4959C144 17.2224 143.776 17 143.5 17C143.224 17 143 17.2224 143 17.4959Z" fill="#1D1D1B"/>
<path fill-rule="evenodd" clip-rule="evenodd" d="M135.019 15.0539C135.014 15.046 135.008 15.0361 135 15.0253C135.206 14.6371 135.315 14.251 135.42 13.877L135.443 13.7935L135.47 13.716C135.745 12.7112 135.994 12 136.686 12H136.732C137.608 12.0337 138 13.0952 138 14.1322C138 15.1446 137.369 16 136.622 16C136.449 16 136.286 15.9683 136.134 15.9142C135.676 15.7515 135.306 15.3847 135.019 15.0539ZM131.931 15.5052H132.887C133.437 15.5052 133.833 15.3728 134.165 15.0768C134.588 15.5604 135.129 16 136.171 16C137.201 16 138.045 15.5716 138.497 14.8224C138.938 15.3005 139.441 15.5052 140.167 15.5052H152.103C152.7 15.5052 153.2 15.3671 153.628 15.0862C153.749 15.0314 153.85 14.9808 153.944 14.9268L154 14.8949V14.6293L153.904 14.6347L153.565 14.4178L153.497 14.4741C153.375 14.5751 153.237 14.6579 153.086 14.7206C153.069 14.7197 153.052 14.7173 153.035 14.7132L152.996 14.7036L152.959 14.7186C152.844 14.7657 152.725 14.8038 152.606 14.8316C152.567 14.8407 152.526 14.8485 152.488 14.8552C152.428 14.8591 152.375 14.8611 152.324 14.8611C151.292 14.8611 150.7 14.0537 150.7 12.6458C150.7 11.298 151.221 10.6146 152.25 10.6146C152.453 10.6146 152.67 10.6582 152.872 10.7383L153.019 10.8214C153.268 11.0199 153.441 11.3237 153.533 11.724L153.553 11.8102H153.921V11.701C153.921 11.4549 153.909 11.2451 153.884 11.0776C153.858 10.8954 153.795 10.7447 153.696 10.6292C153.531 10.4416 153.271 10.2868 152.923 10.1693C152.582 10.0542 152.174 9.99577 151.71 9.99577C151.199 9.99577 150.743 10.1139 150.354 10.347C149.966 10.5796 149.663 10.9004 149.455 11.3004C149.247 11.6969 149.142 12.144 149.142 12.6289C149.142 13.1344 149.263 13.605 149.5 14.0273C149.625 14.2511 149.785 14.4571 149.973 14.6385C150.049 14.7168 150.129 14.7914 150.215 14.8611H147.174C147.187 14.7146 147.195 14.5657 147.195 14.4181C147.195 13.6781 147.034 12.9963 146.718 12.3916C146.401 11.7836 145.941 11.296 145.351 10.9425C144.761 10.5887 144.068 10.4091 143.291 10.4091C142.581 10.4091 141.957 10.4982 141.438 10.6739C140.912 10.8517 140.518 11.0852 140.269 11.3679C140.126 11.536 140.033 11.7585 139.994 12.0292C139.957 12.2851 139.938 12.6065 139.938 12.9844V13.0936H140.392L140.412 13.0075C140.561 12.3624 140.843 11.8756 141.252 11.5606C141.66 11.246 142.223 11.0864 142.925 11.0864C143.555 11.0864 144.085 11.2426 144.502 11.5504C144.923 11.8617 145.237 12.2721 145.436 12.7704C145.638 13.2758 145.74 13.8302 145.74 14.4181C145.74 14.5686 145.736 14.7138 145.728 14.8611H139.922C139.407 14.8611 139.033 14.3848 138.853 13.9358C138.875 13.8113 138.886 13.6755 138.886 13.5318C138.886 12.4536 138.053 10.9599 136.49 10.9599C134.583 10.9599 134.26 12.1344 133.975 13.171C133.831 13.6901 133.634 14.4008 133.29 14.7136C133.177 14.802 133.013 14.8355 132.903 14.8577L132.013 14.8614C131.548 14.8302 131.312 14.5415 131.312 14.0036V9.08039C131.312 8.78287 131.186 8.50563 130.957 8.29986C130.728 8.09452 130.428 7.98802 130.111 8.00107L130 8.00575L130.001 13.9575C130.001 14.9845 130.65 15.5052 131.931 15.5052Z" fill="#1D1D1B"/>
<path fill-rule="evenodd" clip-rule="evenodd" d="M108.717 12.7788C108.835 13.1122 108.916 13.466 108.96 13.8361C108.987 14.0583 109 14.2861 109 14.519C109 14.6788 108.996 14.8405 108.988 15H104.001L104 13.1806C104.137 12.3577 104.518 11.7732 104.829 11.5009C105.208 11.1685 105.731 11 106.384 11C106.969 11 107.462 11.1649 107.849 11.4903C107.947 11.5723 108.039 11.661 108.124 11.7561C108.38 12.0413 108.579 12.3839 108.717 12.7788ZM118 9.04358C118 8.73947 117.867 8.45375 117.635 8.25963C117.403 8.0658 117.1 7.98675 116.803 8.04339L116.711 8.06117L116.711 8.66012C116.714 8.69688 116.714 8.74231 116.714 8.79028V14.0895C116.714 14.7954 116.441 15.1386 115.879 15.1386H115.374C114.615 15.1386 114.13 14.1007 114.13 13.3861V9.00443C114.13 8.70405 113.999 8.42192 113.77 8.23049C113.54 8.0392 113.241 7.9618 112.949 8.01784L112.856 8.03577V8.66789C112.857 8.68358 112.857 8.70002 112.857 8.7175V14.126C112.857 14.8073 112.599 15.1386 112.07 15.1386H110.872C110.886 14.9808 110.893 14.8195 110.893 14.6587C110.893 13.8789 110.736 13.1604 110.426 12.5234C110.115 11.8825 109.664 11.3687 109.086 10.9963C108.507 10.6234 107.827 10.4344 107.066 10.4344C106.37 10.4344 105.758 10.5281 105.249 10.7131C104.792 10.8791 104.437 11.0909 104.193 11.3436V11.0414L102.918 11.2753L102.918 11.8759C102.919 11.9032 102.919 11.9334 102.919 11.9673V14.0895C102.919 14.2703 102.9 14.432 102.862 14.5699C102.755 14.9525 102.505 15.1386 102.096 15.1386H100.428C100.527 14.4976 100.54 13.8283 100.54 13.3135V11.3812C100.54 11.0776 100.407 10.7923 100.175 10.5985C99.9438 10.4047 99.6415 10.3256 99.3456 10.3818L99.2527 10.3994V11.0534C99.2538 11.0809 99.2541 11.1103 99.2541 11.1427L99.2542 14.2179C99.1806 15.9645 98.7166 17.1603 96.6347 17.7253L96 17.8976L96.655 17.9511C97.0519 17.9836 97.3462 18 97.5295 18C99.0217 18 99.9279 17.286 100.299 15.8173H112.286C113.158 15.8173 113.778 15.5289 114.084 14.9824C114.49 15.5214 115.019 15.8173 115.579 15.8173H116.131C117.266 15.8173 118 15.1534 118 14.126V9.04358Z" fill="#1D1D1B"/>
<path fill-rule="evenodd" clip-rule="evenodd" d="M93.658 11.299C93.8511 11.1218 94.092 11.0213 94.3747 11C94.3951 10.9999 94.5936 11.0011 94.7626 11.0783C94.7633 11.0785 94.7638 11.0788 94.7645 11.0791C94.7764 11.0845 94.7881 11.0907 94.7997 11.0969C94.803 11.0988 94.8065 11.1005 94.8098 11.1024C94.8192 11.1078 94.8283 11.1138 94.8373 11.1199C94.8418 11.1228 94.8465 11.1255 94.8507 11.1286C94.8595 11.1348 94.8676 11.1416 94.8759 11.1484C94.8799 11.1517 94.8841 11.1548 94.888 11.1582C94.8997 11.1687 94.9108 11.1798 94.9211 11.1917C94.9742 11.253 95 11.3277 95 11.42V13.2188C95 14.173 94.5247 14.9887 93.9645 15C93.5393 14.9738 93.0565 14.4024 93.0113 13.5921C93.0171 13.575 93.0186 13.5598 93.019 13.5505C93.0191 13.5404 93.0181 13.5161 93.0066 13.4909C93.0021 13.3895 93 13.2943 93 13.2C93 12.8085 93.0548 12.4394 93.1628 12.1032C93.2685 11.7744 93.4351 11.5037 93.658 11.299ZM97 14.3647V11.5862L96.9991 11.5702L96.9989 11.5699C96.9962 11.3695 96.9848 11.1967 96.9649 11.0561C96.9398 10.8783 96.8795 10.7309 96.7855 10.6176C96.6276 10.4346 96.3798 10.2836 96.049 10.169C95.775 10.0741 95.4459 10.0192 95.0714 10.0058L95.0213 10.0036C94.9801 10.0019 94.9388 10 94.8957 10C94.4102 10 93.9765 10.1151 93.6066 10.3423C93.3593 10.4941 93.1463 10.6874 92.9763 10.9132C92.5082 11.3978 92.2709 12.062 92.2709 12.8874C92.2709 14.0308 93.3212 14.8276 94.2636 14.8276C94.8668 14.8276 95.3752 14.5838 95.7083 14.1381V14.3294C95.7083 14.7922 95.5718 15.3438 94.9218 15.3438L91.0053 15.3441C90.5413 15.3121 90.296 15.0099 90.296 14.4701V12.4353C90.296 12.1345 90.1715 11.8542 89.9456 11.6462C89.7191 11.4378 89.4213 11.3311 89.1106 11.3442L89 11.349L89.0002 12.2043L89.0009 12.2157C89.0029 12.2317 89.0042 12.2482 89.0042 12.2661V14.4232C89.0042 15.4695 89.6501 16 90.9239 16H95.2266C96.3536 16 97 15.4039 97 14.3647Z" fill="#1D1D1B"/>
<path fill-rule="evenodd" clip-rule="evenodd" d="M58 17.5042C58 17.2167 57.7851 17 57.5001 17C57.2102 17 57 17.212 57 17.5042C57 17.7822 57.2196 18 57.5001 18C57.7757 18 58 17.7775 58 17.5042Z" fill="#1D1D1B"/>
<path fill-rule="evenodd" clip-rule="evenodd" d="M57 17.5042C57 17.2167 56.7869 17 56.5042 17C56.2074 17 56 17.2073 56 17.5042C56 17.7869 56.2168 18 56.5042 18C56.7821 18 57 17.7822 57 17.5042Z" fill="#1D1D1B"/>
<path fill-rule="evenodd" clip-rule="evenodd" d="M73 13.3808C73.0927 12.5175 73.4694 11.8769 73.7891 11.5599C73.8105 11.5386 73.8316 11.519 73.8522 11.5007C74.2296 11.1684 74.7498 11 75.3983 11C75.4841 11 75.5729 11.0046 75.6774 11.0148C75.9081 11.0373 76.1246 11.0891 76.3208 11.169C76.5189 11.2496 76.6989 11.3577 76.8558 11.4901C77.2445 11.8188 77.5349 12.2522 77.719 12.7786C77.9055 13.3123 78 13.8978 78 14.519C78 14.6788 77.996 14.8403 77.9881 15H73.0001L73 13.3808ZM82.6336 8.2403C82.4006 8.04101 82.0965 7.96031 81.7997 8.01845L81.7064 8.03671L81.7067 8.66544C81.709 8.70119 81.7091 8.74062 81.7091 8.78557V14.226C81.7091 14.9507 81.4349 15.3032 80.8704 15.3032H79.9874C80.0017 15.141 80.009 14.9756 80.009 14.8105C80.009 14.0099 79.8512 13.2723 79.5403 12.6181C79.2277 11.9602 78.7748 11.4327 78.1941 11.0503C77.6128 10.6675 76.9306 10.4734 76.1663 10.4734C75.4666 10.4734 74.8528 10.5697 74.3415 10.7597C73.8636 10.9372 73.4972 11.1656 73.2504 11.4399V11.0966L71.9702 11.3367L71.9703 11.9533C71.9715 11.9814 71.9717 12.0124 71.9717 12.0474V14.226C71.9717 14.4118 71.9522 14.5776 71.914 14.7192C71.8074 15.1121 71.5559 15.3032 71.145 15.3032H69.8345C69.8488 15.141 69.8559 14.9756 69.8559 14.8105C69.8559 14.0099 69.6983 13.2723 69.3872 12.6181C69.0747 11.9602 68.6217 11.4327 68.0412 11.0503C67.4599 10.6675 66.7775 10.4734 66.0132 10.4734C65.3137 10.4734 64.6997 10.5697 64.1885 10.7597C63.6701 10.9522 63.283 11.2046 63.0374 11.5105C62.8965 11.6923 62.8054 11.9331 62.7667 12.2259C62.7301 12.5029 62.7116 12.8505 62.7116 13.2594V13.3775H63.159L63.1785 13.2844C63.3247 12.5863 63.6029 12.0598 64.0053 11.719C64.4072 11.3786 64.9614 11.2061 65.6524 11.2061C66.2725 11.2061 66.7949 11.3749 67.2052 11.7081C67.6195 12.0447 67.9289 12.4888 68.1249 13.0279C68.3236 13.5748 68.4244 14.1746 68.4244 14.8105C68.4244 14.9738 68.4201 15.1393 68.4117 15.3032L62.6464 15.3033C61.9399 15.2553 61.6284 14.4645 61.3255 13.6957C61.2702 13.5555 61.218 13.4231 61.164 13.2971C61.0166 12.9277 60.8596 12.5561 60.7212 12.2284C60.6268 12.0055 60.5378 11.7948 60.476 11.6406C59.9353 10.3072 59.3323 10.1988 58.6569 10.1988H58.2347C57.7248 10.1988 57.4323 10.5004 57.4323 11.0265C57.4323 11.6411 57.8179 12.5242 58.2649 13.5477C58.5125 14.1147 58.7683 14.7005 58.9875 15.3032L55.9983 15.3033C55.5325 15.2699 55.2962 14.9576 55.2962 14.3754V12.2282C55.2962 11.9051 55.1718 11.6041 54.9454 11.3807C54.7188 11.157 54.4204 11.0424 54.1096 11.0562L54 11.0613L54.0001 11.9608L54.0012 11.9745C54.004 11.9961 54.0055 12.0153 54.0055 12.0349V14.3255C54.0055 15.4366 54.6489 16 55.9178 16H60.5649L60.1511 14.9535C59.4394 13.1541 59.1729 12.4808 59.0141 12.1093C58.9506 11.9688 58.9152 11.8723 58.8736 11.7578L58.8212 11.6142C58.7643 11.4558 58.6783 11.2164 58.7243 11.0148C58.743 10.9324 58.812 10.879 58.8929 10.8839C59.1466 10.8968 59.3406 11.086 59.8215 12.1748C59.855 12.244 59.8887 12.3217 59.9287 12.4134C59.9577 12.4805 59.9894 12.5532 60.0238 12.6291C60.1051 12.8249 60.2031 13.0509 60.3178 13.3159C60.509 13.7573 60.7256 14.2576 60.9529 14.82C61.2807 15.614 61.9072 16 62.8681 16H81.1238C82.2636 16 83 15.3183 83 14.2634V9.0444C83 8.73233 82.8665 8.43929 82.6336 8.2403Z" fill="#1D1D1B"/>
<path fill-rule="evenodd" clip-rule="evenodd" d="M84.0007 16H84.021H84.1982H85V9.04842C85 8.74351 84.9001 8.45546 84.726 8.25785C84.578 8.08968 84.39 8.00307 84.1982 8.01012V8L84.0906 8.02269C84.0844 8.02361 84.0784 8.02453 84.0722 8.02606L84.0523 8.03112L84.021 8.03771V8.03894L84 8.0443V8.72051C84.0005 8.74274 84.0007 8.76604 84.0007 8.79134V16Z" fill="#1D1D1B"/>
<mask id="mask1_2118_660" style="mask-type:luminance" maskUnits="userSpaceOnUse" x="61" y="20" width="2" height="10">
<path fill-rule="evenodd" clip-rule="evenodd" d="M61 20H63V30H61V20Z" fill="white"/>
</mask>
<g mask="url(#mask1_2118_660)">
<path fill-rule="evenodd" clip-rule="evenodd" d="M61.9926 27.2839C61.9926 27.6405 61.9741 27.9672 61.9373 28.2547C61.8968 28.5724 61.8338 28.8432 61.7501 29.0597C61.5909 29.4711 61.3565 29.6712 61.0334 29.6712H61V30H61.0334C61.5378 30 61.9371 29.9062 62.2199 29.7212C62.5047 29.5343 62.7085 29.2402 62.8255 28.8469C62.8746 28.6827 62.9141 28.4875 62.943 28.2668C62.9808 27.9791 63 27.6484 63 27.2839V20H61.9926V27.2839Z" fill="#1D1D1B"/>
</g>
<path fill-rule="evenodd" clip-rule="evenodd" d="M128 21.5054C128 21.8404 127.888 22.123 127.667 22.3453C127.445 22.5692 127.169 22.736 126.846 22.841C126.522 22.9465 126.211 23 125.923 23H125V20.1002C125.341 20.0337 125.651 20 125.923 20C126.211 20 126.519 20.0552 126.839 20.1642C127.157 20.2728 127.434 20.4414 127.661 20.6657C127.886 20.8883 128 21.1708 128 21.5054ZM129.175 27.241C128.947 27.0515 128.685 26.7105 128.397 26.2278L127.18 24.2021C127.706 24.0739 128.15 23.8585 128.501 23.5617C128.867 23.2521 129.053 22.7788 129.053 22.1549C129.053 21.3228 128.735 20.7483 128.108 20.4472C127.49 20.1504 126.8 20 126.056 20H124L124 21.2639C124.004 21.3329 124.005 21.396 124.005 21.457V27.8816H125.147V24.2743H125.916L127.088 26.2663C127.468 26.914 127.819 27.3692 128.133 27.6191C128.274 27.7317 128.431 27.821 128.598 27.8847C128.799 27.9612 129.015 28 129.24 28C129.383 28 129.525 27.9879 129.661 27.964C129.787 27.9416 129.889 27.9148 129.967 27.8827L130 27.8685V27.5732L129.966 27.5696C129.667 27.5391 129.401 27.4285 129.175 27.241Z" fill="#1D1D1B"/>
<path fill-rule="evenodd" clip-rule="evenodd" d="M87.7863 25.0655L84.2777 20.734C84.2534 20.7051 84.2287 20.6771 84.2036 20.6498C84.0172 20.4479 83.8059 20.2909 83.5755 20.1837C83.4263 20.1141 83.2476 20.0634 83.0445 20.0328L83 20.0261L83.0006 28H84.2137V22.5742L87.7956 27.001L88.5438 27.8712L88.648 28H89V20H87.7863V25.0655Z" fill="#1D1D1B"/>
<path fill-rule="evenodd" clip-rule="evenodd" d="M78 25H76L77.0001 22L78 25ZM80.4479 26.5993C80.4212 26.5391 80.3942 26.477 80.3673 26.4114L77.8629 20.0238L77.8536 20L77.8291 20.0001C77.829 20.0001 77.7055 20.001 77.5001 20.001C77.2947 20.001 77.1706 20.0001 77.1704 20.0001L77.146 20L74.6331 26.4109C74.6058 26.477 74.579 26.5391 74.5515 26.6007L74 28L74.0598 27.9942C74.3655 27.9644 74.6708 27.8604 74.9672 27.6855C75.3284 27.4727 75.6197 27.0533 75.8329 26.4394L76.1072 25.6935H78.8929L79.1669 26.4388C79.3803 27.0533 79.6716 27.4727 80.0326 27.6855C80.3292 27.8604 80.6345 27.9644 80.9401 27.9942L81 28L80.4486 26.6007L80.4479 26.5993Z" fill="#1D1D1B"/>
<path fill-rule="evenodd" clip-rule="evenodd" d="M105.476 26.0796C105.293 26.5258 105.047 26.8443 104.744 27.026C104.439 27.2096 104.004 27.3026 103.452 27.3026H101.373V24.2309H104.767V23.5333H101.373V20.6973H103.59C104.566 20.6973 105.04 21.1034 105.04 21.9386V22.0518H105.533V21.0553C105.533 20.3649 105.122 20 104.344 20H100V28H104.457C104.989 28 105.345 27.7769 105.513 27.337L106 26.0996L105.514 25.986L105.476 26.0796Z" fill="#1D1D1B"/>
<path fill-rule="evenodd" clip-rule="evenodd" d="M68.9777 25.9044L66.2035 20.0007H65L65.0001 28L65.0523 27.9806C65.1333 27.9504 65.2003 27.9207 65.2571 27.8901C65.3866 27.8199 65.5045 27.7302 65.6071 27.623C65.7507 27.4734 65.8621 27.2904 65.9385 27.0788C66.0715 26.7095 66.1343 26.4698 66.1343 25.8679V22.5633L68.6152 27.8574L69.3405 27.8567L71.8426 22.5171V25.816C71.8426 26.4567 71.9183 26.7124 72.0429 27.0573C72.121 27.2733 72.2347 27.4602 72.3807 27.6127C72.4854 27.7219 72.6059 27.8137 72.739 27.8857C72.7978 27.9173 72.8661 27.9476 72.9477 27.9784L73 27.9979V20.0007L71.7523 20L68.9777 25.9044Z" fill="#1D1D1B"/>
<path fill-rule="evenodd" clip-rule="evenodd" d="M58 25H56L57.0001 22L58 25ZM60.4479 26.5993C60.4212 26.5391 60.3942 26.477 60.3672 26.4114L57.8629 20.0238L57.8536 20L57.8291 20.0001C57.829 20.0001 57.7055 20.001 57.5001 20.001C57.2945 20.001 57.1706 20.0001 57.1704 20.0001L57.146 20L54.6331 26.4107C54.6058 26.477 54.5788 26.5391 54.5515 26.6007L54 28L54.0599 27.9942C54.3655 27.9644 54.6708 27.8604 54.9672 27.6855C55.3284 27.4727 55.6197 27.0533 55.8329 26.4394L56.1072 25.6935H58.8928L59.1669 26.4388C59.3803 27.0533 59.6716 27.4727 60.0326 27.6855C60.3292 27.8604 60.6345 27.9644 60.9402 27.9942L61 28L60.4485 26.6007L60.4479 26.5993Z" fill="#1D1D1B"/>
<path fill-rule="evenodd" clip-rule="evenodd" d="M145.462 24.7057C145.157 24.8551 144.953 25.0504 144.858 25.2861C144.767 25.5087 144.721 25.7734 144.721 26.0729V27.8682C144.501 27.9889 144.264 28.0837 144.019 28.1501C143.752 28.2224 143.423 28.2591 143.041 28.2591C142.246 28.2591 141.597 27.955 141.113 27.3552C140.625 26.7511 140.378 25.7483 140.378 24.3749C140.378 23.7338 140.475 23.1291 140.665 22.5776C140.854 22.034 141.151 21.5864 141.549 21.2472C141.943 20.9113 142.445 20.7411 143.041 20.7411C143.704 20.7411 144.237 20.9151 144.623 21.258C145.009 21.6015 145.277 22.1324 145.417 22.836L145.436 22.931H145.868V22.8107C145.868 22.3982 145.85 22.0476 145.815 21.7683C145.777 21.4728 145.69 21.2295 145.553 21.0445C145.318 20.7374 144.946 20.483 144.448 20.2887C144.419 20.2773 144.389 20.2669 144.359 20.2566L144.334 20.2478C143.864 20.0834 143.313 20 142.694 20C142.217 20 141.769 20.084 141.362 20.2497C141.142 20.3393 140.934 20.4511 140.745 20.582C140.186 20.9678 139.751 21.4998 139.451 22.1635C139.152 22.8232 139 23.5673 139 24.3749C139 25.2167 139.174 25.9997 139.516 26.7022C139.859 27.4065 140.342 27.9714 140.954 28.3813C141.174 28.5294 141.411 28.6529 141.656 28.7486C142.083 28.9154 142.549 29 143.041 29C143.61 29 144.132 28.9357 144.594 28.8086C144.658 28.7909 144.722 28.7714 144.786 28.7506C145.181 28.6223 145.566 28.435 145.93 28.1941L145.983 28.159V26.0478C145.983 25.9336 145.989 25.8232 146 25.7152L146 24.5398L145.866 24.5696C145.712 24.6042 145.576 24.6499 145.462 24.7057Z" fill="#1D1D1B"/>
<path fill-rule="evenodd" clip-rule="evenodd" d="M96.5863 23.8794L95.2357 23.062C94.8069 22.7995 94.4984 22.5684 94.3191 22.3748C94.1501 22.1921 94.0678 21.967 94.0678 21.6869C94.0678 21.3824 94.1806 21.1424 94.4127 20.9533C94.6487 20.7608 94.9257 20.6631 95.2364 20.6631C95.8359 20.6631 96.3052 20.8175 96.6314 21.1223C96.9598 21.4289 97.1871 21.9492 97.3072 22.6683L97.3221 22.7579H97.7144V21.4517C97.7144 21.151 97.5817 20.8842 97.32 20.6582C97.0951 20.4643 96.8117 20.3099 96.4775 20.1993L96.4631 20.1946C96.4342 20.1851 96.405 20.1754 96.375 20.1666C96.0008 20.056 95.6177 20 95.2364 20C94.8377 20 94.4782 20.0681 94.1682 20.2027C93.9661 20.2902 93.783 20.4062 93.6239 20.5472C93.2098 20.9141 93 21.4068 93 22.0118C93 22.4501 93.104 22.8285 93.3093 23.1364C93.511 23.4392 93.8568 23.7402 94.3368 24.031L95.6883 24.8489C96.1003 25.0953 96.4015 25.3324 96.5835 25.5532C96.7566 25.764 96.8443 26.0158 96.8443 26.3017C96.8443 26.6259 96.7208 26.8719 96.4664 27.0539C96.2039 27.2416 95.8825 27.3368 95.511 27.3368C94.9112 27.3368 94.4361 27.1784 94.0991 26.8663C93.7599 26.5522 93.5271 26.0283 93.4073 25.3092L93.3924 25.2197H93V26.5258C93 26.827 93.1365 27.0959 93.4058 27.3253C93.6483 27.532 93.9619 27.6952 94.3379 27.8102L94.3573 27.8163C94.3698 27.8202 94.3821 27.8242 94.3949 27.8279C94.7903 27.9421 95.1992 28 95.6098 28C96.0225 28 96.3927 27.9351 96.7101 27.8074C96.9508 27.7105 97.1661 27.5756 97.3502 27.4067C97.7814 27.0101 98 26.4763 98 25.8202C98 25.394 97.8888 25.0361 97.6694 24.756C97.4576 24.4861 97.0933 24.1913 96.5863 23.8794Z" fill="#1D1D1B"/>
<path fill-rule="evenodd" clip-rule="evenodd" d="M116.525 20.0996C116.434 20.1277 116.344 20.1617 116.256 20.2007C116.197 20.227 116.145 20.2522 116.097 20.2779C115.727 20.4763 115.427 20.884 115.204 21.4898L113.909 25.0534L112.613 21.4896C112.456 21.0622 112.259 20.7314 112.028 20.5065L112 20.4792L111.972 20.5065C111.741 20.7314 111.544 21.0622 111.387 21.4898L110.091 25.0534L108.796 21.4896C108.573 20.884 108.273 20.4763 107.903 20.2777C107.855 20.2522 107.803 20.227 107.744 20.2007C107.656 20.1617 107.566 20.1277 107.475 20.0996C107.341 20.0585 107.203 20.028 107.064 20.0087L107 20L107.485 21.3218C107.51 21.383 107.535 21.4466 107.559 21.5144L109.855 27.7618L109.931 27.9748L109.942 28H110.243L110.322 27.7786L112 23.2208L113.678 27.7783L113.748 27.9748L113.759 28H114.06L114.145 27.7621L116.441 21.5143C116.465 21.4466 116.49 21.383 116.515 21.3207L117 20L116.936 20.0087C116.797 20.028 116.659 20.0585 116.525 20.0996Z" fill="#1D1D1B"/>
<path fill-rule="evenodd" clip-rule="evenodd" d="M123.476 26.0796C123.293 26.5258 123.047 26.8443 122.744 27.026C122.439 27.2096 122.004 27.3026 121.452 27.3026H119.373V24.2309H122.767V23.5333H119.373V20.6973H121.59C122.566 20.6973 123.04 21.1034 123.04 21.9386V22.0518H123.533V21.0553C123.533 20.3649 123.122 20 122.344 20H118V28H122.457C122.989 28 123.345 27.7769 123.513 27.337L124 26.0996L123.514 25.986L123.476 26.0796Z" fill="#1D1D1B"/>
<mask id="mask2_2118_660" style="mask-type:luminance" maskUnits="userSpaceOnUse" x="148" y="20" width="6" height="8">
<path fill-rule="evenodd" clip-rule="evenodd" d="M148 20H154V28H148V20Z" fill="white"/>
</mask>
<g mask="url(#mask2_2118_660)">
<path fill-rule="evenodd" clip-rule="evenodd" d="M153.514 25.9861L153.476 26.0796C153.293 26.5258 153.047 26.8443 152.744 27.026C152.439 27.2096 152.004 27.3026 151.452 27.3026H149.373V24.2309H152.767V23.5333H149.373V20.6974H151.59C152.566 20.6974 153.041 21.1034 153.041 21.9388V22.052H153.534V21.0553C153.534 20.3649 153.122 20 152.344 20H148V28H152.457C152.989 28 153.345 27.7769 153.513 27.337L154 26.0997L153.514 25.9861Z" fill="#1D1D1B"/>
</g>
<path fill-rule="evenodd" clip-rule="evenodd" d="M135 25H133L134 22L135 25ZM137.448 26.5993C137.421 26.5391 137.394 26.477 137.367 26.4114L134.863 20.0238L134.854 20L134.829 20.0001C134.829 20.0001 134.705 20.001 134.5 20.001C134.295 20.001 134.171 20.0001 134.17 20.0001L134.146 20L131.633 26.4107C131.606 26.477 131.579 26.5391 131.552 26.6007L131 28L131.06 27.9942C131.366 27.9644 131.671 27.8604 131.967 27.6855C132.328 27.4727 132.62 27.0533 132.833 26.4394L133.107 25.6935H135.893L136.167 26.4388C136.38 27.0533 136.672 27.4727 137.033 27.6855C137.329 27.8604 137.634 27.9644 137.94 27.9942L138 28L137.448 26.6007L137.448 26.5993Z" fill="#1D1D1B"/>
</svg>
