<svg width="20" height="24" viewBox="0 0 20 24" fill="none" xmlns="http://www.w3.org/2000/svg">
<path fill-rule="evenodd" clip-rule="evenodd" d="M8.09524 1.92C8.09524 0.864375 8.95275 0 10 0C11.0472 0 11.9048 0.864375 11.9048 1.92C11.9048 2.1675 11.8564 2.4075 11.7708 2.625C14.4457 3.33 16.1905 5.67375 16.1905 8.64C16.1905 12.3994 17.1057 14.1112 17.9762 15.075C18.3563 15.4958 18.7321 15.7722 19.0678 16.019L19.0678 16.019C19.1165 16.0548 19.1644 16.0901 19.2113 16.125C19.3973 16.2619 19.5666 16.3988 19.7173 16.575C19.8679 16.7512 20 17.0025 20 17.28C20 17.94 19.5982 18.5006 19.0327 18.87C18.4673 19.2394 17.7251 19.4775 16.8304 19.665C15.6696 19.9069 14.2374 20.0344 12.6637 20.1C12.7846 20.4169 12.8571 20.76 12.8571 21.12C12.8571 22.7044 11.5718 24 10 24C8.4282 24 7.14286 22.7044 7.14286 21.12C7.14286 20.7619 7.21726 20.4188 7.33631 20.1C5.76265 20.0344 4.33036 19.9069 3.16964 19.665C2.27493 19.4775 1.53274 19.2394 0.967262 18.87C0.401786 18.5006 0 17.94 0 17.28C0 17.0025 0.132069 16.7512 0.282738 16.575C0.433408 16.3988 0.602679 16.2619 0.788691 16.125C0.835617 16.0901 0.8835 16.0548 0.932229 16.019C1.26789 15.7722 1.64372 15.4958 2.02381 15.075C2.89435 14.1112 3.80952 12.3994 3.80952 8.64C3.80952 5.67188 5.5506 3.32625 8.22917 2.625C8.1436 2.4075 8.09524 2.1675 8.09524 1.92ZM10.9524 1.9201C10.9524 1.38385 10.532 0.9601 9.99999 0.9601C9.46799 0.9601 9.04761 1.38385 9.04761 1.9201C9.04761 2.45635 9.46799 2.8801 9.99999 2.8801C10.532 2.8801 10.9524 2.45635 10.9524 1.9201ZM11.1161 3.44992C13.6551 3.90554 15.2381 5.88367 15.2381 8.63992C15.2381 12.5605 16.2277 14.5743 17.2619 15.7199C17.7209 16.2275 18.1843 16.5667 18.5233 16.8149L18.5235 16.815C18.5663 16.8464 18.6072 16.8763 18.6458 16.9049C18.8169 17.0324 18.9453 17.1393 19.003 17.2049C19.051 17.2596 19.05 17.2648 19.0483 17.2737C19.048 17.2755 19.0476 17.2774 19.0476 17.2799C19.0476 17.5799 18.91 17.7993 18.5119 18.0599C18.1138 18.3205 17.4665 18.5624 16.6369 18.7349C14.9777 19.0818 12.6153 19.1999 9.99998 19.1999C7.38465 19.1999 5.0223 19.0818 3.36308 18.7349C2.53346 18.5624 1.88614 18.3205 1.48808 18.0599C1.09001 17.7993 0.952362 17.5799 0.952362 17.2799C0.952362 17.2774 0.951998 17.2755 0.951661 17.2737C0.949984 17.2648 0.948994 17.2596 0.997005 17.2049C1.05467 17.1393 1.18302 17.0324 1.35415 16.9049C1.39276 16.8763 1.43361 16.8464 1.47646 16.815L1.47671 16.8149C1.81571 16.5667 2.27909 16.2275 2.73808 15.7199C3.7723 14.5743 4.76189 12.5605 4.76189 8.63992C4.76189 5.88554 6.34671 3.92242 8.88391 3.46492C9.20013 3.69929 9.58146 3.83992 9.99998 3.83992C10.4222 3.83992 10.7998 3.68804 11.1161 3.44992ZM8.80583 20.1403C8.65745 20.1366 8.50993 20.133 8.36311 20.1299C8.19012 20.4186 8.09525 20.7561 8.09525 21.1199C8.09525 22.1868 8.9416 23.0399 10 23.0399C11.0584 23.0399 11.9048 22.1868 11.9048 21.1199C11.9048 20.7599 11.8062 20.4186 11.6369 20.1299C11.4901 20.133 11.3426 20.1366 11.1942 20.1403C10.803 20.15 10.4059 20.1599 10 20.1599C9.5941 20.1599 9.19698 20.15 8.80583 20.1403Z" fill="#101E8E"/>
</svg>
