<svg width="26" height="40" viewBox="0 0 26 40" fill="none" xmlns="http://www.w3.org/2000/svg">
<path d="M13 0.800003C11.2406 0.800003 9.79995 2.24063 9.79995 4V4.8H2.59995C1.28433 4.8 0.199951 5.88438 0.199951 7.2V36.8C0.199951 38.1156 1.28433 39.2 2.59995 39.2H23.4C24.7156 39.2 25.8 38.1156 25.8 36.8V7.2C25.8 5.88438 24.7156 4.8 23.4 4.8H16.2V4C16.2 2.24063 14.7593 0.800003 13 0.800003ZM13 2.4C13.8937 2.4 14.6 3.10625 14.6 4V5.46563C14.5843 5.55313 14.5843 5.64063 14.6 5.725V7.2H11.4V5.73438C11.4156 5.64688 11.4156 5.55938 11.4 5.475V4C11.4 3.10625 12.1062 2.4 13 2.4ZM13 3.2C12.5593 3.2 12.2 3.55938 12.2 4C12.2 4.44063 12.5593 4.8 13 4.8C13.4406 4.8 13.8 4.44063 13.8 4C13.8 3.55938 13.4406 3.2 13 3.2ZM2.59995 6.4H9.79995V8C9.79995 8.44063 10.1593 8.8 10.6 8.8H15.4C15.8406 8.8 16.2 8.44063 16.2 8V6.4H23.4C23.8531 6.4 24.2 6.74688 24.2 7.2V36.8C24.2 37.2531 23.8531 37.6 23.4 37.6H2.59995C2.14683 37.6 1.79995 37.2531 1.79995 36.8V7.2C1.79995 6.74688 2.14683 6.4 2.59995 6.4ZM10.5843 16.7906C10.375 16.7969 10.1781 16.8844 10.0343 17.0344L4.43433 22.6344C4.12183 22.9469 4.12183 23.4531 4.43433 23.7656L10.0343 29.3656C10.2343 29.575 10.5343 29.6594 10.8125 29.5844C11.0937 29.5125 11.3125 29.2938 11.3843 29.0125C11.4593 28.7344 11.375 28.4344 11.1656 28.2344L6.9312 24H21C21.2875 24.0031 21.5562 23.8531 21.7031 23.6031C21.8468 23.3531 21.8468 23.0469 21.7031 22.7969C21.5562 22.5469 21.2875 22.3969 21 22.4H6.9312L11.1656 18.1656C11.4031 17.9344 11.4718 17.5844 11.3437 17.2813C11.2156 16.975 10.9156 16.7813 10.5843 16.7906Z" fill="#62AA51"/>
</svg>
