<svg width="34" height="34" viewBox="0 0 34 34" fill="none" xmlns="http://www.w3.org/2000/svg">
<path d="M4.85005 0.200012C4.68755 0.228137 4.54067 0.309387 4.42505 0.425012L1.35005 3.52501C1.3063 3.55314 1.26255 3.58751 1.22505 3.62501C1.2063 3.64064 1.19067 3.65626 1.17505 3.67501C1.1563 3.70001 1.14067 3.72501 1.12505 3.75001C1.0938 3.79689 1.0688 3.84689 1.05005 3.90001C1.02192 3.97189 1.0063 4.04689 1.00005 4.12501C0.993799 4.18439 0.993799 4.24064 1.00005 4.30001C1.00005 4.32501 1.00005 4.35001 1.00005 4.37501V33C1.00005 33.4406 1.35942 33.8 1.80005 33.8H32.2C32.6407 33.8 33 33.4406 33 33V4.32501C33.0032 4.28439 33.0032 4.24064 33 4.20001C33 4.19064 33 4.18439 33 4.17501C33 4.15939 33 4.14064 33 4.12501C33 4.10939 33 4.09064 33 4.07501C32.9938 4.04064 32.9844 4.00626 32.975 3.97501C32.9625 3.93126 32.9438 3.89064 32.925 3.85001C32.9157 3.84064 32.9094 3.83439 32.9 3.82501C32.8719 3.77189 32.8375 3.72189 32.8 3.67501C32.8 3.66564 32.8 3.65939 32.8 3.65001C32.7907 3.64064 32.7844 3.63439 32.775 3.62501H32.75C32.7344 3.60626 32.7188 3.59064 32.7 3.57501L29.575 0.425012C29.4219 0.275012 29.2125 0.193763 29 0.200012H5.00005C4.97505 0.200012 4.95005 0.200012 4.92505 0.200012C4.90005 0.200012 4.87505 0.200012 4.85005 0.200012ZM5.35005 1.80001H28.65L30.25 3.40001H21C20.5594 3.40001 20.2 3.75939 20.2 4.20001C20.2 6.02189 18.8219 7.40001 17 7.40001C15.1782 7.40001 13.8 6.02189 13.8 4.20001C13.8 3.75939 13.4407 3.40001 13 3.40001H3.75005L5.35005 1.80001ZM2.60005 5.00001H12.35C12.7407 7.26251 14.625 9.00001 17 9.00001C19.375 9.00001 21.2594 7.26251 21.65 5.00001H31.4V32.2H2.60005V5.00001ZM17 12.2C12.5907 12.2 9.00005 15.7906 9.00005 20.2C9.00005 24.6094 12.5907 28.2 17 28.2C21.4094 28.2 25 24.6094 25 20.2C25 15.7906 21.4094 12.2 17 12.2ZM17 13.8C20.5438 13.8 23.4 16.6563 23.4 20.2C23.4 23.7438 20.5438 26.6 17 26.6C13.4563 26.6 10.6 23.7438 10.6 20.2C10.6 16.6563 13.4563 13.8 17 13.8ZM16.2 15.4V19.8L13.325 21.95L14.275 23.25L17.475 20.85L17.8 20.6V15.4H16.2Z" fill="#62AA51"/>
</svg>
