<svg width="17" height="24" viewBox="0 0 17 24" fill="none" xmlns="http://www.w3.org/2000/svg">
<path fill-rule="evenodd" clip-rule="evenodd" d="M6 3C6 1.34961 7.34961 0 9 0C10.6504 0 12 1.34961 12 3C12 4.65039 10.6504 6 9 6C7.34961 6 6 4.65039 6 3ZM11 3C11 1.88867 10.1113 1 9 1C7.88867 1 7 1.88867 7 3C7 4.11133 7.88867 5 9 5C10.1113 5 11 4.11133 11 3ZM6.82014 6C6.55881 6 6.29564 6.07601 6.05455 6.19764C6.05271 6.19859 6.04995 6.19811 6.04719 6.19764C6.04443 6.19716 6.04167 6.19668 6.03983 6.19764L1.96163 8.08277C1.48314 8.29561 1.21261 8.74219 1.09299 9.17736L0.0476696 12.978C-0.160289 13.7667 0.334763 14.5648 1.09299 14.772C0.430461 15.7278 0.0329469 16.9003 0.0329469 18.1622C0.0329469 21.3813 2.56894 24 5.68648 24C8.04581 24 10.0665 22.4911 10.9131 20.3666L13.8282 23.3767C13.9183 23.4679 14.0416 23.5173 14.1668 23.5135H16.5224C16.6917 23.5154 16.85 23.4242 16.9365 23.2722C17.0212 23.1201 17.0212 22.9339 16.9365 22.7819C16.85 22.6299 16.6917 22.5386 16.5224 22.5405H14.3729L11.2222 19.2872C11.2922 18.9204 11.34 18.5498 11.34 18.1622C11.34 17.8277 11.3032 17.5084 11.2517 17.1892H12.2528L13.7693 20.9139C13.7702 20.9177 13.7734 20.9195 13.7766 20.9214C13.7799 20.9234 13.7831 20.9253 13.784 20.9291C14.0564 21.6759 14.7999 22.1928 15.6096 22.0541L15.6243 22.0389C16.6402 21.8431 17.2346 20.7352 16.8611 19.7432V19.728L14.8882 14.3919C14.8845 14.3824 14.879 14.371 14.8735 14.3615C14.6158 13.761 14.0619 13.2973 13.3718 13.2973H10.2947L10.9131 9.13176C11.1394 7.49367 9.9156 6 8.27769 6H6.82014ZM8.28381 7H6.83526C6.72552 7 6.61578 7.02322 6.48409 7.09286C6.47495 7.09867 6.46397 7.10447 6.45483 7.10834L2.38717 9.04303C2.20793 9.12429 2.10368 9.25585 2.03601 9.50735L1.01178 13.3767C0.949595 13.6186 1.13981 13.9436 1.4361 13.9958H1.45074C1.62449 14.0326 1.89884 13.8217 1.97748 13.547L2.82613 10.436C2.86271 10.2909 2.95964 10.171 3.0895 10.111L6.19145 8.76443C6.34692 8.70059 6.52433 8.73155 6.65419 8.84376C6.78404 8.95403 6.84806 9.13203 6.82062 9.30615L6.33777 12.4945C7.44614 12.6261 8.46122 13.0962 9.27877 13.8101L9.9811 9.05851C10.1311 7.95187 9.37205 7 8.28381 7ZM6 10L5.59239 12.3433C4.66101 12.3899 3.78057 12.6194 3 13L3.65217 10.8657L6 10ZM10 18C10 15.2324 7.99082 13 5.5 13C3.00918 13 1 15.2324 1 18C1 20.7676 3.00918 23 5.5 23C7.99082 23 10 20.7676 10 18ZM10 14H13.3939C13.632 14 13.8898 14.2107 14.0097 14.4839C14.0115 14.4878 14.0142 14.4897 14.0169 14.4917C14.0195 14.4936 14.0222 14.4956 14.024 14.4995L15.9429 19.9779C16.1148 20.4461 15.8857 20.8851 15.4274 20.9924C15.1213 21.0471 14.7472 20.7993 14.6398 20.4774V20.4461L13.0359 16.31C12.9661 16.1188 12.7943 15.9959 12.6063 15.9978H11.1027C10.8592 15.2525 10.4762 14.5775 10 14ZM5 18C5 17.4473 5.44727 17 6 17C6.55273 17 7 17.4473 7 18C7 18.5527 6.55273 19 6 19C5.44727 19 5 18.5527 5 18Z" fill="#101E8E"/>
</svg>
