<svg width="24" height="24" viewBox="0 0 24 24" fill="none" xmlns="http://www.w3.org/2000/svg">
<path d="M12 0C5.37876 0 0 5.37876 0 12C0 18.6212 5.37876 24 12 24C18.6212 24 24 18.6212 24 12C24 5.37876 18.6212 0 12 0ZM11.4783 1.10462V5.72792H7.74457C7.94165 5.14658 8.16431 4.60616 8.40897 4.11685C9.26758 2.39962 10.3556 1.35425 11.4783 1.10462ZM12.5217 1.10462C13.6444 1.35425 14.7324 2.39962 15.591 4.11685C15.8357 4.60616 16.0583 5.14658 16.2554 5.72792H12.5217V1.10462ZM8.96433 1.47147C8.40199 2.06193 7.90056 2.80009 7.47554 3.65014C7.16059 4.28004 6.88759 4.98055 6.65115 5.72792H3.02038C4.43942 3.69873 6.52412 2.17234 8.96433 1.47147ZM15.0357 1.47147C17.4759 2.17234 19.5606 3.69873 20.9796 5.72792H17.3488C17.1124 4.98055 16.8394 4.28004 16.5245 3.65014C16.0994 2.80009 15.598 2.06193 15.0357 1.47147ZM2.35496 6.79382H6.35156C5.99751 8.22255 5.7919 9.80616 5.75442 11.4783H1.05978C1.13906 9.78822 1.59638 8.19792 2.35496 6.79382ZM7.42867 6.79382H11.4783V11.4783H6.79891C6.8389 9.78938 7.05935 8.19669 7.42867 6.79382ZM12.5217 6.79382H16.5713C16.9406 8.19669 17.1611 9.78938 17.2011 11.4783H12.5217V6.79382ZM17.6484 6.79382H21.645C22.4036 8.19792 22.8609 9.78822 22.9402 11.4783H18.2456C18.2081 9.80616 18.0025 8.22255 17.6484 6.79382ZM1.06488 12.5217H5.75238C5.78894 14.1954 5.99741 15.777 6.35156 17.2062H2.35598C1.59713 15.8026 1.14426 14.2117 1.06488 12.5217ZM6.79586 12.5217H11.4783V17.2062H7.42867C7.0592 15.8027 6.8352 14.212 6.79586 12.5217ZM12.5217 12.5217H17.2041C17.1648 14.212 16.9408 15.8027 16.5713 17.2062H12.5217V12.5217ZM18.2476 12.5217H22.9351C22.8557 14.2117 22.4029 15.8026 21.644 17.2062H17.6484C18.0026 15.777 18.2111 14.1954 18.2476 12.5217ZM3.02344 18.2721H6.65115C6.88759 19.0195 7.16059 19.72 7.47554 20.3499C7.90056 21.1999 8.40199 21.9381 8.96433 22.5285C6.52496 21.8279 4.44272 20.2995 3.02344 18.2721ZM7.74457 18.2721H11.4783V22.8954C10.3556 22.6457 9.26758 21.6004 8.40897 19.8832C8.16431 19.3938 7.94165 18.8534 7.74457 18.2721ZM12.5217 18.2721H16.2554C16.0583 18.8534 15.8357 19.3938 15.591 19.8832C14.7324 21.6004 13.6444 22.6457 12.5217 22.8954V18.2721ZM17.3488 18.2721H20.9766C19.5573 20.2995 17.475 21.8279 15.0357 22.5285C15.598 21.9381 16.0994 21.1999 16.5245 20.3499C16.8394 19.72 17.1124 19.0195 17.3488 18.2721Z" fill="white"/>
</svg>
