<svg width="24" height="24" viewBox="0 0 24 24" fill="none" xmlns="http://www.w3.org/2000/svg">
<path fill-rule="evenodd" clip-rule="evenodd" d="M12 0C5.37876 0 0 5.37876 0 12C0 18.6212 5.37876 24 12 24C18.6212 24 24 18.6212 24 12C24 5.37876 18.6212 0 12 0ZM12 1V6H8C8.21114 5.37129 8.44968 4.78684 8.71179 4.25766C9.63165 2.40051 10.7972 1.26997 12 1ZM16.2882 4.25766C15.3684 2.40051 14.2028 1.26997 13 1V6H17C16.7889 5.37129 16.5503 4.78684 16.2882 4.25766ZM9 1C8.43236 1.55488 7.9262 2.24858 7.49717 3.0474C7.17925 3.63936 6.90367 4.29766 6.66501 5H3C4.43242 3.09307 6.53677 1.65864 9 1ZM21 5C19.5676 3.09307 17.4632 1.65864 15 1C15.5676 1.55488 16.0738 2.24858 16.5028 3.0474C16.8208 3.63936 17.0963 4.29766 17.335 5H21ZM2.22376 7H6C5.66547 8.52497 5.4712 10.2153 5.43578 12H1C1.0749 10.1961 1.50701 8.49869 2.22376 7ZM12 7H7.67291C7.27829 8.49737 7.04273 10.1973 7 12H12V7ZM13 7H17.3271C17.7217 8.49737 17.9573 10.1973 18 12H13V7ZM21.7762 7H18C18.3345 8.52497 18.5288 10.2153 18.5642 12H23C22.9251 10.1961 22.493 8.49869 21.7762 7ZM1 13H5.43331C5.46789 14.7864 5.66505 16.4746 6 18H6.66381C6.9026 18.7023 7.17831 19.3606 7.4964 19.9526C7.92565 20.7514 8.43207 21.4451 9 22C6.53636 21.3416 4.4334 19.9052 3 18H2.22109C1.50339 16.5019 1.07508 14.8038 1 13ZM12 13H7C7.04201 14.8041 7.28121 16.502 7.67573 18H8C8.21114 18.6287 8.44968 19.2132 8.71179 19.7423C9.63165 21.5995 10.7972 22.73 12 23V18V13ZM13 13H18C17.958 14.8041 17.7188 16.502 17.3243 18H17C16.7889 18.6287 16.5503 19.2132 16.2882 19.7423C15.3684 21.5995 14.2028 22.73 13 23V18V13ZM23 13H18.5667C18.5321 14.7864 18.3349 16.4746 18 18H17.3362C17.0974 18.7023 16.8217 19.3606 16.5036 19.9526C16.0744 20.7514 15.5679 21.4451 15 22C17.4636 21.3416 19.5666 19.9052 21 18H21.7789C22.4966 16.5019 22.9249 14.8038 23 13Z" fill="#101E8E"/>
</svg>
