<svg width="21" height="20" viewBox="0 0 21 20" fill="none" xmlns="http://www.w3.org/2000/svg">
<path fill-rule="evenodd" clip-rule="evenodd" d="M0.800781 5.90909C0.800781 2.65 3.45078 0 6.70987 0H14.8917C18.1508 0 20.8008 2.65 20.8008 5.90909V14.0909C20.8008 17.35 18.1508 20 14.8917 20H6.70987C3.45078 20 0.800781 17.35 0.800781 14.0909V5.90909ZM17.1658 4.54581C17.1658 4.04581 16.7567 3.63672 16.2567 3.63672C15.7567 3.63672 15.3477 4.04581 15.3477 4.54581C15.3477 5.04581 15.7567 5.4549 16.2567 5.4549C16.7567 5.4549 17.1658 5.04581 17.1658 4.54581ZM10.8008 5C13.5599 5 15.8008 7.24091 15.8008 10C15.8008 12.7591 13.5599 15 10.8008 15C8.04169 15 5.80078 12.7591 5.80078 10C5.80078 7.24091 8.04169 5 10.8008 5ZM6.70898 10.0001C6.70898 7.74554 8.54535 5.90918 10.7999 5.90918C13.0544 5.90918 14.8908 7.74554 14.8908 10.0001C14.8908 12.2546 13.0544 14.091 10.7999 14.091C8.54535 14.091 6.70898 12.2546 6.70898 10.0001Z" fill="white"/>
</svg>
