<svg width="32" height="39" viewBox="0 0 32 39" fill="none" xmlns="http://www.w3.org/2000/svg">
<path d="M16 0C14.5219 0 13.3125 1.03125 12.95 2.4H3.20005C1.88442 2.4 0.800049 3.48438 0.800049 4.8V36C0.800049 37.3156 1.88442 38.4 3.20005 38.4H28.8C30.1157 38.4 31.2 37.3156 31.2 36V4.8C31.2 3.48438 30.1157 2.4 28.8 2.4H21.65C21.6344 2.4 21.6157 2.4 21.6 2.4H19.05C18.6875 1.03125 17.4782 0 16 0ZM16 1.6C16.8938 1.6 17.6 2.30625 17.6 3.2C17.6 3.64062 17.9594 4 18.4 4H20.8V5.6H11.2V4H13.6C14.0407 4 14.4 3.64062 14.4 3.2C14.4 2.30625 15.1063 1.6 16 1.6ZM3.20005 4H9.60005V6.4C9.60005 6.84062 9.95942 7.2 10.4 7.2H21.6C22.0407 7.2 22.4 6.84062 22.4 6.4V4H28.8C29.2532 4 29.6 4.34688 29.6 4.8V36C29.6 36.4531 29.2532 36.8 28.8 36.8H3.20005C2.74692 36.8 2.40005 36.4531 2.40005 36V4.8C2.40005 4.34688 2.74692 4 3.20005 4ZM24.8 13.55C24.7563 13.5563 24.7157 13.5625 24.675 13.575C24.6594 13.5813 24.6407 13.5906 24.625 13.6C24.4188 13.6469 24.2375 13.7719 24.125 13.95L21.475 17.925L19.775 16.225C19.6094 16.0469 19.3688 15.9563 19.125 15.975C19.0907 15.9813 19.0563 15.9906 19.025 16C18.725 16.0531 18.4844 16.2719 18.4 16.5625C18.3157 16.8563 18.4032 17.1688 18.625 17.375L20.925 19.675C20.9407 19.6938 20.9563 19.7094 20.975 19.725L21.025 19.775C21.0344 19.7844 21.0407 19.7906 21.05 19.8C21.0594 19.8094 21.0657 19.8156 21.075 19.825C21.0844 19.8344 21.0907 19.8406 21.1 19.85C21.1313 19.8688 21.1657 19.8844 21.2 19.9C21.2157 19.9094 21.2344 19.9188 21.25 19.925C21.2657 19.9344 21.2844 19.9438 21.3 19.95C21.3094 19.95 21.3157 19.95 21.325 19.95C21.3407 19.9594 21.3594 19.9688 21.375 19.975C21.3844 19.975 21.3907 19.975 21.4 19.975C21.4157 19.9844 21.4344 19.9938 21.45 20C21.4594 20 21.4657 20 21.475 20C21.4907 20 21.5094 20 21.525 20C21.5344 20 21.5407 20 21.55 20C21.6 20.0031 21.65 20.0031 21.7 20C21.7094 20 21.7157 20 21.725 20C21.7844 19.9906 21.8438 19.9719 21.9 19.95C21.9157 19.9438 21.9344 19.9344 21.95 19.925C21.975 19.9188 22 19.9094 22.025 19.9C22.0438 19.8844 22.0594 19.8688 22.075 19.85C22.0907 19.8438 22.1094 19.8344 22.125 19.825C22.1532 19.8031 22.1782 19.7781 22.2 19.75C22.2188 19.725 22.2344 19.7 22.25 19.675C22.2594 19.6656 22.2657 19.6594 22.275 19.65L22.3 19.625C22.3094 19.6 22.3188 19.575 22.325 19.55L25.475 14.85C25.675 14.6031 25.7094 14.2625 25.5625 13.9812C25.4157 13.6969 25.1157 13.5281 24.8 13.55ZM6.97505 16C6.53442 16.0625 6.22505 16.4719 6.28755 16.9125C6.35005 17.3531 6.75942 17.6625 7.20005 17.6H15.2C15.4875 17.6031 15.7563 17.4531 15.9032 17.2031C16.0469 16.9531 16.0469 16.6469 15.9032 16.3969C15.7563 16.1469 15.4875 15.9969 15.2 16H7.20005C7.17505 16 7.15005 16 7.12505 16C7.10005 16 7.07505 16 7.05005 16C7.02505 16 7.00005 16 6.97505 16ZM24.8 23.95C24.7563 23.9563 24.7157 23.9625 24.675 23.975C24.6594 23.9813 24.6407 23.9906 24.625 24C24.4188 24.0469 24.2375 24.1719 24.125 24.35L21.475 28.325L19.775 26.625C19.6094 26.4469 19.3688 26.3563 19.125 26.375C19.0907 26.3813 19.0563 26.3906 19.025 26.4C18.725 26.4531 18.4844 26.6719 18.4 26.9625C18.3157 27.2563 18.4032 27.5688 18.625 27.775L20.925 30.075C20.9407 30.0938 20.9563 30.1094 20.975 30.125L21.025 30.175C21.0344 30.1844 21.0407 30.1906 21.05 30.2C21.0594 30.2094 21.0657 30.2156 21.075 30.225C21.0844 30.2344 21.0907 30.2406 21.1 30.25C21.1313 30.2688 21.1657 30.2844 21.2 30.3C21.2157 30.3094 21.2344 30.3188 21.25 30.325C21.2657 30.3344 21.2844 30.3438 21.3 30.35C21.3094 30.35 21.3157 30.35 21.325 30.35C21.3407 30.3594 21.3594 30.3688 21.375 30.375C21.3844 30.375 21.3907 30.375 21.4 30.375C21.4157 30.3844 21.4344 30.3938 21.45 30.4C21.4594 30.4 21.4657 30.4 21.475 30.4C21.4907 30.4 21.5094 30.4 21.525 30.4C21.5344 30.4 21.5407 30.4 21.55 30.4C21.6 30.4031 21.65 30.4031 21.7 30.4C21.7094 30.4 21.7157 30.4 21.725 30.4C21.7844 30.3906 21.8438 30.3719 21.9 30.35C21.9157 30.3438 21.9344 30.3344 21.95 30.325C21.975 30.3188 22 30.3094 22.025 30.3C22.0438 30.2844 22.0594 30.2688 22.075 30.25C22.0907 30.2438 22.1094 30.2344 22.125 30.225C22.1532 30.2031 22.1782 30.1781 22.2 30.15C22.2188 30.125 22.2344 30.1 22.25 30.075C22.2594 30.0656 22.2657 30.0594 22.275 30.05L22.3 30.025C22.3094 30 22.3188 29.975 22.325 29.95L25.475 25.25C25.675 25.0031 25.7094 24.6625 25.5625 24.3813C25.4157 24.0969 25.1157 23.9281 24.8 23.95ZM6.97505 26.4C6.53442 26.4625 6.22505 26.8719 6.28755 27.3125C6.35005 27.7531 6.75942 28.0625 7.20005 28H15.2C15.4875 28.0031 15.7563 27.8531 15.9032 27.6031C16.0469 27.3531 16.0469 27.0469 15.9032 26.7969C15.7563 26.5469 15.4875 26.3969 15.2 26.4H7.20005C7.17505 26.4 7.15005 26.4 7.12505 26.4C7.10005 26.4 7.07505 26.4 7.05005 26.4C7.02505 26.4 7.00005 26.4 6.97505 26.4Z" fill="#62AA51"/>
</svg>
