<svg width="14" height="13" viewBox="0 0 14 13" fill="none" xmlns="http://www.w3.org/2000/svg">
<path fill-rule="evenodd" clip-rule="evenodd" d="M6.99534 2.24404e-05C6.97799 0.000327314 6.9607 0.00211603 6.94365 0.00536901C5.71209 0.0151684 4.55694 0.344333 3.55511 0.913099C3.51707 0.925889 3.48194 0.946079 3.45174 0.972506C2.43085 1.57534 1.57677 2.42985 0.973902 3.45035C0.946565 3.48109 0.925749 3.51707 0.912714 3.55609C0.344575 4.55732 0.0158866 5.71122 0.00557749 6.94048C-0.00223996 6.98074 -0.00183581 7.02216 0.00676563 7.06226C0.0202167 8.58324 0.518858 9.99158 1.35707 11.134C1.42138 11.2216 1.52757 11.2683 1.63563 11.2565C1.7437 11.2446 1.83723 11.176 1.88098 11.0765C1.92474 10.9769 1.91208 10.8616 1.84777 10.774C1.7781 10.679 1.71361 10.5799 1.64925 10.4811L1.64579 10.4758L2.17807 10.1633C2.29682 10.0958 2.35599 9.95735 2.32276 9.82485C2.28953 9.69235 2.17205 9.59825 2.0355 9.59476C1.97717 9.59321 1.91964 9.60847 1.86975 9.63872L1.33628 9.95238C0.918955 9.15432 0.670039 8.25651 0.625187 7.30404H1.22103C1.33072 7.30559 1.43275 7.24796 1.48805 7.15322C1.54335 7.05847 1.54335 6.94129 1.48805 6.84655C1.43275 6.7518 1.33072 6.69417 1.22103 6.69572H0.620434C0.664477 5.75288 0.915668 4.8665 1.3244 4.07412L1.84302 4.37352C1.93732 4.43312 2.05667 4.43632 2.15403 4.38187C2.25139 4.32741 2.31113 4.22403 2.3097 4.11249C2.30827 4.00094 2.2459 3.89913 2.14718 3.84718L1.62856 3.54777C2.12358 2.77827 2.77833 2.12354 3.54798 1.62835L3.84739 2.14697C3.89934 2.24569 4.00115 2.30806 4.11269 2.30949C4.22424 2.31092 4.32762 2.25118 4.38207 2.15382C4.43653 2.05646 4.43333 1.93711 4.37373 1.84281L4.07432 1.32419C4.86621 0.915728 5.7528 0.664301 6.69593 0.620226V1.22082C6.69438 1.33052 6.75201 1.43255 6.84675 1.48784C6.9415 1.54314 7.05868 1.54314 7.15343 1.48784C7.24817 1.43255 7.3058 1.33052 7.30425 1.22082V0.620226C8.2475 0.664277 9.13391 0.915828 9.92586 1.32419L9.62645 1.84281C9.56685 1.93711 9.56365 2.05646 9.6181 2.15382C9.67256 2.25118 9.77594 2.31092 9.88749 2.30949C9.99903 2.30806 10.1008 2.24569 10.1528 2.14697L10.4522 1.62835C11.222 2.12347 11.8766 2.77809 12.3716 3.54777L11.853 3.84718C11.7543 3.89913 11.6919 4.00094 11.6905 4.11249C11.689 4.22403 11.7488 4.32741 11.8461 4.38187C11.9435 4.43632 12.0629 4.43312 12.1572 4.37352L12.6758 4.07412C13.0842 4.86629 13.3357 5.7528 13.3797 6.69572H12.7791C12.6695 6.69417 12.5674 6.7518 12.5121 6.84655C12.4568 6.94129 12.4568 7.05847 12.5121 7.15322C12.5674 7.24796 12.6695 7.30559 12.7791 7.30404H13.375C13.3301 8.25651 13.0812 9.15432 12.6639 9.95238L12.1304 9.63872C12.0868 9.61217 12.0371 9.59705 11.9861 9.59476C11.976 9.59425 11.9659 9.59425 11.9558 9.59476C11.8208 9.60192 11.7067 9.69731 11.6758 9.8289C11.6448 9.96049 11.7045 10.0967 11.8221 10.1633L12.3544 10.4758L12.351 10.481C12.2866 10.5799 12.2221 10.679 12.1524 10.774C12.0881 10.8616 12.0754 10.9769 12.1192 11.0765C12.1629 11.176 12.2565 11.2446 12.3645 11.2565C12.4726 11.2683 12.5788 11.2216 12.6431 11.134C13.481 9.99203 13.9796 8.58433 13.9934 7.06404C14.0018 7.02452 14.0022 6.98372 13.9946 6.94404C13.9849 5.7112 13.6552 4.55451 13.0851 3.55134L13.0845 3.55015C13.0721 3.51584 13.0535 3.48404 13.0298 3.45629C12.4264 2.43241 11.5704 1.57527 10.5467 0.971318L10.5461 0.970724L10.5455 0.970129C10.5164 0.945502 10.4829 0.92656 10.4468 0.914287C9.44473 0.345115 8.28923 0.0152707 7.05712 0.00536901H7.05593C7.03596 0.00156668 7.01566 -0.000224467 6.99534 2.24404e-05ZM11.19 4.45786L7.82941 5.72915C7.59032 5.57224 7.30595 5.47905 7.0001 5.47905C6.16325 5.47905 5.4793 6.16398 5.4793 6.99986C5.4793 7.83574 6.16325 8.52066 7.0001 8.52066C7.83695 8.52066 8.52091 7.83574 8.52091 6.99986C8.52091 6.99498 8.5206 6.99018 8.5203 6.98537L8.52 6.98033L8.51972 6.97312L11.2584 4.56657L11.19 4.45786ZM7.91257 6.99984C7.91257 6.49217 7.50834 6.08736 7.00009 6.08736C6.49194 6.08736 6.08761 6.49255 6.08761 6.99984C6.08761 7.50713 6.49194 7.91232 7.00009 7.91232C7.50824 7.91232 7.91257 7.50713 7.91257 6.99984ZM3.9579 10.9539C3.78993 10.9539 3.65376 11.0901 3.65374 11.2581V12.4741C3.65376 12.6421 3.78993 12.7783 3.9579 12.7783H10.0423C10.2103 12.7783 10.3465 12.6421 10.3465 12.4741V11.2581C10.3465 11.0901 10.2103 10.9539 10.0423 10.9539H3.9579ZM9.73814 11.5623H4.26205V12.17H9.73814V11.5623Z" fill="#62AA51"/>
</svg>
