<svg width="35" height="38" viewBox="0 0 35 38" fill="none" xmlns="http://www.w3.org/2000/svg">
<path d="M0.0400391 0V36.48H17.52C17.7932 36.483 18.0485 36.3405 18.188 36.103C18.3246 35.8655 18.3246 35.5745 18.188 35.337C18.0485 35.0995 17.7932 34.957 17.52 34.96H1.56004V1.52H15.24V12.16H25.88V19C25.8771 19.2731 26.0196 19.5284 26.2571 19.668C26.4946 19.8045 26.7855 19.8045 27.023 19.668C27.2605 19.5284 27.403 19.2731 27.4 19V11.0912L27.1863 10.8538L16.5463 0.21375L16.3088 0H0.0400391ZM16.76 2.6125L24.7875 10.64H16.76V2.6125ZM26.64 21.28C22.0444 21.28 18.28 25.0444 18.28 29.64C18.28 34.2356 22.0444 38 26.64 38C31.2357 38 35 34.2356 35 29.64C35 25.0444 31.2357 21.28 26.64 21.28ZM26.64 22.8C28.2461 22.8 29.7216 23.3641 30.8913 24.2962L21.2963 33.8913C20.3641 32.7216 19.8 31.2461 19.8 29.64C19.8 25.8756 22.8757 22.8 26.64 22.8ZM31.9838 25.3888C32.916 26.5584 33.48 28.0339 33.48 29.64C33.48 33.4044 30.4044 36.48 26.64 36.48C25.0339 36.48 23.5585 35.9159 22.3888 34.9837L31.9838 25.3888Z" fill="#62AA51"/>
</svg>
