<svg width="24" height="24" viewBox="0 0 24 24" fill="none" xmlns="http://www.w3.org/2000/svg">
<g clip-path="url(#clip0_2118_711)">
<path d="M11.5 11C12.39 11 13.26 10.7361 14.0001 10.2416C14.7401 9.74715 15.3169 9.04434 15.6575 8.22208C15.998 7.39981 16.0872 6.49501 15.9135 5.62209C15.7399 4.74918 15.3113 3.94736 14.682 3.31802C14.0526 2.68868 13.2508 2.2601 12.3779 2.08647C11.505 1.91283 10.6002 2.00195 9.77792 2.34254C8.95566 2.68314 8.25285 3.25991 7.75839 3.99994C7.26392 4.73996 7 5.60999 7 6.5C7 7.69347 7.47411 8.83807 8.31802 9.68198C9.16193 10.5259 10.3065 11 11.5 11ZM11.5 3.28572C12.1357 3.28572 12.7572 3.47423 13.2858 3.82742C13.8143 4.18061 14.2263 4.68261 14.4696 5.26995C14.7129 5.85728 14.7765 6.50357 14.6525 7.12708C14.5285 7.75059 14.2224 8.32332 13.7728 8.77284C13.3233 9.22237 12.7506 9.5285 12.1271 9.65252C11.5036 9.77655 10.8573 9.71289 10.2699 9.46961C9.68261 9.22633 9.18061 8.81435 8.82742 8.28576C8.47423 7.75718 8.28571 7.13573 8.28571 6.5C8.28571 5.64752 8.62436 4.82995 9.22716 4.22716C9.82995 3.62436 10.6475 3.28572 11.5 3.28572Z" fill="#101E8E"/>
<path d="M19.6534 16.4507C18.6049 15.3608 17.3413 14.4926 15.9399 13.8993C14.5386 13.306 13.0289 13 11.5033 13C9.97756 13 8.4679 13.306 7.06656 13.8993C5.66522 14.4926 4.40164 15.3608 3.35308 16.4507C3.12574 16.6895 2.99949 17.0045 3 17.3317V20.714C3 21.055 3.13778 21.3821 3.38301 21.6233C3.62825 21.8645 3.96087 22 4.30769 22H18.6923C19.0391 22 19.3717 21.8645 19.617 21.6233C19.8622 21.3821 20 21.055 20 20.714V17.3317C20.0023 17.0054 19.8784 16.6905 19.6534 16.4507ZM18.6923 20.714H4.30769V17.3252C5.23434 16.3656 6.34984 15.6015 7.5863 15.0793C8.82277 14.5572 10.1543 14.2879 11.5 14.2879C12.8456 14.2879 14.1772 14.5572 15.4137 15.0793C16.6501 15.6015 17.7656 16.3656 18.6923 17.3252V20.714Z" fill="#101E8E"/>
</g>
<defs>
<clipPath id="clip0_2118_711">
<rect width="24" height="24" fill="white"/>
</clipPath>
</defs>
</svg>
