<svg width="20" height="20" viewBox="0 0 20 20" fill="none" xmlns="http://www.w3.org/2000/svg">
<g clip-path="url(#clip0_1_53948)">
<path d="M0.400781 0C0.300781 0 0.205469 0.0453124 0.125781 0.125C-0.0335938 0.284375 -0.0335938 0.515625 0.125781 0.675L19.3258 19.875C19.4055 19.9547 19.5211 20 19.6008 20C19.6805 20 19.7961 19.9547 19.8758 19.875C20.0352 19.7156 20.0352 19.4844 19.8758 19.325L16.8508 16.3C18.7836 14.7891 19.9258 12.4828 19.9258 9.9625C19.9258 6.88281 18.1961 4.125 15.4758 2.725C15.2758 2.64531 15.043 2.675 14.9633 2.875C14.8836 3.15469 14.9664 3.39531 15.1258 3.475C17.6055 4.71563 19.1258 7.24063 19.1258 10C19.1258 12.2797 18.0695 14.3906 16.3008 15.75L15.0258 14.475C16.3445 13.3984 17.1633 11.7656 17.1633 10C17.1633 7.87969 16.0055 5.925 14.1258 4.925C13.9258 4.80469 13.6836 4.875 13.5633 5.075C13.443 5.275 13.5164 5.52031 13.6758 5.6C15.2758 6.47969 16.3258 8.15938 16.3258 10C16.3258 11.5312 15.632 12.9719 14.4508 13.9L12.9133 12.3625C13.7586 11.8859 14.3258 11.0031 14.3258 10C14.3258 8.75938 13.4758 7.68281 12.2758 7.3625C12.0758 7.32188 11.8414 7.4375 11.8008 7.6375C11.7602 7.8375 11.8758 8.08438 12.0758 8.125C12.9164 8.325 13.5258 9.08281 13.5258 9.9625C13.5258 10.7594 13.0289 11.4828 12.3133 11.7625L10.7258 10.175V2.525C10.7258 1.60469 10.1211 1.2 9.60078 1.2C9.24141 1.2 8.88359 1.35469 8.56328 1.675L5.40078 4.85L0.675781 0.125C0.596094 0.0453124 0.500781 0 0.400781 0ZM9.60078 2C9.92109 2 9.92578 2.40469 9.92578 2.525V9.375L5.92578 5.375L9.07578 2.2375C9.27578 2.07813 9.44141 2 9.60078 2ZM4.32578 5.875L3.83828 6.4H1.12578C0.446094 6.4 -0.0742188 6.92031 -0.0742188 7.6V12.4C-0.0742188 13.0797 0.446094 13.6 1.12578 13.6H3.83828L8.52578 18.275C8.96641 18.7156 9.32109 18.8 9.60078 18.8C10.2805 18.8 10.7258 18.2047 10.7258 17.325V12.275L9.92578 11.475V17.325C9.92578 17.725 9.80078 18 9.60078 18C9.48047 18 9.28516 17.8844 9.12578 17.725L4.03828 12.675C3.99766 12.6344 3.92578 12.4844 3.92578 12.325V7.675C3.92578 7.51563 3.99766 7.35469 4.03828 7.275L4.87578 6.4375L4.32578 5.875ZM1.12578 7.2H3.20078C3.16016 7.35938 3.12578 7.55469 3.12578 7.675V12.275C3.12578 12.4344 3.16016 12.6406 3.20078 12.8H1.12578C0.885156 12.8 0.725781 12.6406 0.725781 12.4V7.6C0.725781 7.35938 0.885156 7.2 1.12578 7.2Z" fill="white"/>
</g>
<defs>
<clipPath id="clip0_1_53948">
<rect width="20" height="20" fill="white"/>
</clipPath>
</defs>
</svg>
