<svg width="20" height="18" viewBox="0 0 20 18" fill="none" xmlns="http://www.w3.org/2000/svg">
<path d="M9.66328 0.200195C9.54141 0.200195 9.42109 0.225195 9.30078 0.262695C9.05859 0.339258 8.82734 0.483008 8.62578 0.687695L3.92578 5.3877H1.20078C0.533594 5.3877 -0.0117188 5.93301 -0.0117188 6.6002V11.4002C-0.0117188 12.0674 0.533594 12.6127 1.20078 12.6127H3.92578L8.61328 17.2752C9.06016 17.7236 9.63359 17.9205 10.1008 17.7002C10.5711 17.4783 10.8008 16.9439 10.8008 16.3252V1.5252C10.8008 0.925195 10.4945 0.426758 10.0258 0.262695C9.90859 0.222071 9.78516 0.200195 9.66328 0.200195ZM9.67578 1.0002C9.71641 1.0002 9.74766 1.00332 9.77578 1.0127C9.88984 1.05176 10.0008 1.15332 10.0008 1.5252V16.3252C10.0008 16.7518 9.86016 16.9424 9.76328 16.9877C9.66641 17.033 9.47109 17.0377 9.16328 16.7252L4.12578 11.6877C4.11797 11.683 4.10859 11.6783 4.10078 11.6752C4.13047 11.7018 4.00078 11.4486 4.00078 11.3002V6.7002C4.00078 6.55176 4.13516 6.29551 4.10078 6.3252C4.11016 6.31738 4.11797 6.30957 4.12578 6.3002L9.18828 1.2502C9.37578 1.06113 9.55234 1.00176 9.67578 1.0002ZM15.3133 1.7252C15.1383 1.75488 15.0039 1.89707 14.9836 2.07363C14.9648 2.2502 15.0617 2.41895 15.2258 2.4877C17.6055 3.6877 19.2258 6.14863 19.2258 9.0002C19.2258 11.8518 17.6055 14.3127 15.2258 15.5127C15.0789 15.5627 14.9758 15.6939 14.9586 15.8471C14.9414 16.0018 15.0148 16.1518 15.1477 16.233C15.2789 16.3127 15.4461 16.3096 15.5758 16.2252C18.2164 14.8924 20.0258 12.158 20.0258 9.0002C20.0258 5.84238 18.2164 3.10801 15.5758 1.7752C15.507 1.73613 15.4289 1.71895 15.3508 1.7252C15.3383 1.7252 15.3258 1.7252 15.3133 1.7252ZM13.8883 3.8502C13.7102 3.87207 13.568 4.01113 13.543 4.18926C13.5164 4.36582 13.6117 4.53926 13.7758 4.6127C15.3367 5.45488 16.4008 7.09863 16.4008 9.0002C16.4008 10.8955 15.3414 12.5439 13.7883 13.3877C13.5945 13.4939 13.5242 13.7377 13.632 13.9314C13.7383 14.1252 13.982 14.1955 14.1758 14.0877C15.9789 13.108 17.2008 11.1939 17.2008 9.0002C17.2008 6.8002 15.9758 4.87832 14.1633 3.9002C14.0914 3.85957 14.0086 3.84238 13.9258 3.8502C13.9133 3.8502 13.9008 3.8502 13.8883 3.8502ZM1.20078 6.2127H3.27578C3.22422 6.36582 3.20078 6.53301 3.20078 6.7002V11.3002C3.20078 11.4674 3.22578 11.633 3.27578 11.7877H1.20078C0.985156 11.7877 0.813281 11.6158 0.813281 11.4002V6.6002C0.813281 6.38457 0.985156 6.2127 1.20078 6.2127ZM12.2133 6.3627C12.0195 6.38613 11.8727 6.54551 11.8633 6.74082C11.8539 6.93457 11.9852 7.10801 12.1758 7.1502C12.9945 7.36426 13.6008 8.11113 13.6008 9.0002C13.6008 9.88926 12.9945 10.6361 12.1758 10.8502C11.9617 10.9049 11.8336 11.1236 11.8883 11.3377C11.943 11.5518 12.1617 11.6799 12.3758 11.6252C13.5398 11.3205 14.4008 10.2549 14.4008 9.0002C14.4008 7.74551 13.5398 6.67988 12.3758 6.3752C12.3227 6.35957 12.268 6.35645 12.2133 6.3627Z" fill="#101E8E"/>
</svg>
