<svg width="14" height="14" viewBox="0 0 14 14" fill="none" xmlns="http://www.w3.org/2000/svg">
<path fill-rule="evenodd" clip-rule="evenodd" d="M5.62626 0.000820309C5.50048 0.015039 5.39985 0.112382 5.38126 0.237069L5.11001 1.90831C4.78298 2.00347 4.46798 2.12487 4.17376 2.28456L2.80002 1.30456C2.68955 1.22472 2.53862 1.23675 2.44127 1.33081L1.34753 2.42456C1.25347 2.5219 1.24144 2.67284 1.32128 2.78331L2.28377 4.1658C2.12081 4.46439 1.98737 4.7772 1.89003 5.1108L0.236284 5.38204C0.0984721 5.40392 -0.0021525 5.52314 3.49861e-05 5.66204V7.20204C0.00222248 7.33547 0.0973782 7.44813 0.227534 7.47328L1.89878 7.77078C1.99612 8.1 2.1219 8.41172 2.28377 8.70703L1.30378 10.0808C1.22394 10.1912 1.23597 10.3422 1.33003 10.4395L2.42377 11.5333C2.52112 11.6273 2.67205 11.6394 2.78252 11.5595L4.15626 10.5883C4.45376 10.7512 4.76986 10.8759 5.10126 10.9733L5.38126 12.6445C5.40313 12.7823 5.52235 12.8829 5.66126 12.8808H7.20125C7.22859 12.8786 7.25484 12.8731 7.28 12.8633V13.7208C7.28 13.875 7.40578 14.0008 7.56 14.0008H13.72C13.8742 14.0008 14 13.875 14 13.7208V9.24078V9.21453V8.91703C14 8.48062 13.6401 8.12078 13.2037 8.12078H10.8587C10.9014 8.00484 10.9451 7.88344 10.9812 7.77078L12.6437 7.47328C12.7783 7.4525 12.8778 7.33766 12.88 7.20204V5.66204C12.8822 5.52314 12.7815 5.40392 12.6437 5.38204L10.9637 5.1108C10.8675 4.78705 10.7373 4.47533 10.5787 4.1833L11.5587 2.78331C11.6386 2.67284 11.6265 2.5219 11.5325 2.42456L10.4387 1.33081C10.3414 1.23675 10.1905 1.22472 10.08 1.30456L8.70624 2.29331C8.41202 2.13143 8.09921 2.00565 7.77 1.90831L7.4725 0.228319C7.44734 0.0981635 7.33469 0.0030078 7.20125 0.000820309H5.66126C5.64923 -0.000273436 5.63829 -0.000273436 5.62626 0.000820309ZM5.89749 0.560817H6.96499L7.24499 2.15331C7.26467 2.25831 7.34233 2.34362 7.44624 2.37206C7.8553 2.47378 8.24139 2.64112 8.59248 2.85331C8.68764 2.91127 8.80795 2.90799 8.89873 2.84456L10.2112 1.89956L10.9637 2.65206L10.0362 3.98205C9.96951 4.07174 9.96294 4.19205 10.0187 4.2883C10.2287 4.6383 10.3895 5.01783 10.4912 5.42579C10.5175 5.53517 10.6072 5.61829 10.7187 5.63579L12.32 5.89829V6.96579L10.7187 7.24578C10.6072 7.26328 10.5175 7.34641 10.4912 7.45578C10.4584 7.58922 10.3512 7.88562 10.2637 8.12078H8.07623H8.05873C8.50061 7.69531 8.77623 7.09922 8.77623 6.44079C8.77623 5.15564 7.72514 4.10455 6.43999 4.10455C5.15484 4.10455 4.10375 5.15564 4.10375 6.44079C4.10375 7.72594 5.15484 8.77703 6.43999 8.77703C6.76155 8.77703 7.07108 8.7114 7.34999 8.59328C7.30514 8.69281 7.27999 8.80109 7.27999 8.91703V9.18827C7.27889 9.2003 7.27889 9.21124 7.27999 9.22327V10.772L6.96499 12.3208H5.89749L5.63499 10.737C5.6175 10.6255 5.53437 10.5358 5.425 10.5095C5.01484 10.4089 4.62328 10.2492 4.27 10.037C4.17485 9.97905 4.05453 9.98233 3.96375 10.0458L2.65126 10.9645L1.89876 10.212L2.82626 8.90827C2.8897 8.81749 2.89298 8.69718 2.83501 8.60203C2.62064 8.24765 2.46423 7.86703 2.36251 7.45578C2.33626 7.34641 2.24657 7.26328 2.13501 7.24578L0.56002 6.96579V5.89829L2.13501 5.63579C2.24657 5.61829 2.33626 5.53517 2.36251 5.42579C2.46532 5.01236 2.63048 4.62517 2.84376 4.2708C2.90173 4.17564 2.89845 4.05533 2.83501 3.96455L1.90751 2.65206L2.66876 1.89956L3.9725 2.82706C4.06219 2.89377 4.1825 2.90034 4.27875 2.84456C4.62984 2.63346 5.01484 2.47268 5.425 2.37206C5.53437 2.34581 5.6175 2.25612 5.63499 2.14456L5.89749 0.560817ZM8.21621 6.44076C8.21621 5.45858 7.42215 4.66452 6.43997 4.66452C5.45778 4.66452 4.66373 5.45858 4.66373 6.44076C4.66373 7.42295 5.45778 8.217 6.43997 8.217C7.42215 8.217 8.21621 7.42295 8.21621 6.44076ZM8.07622 8.68078H10.3775C10.4311 8.69719 10.4901 8.69719 10.5437 8.68078H13.2037C13.3382 8.68078 13.4399 8.7825 13.4399 8.91703V8.96078H7.83997V8.91703C7.83997 8.7825 7.94169 8.68078 8.07622 8.68078ZM13.4399 9.52075H7.83997V10.667C7.852 10.7129 7.852 10.7611 7.83997 10.807V13.4407H13.4399V9.52075ZM10.36 9.687L10.1587 9.8795L9.22246 10.8157L8.86372 10.5095L8.65372 10.3257L8.28622 10.7545L8.49622 10.9295L9.05622 11.4107L9.25746 11.5857L10.5612 10.282L10.7537 10.0807L10.36 9.687ZM10.1587 11.2795L10.36 11.087L10.7537 11.4808L10.5612 11.682L9.25746 12.9858L9.05622 12.8108L8.49622 12.3295L8.28622 12.1545L8.65372 11.7258L8.86372 11.9095L9.22246 12.2158L10.1587 11.2795Z" fill="white"/>
</svg>
