<svg width="38" height="36" viewBox="0 0 38 36" fill="none" xmlns="http://www.w3.org/2000/svg">
<path d="M15.0516 0.0187563C14.8546 0.0212562 14.6654 0.0963659 14.5204 0.229694L11.6782 2.83438L7.88911 3.46563C7.75359 3.4883 7.62618 3.5455 7.51918 3.6317C7.41217 3.71791 7.32917 3.83022 7.27818 3.95782L5.85786 7.50782L2.70161 9.71876C2.58947 9.79707 2.49927 9.90282 2.43964 10.0259C2.38001 10.149 2.35293 10.2853 2.36099 10.4219L2.59849 14.2906L0.704738 17.6031C0.635686 17.724 0.599365 17.8608 0.599365 18C0.599365 18.1392 0.635686 18.276 0.704738 18.3969L2.59849 21.7094L2.36099 25.5781C2.35293 25.7147 2.38001 25.851 2.43964 25.9741C2.49927 26.0972 2.58947 26.2029 2.70161 26.2813L5.85786 28.4922L7.27818 32.0422C7.32917 32.1698 7.41217 32.2821 7.51918 32.3683C7.62618 32.4545 7.75359 32.5117 7.88911 32.5344L11.6782 33.1656L14.5204 35.7703C14.6223 35.8637 14.7467 35.929 14.8815 35.9599C15.0162 35.9909 15.1566 35.9864 15.2891 35.9469L19.0001 34.8422L22.711 35.9469C22.8435 35.9864 22.9839 35.9909 23.1186 35.9599C23.2534 35.929 23.3778 35.8637 23.4797 35.7703L26.3219 33.1656L30.111 32.5344C30.2465 32.5117 30.3739 32.4545 30.4809 32.3683C30.5879 32.2821 30.6709 32.1698 30.7219 32.0422L32.1422 28.4922L35.2985 26.2813C35.4106 26.2029 35.5008 26.0972 35.5605 25.9741C35.6201 25.851 35.6472 25.7147 35.6391 25.5781L35.4016 21.7094L37.2954 18.3969C37.3644 18.276 37.4007 18.1392 37.4007 18C37.4007 17.8608 37.3644 17.724 37.2954 17.6031L35.4016 14.2906L35.6391 10.4219C35.6472 10.2853 35.6201 10.149 35.5605 10.0259C35.5008 9.90282 35.4106 9.79707 35.2985 9.71876L32.1422 7.50782L30.7219 3.95782C30.6709 3.83022 30.5879 3.71791 30.4809 3.6317C30.3739 3.5455 30.2465 3.4883 30.111 3.46563L26.3219 2.83438L23.4797 0.229694C23.3778 0.136361 23.2534 0.0710389 23.1186 0.0400957C22.9839 0.00915249 22.8435 0.0136437 22.711 0.0531313L19.0001 1.15782L15.2891 0.0531313C15.2121 0.029798 15.1321 0.0182094 15.0516 0.0187563ZM15.2672 1.71563L18.7719 2.75938C18.9208 2.80366 19.0793 2.80366 19.2282 2.75938L22.7329 1.71563L25.4157 4.17501C25.5301 4.27937 25.6723 4.3483 25.8251 4.37344L29.4032 4.97032L30.7454 8.32344C30.8033 8.46783 30.9022 8.59217 31.0297 8.68126L34.0141 10.7719L33.7907 14.4313C33.781 14.5866 33.8169 14.7413 33.8938 14.8766L35.6782 18L33.8938 21.1234C33.8169 21.2587 33.781 21.4134 33.7907 21.5688L34.0141 25.2281L31.0297 27.3188C30.9022 27.4078 30.8033 27.5322 30.7454 27.6766L29.4032 31.0297L25.8251 31.6266C25.6723 31.6517 25.5301 31.7206 25.4157 31.825L22.7329 34.2844L19.2282 33.2406C19.0793 33.1964 18.9208 33.1964 18.7719 33.2406L15.2672 34.2844L12.5844 31.825C12.47 31.7206 12.3278 31.6517 12.1751 31.6266L8.59693 31.0297L7.25474 27.6766C7.19675 27.5322 7.09793 27.4078 6.97036 27.3188L3.98599 25.2281L4.20943 21.5688C4.21909 21.4134 4.18325 21.2587 4.1063 21.1234L2.32193 18L4.1063 14.8766C4.18325 14.7413 4.21909 14.5866 4.20943 14.4313L3.98599 10.7719L6.97036 8.68126C7.09793 8.59217 7.19675 8.46783 7.25474 8.32344L8.59693 4.97032L12.1751 4.37344C12.3278 4.3483 12.47 4.27937 12.5844 4.17501L15.2672 1.71563ZM26.2469 9.56719L17.4782 23.175L11.6157 17.8859L10.5438 19.0734L17.8032 25.625L27.5922 10.4328L26.2469 9.56719Z" fill="#62AA51"/>
</svg>
