<svg width="25" height="19" viewBox="0 0 25 19" fill="none" xmlns="http://www.w3.org/2000/svg">
<path d="M22.3491 5.30882C22.3491 11.5882 17.3998 18.8235 8.35411 18.8235C5.56728 18.8235 2.97846 18.0441 0.800781 16.6912C1.19674 16.7353 1.57741 16.75 1.9886 16.75C4.28806 16.75 6.40485 16 8.09522 14.7206C5.93277 14.6765 4.12058 13.3088 3.4962 11.4265C3.80079 11.4706 4.10534 11.5 4.42517 11.5C4.86678 11.5 5.30844 11.4411 5.71958 11.3382C3.46578 10.897 1.77536 8.98528 1.77536 6.67646V6.61766C2.43016 6.9706 3.19165 7.19119 3.9987 7.22057C2.67382 6.36761 1.80583 4.91174 1.80583 3.26467C1.80583 2.38234 2.04944 1.57351 2.47587 0.867625C4.8972 3.74998 8.53683 5.6323 12.618 5.83821C12.5419 5.48527 12.4962 5.11766 12.4962 4.75001C12.4962 2.13233 14.6891 0 17.415 0C18.8312 0 20.1104 0.573528 21.0089 1.5C22.1206 1.29413 23.1865 0.897048 24.1307 0.352944C23.7652 1.45591 22.9886 2.38238 21.9683 2.97058C22.9582 2.86768 23.9176 2.60292 24.8008 2.23531C24.1308 3.17645 23.2932 4.01465 22.3338 4.69116C22.3491 4.89703 22.3491 5.10295 22.3491 5.30882Z" fill="white"/>
</svg>
