<svg width="19" height="23" viewBox="0 0 19 23" fill="none" xmlns="http://www.w3.org/2000/svg">
<path d="M9.5 0.0419922C8.76019 0.0419922 8.01898 0.272217 7.38727 0.732666L6.41724 1.43738H1.23438C0.641968 1.43738 0.15625 1.9231 0.15625 2.5155V21.203C0.15625 21.7954 0.641968 22.2811 1.23438 22.2811H17.7656C18.358 22.2811 18.8438 21.7954 18.8438 21.203V2.5155C18.8438 1.9231 18.358 1.43738 17.7656 1.43738H12.5828L11.6127 0.732666C10.981 0.272217 10.2398 0.0433959 9.5 0.0419922ZM9.5 0.76355C10.0924 0.76355 10.6862 0.947449 11.193 1.31525L11.3615 1.43738L12.3469 2.15613L12.6487 2.37512C12.9281 2.57587 13.0938 2.90295 13.0938 3.24829V3.953C13.0938 4.15094 12.9323 4.31238 12.7344 4.31238H6.26562C6.06769 4.31238 5.90625 4.15094 5.90625 3.953V3.24829C5.90625 2.90295 6.0719 2.57587 6.35126 2.37512L6.65308 2.15613L7.63855 1.43738L7.80701 1.31525C8.31378 0.947449 8.90759 0.76355 9.5 0.76355ZM9.5 1.078C8.90479 1.078 8.42188 1.56091 8.42188 2.15613C8.42188 2.75134 8.90479 3.23425 9.5 3.23425C10.0952 3.23425 10.5781 2.75134 10.5781 2.15613C10.5781 1.56091 10.0952 1.078 9.5 1.078ZM1.23438 2.15613H5.55811C5.32086 2.46497 5.1875 2.84961 5.1875 3.24829V3.59363H3.03125C2.63538 3.59363 2.3125 3.9165 2.3125 4.31238V19.4061C2.3125 19.802 2.63538 20.1249 3.03125 20.1249H13.1555C13.4419 20.1249 13.7156 20.0126 13.9164 19.809L16.3716 17.3538C16.5752 17.153 16.6875 16.8793 16.6875 16.5929V4.31238C16.6875 3.9165 16.3646 3.59363 15.9688 3.59363H13.8125V3.24829C13.8125 2.84961 13.6791 2.46497 13.4419 2.15613H17.7656C17.9636 2.15613 18.125 2.31757 18.125 2.5155V21.203C18.125 21.4009 17.9636 21.5624 17.7656 21.5624H1.23438C1.03644 21.5624 0.875 21.4009 0.875 21.203V2.5155C0.875 2.31757 1.03644 2.15613 1.23438 2.15613ZM3.03125 4.31238H5.25208C5.39948 4.72931 5.79816 5.03113 6.26562 5.03113H12.7344C13.2018 5.03113 13.6005 4.72931 13.7479 4.31238H15.9688V16.5311H13.8125C13.4166 16.5311 13.0938 16.854 13.0938 17.2499V19.4061H3.03125V4.31238ZM4.10938 5.74988C3.91144 5.74988 3.75 5.91132 3.75 6.10925V6.828C3.75 7.02594 3.91144 7.18738 4.10938 7.18738C4.30731 7.18738 4.46875 7.02594 4.46875 6.828V6.10925C4.46875 5.91132 4.30731 5.74988 4.10938 5.74988ZM5.90625 5.74988C5.70831 5.74988 5.54688 5.91132 5.54688 6.10925V6.828C5.54688 7.02594 5.70831 7.18738 5.90625 7.18738C6.10419 7.18738 6.26562 7.02594 6.26562 6.828V6.10925C6.26562 5.91132 6.10419 5.74988 5.90625 5.74988ZM7.70312 5.74988C7.50519 5.74988 7.34375 5.91132 7.34375 6.10925V6.828C7.34375 7.02594 7.50519 7.18738 7.70312 7.18738C7.90106 7.18738 8.0625 7.02594 8.0625 6.828V6.10925C8.0625 5.91132 7.90106 5.74988 7.70312 5.74988ZM9.5 5.74988C9.30206 5.74988 9.14062 5.91132 9.14062 6.10925V6.828C9.14062 7.02594 9.30206 7.18738 9.5 7.18738C9.69794 7.18738 9.85938 7.02594 9.85938 6.828V6.10925C9.85938 5.91132 9.69794 5.74988 9.5 5.74988ZM11.2969 5.74988C11.0989 5.74988 10.9375 5.91132 10.9375 6.10925V6.828C10.9375 7.02594 11.0989 7.18738 11.2969 7.18738C11.4948 7.18738 11.6562 7.02594 11.6562 6.828V6.10925C11.6562 5.91132 11.4948 5.74988 11.2969 5.74988ZM13.0938 5.74988C12.8958 5.74988 12.7344 5.91132 12.7344 6.10925V6.828C12.7344 7.02594 12.8958 7.18738 13.0938 7.18738C13.2917 7.18738 13.4531 7.02594 13.4531 6.828V6.10925C13.4531 5.91132 13.2917 5.74988 13.0938 5.74988ZM14.8906 5.74988C14.6927 5.74988 14.5312 5.91132 14.5312 6.10925V6.828C14.5312 7.02594 14.6927 7.18738 14.8906 7.18738C15.0886 7.18738 15.25 7.02594 15.25 6.828V6.10925C15.25 5.91132 15.0886 5.74988 14.8906 5.74988ZM14.1719 9.34363C14.0806 9.34363 13.988 9.37872 13.9178 9.44891L12.7344 10.6323L12.2697 10.1677C12.1293 10.0273 11.9019 10.0273 11.7615 10.1677C11.6212 10.308 11.6212 10.5355 11.7615 10.6758L12.4803 11.3946C12.5505 11.4648 12.6417 11.4999 12.7344 11.4999C12.827 11.4999 12.9183 11.4648 12.9885 11.3946L14.426 9.95709C14.5663 9.81671 14.5663 9.58929 14.426 9.44891C14.3558 9.37872 14.2631 9.34363 14.1719 9.34363ZM5.1875 10.0624C4.98956 10.0624 4.82812 10.2238 4.82812 10.4218C4.82812 10.6197 4.98956 10.7811 5.1875 10.7811H7.34375C7.54169 10.7811 7.70312 10.6197 7.70312 10.4218C7.70312 10.2238 7.54169 10.0624 7.34375 10.0624H5.1875ZM8.78125 10.0624C8.58331 10.0624 8.42188 10.2238 8.42188 10.4218C8.42188 10.6197 8.58331 10.7811 8.78125 10.7811H10.2188C10.4167 10.7811 10.5781 10.6197 10.5781 10.4218C10.5781 10.2238 10.4167 10.0624 10.2188 10.0624H8.78125ZM14.1719 12.9374C14.0806 12.9374 13.988 12.9725 13.9178 13.0427L12.7344 14.2261L12.2697 13.7614C12.1293 13.621 11.9019 13.621 11.7615 13.7614C11.6212 13.9018 11.6212 14.1292 11.7615 14.2696L12.4803 14.9883C12.5505 15.0585 12.6417 15.0936 12.7344 15.0936C12.827 15.0936 12.9183 15.0585 12.9885 14.9883L14.426 13.5508C14.5663 13.4105 14.5663 13.183 14.426 13.0427C14.3558 12.9725 14.2631 12.9374 14.1719 12.9374ZM5.1875 13.6561C4.98956 13.6561 4.82812 13.8176 4.82812 14.0155C4.82812 14.2134 4.98956 14.3749 5.1875 14.3749H10.2188C10.4167 14.3749 10.5781 14.2134 10.5781 14.0155C10.5781 13.8176 10.4167 13.6561 10.2188 13.6561H5.1875ZM13.8125 17.2499H15.462L13.8125 18.8994V17.2499Z" fill="#62AA51"/>
</svg>
