<svg width="42" height="30" viewBox="0 0 42 30" fill="none"
    xmlns="http://www.w3.org/2000/svg">
    <path d="M42 26C42 28.209 40.209 30 38 30H4C1.791 30 0 28.209 0 26V4C0 1.791 1.791 0 4 0H38C40.209 0 42 1.791 42 4V26Z" fill="#1976D2"/>
    <path d="M19.255 10.9976L17.142 15.6806L15.039 10.9976H12.344V17.7236L9.341 10.9976H7.067L4 17.9786H5.815L6.486 16.4206H9.918L10.6 17.9786H14.065V12.7936L16.364 17.9786H17.927L20.278 12.8836V17.9786H22V10.9976H19.255ZM7.135 14.9126L8.161 12.4726L9.227 14.9126H7.135ZM34.883 14.4106L38 11.0156H35.783L33.789 13.1796L31.86 10.9976H25V17.9796H31.635L33.727 15.6686L35.767 17.9976H37.977L34.883 14.4106ZM30.728 16.5136H26.717V15.1326H30.555V13.8096H26.717V12.5016L30.951 12.5136L32.644 14.4106L30.728 16.5136Z" fill="white"/>
</svg>
