<svg width="40" height="40" viewBox="0 0 40 40" fill="none" xmlns="http://www.w3.org/2000/svg">
<path d="M16.0516 2.01876C15.8546 2.02126 15.6654 2.09637 15.5204 2.22969L12.6782 4.83438L8.88911 5.46563C8.75359 5.4883 8.62618 5.5455 8.51918 5.6317C8.41217 5.71791 8.32917 5.83022 8.27818 5.95782L6.85786 9.50782L3.70161 11.7188C3.58947 11.7971 3.49927 11.9028 3.43964 12.0259C3.38001 12.149 3.35293 12.2853 3.36099 12.4219L3.59849 16.2906L1.70474 19.6031C1.63569 19.724 1.59937 19.8608 1.59937 20C1.59937 20.1392 1.63569 20.276 1.70474 20.3969L3.59849 23.7094L3.36099 27.5781C3.35293 27.7147 3.38001 27.851 3.43964 27.9741C3.49927 28.0972 3.58947 28.2029 3.70161 28.2813L6.85786 30.4922L8.27818 34.0422C8.32917 34.1698 8.41217 34.2821 8.51918 34.3683C8.62618 34.4545 8.75359 34.5117 8.88911 34.5344L12.6782 35.1656L15.5204 37.7703C15.6223 37.8637 15.7467 37.929 15.8815 37.9599C16.0162 37.9909 16.1566 37.9864 16.2891 37.9469L20.0001 36.8422L23.711 37.9469C23.8435 37.9864 23.9839 37.9909 24.1186 37.9599C24.2534 37.929 24.3778 37.8637 24.4797 37.7703L27.3219 35.1656L31.111 34.5344C31.2465 34.5117 31.3739 34.4545 31.4809 34.3683C31.5879 34.2821 31.6709 34.1698 31.7219 34.0422L33.1422 30.4922L36.2985 28.2813C36.4106 28.2029 36.5008 28.0972 36.5605 27.9741C36.6201 27.851 36.6472 27.7147 36.6391 27.5781L36.4016 23.7094L38.2954 20.3969C38.3644 20.276 38.4007 20.1392 38.4007 20C38.4007 19.8608 38.3644 19.724 38.2954 19.6031L36.4016 16.2906L36.6391 12.4219C36.6472 12.2853 36.6201 12.149 36.5605 12.0259C36.5008 11.9028 36.4106 11.7971 36.2985 11.7188L33.1422 9.50782L31.7219 5.95782C31.6709 5.83022 31.5879 5.71791 31.4809 5.6317C31.3739 5.5455 31.2465 5.4883 31.111 5.46563L27.3219 4.83438L24.4797 2.22969C24.3778 2.13636 24.2534 2.07104 24.1186 2.0401C23.9839 2.00915 23.8435 2.01364 23.711 2.05313L20.0001 3.15782L16.2891 2.05313C16.2121 2.0298 16.1321 2.01821 16.0516 2.01876ZM16.2672 3.71563L19.7719 4.75938C19.9208 4.80366 20.0793 4.80366 20.2282 4.75938L23.7329 3.71563L26.4157 6.17501C26.5301 6.27937 26.6723 6.3483 26.8251 6.37344L30.4032 6.97032L31.7454 10.3234C31.8033 10.4678 31.9022 10.5922 32.0297 10.6813L35.0141 12.7719L34.7907 16.4313C34.781 16.5866 34.8169 16.7413 34.8938 16.8766L36.6782 20L34.8938 23.1234C34.8169 23.2587 34.781 23.4134 34.7907 23.5688L35.0141 27.2281L32.0297 29.3188C31.9022 29.4078 31.8033 29.5322 31.7454 29.6766L30.4032 33.0297L26.8251 33.6266C26.6723 33.6517 26.5301 33.7206 26.4157 33.825L23.7329 36.2844L20.2282 35.2406C20.0793 35.1964 19.9208 35.1964 19.7719 35.2406L16.2672 36.2844L13.5844 33.825C13.47 33.7206 13.3278 33.6517 13.1751 33.6266L9.59693 33.0297L8.25474 29.6766C8.19675 29.5322 8.09793 29.4078 7.97036 29.3188L4.98599 27.2281L5.20943 23.5688C5.21909 23.4134 5.18325 23.2587 5.1063 23.1234L3.32193 20L5.1063 16.8766C5.18325 16.7413 5.21909 16.5866 5.20943 16.4313L4.98599 12.7719L7.97036 10.6813C8.09793 10.5922 8.19675 10.4678 8.25474 10.3234L9.59693 6.97032L13.1751 6.37344C13.3278 6.3483 13.47 6.27937 13.5844 6.17501L16.2672 3.71563ZM27.2469 11.5672L18.4782 25.175L12.6157 19.8859L11.5438 21.0734L18.8032 27.625L28.5922 12.4328L27.2469 11.5672Z" fill="#62AA51"/>
</svg>
