<svg width="30" height="36" viewBox="0 0 30 36" fill="none"
    xmlns="http://www.w3.org/2000/svg">
    <path fill-rule="evenodd" clip-rule="evenodd" d="M12.1429 2.88C12.1429 1.29656 13.4291 0 15 0C16.5709 0 17.8571 1.29656 17.8571 2.88C17.8571 3.25125 17.7846 3.61125 17.6562 3.9375C21.6685 4.995 24.2857 8.51063 24.2857 12.96C24.2857 18.5991 25.6585 21.1669 26.9643 22.6125C27.5344 23.2437 28.0982 23.6583 28.6017 24.0285L28.6018 24.0286C28.6748 24.0823 28.7466 24.1351 28.817 24.1875C29.096 24.3928 29.3499 24.5981 29.5759 24.8625C29.8019 25.1269 30 25.5037 30 25.92C30 26.91 29.3973 27.7509 28.5491 28.305C27.7009 28.8591 26.5876 29.2162 25.2455 29.4975C23.5045 29.8603 21.356 30.0516 18.9955 30.15C19.1769 30.6253 19.2857 31.14 19.2857 31.68C19.2857 34.0566 17.3577 36 15 36C12.6423 36 10.7143 34.0566 10.7143 31.68C10.7143 31.1428 10.8259 30.6281 11.0045 30.15C8.64397 30.0516 6.49554 29.8603 4.75446 29.4975C3.41239 29.2162 2.29911 28.8591 1.45089 28.305C0.602679 27.7509 0 26.91 0 25.92C0 25.5037 0.198103 25.1269 0.424107 24.8625C0.650111 24.5981 0.904018 24.3928 1.18304 24.1875C1.25343 24.1351 1.32525 24.0823 1.39834 24.0285C1.90183 23.6583 2.46558 23.2437 3.03571 22.6125C4.34152 21.1669 5.71429 18.5991 5.71429 12.96C5.71429 8.50781 8.32589 4.98938 12.3438 3.9375C12.2154 3.61125 12.1429 3.25125 12.1429 2.88ZM16.4286 2.88C16.4286 2.07563 15.798 1.44 15 1.44C14.202 1.44 13.5714 2.07563 13.5714 2.88C13.5714 3.68438 14.202 4.32 15 4.32C15.798 4.32 16.4286 3.68438 16.4286 2.88ZM16.6741 5.175C20.4827 5.85844 22.8571 8.82563 22.8571 12.96C22.8571 18.8409 24.3415 21.8616 25.8929 23.58C26.5813 24.3414 27.2764 24.8502 27.7849 25.2224L27.7849 25.2224L27.7852 25.2226C27.8495 25.2697 27.9108 25.3146 27.9688 25.3575C28.2254 25.5488 28.418 25.7091 28.5045 25.8075C28.5765 25.8895 28.575 25.8973 28.5725 25.9107C28.572 25.9133 28.5714 25.9162 28.5714 25.92C28.5714 26.37 28.365 26.6991 27.7679 27.09C27.1708 27.4809 26.1998 27.8438 24.9554 28.1025C22.4665 28.6228 18.923 28.8 15 28.8C11.077 28.8 7.53348 28.6228 5.04464 28.1025C3.80022 27.8438 2.82924 27.4809 2.23214 27.09C1.63504 26.6991 1.42857 26.37 1.42857 25.92C1.42857 25.9162 1.42802 25.9133 1.42752 25.9107C1.425 25.8973 1.42352 25.8895 1.49554 25.8075C1.58203 25.7091 1.77455 25.5488 2.03125 25.3575C2.08928 25.3145 2.1507 25.2695 2.21511 25.2224L2.21512 25.2224C2.72363 24.8502 3.41868 24.3414 4.10714 23.58C5.65848 21.8616 7.14286 18.8409 7.14286 12.96C7.14286 8.82844 9.52009 5.88375 13.3259 5.1975C13.8002 5.54906 14.3722 5.76 15 5.76C15.6334 5.76 16.1998 5.53219 16.6741 5.175ZM13.2086 30.2107C12.986 30.2051 12.7648 30.1996 12.5446 30.195C12.2852 30.6281 12.1429 31.1344 12.1429 31.68C12.1429 33.2803 13.4124 34.56 15 34.56C16.5876 34.56 17.8571 33.2803 17.8571 31.68C17.8571 31.14 17.7093 30.6281 17.4554 30.195C17.2352 30.1996 17.0139 30.2051 16.7914 30.2107C16.2047 30.2252 15.6089 30.24 15 30.24C14.3911 30.24 13.7953 30.2252 13.2086 30.2107Z" fill="white"/>
</svg>
