<svg width="18" height="20" viewBox="0 0 18 20" fill="none" xmlns="http://www.w3.org/2000/svg">
<path fill-rule="evenodd" clip-rule="evenodd" d="M16.086 0.000471055C15.9972 -0.0041207 15.9099 0.024962 15.8319 0.0831282L14.4986 1.10256L13.1654 0.122926C13.0093 0.0050632 12.8532 0.0050632 12.697 0.122926L11.3638 1.10256L10.0306 0.122926C9.87444 0.0050632 9.71831 0.0050632 9.56218 0.122926L8.22896 1.10256L6.89573 0.122926C6.7396 0.0050632 6.58347 0.0050632 6.42734 0.122926L5.09411 1.10256L3.76089 0.122926C3.60476 0.0050632 3.44863 0.0050632 3.2925 0.122926L1.95928 1.10256L0.626049 0.122926C0.509718 0.0448612 0.352057 0.0050632 0.234194 0.0831282C0.078065 0.122926 0 0.240789 0 0.396918V18.8141C0 18.932 0.039798 19.01 0.117863 19.0881L0.901573 19.8718C0.979638 19.9499 1.0577 19.9897 1.17557 19.9897C1.25363 19.9897 1.33169 19.9514 1.40976 19.9116L2.74299 18.932L4.07621 19.9116C4.23234 20.0295 4.38847 20.0295 4.5446 19.9116L5.87782 18.932L7.21105 19.9116C7.36718 20.0295 7.52331 20.0295 7.67944 19.9116L9.01266 18.932L10.3459 19.9116C10.502 20.0295 10.6581 20.0295 10.8143 19.9116L12.1475 18.932L13.4807 19.9116C13.6369 20.0295 13.793 20.0295 13.9491 19.9116L15.2823 18.932L16.6156 19.9116C16.7319 19.9897 16.8896 20.0295 17.0074 19.9514C17.1238 19.8718 17.2416 19.7539 17.2416 19.5978V1.18063C17.2416 1.06277 17.2018 0.984701 17.1238 0.906636L16.34 0.122926C16.262 0.0448612 16.1747 0.0050632 16.086 0.000471055ZM3.5267 0.866838L4.85992 1.84648C5.01605 1.96434 5.17218 1.96434 5.32831 1.84648L6.66153 0.866838L7.99476 1.84648C8.15089 1.96434 8.30702 1.96434 8.46315 1.84648L9.79638 0.866838L11.1296 1.84648C11.2857 1.96434 11.4419 1.96434 11.598 1.84648L12.9312 0.866838L14.2644 1.84648C14.4206 1.96434 14.5767 1.96434 14.7328 1.84648L16.0278 0.866838L16.4579 1.33676V14.8956C16.2222 14.8956 16.0661 15.0517 16.0661 15.2874V16.0711C16.0661 16.3068 16.2222 16.463 16.4579 16.463V18.8141L15.5165 18.1085C15.3604 17.9906 15.2043 17.9906 15.0482 18.1085L13.7149 19.1279L12.3817 18.1483C12.3036 18.0702 12.2256 18.0304 12.1475 18.0304C12.0694 18.0304 11.9914 18.0687 11.9133 18.1085L10.5801 19.1279L9.24686 18.1483C9.09073 18.0304 8.9346 18.0304 8.77847 18.1483L7.44524 19.1279L6.11202 18.1483C5.95589 18.0304 5.79976 18.0304 5.64363 18.1483L4.3104 19.1279L2.97718 18.1483C2.82105 18.0304 2.66492 18.0304 2.50879 18.1483L1.21383 19.1279L0.78371 18.6564V16.463C1.01944 16.463 1.17557 16.3068 1.17557 16.0711V15.2874C1.17557 15.0517 1.01944 14.8956 0.78371 14.8956V1.18063L1.72508 1.88627C1.88121 2.00414 2.03734 2.00414 2.19347 1.88627L3.5267 0.866838ZM3.13484 4.31547C3.13484 4.07974 3.29097 3.92361 3.5267 3.92361H9.79638C10.0321 3.92361 10.1882 4.07974 10.1882 4.31547C10.1882 4.55119 10.0321 4.70732 9.79638 4.70732H3.5267C3.29097 4.70732 3.13484 4.55119 3.13484 4.31547ZM11.3638 3.92361C11.1281 3.92361 10.9719 4.07974 10.9719 4.31547C10.9719 4.55119 11.1281 4.70732 11.3638 4.70732H13.7149C13.9507 4.70732 14.1068 4.55119 14.1068 4.31547C14.1068 4.07974 13.9507 3.92361 13.7149 3.92361H11.3638ZM3.13484 5.88289C3.13484 5.64716 3.29097 5.49103 3.5267 5.49103H7.8371C8.07283 5.49103 8.22895 5.64716 8.22895 5.88289C8.22895 6.11861 8.07283 6.27474 7.8371 6.27474H3.5267C3.29097 6.27474 3.13484 6.11861 3.13484 5.88289ZM12.5394 5.49103C12.3036 5.49103 12.1475 5.64716 12.1475 5.88289V6.27474C11.4817 6.27474 10.9719 6.78446 10.9719 7.45031V8.62587C10.9719 9.29172 11.4817 9.80144 12.1475 9.80144H12.9312C13.1669 9.80144 13.3231 9.95757 13.3231 10.1933V11.3689C13.3231 11.6046 13.1669 11.7607 12.9312 11.7607H12.1475C11.9118 11.7607 11.7556 11.6046 11.7556 11.3689V10.977C11.7556 10.7413 11.5995 10.5851 11.3638 10.5851C11.1281 10.5851 10.9719 10.7413 10.9719 10.977V11.3689C10.9719 12.0347 11.4817 12.5444 12.1475 12.5444V12.9363C12.1475 13.172 12.3036 13.3281 12.5394 13.3281C12.7751 13.3281 12.9312 13.172 12.9312 12.9363V12.5444C13.5971 12.5444 14.1068 12.0347 14.1068 11.3689V10.1933C14.1068 9.52745 13.5971 9.01773 12.9312 9.01773H12.1475C11.9118 9.01773 11.7556 8.8616 11.7556 8.62587V7.45031C11.7556 7.21458 11.9118 7.05845 12.1475 7.05845H12.9312C13.1669 7.05845 13.3231 7.21458 13.3231 7.45031V7.84216C13.3231 8.07789 13.4792 8.23402 13.7149 8.23402C13.9507 8.23402 14.1068 8.07789 14.1068 7.84216V7.45031C14.1068 6.78446 13.5971 6.27474 12.9312 6.27474V5.88289C12.9312 5.64716 12.7751 5.49103 12.5394 5.49103ZM3.13484 9.01773C3.13484 8.782 3.29097 8.62587 3.5267 8.62587H7.44524C7.68097 8.62587 7.8371 8.782 7.8371 9.01773C7.8371 9.25345 7.68097 9.40958 7.44524 9.40958H3.5267C3.29097 9.40958 3.13484 9.25345 3.13484 9.01773ZM3.5267 10.1933C3.29097 10.1933 3.13484 10.3494 3.13484 10.5851C3.13484 10.8209 3.29097 10.977 3.5267 10.977H8.62081C8.85654 10.977 9.01266 10.8209 9.01266 10.5851C9.01266 10.3494 8.85654 10.1933 8.62081 10.1933H3.5267ZM3.13484 12.1526C3.13484 11.9168 3.29097 11.7607 3.5267 11.7607H5.09412C5.32984 11.7607 5.48597 11.9168 5.48597 12.1526C5.48597 12.3883 5.32984 12.5444 5.09412 12.5444H3.5267C3.29097 12.5444 3.13484 12.3883 3.13484 12.1526ZM6.66154 11.7607C6.42581 11.7607 6.26968 11.9168 6.26968 12.1526C6.26968 12.3883 6.42581 12.5444 6.66154 12.5444H7.44524C7.68097 12.5444 7.8371 12.3883 7.8371 12.1526C7.8371 11.9168 7.68097 11.7607 7.44524 11.7607H6.66154ZM2.35113 15.2874C2.35113 15.0517 2.50726 14.8956 2.74299 14.8956C2.97871 14.8956 3.13484 15.0517 3.13484 15.2874V16.0711C3.13484 16.3068 2.97871 16.463 2.74299 16.463C2.50726 16.463 2.35113 16.3068 2.35113 16.0711V15.2874ZM4.70226 14.8956C4.46653 14.8956 4.3104 15.0517 4.3104 15.2874V16.0711C4.3104 16.3068 4.46653 16.463 4.70226 16.463C4.93799 16.463 5.09411 16.3068 5.09411 16.0711V15.2874C5.09411 15.0517 4.93799 14.8956 4.70226 14.8956ZM6.26968 15.2874C6.26968 15.0517 6.42581 14.8956 6.66154 14.8956C6.89726 14.8956 7.05339 15.0517 7.05339 15.2874V16.0711C7.05339 16.3068 6.89726 16.463 6.66154 16.463C6.42581 16.463 6.26968 16.3068 6.26968 16.0711V15.2874ZM8.62081 14.8956C8.38509 14.8956 8.22896 15.0517 8.22896 15.2874V16.0711C8.22896 16.3068 8.38509 16.463 8.62081 16.463C8.85654 16.463 9.01266 16.3068 9.01266 16.0711V15.2874C9.01266 15.0517 8.85654 14.8956 8.62081 14.8956ZM10.1882 15.2874C10.1882 15.0517 10.3444 14.8956 10.5801 14.8956C10.8158 14.8956 10.9719 15.0517 10.9719 15.2874V16.0711C10.9719 16.3068 10.8158 16.463 10.5801 16.463C10.3444 16.463 10.1882 16.3068 10.1882 16.0711V15.2874ZM12.5394 14.8956C12.3036 14.8956 12.1475 15.0517 12.1475 15.2874V16.0711C12.1475 16.3068 12.3036 16.463 12.5394 16.463C12.7751 16.463 12.9312 16.3068 12.9312 16.0711V15.2874C12.9312 15.0517 12.7751 14.8956 12.5394 14.8956ZM14.1068 15.2874C14.1068 15.0517 14.2629 14.8956 14.4986 14.8956C14.7344 14.8956 14.8905 15.0517 14.8905 15.2874V16.0711C14.8905 16.3068 14.7344 16.463 14.4986 16.463C14.2629 16.463 14.1068 16.3068 14.1068 16.0711V15.2874Z" fill="#62AA51"/>
</svg>
