<svg width="40" height="40" viewBox="0 0 40 40" fill="none" xmlns="http://www.w3.org/2000/svg">
<path d="M20 0.800003C18.2406 0.800003 16.8 2.24063 16.8 4V4.8H9.59995C8.28433 4.8 7.19995 5.88438 7.19995 7.2V36.8C7.19995 38.1156 8.28433 39.2 9.59995 39.2H30.4C31.7156 39.2 32.8 38.1156 32.8 36.8V7.2C32.8 5.88438 31.7156 4.8 30.4 4.8H23.2V4C23.2 2.24063 21.7593 0.800003 20 0.800003ZM20 2.4C20.8937 2.4 21.6 3.10625 21.6 4V5.46563C21.5843 5.55313 21.5843 5.64063 21.6 5.725V7.2H18.4V5.73438C18.4156 5.64688 18.4156 5.55938 18.4 5.475V4C18.4 3.10625 19.1062 2.4 20 2.4ZM20 3.2C19.5593 3.2 19.2 3.55938 19.2 4C19.2 4.44063 19.5593 4.8 20 4.8C20.4406 4.8 20.8 4.44063 20.8 4C20.8 3.55938 20.4406 3.2 20 3.2ZM9.59995 6.4H16.8V8C16.8 8.44063 17.1593 8.8 17.6 8.8H22.4C22.8406 8.8 23.2 8.44063 23.2 8V6.4H30.4C30.8531 6.4 31.2 6.74688 31.2 7.2V36.8C31.2 37.2531 30.8531 37.6 30.4 37.6H9.59995C9.14683 37.6 8.79995 37.2531 8.79995 36.8V7.2C8.79995 6.74688 9.14683 6.4 9.59995 6.4ZM17.5843 16.7906C17.375 16.7969 17.1781 16.8844 17.0343 17.0344L11.4343 22.6344C11.1218 22.9469 11.1218 23.4531 11.4343 23.7656L17.0343 29.3656C17.2343 29.575 17.5343 29.6594 17.8125 29.5844C18.0937 29.5125 18.3125 29.2938 18.3843 29.0125C18.4593 28.7344 18.375 28.4344 18.1656 28.2344L13.9312 24H28C28.2875 24.0031 28.5562 23.8531 28.7031 23.6031C28.8468 23.3531 28.8468 23.0469 28.7031 22.7969C28.5562 22.5469 28.2875 22.3969 28 22.4H13.9312L18.1656 18.1656C18.4031 17.9344 18.4718 17.5844 18.3437 17.2813C18.2156 16.975 17.9156 16.7813 17.5843 16.7906Z" fill="#62AA51"/>
</svg>
