<svg width="40" height="40" viewBox="0 0 40 40" fill="none" xmlns="http://www.w3.org/2000/svg">
<path d="M7.85005 3.20001C7.68755 3.22814 7.54067 3.30939 7.42505 3.42501L4.35005 6.52501C4.3063 6.55314 4.26255 6.58751 4.22505 6.62501C4.2063 6.64064 4.19067 6.65626 4.17505 6.67501C4.1563 6.70001 4.14067 6.72501 4.12505 6.75001C4.0938 6.79689 4.0688 6.84689 4.05005 6.90001C4.02192 6.97189 4.0063 7.04689 4.00005 7.12501C3.9938 7.18439 3.9938 7.24064 4.00005 7.30001C4.00005 7.32501 4.00005 7.35001 4.00005 7.37501V36C4.00005 36.4406 4.35942 36.8 4.80005 36.8H35.2C35.6407 36.8 36 36.4406 36 36V7.32501C36.0032 7.28439 36.0032 7.24064 36 7.20001C36 7.19064 36 7.18439 36 7.17501C36 7.15939 36 7.14064 36 7.12501C36 7.10939 36 7.09064 36 7.07501C35.9938 7.04064 35.9844 7.00626 35.975 6.97501C35.9625 6.93126 35.9438 6.89064 35.925 6.85001C35.9157 6.84064 35.9094 6.83439 35.9 6.82501C35.8719 6.77189 35.8375 6.72189 35.8 6.67501C35.8 6.66564 35.8 6.65939 35.8 6.65001C35.7907 6.64064 35.7844 6.63439 35.775 6.62501H35.75C35.7344 6.60626 35.7188 6.59064 35.7 6.57501L32.575 3.42501C32.4219 3.27501 32.2125 3.19376 32 3.20001H8.00005C7.97505 3.20001 7.95005 3.20001 7.92505 3.20001C7.90005 3.20001 7.87505 3.20001 7.85005 3.20001ZM8.35005 4.80001H31.65L33.25 6.40001H24C23.5594 6.40001 23.2 6.75939 23.2 7.20001C23.2 9.02189 21.8219 10.4 20 10.4C18.1782 10.4 16.8 9.02189 16.8 7.20001C16.8 6.75939 16.4407 6.40001 16 6.40001H6.75005L8.35005 4.80001ZM5.60005 8.00001H15.35C15.7407 10.2625 17.625 12 20 12C22.375 12 24.2594 10.2625 24.65 8.00001H34.4V35.2H5.60005V8.00001ZM20 15.2C15.5907 15.2 12 18.7906 12 23.2C12 27.6094 15.5907 31.2 20 31.2C24.4094 31.2 28 27.6094 28 23.2C28 18.7906 24.4094 15.2 20 15.2ZM20 16.8C23.5438 16.8 26.4 19.6563 26.4 23.2C26.4 26.7438 23.5438 29.6 20 29.6C16.4563 29.6 13.6 26.7438 13.6 23.2C13.6 19.6563 16.4563 16.8 20 16.8ZM19.2 18.4V22.8L16.325 24.95L17.275 26.25L20.475 23.85L20.8 23.6V18.4H19.2Z" fill="#62AA51"/>
</svg>
