<svg width="15" height="15" viewBox="0 0 15 15" fill="none"
    xmlns="http://www.w3.org/2000/svg">
    <path fill-rule="evenodd" clip-rule="evenodd" d="M1.0275 1.34V3.58H0.7475C0.439063 3.58 0.1875 3.83156 0.1875 4.14V6.38C0.1875 6.68844 0.439063 6.94 0.7475 6.94H1.0275V13.66C1.0275 14.1358 1.39172 14.5 1.8675 14.5H13.0675C13.5433 14.5 13.9075 14.1358 13.9075 13.66V6.94H14.1875C14.4959 6.94 14.7475 6.68844 14.7475 6.38V4.14C14.7475 3.80422 14.4959 3.58 14.1875 3.58H13.9075V1.34C13.9075 0.864219 13.5433 0.5 13.0675 0.5H1.8675C1.39172 0.5 1.0275 0.864219 1.0275 1.34ZM13.0675 1.06C13.2359 1.06 13.3475 1.17156 13.3475 1.34V4.98H1.5875V1.34C1.5875 1.17156 1.69906 1.06 1.8675 1.06H13.0675ZM7.8875 1.95578L7.3275 2.23578C7.1875 2.29156 7.13172 2.46 7.1875 2.6C7.24328 2.74 7.41172 2.79578 7.55172 2.74L7.69172 2.65578V3.86C7.69172 4.02844 7.80328 4.14 7.97172 4.14C8.14016 4.14 8.25172 4.02844 8.25172 3.86V2.18C8.3075 2.09578 8.25172 1.98422 8.1675 1.95578C8.12594 1.92734 8.07672 1.91422 8.0275 1.91422C7.97828 1.91422 7.92906 1.92734 7.8875 1.95578ZM11.5275 1.95578L10.9675 2.23578C10.8275 2.29156 10.7717 2.46 10.8275 2.6C10.8833 2.74 11.0517 2.79578 11.1917 2.74L11.3317 2.65578V3.86C11.3317 4.02844 11.4433 4.14 11.6117 4.14C11.7802 4.14 11.8917 4.02844 11.8917 3.86V2.18C11.9475 2.09578 11.8917 1.98422 11.8075 1.95578C11.7659 1.92734 11.7167 1.91422 11.6675 1.91422C11.6183 1.91422 11.5691 1.92734 11.5275 1.95578ZM9.4275 2.46V2.74H9.1475C8.97906 2.74 8.8675 2.85156 8.8675 3.02C8.8675 3.18844 8.97906 3.3 9.1475 3.3H9.4275V3.58C9.4275 3.74844 9.53906 3.86 9.7075 3.86C9.87594 3.86 9.9875 3.74844 9.9875 3.58V3.3H10.2675C10.4359 3.3 10.5475 3.18844 10.5475 3.02C10.5475 2.85156 10.4359 2.74 10.2675 2.74H9.9875V2.46C9.9875 2.29156 9.87594 2.18 9.7075 2.18C9.53906 2.18 9.4275 2.29156 9.4275 2.46ZM1.0275 4.14V6.38H0.7475V4.14H1.0275ZM14.1875 4.14V6.38H13.9075V4.14H14.1875ZM13.3475 5.54V13.66C13.3475 13.8284 13.2359 13.94 13.0675 13.94H1.8675C1.69906 13.94 1.5875 13.8284 1.5875 13.66V5.54H13.3475ZM2.9875 6.38V6.94C2.9875 7.10844 3.09906 7.22 3.2675 7.22C3.43594 7.22 3.5475 7.10844 3.5475 6.94V6.38C3.5475 6.21156 3.43594 6.1 3.2675 6.1C3.09906 6.1 2.9875 6.21156 2.9875 6.38ZM4.3875 6.38V6.94C4.3875 7.10844 4.49906 7.22 4.6675 7.22C4.83594 7.22 4.9475 7.10844 4.9475 6.94V6.38C4.9475 6.21156 4.83594 6.1 4.6675 6.1C4.49906 6.1 4.3875 6.21156 4.3875 6.38ZM5.7875 6.38V6.94C5.7875 7.10844 5.89906 7.22 6.0675 7.22C6.23594 7.22 6.3475 7.10844 6.3475 6.94V6.38C6.3475 6.21156 6.23594 6.1 6.0675 6.1C5.89906 6.1 5.7875 6.21156 5.7875 6.38ZM7.1875 6.38V6.94C7.1875 7.10844 7.29906 7.22 7.4675 7.22C7.63594 7.22 7.7475 7.10844 7.7475 6.94V6.38C7.7475 6.21156 7.63594 6.1 7.4675 6.1C7.29906 6.1 7.1875 6.21156 7.1875 6.38ZM8.5875 6.38V6.94C8.5875 7.10844 8.69906 7.22 8.8675 7.22C9.03594 7.22 9.1475 7.10844 9.1475 6.94V6.38C9.1475 6.21156 9.03594 6.1 8.8675 6.1C8.69906 6.1 8.5875 6.21156 8.5875 6.38ZM9.9875 6.38V6.94C9.9875 7.10844 10.0991 7.22 10.2675 7.22C10.4359 7.22 10.5475 7.10844 10.5475 6.94V6.38C10.5475 6.21156 10.4359 6.1 10.2675 6.1C10.0991 6.1 9.9875 6.21156 9.9875 6.38ZM11.3875 6.38V6.94C11.3875 7.10844 11.4991 7.22 11.6675 7.22C11.8359 7.22 11.9475 7.10844 11.9475 6.94V6.38C11.9475 6.21156 11.8359 6.1 11.6675 6.1C11.4991 6.1 11.3875 6.21156 11.3875 6.38ZM2.7075 8.34V9.46C2.7075 9.76844 2.95906 10.02 3.2675 10.02H4.9475C5.25594 10.02 5.5075 9.76844 5.5075 9.46V8.34C5.5075 8.03156 5.25594 7.78 4.9475 7.78H3.2675C2.95906 7.78 2.7075 8.03156 2.7075 8.34ZM6.0675 8.34V9.46C6.0675 9.76844 6.31906 10.02 6.6275 10.02H8.3075C8.61594 10.02 8.8675 9.76844 8.8675 9.46V8.34C8.8675 8.03156 8.61594 7.78 8.3075 7.78H6.6275C6.31906 7.78 6.0675 8.03156 6.0675 8.34ZM9.4275 8.34V12.26C9.4275 12.5684 9.67906 12.82 9.9875 12.82H11.6675C11.9759 12.82 12.2275 12.5684 12.2275 12.26V8.34C12.2275 8.03156 11.9759 7.78 11.6675 7.78H9.9875C9.67906 7.78 9.4275 8.03156 9.4275 8.34ZM4.9475 8.34V9.46H3.2675V8.34H4.9475ZM8.3075 8.34V9.46H6.6275V8.34H8.3075ZM11.6675 8.34V12.26H9.9875V8.34H11.6675ZM2.7075 11.14V12.26C2.7075 12.5684 2.95906 12.82 3.2675 12.82H4.9475C5.25594 12.82 5.5075 12.5684 5.5075 12.26V11.14C5.5075 10.8316 5.25594 10.58 4.9475 10.58H3.2675C2.95906 10.58 2.7075 10.8316 2.7075 11.14ZM6.0675 11.14V12.26C6.0675 12.5684 6.31906 12.82 6.6275 12.82H8.3075C8.61594 12.82 8.8675 12.5684 8.8675 12.26V11.14C8.8675 10.8316 8.61594 10.58 8.3075 10.58H6.6275C6.31906 10.58 6.0675 10.8316 6.0675 11.14ZM4.9475 11.14V12.26H3.2675V11.14H4.9475ZM8.3075 11.14V12.26H6.6275V11.14H8.3075Z" fill="#101E8E"/>
</svg>
