<svg width="25" height="26" viewBox="0 0 25 26" fill="none"
    xmlns="http://www.w3.org/2000/svg">
    <path fill-rule="evenodd" clip-rule="evenodd" d="M4.34783 1.08333C4.34783 0.490885 4.84035 0 5.43478 0H6.52174C7.11617 0 7.6087 0.490885 7.6087 1.08333V2.16667H17.3913V1.08333C17.3913 0.490885 17.8838 0 18.4783 0H19.5652C20.1596 0 20.6522 0.490885 20.6522 1.08333V2.16667H23.913C24.1975 2.16667 24.4862 2.27034 24.6922 2.47559C24.896 2.67871 25 2.96647 25 3.25V24.9167C25 25.2002 24.896 25.488 24.6922 25.6932C24.4862 25.8963 24.1975 26 23.913 26H1.08696C0.80248 26 0.513757 25.8963 0.309953 25.6932C0.104025 25.488 0 25.2002 0 24.9167V3.25C0 2.96647 0.104025 2.67871 0.309953 2.47559C0.513757 2.27034 0.80248 2.16667 1.08696 2.16667H4.34783V1.08333ZM6.5225 1.08398H5.43555V4.33398H6.5225V1.08398ZM18.4785 1.08398H19.5655V4.33398H18.4785V1.08398ZM4.34876 3.25H1.08789V7.04167H23.914V3.25H20.6531V4.33333C20.6531 4.92578 20.1606 5.41667 19.5662 5.41667H18.4792C17.8848 5.41667 17.3922 4.92578 17.3922 4.33333V3.25H7.60963V4.33333C7.60963 4.92578 7.1171 5.41667 6.52267 5.41667H5.43572C4.84129 5.41667 4.34876 4.92578 4.34876 4.33333V3.25ZM1.08789 8.125H23.914V24.9167H1.08789V8.125ZM4.34766 22.7493V10.291H20.652V22.7493H4.34766ZM5.43555 11.375H8.15294V14.0833H5.43555V11.375ZM11.9557 11.375H9.23828V14.0833H11.9557V11.375ZM13.043 11.375H15.7604V14.0833H13.043V11.375ZM19.5652 11.375H16.8478V14.0833H19.5652V11.375ZM5.43555 15.166H8.15294V17.8743H5.43555V15.166ZM11.9557 15.166H9.23828V17.8743H11.9557V15.166ZM13.043 15.166H15.7604V17.8743H13.043V15.166ZM19.565 15.166H16.8477V17.8743H19.565V15.166ZM5.43555 18.959H8.15294V21.6673H5.43555V18.959ZM11.9557 18.959H9.23828V21.6673H11.9557V18.959ZM13.043 18.959H15.7604V21.6673H13.043V18.959ZM19.565 18.959H16.8477V21.6673H19.565V18.959Z" fill="#101E8E"/>
</svg>
