<svg width="44" height="30" viewBox="0 0 44 30" fill="none"
    xmlns="http://www.w3.org/2000/svg">
    <path d="M3.46176 29.425C1.87061 29.425 0.577148 28.1304 0.577148 26.5404V3.46347C0.577148 1.87347 1.87061 0.578857 3.46176 0.578857H40.3848C41.976 0.578857 43.2695 1.87347 43.2695 3.46347V26.5404C43.2695 28.1304 41.976 29.425 40.3848 29.425H3.46176Z" fill="#8BB7F0"/>
    <path d="M40.3846 1.15385C41.6573 1.15385 42.6923 2.18885 42.6923 3.46154V26.5385C42.6923 27.8112 41.6573 28.8462 40.3846 28.8462H3.46154C2.18885 28.8462 1.15385 27.8112 1.15385 26.5385V3.46154C1.15385 2.18885 2.18885 1.15385 3.46154 1.15385H40.3846ZM40.3846 0H3.46154C1.54962 0 0 1.54962 0 3.46154V26.5385C0 28.4504 1.54962 30 3.46154 30H40.3846C42.2965 30 43.8462 28.4504 43.8462 26.5385V3.46154C43.8462 1.54962 42.2965 0 40.3846 0Z" fill="#4E7AB5"/>
    <path d="M18.4614 15.0023C18.4614 11.9308 19.8033 9.17883 21.9229 7.27729C20.0849 5.62845 17.6629 4.61768 14.9999 4.61768C9.26408 4.61768 4.61523 9.26652 4.61523 15.0023C4.61523 20.7381 9.26408 25.3869 14.9999 25.3869C17.6629 25.3869 20.0849 24.3761 21.9229 22.7273C19.8033 20.8258 18.4614 18.0738 18.4614 15.0023Z" fill="#C74343"/>
    <path d="M28.8459 4.61768C26.1829 4.61768 23.7609 5.62845 21.9229 7.27729C24.0425 9.17883 25.3844 11.9308 25.3844 15.0023C25.3844 18.0738 24.0425 20.8258 21.9229 22.7273C23.7609 24.3761 26.1829 25.3869 28.8459 25.3869C34.5817 25.3869 39.2305 20.7381 39.2305 15.0023C39.2305 9.26652 34.5817 4.61768 28.8459 4.61768Z" fill="#FFEEA3"/>
    <path d="M25.384 15.0043C25.384 11.9328 24.0421 9.18084 21.9225 7.2793C19.8029 9.18084 18.4609 11.9328 18.4609 15.0043C18.4609 18.0758 19.8029 20.8278 21.9225 22.7293C24.0421 20.8278 25.384 18.0758 25.384 15.0043Z" fill="#FFC49C"/>
</svg>
