<svg width="25" height="26" viewBox="0 0 25 26" fill="none"
    xmlns="http://www.w3.org/2000/svg">
    <path fill-rule="evenodd" clip-rule="evenodd" d="M10.5244 1.60913C10.553 0.707764 11.2814 0 12.1859 0C13.092 0 13.822 0.707764 13.8506 1.60913L13.8696 2.25024C14.2092 1.8678 14.7043 1.625 15.2534 1.625C16.2611 1.625 17.0736 2.4137 17.1022 3.42139L17.1482 5.07178C17.4894 4.70203 17.9781 4.46875 18.5209 4.46875C19.3207 4.46875 19.9951 4.97498 20.257 5.6875H23.1562C23.8275 5.6875 24.375 6.23499 24.375 6.90625V18.2812C24.375 18.9525 23.8275 19.5 23.1562 19.5H21.0441C21.0282 20.2823 20.9139 21.0568 20.6823 21.8105L19.6587 25.1399C19.5 25.6541 19.0319 26 18.4923 26H8.62646C8.16309 26 7.74414 25.7413 7.53625 25.3271L6.56189 23.3768L4.85596 21.2456C4.42273 20.7061 4.06567 20.1189 3.77844 19.5H1.21875C0.547485 19.5 0 18.9525 0 18.2812V6.90625C0 6.23499 0.547485 5.6875 1.21875 5.6875H7.22363L7.27917 3.42456C7.30298 2.41528 8.11389 1.625 9.12158 1.625C9.67224 1.625 10.1674 1.86621 10.5054 2.24707L10.5244 1.60913ZM13.0385 1.63452C13.0242 1.17432 12.6512 0.8125 12.1895 0.8125C11.7245 0.8125 11.3516 1.17432 11.3373 1.63452L11.2119 5.6875H13.1638L13.0385 1.63452ZM9.12476 2.4375C9.69287 2.4375 10.1562 2.90088 10.1562 3.46899V5.6875H8.03613L8.09167 3.4436C8.10437 2.88977 8.56775 2.4375 9.12476 2.4375ZM16.2897 3.4436C16.2738 2.88025 15.8184 2.4375 15.2534 2.4375C14.6837 2.4375 14.2188 2.90247 14.2188 3.47217V5.6875H16.3516L16.2897 3.4436ZM18.5225 5.28125C18.8573 5.28125 19.1556 5.44153 19.3477 5.6875H17.6973C17.8909 5.44153 18.186 5.28125 18.5225 5.28125ZM23.1562 6.5H1.21875C0.994995 6.5 0.8125 6.6825 0.8125 6.90625V18.2812C0.8125 18.505 0.994995 18.6875 1.21875 18.6875H3.44836C3.24365 18.0924 3.10242 17.4735 3.03418 16.8403L2.5708 12.6207C2.52795 12.2177 2.68665 11.8193 2.99609 11.5575C3.30872 11.2941 3.72607 11.2052 4.11804 11.3163C5.30664 11.6559 6.2572 12.5081 6.72217 13.6538L7.84412 16.4087C8.01074 16.8181 8.25037 17.1799 8.53601 17.4926C8.53601 17.4886 8.53482 17.4846 8.53363 17.4807C8.53244 17.4767 8.53125 17.4727 8.53125 17.4688V16.6562C8.53125 16.4309 8.71216 16.25 8.9375 16.25C9.16284 16.25 9.34375 16.4309 9.34375 16.6562V17.4688C9.34375 17.6925 9.16443 17.8718 8.94226 17.875C9.57703 18.386 10.3737 18.6875 11.2306 18.6875H23.1562C23.38 18.6875 23.5625 18.505 23.5625 18.2812V6.90625C23.5625 6.6825 23.38 6.5 23.1562 6.5ZM6.90625 7.3125C6.68091 7.3125 6.5 7.49341 6.5 7.71875V8.53125C6.5 8.75659 6.68091 8.9375 6.90625 8.9375C7.13159 8.9375 7.3125 8.75659 7.3125 8.53125V7.71875C7.3125 7.49341 7.13159 7.3125 6.90625 7.3125ZM8.53125 7.71875C8.53125 7.49341 8.71216 7.3125 8.9375 7.3125C9.16284 7.3125 9.34375 7.49341 9.34375 7.71875V8.53125C9.34375 8.75659 9.16284 8.9375 8.9375 8.9375C8.71216 8.9375 8.53125 8.75659 8.53125 8.53125V7.71875ZM10.9688 7.3125C10.7434 7.3125 10.5625 7.49341 10.5625 7.71875V8.53125C10.5625 8.5434 10.5658 8.55446 10.5692 8.56571L10.5692 8.56571C10.5715 8.57356 10.5739 8.58149 10.5752 8.58997C9.36597 9.31995 8.53125 10.8386 8.53125 12.5938C8.53125 14.3489 9.36597 15.8676 10.5752 16.5975C10.5739 16.606 10.5715 16.6139 10.5692 16.6218C10.5658 16.633 10.5625 16.6441 10.5625 16.6562V17.4688C10.5625 17.6941 10.7434 17.875 10.9688 17.875C11.1941 17.875 11.375 17.6941 11.375 17.4688V16.9482C11.6368 17.0197 11.9082 17.0625 12.1875 17.0625C12.4668 17.0625 12.7382 17.0197 13 16.9482V17.4688C13 17.6941 13.1809 17.875 13.4062 17.875C13.6316 17.875 13.8125 17.6941 13.8125 17.4688V16.6562C13.8125 16.6441 13.8092 16.633 13.8058 16.6218C13.8035 16.6139 13.8011 16.606 13.7998 16.5975C15.009 15.8676 15.8438 14.3489 15.8438 12.5938C15.8438 10.8386 15.009 9.31995 13.7998 8.58997C13.8011 8.58149 13.8035 8.57356 13.8058 8.56571L13.8058 8.56571C13.8092 8.55446 13.8125 8.5434 13.8125 8.53125V7.71875C13.8125 7.49341 13.6316 7.3125 13.4062 7.3125C13.1809 7.3125 13 7.49341 13 7.71875V8.23926C12.7382 8.16785 12.4668 8.125 12.1875 8.125C11.9082 8.125 11.6368 8.16785 11.375 8.23926V7.71875C11.375 7.49341 11.1941 7.3125 10.9688 7.3125ZM15.0312 7.71875C15.0312 7.49341 15.2122 7.3125 15.4375 7.3125C15.6628 7.3125 15.8438 7.49341 15.8438 7.71875V8.53125C15.8438 8.75659 15.6628 8.9375 15.4375 8.9375C15.2122 8.9375 15.0312 8.75659 15.0312 8.53125V7.71875ZM17.4688 7.3125C17.2434 7.3125 17.0625 7.49341 17.0625 7.71875V8.53125C17.0625 8.75659 17.2434 8.9375 17.4688 8.9375C17.6941 8.9375 17.875 8.75659 17.875 8.53125V7.71875C17.875 7.49341 17.6941 7.3125 17.4688 7.3125ZM1.625 8.125C1.625 7.89966 1.80591 7.71875 2.03125 7.71875H4.0625C4.28784 7.71875 4.46875 7.89966 4.46875 8.125C4.46875 8.35034 4.28784 8.53125 4.0625 8.53125H2.03125C1.80591 8.53125 1.625 8.35034 1.625 8.125ZM20.3125 7.71875C20.0872 7.71875 19.9062 7.89966 19.9062 8.125C19.9062 8.35034 20.0872 8.53125 20.3125 8.53125H22.3438C22.5691 8.53125 22.75 8.35034 22.75 8.125C22.75 7.89966 22.5691 7.71875 22.3438 7.71875H20.3125ZM15.0312 12.5938C15.0312 10.5768 13.7554 8.9375 12.1875 8.9375C10.6196 8.9375 9.34375 10.5768 9.34375 12.5938C9.34375 14.6107 10.6196 16.25 12.1875 16.25C13.7554 16.25 15.0312 14.6107 15.0312 12.5938ZM19.5 10.9688C18.6034 10.9688 17.875 11.6971 17.875 12.5938C17.875 13.4904 18.6034 14.2188 19.5 14.2188C20.3966 14.2188 21.125 13.4904 21.125 12.5938C21.125 11.6971 20.3966 10.9688 19.5 10.9688ZM20.4475 12.5938C20.4475 12.0717 20.0222 11.6464 19.5001 11.6464C18.978 11.6464 18.5527 12.0717 18.5527 12.5938C18.5527 13.1158 18.978 13.5411 19.5001 13.5411C20.0222 13.5411 20.4475 13.1158 20.4475 12.5938ZM3.79565 12.0811C3.82739 12.0827 3.8623 12.0875 3.89562 12.0986C4.84142 12.3684 5.59838 13.0476 5.96972 13.96L7.09008 16.7149C7.7788 18.4066 9.4038 19.5 11.2303 19.5H20.2345C20.217 20.2014 20.1139 20.8964 19.906 21.5709L18.8824 24.9002C18.8285 25.0716 18.673 25.1875 18.4921 25.1875H8.62621C8.47228 25.1875 8.33264 25.1018 8.2644 24.9637L7.2694 22.9737C7.26598 22.9669 7.26071 22.9614 7.25534 22.9558C7.25075 22.9511 7.24608 22.9462 7.24243 22.9404C7.23869 22.9344 7.23601 22.9281 7.23339 22.9219C7.23045 22.9149 7.22758 22.9082 7.22338 22.9023L5.48889 20.7378C5.06835 20.2109 4.74145 19.6079 4.3717 18.8398C4.09875 18.1749 3.91943 17.4735 3.84008 16.7514L3.37829 12.5318C3.36401 12.3953 3.41638 12.2668 3.52111 12.1779C3.60046 12.1113 3.69567 12.078 3.79565 12.0811ZM15.0312 16.6562C15.0312 16.4309 15.2122 16.25 15.4375 16.25C15.6628 16.25 15.8438 16.4309 15.8438 16.6562V17.4688C15.8438 17.6941 15.6628 17.875 15.4375 17.875C15.2122 17.875 15.0312 17.6941 15.0312 17.4688V16.6562ZM17.4688 16.25C17.2434 16.25 17.0625 16.4309 17.0625 16.6562V17.4688C17.0625 17.6941 17.2434 17.875 17.4688 17.875C17.6941 17.875 17.875 17.6941 17.875 17.4688V16.6562C17.875 16.4309 17.6941 16.25 17.4688 16.25ZM19.9062 17.0625C19.9062 16.8372 20.0872 16.6562 20.3125 16.6562H22.3438C22.5691 16.6562 22.75 16.8372 22.75 17.0625C22.75 17.2878 22.5691 17.4688 22.3438 17.4688H20.3125C20.0872 17.4688 19.9062 17.2878 19.9062 17.0625Z" fill="#62AA51"/>
</svg>
