<svg width="27" height="21" viewBox="0 0 27 21" fill="none" xmlns="http://www.w3.org/2000/svg">
<path fill-rule="evenodd" clip-rule="evenodd" d="M0.412109 2.08623C0.412109 1.06771 1.24583 0.234375 2.26482 0.234375H21.533C22.5519 0.234375 23.3857 1.06771 23.3857 2.08623V5.41956H24.4973C25.5163 5.41956 26.35 6.25289 26.35 7.27141V18.3825C26.35 19.401 25.5163 20.2344 24.4973 20.2344H5.97023C4.95124 20.2344 4.11752 19.401 4.11752 18.3825V15.7899H2.26482C1.24583 15.7899 0.412109 14.9566 0.412109 13.9381V2.08623ZM21.533 0.975116H2.26482C1.64676 0.975116 1.15319 1.46846 1.15319 2.08623V3.19734H22.6446V2.08623C22.6446 1.46846 22.151 0.975116 21.533 0.975116ZM1.15319 4.67882H22.6446V13.9381C22.6446 14.5558 22.151 15.0492 21.533 15.0492H2.26482C1.64676 15.0492 1.15319 14.5558 1.15319 13.9381V4.67882ZM24.4973 6.1603H23.3857V8.38252H25.6089V7.27141C25.6089 6.65365 25.1153 6.1603 24.4973 6.1603ZM2.63536 7.27141C2.43127 7.27141 2.26482 7.43779 2.26482 7.64178C2.26482 7.84578 2.43127 8.01215 2.63536 8.01215C2.83944 8.01215 3.0059 7.84578 3.0059 7.64178C3.0059 7.43779 2.83944 7.27141 2.63536 7.27141ZM3.74698 7.64178C3.74698 7.43779 3.91343 7.27141 4.11752 7.27141C4.32161 7.27141 4.48806 7.43779 4.48806 7.64178C4.48806 7.84578 4.32161 8.01215 4.11752 8.01215C3.91343 8.01215 3.74698 7.84578 3.74698 7.64178ZM5.59969 7.27141C5.3956 7.27141 5.22915 7.43779 5.22915 7.64178C5.22915 7.84578 5.3956 8.01215 5.59969 8.01215C5.80377 8.01215 5.97023 7.84578 5.97023 7.64178C5.97023 7.43779 5.80377 7.27141 5.59969 7.27141ZM6.71131 7.64178C6.71131 7.43779 6.87777 7.27141 7.08185 7.27141C7.28594 7.27141 7.45239 7.43779 7.45239 7.64178C7.45239 7.84578 7.28594 8.01215 7.08185 8.01215C6.87777 8.01215 6.71131 7.84578 6.71131 7.64178ZM8.56402 7.27141C8.35993 7.27141 8.19348 7.43779 8.19348 7.64178C8.19348 7.84578 8.35993 8.01215 8.56402 8.01215C8.7681 8.01215 8.93456 7.84578 8.93456 7.64178C8.93456 7.43779 8.7681 7.27141 8.56402 7.27141ZM9.67564 7.64178C9.67564 7.43779 9.8421 7.27141 10.0462 7.27141C10.2503 7.27141 10.4167 7.43779 10.4167 7.64178C10.4167 7.84578 10.2503 8.01215 10.0462 8.01215C9.8421 8.01215 9.67564 7.84578 9.67564 7.64178ZM11.5283 7.27141C11.3243 7.27141 11.1578 7.43779 11.1578 7.64178C11.1578 7.84578 11.3243 8.01215 11.5283 8.01215C11.7324 8.01215 11.8989 7.84578 11.8989 7.64178C11.8989 7.43779 11.7324 7.27141 11.5283 7.27141ZM25.6089 18.3825V9.86401H23.3857V13.9381C23.3857 14.9566 22.5519 15.7899 21.533 15.7899H4.8586V18.3825C4.8586 19.0003 5.35218 19.4936 5.97023 19.4936H24.4973C25.1153 19.4936 25.6089 19.0003 25.6089 18.3825ZM2.63536 13.1973C2.43127 13.1973 2.26482 13.3637 2.26482 13.5677C2.26482 13.7717 2.43127 13.9381 2.63536 13.9381C2.83944 13.9381 3.0059 13.7717 3.0059 13.5677C3.0059 13.3637 2.83944 13.1973 2.63536 13.1973ZM3.74698 13.5677C3.74698 13.3637 3.91343 13.1973 4.11752 13.1973C4.32161 13.1973 4.48806 13.3637 4.48806 13.5677C4.48806 13.7717 4.32161 13.9381 4.11752 13.9381C3.91343 13.9381 3.74698 13.7717 3.74698 13.5677ZM5.59969 13.1973C5.3956 13.1973 5.22915 13.3637 5.22915 13.5677C5.22915 13.7717 5.3956 13.9381 5.59969 13.9381C5.80377 13.9381 5.97023 13.7717 5.97023 13.5677C5.97023 13.3637 5.80377 13.1973 5.59969 13.1973ZM6.71131 13.5677C6.71131 13.3637 6.87777 13.1973 7.08185 13.1973C7.28594 13.1973 7.45239 13.3637 7.45239 13.5677C7.45239 13.7717 7.28594 13.9381 7.08185 13.9381C6.87777 13.9381 6.71131 13.7717 6.71131 13.5677ZM8.56402 13.1973C8.35993 13.1973 8.19348 13.3637 8.19348 13.5677C8.19348 13.7717 8.35993 13.9381 8.56402 13.9381C8.7681 13.9381 8.93456 13.7717 8.93456 13.5677C8.93456 13.3637 8.7681 13.1973 8.56402 13.1973ZM9.67564 13.5677C9.67564 13.3637 9.8421 13.1973 10.0462 13.1973C10.2503 13.1973 10.4167 13.3637 10.4167 13.5677C10.4167 13.7717 10.2503 13.9381 10.0462 13.9381C9.8421 13.9381 9.67564 13.7717 9.67564 13.5677ZM11.5283 13.1973C11.3243 13.1973 11.1578 13.3637 11.1578 13.5677C11.1578 13.7717 11.3243 13.9381 11.5283 13.9381C11.7324 13.9381 11.8989 13.7717 11.8989 13.5677C11.8989 13.3637 11.7324 13.1973 11.5283 13.1973ZM12.64 13.5677C12.64 13.3637 12.8064 13.1973 13.0105 13.1973C13.2146 13.1973 13.3811 13.3637 13.3811 13.5677C13.3811 13.7717 13.2146 13.9381 13.0105 13.9381C12.8064 13.9381 12.64 13.7717 12.64 13.5677ZM14.4927 13.1973C14.2886 13.1973 14.1221 13.3637 14.1221 13.5677C14.1221 13.7717 14.2886 13.9381 14.4927 13.9381C14.6968 13.9381 14.8632 13.7717 14.8632 13.5677C14.8632 13.3637 14.6968 13.1973 14.4927 13.1973ZM15.6043 13.5677C15.6043 13.3637 15.7708 13.1973 15.9748 13.1973C16.1789 13.1973 16.3454 13.3637 16.3454 13.5677C16.3454 13.7717 16.1789 13.9381 15.9748 13.9381C15.7708 13.9381 15.6043 13.7717 15.6043 13.5677ZM17.457 13.1973C17.2529 13.1973 17.0865 13.3637 17.0865 13.5677C17.0865 13.7717 17.2529 13.9381 17.457 13.9381C17.6611 13.9381 17.8275 13.7717 17.8275 13.5677C17.8275 13.3637 17.6611 13.1973 17.457 13.1973ZM18.5686 13.5677C18.5686 13.3637 18.7351 13.1973 18.9392 13.1973C19.1433 13.1973 19.3097 13.3637 19.3097 13.5677C19.3097 13.7717 19.1433 13.9381 18.9392 13.9381C18.7351 13.9381 18.5686 13.7717 18.5686 13.5677ZM20.4213 13.1973C20.2173 13.1973 20.0508 13.3637 20.0508 13.5677C20.0508 13.7717 20.2173 13.9381 20.4213 13.9381C20.6254 13.9381 20.7919 13.7717 20.7919 13.5677C20.7919 13.3637 20.6254 13.1973 20.4213 13.1973ZM5.97023 18.0122C5.97023 17.8082 6.13668 17.6418 6.34077 17.6418C6.54486 17.6418 6.71131 17.8082 6.71131 18.0122C6.71131 18.2161 6.54486 18.3825 6.34077 18.3825C6.13668 18.3825 5.97023 18.2161 5.97023 18.0122ZM7.82293 17.6418C7.61885 17.6418 7.45239 17.8082 7.45239 18.0122C7.45239 18.2161 7.61885 18.3825 7.82293 18.3825C8.02702 18.3825 8.19348 18.2161 8.19348 18.0122C8.19348 17.8082 8.02702 17.6418 7.82293 17.6418ZM8.93456 18.0122C8.93456 17.8082 9.10101 17.6418 9.3051 17.6418C9.50919 17.6418 9.67564 17.8082 9.67564 18.0122C9.67564 18.2161 9.50919 18.3825 9.3051 18.3825C9.10101 18.3825 8.93456 18.2161 8.93456 18.0122ZM10.7873 17.6418C10.5832 17.6418 10.4167 17.8082 10.4167 18.0122C10.4167 18.2161 10.5832 18.3825 10.7873 18.3825C10.9914 18.3825 11.1578 18.2161 11.1578 18.0122C11.1578 17.8082 10.9914 17.6418 10.7873 17.6418ZM11.8989 18.0122C11.8989 17.8082 12.0653 17.6418 12.2694 17.6418C12.4735 17.6418 12.64 17.8082 12.64 18.0122C12.64 18.2161 12.4735 18.3825 12.2694 18.3825C12.0653 18.3825 11.8989 18.2161 11.8989 18.0122ZM13.7516 17.6418C13.5475 17.6418 13.3811 17.8082 13.3811 18.0122C13.3811 18.2161 13.5475 18.3825 13.7516 18.3825C13.9557 18.3825 14.1221 18.2161 14.1221 18.0122C14.1221 17.8082 13.9557 17.6418 13.7516 17.6418ZM14.8632 18.0122C14.8632 17.8082 15.0297 17.6418 15.2338 17.6418C15.4378 17.6418 15.6043 17.8082 15.6043 18.0122C15.6043 18.2161 15.4378 18.3825 15.2338 18.3825C15.0297 18.3825 14.8632 18.2161 14.8632 18.0122ZM16.7159 17.6418C16.5118 17.6418 16.3454 17.8082 16.3454 18.0122C16.3454 18.2161 16.5118 18.3825 16.7159 18.3825C16.92 18.3825 17.0865 18.2161 17.0865 18.0122C17.0865 17.8082 16.92 17.6418 16.7159 17.6418ZM17.8275 18.0122C17.8275 17.8082 17.994 17.6418 18.1981 17.6418C18.4022 17.6418 18.5686 17.8082 18.5686 18.0122C18.5686 18.2161 18.4022 18.3825 18.1981 18.3825C17.994 18.3825 17.8275 18.2161 17.8275 18.0122ZM19.6803 17.6418C19.4762 17.6418 19.3097 17.8082 19.3097 18.0122C19.3097 18.2161 19.4762 18.3825 19.6803 18.3825C19.8843 18.3825 20.0508 18.2161 20.0508 18.0122C20.0508 17.8082 19.8843 17.6418 19.6803 17.6418ZM20.7919 18.0122C20.7919 17.8082 20.9583 17.6418 21.1624 17.6418C21.3665 17.6418 21.533 17.8082 21.533 18.0122C21.533 18.2161 21.3665 18.3825 21.1624 18.3825C20.9583 18.3825 20.7919 18.2161 20.7919 18.0122ZM22.6446 17.6418C22.4405 17.6418 22.274 17.8082 22.274 18.0122C22.274 18.2161 22.4405 18.3825 22.6446 18.3825C22.8487 18.3825 23.0151 18.2161 23.0151 18.0122C23.0151 17.8082 22.8487 17.6418 22.6446 17.6418ZM23.7562 18.0122C23.7562 17.8082 23.9227 17.6418 24.1267 17.6418C24.3308 17.6418 24.4973 17.8082 24.4973 18.0122C24.4973 18.2161 24.3308 18.3825 24.1267 18.3825C23.9227 18.3825 23.7562 18.2161 23.7562 18.0122Z" fill="#62AA51"/>
</svg>
