<svg width="28" height="26" viewBox="0 0 28 26" fill="none"
    xmlns="http://www.w3.org/2000/svg">
    <path fill-rule="evenodd" clip-rule="evenodd" d="M5.45142 2.09677C5.45142 0.943547 6.39497 0 7.54819 0H20.1288C21.282 0 22.2256 0.943547 22.2256 2.09677V12.5806H22.6449C23.1085 12.5806 23.4836 12.9557 23.4836 13.4193C23.4836 13.8829 23.1085 14.258 22.6449 14.258H5.03207C4.56848 14.258 4.19336 13.8829 4.19336 13.4193C4.19336 12.9557 4.56848 12.5806 5.03207 12.5806H5.45142V2.09677ZM16.7739 0.838745H7.5481C6.84863 0.838745 6.29004 1.39734 6.29004 2.09681V13.4194H16.7739V0.838745ZM18.4512 0.838745H20.1286C20.8281 0.838745 21.3867 1.39734 21.3867 2.09681V13.4194H18.4512V0.838745ZM14.6777 2.93547C14.6777 2.7045 14.8661 2.51611 15.0971 2.51611C15.3281 2.51611 15.5164 2.7045 15.5164 2.93547C15.5164 3.16644 15.3281 3.35482 15.0971 3.35482C14.8661 3.35482 14.6777 3.16644 14.6777 2.93547ZM1.25806 3.35483C0.568421 3.35483 0 3.92325 0 4.61289V20.5483C0 21.238 0.568421 21.8064 1.25806 21.8064H10.4396L10.1038 25.1612H8.38708C8.23638 25.1596 8.0955 25.2382 8.01851 25.3693C7.94316 25.5003 7.94316 25.6609 8.01851 25.7919C8.0955 25.923 8.23638 26.0016 8.38708 26H19.2903C19.441 26.0016 19.5819 25.923 19.6589 25.7919C19.7342 25.6609 19.7342 25.5003 19.6589 25.3693C19.5819 25.2382 19.441 25.1596 19.2903 25.1612H17.5736L17.2377 21.8064H26.4193C27.1089 21.8064 27.6774 21.238 27.6774 20.5483V4.61289C27.6774 3.92325 27.1089 3.35483 26.4193 3.35483H23.0645V4.19354H26.4193C26.6568 4.19354 26.8387 4.37537 26.8387 4.61289V20.5483C26.8387 20.7859 26.6568 20.9677 26.4193 20.9677H1.25806C1.02054 20.9677 0.838708 20.7859 0.838708 20.5483V4.61289C0.838708 4.37537 1.02054 4.19354 1.25806 4.19354H4.61289V3.35483H1.25806ZM14.6777 4.61284C14.6777 4.38186 14.8661 4.19348 15.0971 4.19348C15.3281 4.19348 15.5164 4.38186 15.5164 4.61284C15.5164 4.84381 15.3281 5.03219 15.0971 5.03219C14.8661 5.03219 14.6777 4.84381 14.6777 4.61284ZM15.0971 5.87097C14.8661 5.87097 14.6777 6.05935 14.6777 6.29033C14.6777 6.5213 14.8661 6.70968 15.0971 6.70968C15.3281 6.70968 15.5164 6.5213 15.5164 6.29033C15.5164 6.05935 15.3281 5.87097 15.0971 5.87097ZM14.6777 7.96769C14.6777 7.73672 14.8661 7.54834 15.0971 7.54834C15.3281 7.54834 15.5164 7.73672 15.5164 7.96769C15.5164 8.19867 15.3281 8.38705 15.0971 8.38705C14.8661 8.38705 14.6777 8.19867 14.6777 7.96769ZM2.09709 18.4515C1.86612 18.4515 1.67773 18.6399 1.67773 18.8709C1.67773 19.1019 1.86612 19.2902 2.09709 19.2902C2.32806 19.2902 2.51644 19.1019 2.51644 18.8709C2.51644 18.6399 2.32806 18.4515 2.09709 18.4515ZM3.35449 18.8709C3.35449 18.6399 3.54287 18.4515 3.77385 18.4515C4.00482 18.4515 4.1932 18.6399 4.1932 18.8709C4.1932 19.1019 4.00482 19.2902 3.77385 19.2902C3.54287 19.2902 3.35449 19.1019 3.35449 18.8709ZM5.4516 18.4516C5.22063 18.4516 5.03225 18.64 5.03225 18.8709C5.03225 19.1019 5.22063 19.2903 5.4516 19.2903C5.68257 19.2903 5.87096 19.1019 5.87096 18.8709C5.87096 18.64 5.68257 18.4516 5.4516 18.4516ZM6.70996 18.8709C6.70996 18.6399 6.89834 18.4515 7.12931 18.4515C7.36029 18.4515 7.54867 18.6399 7.54867 18.8709C7.54867 19.1019 7.36029 19.2902 7.12931 19.2902C6.89834 19.2902 6.70996 19.1019 6.70996 18.8709ZM8.80607 18.4515C8.5751 18.4515 8.38672 18.6399 8.38672 18.8709C8.38672 19.1019 8.5751 19.2902 8.80607 19.2902C9.03705 19.2902 9.22543 19.1019 9.22543 18.8709C9.22543 18.6399 9.03705 18.4515 8.80607 18.4515ZM10.0645 18.8709C10.0645 18.64 10.2529 18.4516 10.4839 18.4516C10.7148 18.4516 10.9032 18.64 10.9032 18.8709C10.9032 19.1019 10.7148 19.2903 10.4839 19.2903C10.2529 19.2903 10.0645 19.1019 10.0645 18.8709ZM12.1615 18.4515C11.9306 18.4515 11.7422 18.6399 11.7422 18.8709C11.7422 19.1019 11.9306 19.2902 12.1615 19.2902C12.3925 19.2902 12.5809 19.1019 12.5809 18.8709C12.5809 18.6399 12.3925 18.4515 12.1615 18.4515ZM13.4189 18.8709C13.4189 18.6399 13.6073 18.4515 13.8383 18.4515C14.0693 18.4515 14.2577 18.6399 14.2577 18.8709C14.2577 19.1019 14.0693 19.2902 13.8383 19.2902C13.6073 19.2902 13.4189 19.1019 13.4189 18.8709ZM15.5161 18.4516C15.2851 18.4516 15.0967 18.64 15.0967 18.8709C15.0967 19.1019 15.2851 19.2903 15.5161 19.2903C15.7471 19.2903 15.9355 19.1019 15.9355 18.8709C15.9355 18.64 15.7471 18.4516 15.5161 18.4516ZM16.7744 18.8709C16.7744 18.6399 16.9628 18.4515 17.1938 18.4515C17.4247 18.4515 17.6131 18.6399 17.6131 18.8709C17.6131 19.1019 17.4247 19.2902 17.1938 19.2902C16.9628 19.2902 16.7744 19.1019 16.7744 18.8709ZM18.8705 18.4515C18.6396 18.4515 18.4512 18.6399 18.4512 18.8709C18.4512 19.1019 18.6396 19.2902 18.8705 19.2902C19.1015 19.2902 19.2899 19.1019 19.2899 18.8709C19.2899 18.6399 19.1015 18.4515 18.8705 18.4515ZM20.129 18.8709C20.129 18.64 20.3174 18.4516 20.5483 18.4516C20.7793 18.4516 20.9677 18.64 20.9677 18.8709C20.9677 19.1019 20.7793 19.2903 20.5483 19.2903C20.3174 19.2903 20.129 19.1019 20.129 18.8709ZM22.226 18.4515C21.995 18.4515 21.8066 18.6399 21.8066 18.8709C21.8066 19.1019 21.995 19.2902 22.226 19.2902C22.457 19.2902 22.6453 19.1019 22.6453 18.8709C22.6453 18.6399 22.457 18.4515 22.226 18.4515ZM23.4834 18.8709C23.4834 18.6399 23.6718 18.4515 23.9028 18.4515C24.1337 18.4515 24.3221 18.6399 24.3221 18.8709C24.3221 19.1019 24.1337 19.2902 23.9028 19.2902C23.6718 19.2902 23.4834 19.1019 23.4834 18.8709ZM25.5805 18.4515C25.3495 18.4515 25.1611 18.6399 25.1611 18.8709C25.1611 19.1019 25.3495 19.2902 25.5805 19.2902C25.8115 19.2902 25.9998 19.1019 25.9998 18.8709C25.9998 18.6399 25.8115 18.4515 25.5805 18.4515ZM16.394 21.8066H11.2831L10.9473 25.1615H16.7298L16.394 21.8066Z" fill="#62AA51"/>
</svg>
