<svg width="27" height="19" viewBox="0 0 27 19" fill="none"
    xmlns="http://www.w3.org/2000/svg">
    <path d="M2.2627 0.199951C1.19707 0.199951 0.325195 1.07183 0.325195 2.13745V16.8625C0.325195 17.9281 1.19707 18.8 2.2627 18.8H24.7377C25.8033 18.8 26.6752 17.9281 26.6752 16.8625V2.13745C26.6752 1.07183 25.8033 0.199951 24.7377 0.199951H2.2627ZM2.2627 0.974951H24.7377C25.384 0.974951 25.9002 1.49111 25.9002 2.13745V4.07495H1.1002V2.13745C1.1002 1.49111 1.61636 0.974951 2.2627 0.974951ZM1.1002 5.62495H25.9002V16.8625C25.9002 17.5088 25.384 18.025 24.7377 18.025H2.2627C1.61636 18.025 1.1002 17.5088 1.1002 16.8625V5.62495ZM2.6502 7.56245C2.43677 7.56245 2.2627 7.73652 2.2627 7.94995C2.2627 8.16338 2.43677 8.33745 2.6502 8.33745C2.86362 8.33745 3.0377 8.16338 3.0377 7.94995C3.0377 7.73652 2.86362 7.56245 2.6502 7.56245ZM4.2002 7.56245C3.98677 7.56245 3.8127 7.73652 3.8127 7.94995C3.8127 8.16338 3.98677 8.33745 4.2002 8.33745C4.41362 8.33745 4.5877 8.16338 4.5877 7.94995C4.5877 7.73652 4.41362 7.56245 4.2002 7.56245ZM5.7502 7.56245C5.53677 7.56245 5.3627 7.73652 5.3627 7.94995C5.3627 8.16338 5.53677 8.33745 5.7502 8.33745C5.96362 8.33745 6.1377 8.16338 6.1377 7.94995C6.1377 7.73652 5.96362 7.56245 5.7502 7.56245ZM7.3002 7.56245C7.08677 7.56245 6.9127 7.73652 6.9127 7.94995C6.9127 8.16338 7.08677 8.33745 7.3002 8.33745C7.51362 8.33745 7.6877 8.16338 7.6877 7.94995C7.6877 7.73652 7.51362 7.56245 7.3002 7.56245ZM8.8502 7.56245C8.63677 7.56245 8.4627 7.73652 8.4627 7.94995C8.4627 8.16338 8.63677 8.33745 8.8502 8.33745C9.06362 8.33745 9.2377 8.16338 9.2377 7.94995C9.2377 7.73652 9.06362 7.56245 8.8502 7.56245ZM10.4002 7.56245C10.1868 7.56245 10.0127 7.73652 10.0127 7.94995C10.0127 8.16338 10.1868 8.33745 10.4002 8.33745C10.6136 8.33745 10.7877 8.16338 10.7877 7.94995C10.7877 7.73652 10.6136 7.56245 10.4002 7.56245ZM11.9502 7.56245C11.7368 7.56245 11.5627 7.73652 11.5627 7.94995C11.5627 8.16338 11.7368 8.33745 11.9502 8.33745C12.1636 8.33745 12.3377 8.16338 12.3377 7.94995C12.3377 7.73652 12.1636 7.56245 11.9502 7.56245Z" fill="#101E8E"/>
</svg>
