<svg width="13" height="14" viewBox="0 0 13 14" fill="none"
    xmlns="http://www.w3.org/2000/svg">
    <path fill-rule="evenodd" clip-rule="evenodd" d="M11.0823 0.0581898L10.149 0.771794L9.21579 0.086048C9.1065 0.00354423 8.9972 0.00354423 8.88791 0.086048L7.95466 0.771794L7.0214 0.086048C6.91211 0.00354423 6.80282 0.00354423 6.69353 0.086048L5.76027 0.771794L4.82701 0.086048C4.71772 0.00354423 4.60843 0.00354423 4.49914 0.086048L3.56588 0.771794L2.63262 0.086048C2.52333 0.00354423 2.41404 0.00354423 2.30475 0.086048L1.37149 0.771794L0.438235 0.086048C0.356802 0.0314028 0.24644 0.00354436 0.163936 0.0581898C0.0546455 0.0860481 0 0.168552 0 0.277843V13.1699C0 13.2524 0.0278586 13.307 0.0825038 13.3617L0.631101 13.9103C0.685746 13.9649 0.740392 13.9928 0.822895 13.9928C0.877541 13.9928 0.932187 13.966 0.986832 13.9381L1.92009 13.2524L2.85335 13.9381C2.96264 14.0206 3.07193 14.0206 3.18122 13.9381L4.11448 13.2524L5.04774 13.9381C5.15703 14.0206 5.26632 14.0206 5.37561 13.9381L6.30887 13.2524L7.24212 13.9381C7.35141 14.0206 7.4607 14.0206 7.57 13.9381L8.50325 13.2524L9.43651 13.9381C9.5458 14.0206 9.65509 14.0206 9.76438 13.9381L10.6976 13.2524L11.6309 13.9381C11.7123 13.9928 11.8227 14.0206 11.9052 13.966C11.9866 13.9103 12.0691 13.8278 12.0691 13.7185V0.82644C12.0691 0.743936 12.0413 0.689291 11.9866 0.634645L11.438 0.086048C11.3834 0.0314028 11.3223 0.00354424 11.2602 0.000329737C11.198 -0.00288449 11.1369 0.0174735 11.0823 0.0581898ZM3.40194 1.29253C3.51123 1.37504 3.62053 1.37504 3.72982 1.29253L4.66307 0.606787L5.59633 1.29253C5.70562 1.37504 5.81491 1.37504 5.9242 1.29253L6.85746 0.606787L7.79072 1.29253C7.90001 1.37504 8.0093 1.37504 8.11859 1.29253L9.05185 0.606787L9.98511 1.29253C10.0944 1.37504 10.2037 1.37504 10.313 1.29253L11.2195 0.606787L11.5205 0.935731V10.4269C11.3555 10.4269 11.2462 10.5362 11.2462 10.7012V11.2498C11.2462 11.4148 11.3555 11.5241 11.5205 11.5241V13.1699L10.8616 12.6759C10.7523 12.5934 10.643 12.5934 10.5337 12.6759L9.60045 13.3895L8.66719 12.7038C8.61254 12.6491 8.5579 12.6213 8.50325 12.6213C8.44861 12.6213 8.39396 12.6481 8.33932 12.6759L7.40606 13.3895L6.4728 12.7038C6.36351 12.6213 6.25422 12.6213 6.14493 12.7038L5.21167 13.3895L4.27841 12.7038C4.16912 12.6213 4.05983 12.6213 3.95054 12.7038L3.01728 13.3895L2.08403 12.7038C1.97473 12.6213 1.86544 12.6213 1.75615 12.7038L0.849682 13.3895L0.548597 13.0595V11.5241C0.713605 11.5241 0.822895 11.4148 0.822895 11.2498V10.7012C0.822895 10.5362 0.713605 10.4269 0.548597 10.4269V0.82644L1.20756 1.32039C1.31685 1.4029 1.42614 1.4029 1.53543 1.32039L2.46869 0.606787L3.40194 1.29253ZM2.19439 3.02083C2.19439 3.18584 2.30368 3.29513 2.46869 3.29513H6.85746C7.02247 3.29513 7.13176 3.18584 7.13176 3.02083C7.13176 2.85582 7.02247 2.74653 6.85746 2.74653H2.46869C2.30368 2.74653 2.19439 2.85582 2.19439 3.02083ZM7.68036 3.02083C7.68036 3.18584 7.78965 3.29513 7.95466 3.29513H9.60045C9.76546 3.29513 9.87475 3.18584 9.87475 3.02083C9.87475 2.85582 9.76546 2.74653 9.60045 2.74653H7.95466C7.78965 2.74653 7.68036 2.85582 7.68036 3.02083ZM2.19439 4.11802C2.19439 4.28303 2.30368 4.39232 2.46869 4.39232H5.48597C5.65098 4.39232 5.76027 4.28303 5.76027 4.11802C5.76027 3.95301 5.65098 3.84372 5.48597 3.84372H2.46869C2.30368 3.84372 2.19439 3.95301 2.19439 4.11802ZM8.50325 4.11802V4.39232C8.03716 4.39232 7.68036 4.74912 7.68036 5.21522V6.03811C7.68036 6.5042 8.03716 6.86101 8.50325 6.86101H9.05185C9.21686 6.86101 9.32615 6.9703 9.32615 7.13531V7.9582C9.32615 8.12321 9.21686 8.2325 9.05185 8.2325H8.50325C8.33825 8.2325 8.22896 8.12321 8.22896 7.9582V7.6839C8.22896 7.5189 8.11966 7.4096 7.95466 7.4096C7.78965 7.4096 7.68036 7.5189 7.68036 7.6839V7.9582C7.68036 8.42429 8.03716 8.7811 8.50325 8.7811V9.05539C8.50325 9.2204 8.61254 9.32969 8.77755 9.32969C8.94256 9.32969 9.05185 9.2204 9.05185 9.05539V8.7811C9.51794 8.7811 9.87475 8.42429 9.87475 7.9582V7.13531C9.87475 6.66921 9.51794 6.31241 9.05185 6.31241H8.50325C8.33825 6.31241 8.22896 6.20312 8.22896 6.03811V5.21522C8.22896 5.05021 8.33825 4.94092 8.50325 4.94092H9.05185C9.21686 4.94092 9.32615 5.05021 9.32615 5.21522V5.48951C9.32615 5.65452 9.43544 5.76381 9.60045 5.76381C9.76546 5.76381 9.87475 5.65452 9.87475 5.48951V5.21522C9.87475 4.74912 9.51794 4.39232 9.05185 4.39232V4.11802C9.05185 3.95301 8.94256 3.84372 8.77755 3.84372C8.61254 3.84372 8.50325 3.95301 8.50325 4.11802ZM2.19439 6.31241C2.19439 6.47742 2.30368 6.58671 2.46869 6.58671H5.21167C5.37668 6.58671 5.48597 6.47742 5.48597 6.31241C5.48597 6.1474 5.37668 6.03811 5.21167 6.03811H2.46869C2.30368 6.03811 2.19439 6.1474 2.19439 6.31241ZM2.19439 7.4096C2.19439 7.57461 2.30368 7.6839 2.46869 7.6839H6.03457C6.19957 7.6839 6.30887 7.57461 6.30887 7.4096C6.30887 7.2446 6.19957 7.13531 6.03457 7.13531H2.46869C2.30368 7.13531 2.19439 7.2446 2.19439 7.4096ZM2.19439 8.5068C2.19439 8.67181 2.30368 8.7811 2.46869 8.7811H3.56588C3.73089 8.7811 3.84018 8.67181 3.84018 8.5068C3.84018 8.34179 3.73089 8.2325 3.56588 8.2325H2.46869C2.30368 8.2325 2.19439 8.34179 2.19439 8.5068ZM4.38878 8.5068C4.38878 8.67181 4.49807 8.7811 4.66307 8.7811H5.21167C5.37668 8.7811 5.48597 8.67181 5.48597 8.5068C5.48597 8.34179 5.37668 8.2325 5.21167 8.2325H4.66307C4.49807 8.2325 4.38878 8.34179 4.38878 8.5068ZM1.64579 10.7012V11.2498C1.64579 11.4148 1.75508 11.5241 1.92009 11.5241C2.0851 11.5241 2.19439 11.4148 2.19439 11.2498V10.7012C2.19439 10.5362 2.0851 10.4269 1.92009 10.4269C1.75508 10.4269 1.64579 10.5362 1.64579 10.7012ZM3.01728 10.7012V11.2498C3.01728 11.4148 3.12657 11.5241 3.29158 11.5241C3.45659 11.5241 3.56588 11.4148 3.56588 11.2498V10.7012C3.56588 10.5362 3.45659 10.4269 3.29158 10.4269C3.12657 10.4269 3.01728 10.5362 3.01728 10.7012ZM4.38878 10.7012V11.2498C4.38878 11.4148 4.49807 11.5241 4.66307 11.5241C4.82808 11.5241 4.93737 11.4148 4.93737 11.2498V10.7012C4.93737 10.5362 4.82808 10.4269 4.66307 10.4269C4.49807 10.4269 4.38878 10.5362 4.38878 10.7012ZM5.76027 10.7012V11.2498C5.76027 11.4148 5.86956 11.5241 6.03457 11.5241C6.19957 11.5241 6.30887 11.4148 6.30887 11.2498V10.7012C6.30887 10.5362 6.19957 10.4269 6.03457 10.4269C5.86956 10.4269 5.76027 10.5362 5.76027 10.7012ZM7.13176 10.7012V11.2498C7.13176 11.4148 7.24105 11.5241 7.40606 11.5241C7.57107 11.5241 7.68036 11.4148 7.68036 11.2498V10.7012C7.68036 10.5362 7.57107 10.4269 7.40606 10.4269C7.24105 10.4269 7.13176 10.5362 7.13176 10.7012ZM8.50325 10.7012V11.2498C8.50325 11.4148 8.61254 11.5241 8.77755 11.5241C8.94256 11.5241 9.05185 11.4148 9.05185 11.2498V10.7012C9.05185 10.5362 8.94256 10.4269 8.77755 10.4269C8.61254 10.4269 8.50325 10.5362 8.50325 10.7012ZM9.87475 10.7012V11.2498C9.87475 11.4148 9.98404 11.5241 10.149 11.5241C10.3141 11.5241 10.4233 11.4148 10.4233 11.2498V10.7012C10.4233 10.5362 10.3141 10.4269 10.149 10.4269C9.98404 10.4269 9.87475 10.5362 9.87475 10.7012Z" fill="#101E8E"/>
</svg>
