<svg width="32" height="20" viewBox="0 0 32 20" fill="none" xmlns="http://www.w3.org/2000/svg">
<path fill-rule="evenodd" clip-rule="evenodd" d="M9.35619 0.876736C9.76417 0.348958 10.3961 0 11.1114 0H29.7781C31.0003 0 32.0003 1 32.0003 2.22222V12.8889C32.0003 14.1111 31.0003 15.1111 29.7781 15.1111H23.5645L23.0958 16.7865L23.0923 16.7934C22.8961 17.4497 22.5801 18.0208 22.1305 18.4392C21.6808 18.8576 21.0888 19.1111 20.4291 19.1111C19.6045 19.1111 19.0506 18.7986 18.7173 18.4583C18.682 18.534 18.6531 18.6093 18.6245 18.684C18.5632 18.8441 18.503 19.0012 18.3822 19.1528C18.009 19.6198 17.4222 20 16.667 20C15.686 20 14.8458 19.4062 14.4586 18.5677C14.443 18.5851 14.4378 18.5938 14.4326 18.6024C14.4274 18.6111 14.4222 18.6198 14.4065 18.6372C14.0055 19.066 13.4274 19.5556 12.667 19.5556C11.8926 19.5556 11.2017 19.191 10.7538 18.6267C9.41174 19.4878 7.84751 19.9514 6.24334 19.9514H0.889173C0.729451 19.9531 0.580146 19.8698 0.498548 19.7309C0.418687 19.592 0.418687 19.4219 0.498548 19.283C0.580146 19.1441 0.729451 19.0608 0.889173 19.0625H6.24334C7.89091 19.0625 9.4916 18.5174 10.7972 17.5122L18.101 11.8837L18.3475 12.2049C18.2156 12.0122 18.2538 11.75 18.436 11.6042C18.8475 11.276 19.1114 10.7847 19.1114 10.2222C19.1114 9.23611 18.3197 8.44444 17.3336 8.44444C17.0239 8.44444 16.6393 8.63326 16.287 8.80623L16.287 8.80624L16.2069 8.84549C16.035 8.92708 15.8319 8.8941 15.6965 8.75868L15.917 8.97917L8.06278 12.6858C7.91869 12.7569 7.74681 12.7448 7.61313 12.6545C7.48119 12.5625 7.40827 12.408 7.42216 12.2483C7.43605 12.0885 7.53674 11.9479 7.68258 11.8819L8.88917 11.3125V2.22222C8.88917 2.03472 8.91869 1.85764 8.96383 1.68229C8.3232 1.34722 7.79195 1.25521 7.18431 1.39757C6.50202 1.56076 5.68778 2.04861 4.63223 2.92361C3.38917 3.95312 0.729451 6.17188 0.729451 6.17188C0.540215 6.32986 0.260701 6.30382 0.102715 6.11458C-0.0535351 5.92708 -0.0292294 5.64583 0.160007 5.48785C0.160007 5.48785 2.81799 3.27083 4.06452 2.23785C5.16522 1.32639 6.07147 0.748264 6.97945 0.534722C7.43431 0.427084 7.88223 0.421875 8.32667 0.50868C8.67042 0.576389 9.01417 0.703125 9.35619 0.876736ZM29.7781 0.888889H11.1114C10.3701 0.888889 9.77806 1.4809 9.77806 2.22222V3.11111H31.1114V2.22222C31.1114 1.4809 30.5194 0.888889 29.7781 0.888889ZM9.77806 4.88889H31.1114V12.8889C31.1114 13.6302 30.5194 14.2222 29.7781 14.2222H16.5229L18.9951 12.3177C19.0628 12.2656 19.1149 12.1944 19.1426 12.1128C19.6479 11.6302 20.0003 10.9792 20.0003 10.2222C20.0003 8.75521 18.8006 7.55556 17.3336 7.55556C16.7698 7.55556 16.3028 7.79643 15.9794 7.9633L15.9793 7.9633C15.9303 7.9886 15.8846 8.01219 15.8423 8.03299C15.8354 8.03646 15.8284 8.03993 15.8215 8.04167L9.77806 10.8941V4.88889ZM11.5558 6.22222C11.5558 5.97743 11.7555 5.77778 12.0003 5.77778C12.2451 5.77778 12.4447 5.97743 12.4447 6.22222C12.4447 6.46701 12.2451 6.66667 12.0003 6.66667C11.7555 6.66667 11.5558 6.46701 11.5558 6.22222ZM13.7781 5.77778C13.5333 5.77778 13.3336 5.97743 13.3336 6.22222C13.3336 6.46701 13.5333 6.66667 13.7781 6.66667C14.0229 6.66667 14.2225 6.46701 14.2225 6.22222C14.2225 5.97743 14.0229 5.77778 13.7781 5.77778ZM15.1114 6.22222C15.1114 5.97743 15.311 5.77778 15.5558 5.77778C15.8006 5.77778 16.0003 5.97743 16.0003 6.22222C16.0003 6.46701 15.8006 6.66667 15.5558 6.66667C15.311 6.66667 15.1114 6.46701 15.1114 6.22222ZM17.3336 5.77778C17.0888 5.77778 16.8892 5.97743 16.8892 6.22222C16.8892 6.46701 17.0888 6.66667 17.3336 6.66667C17.5784 6.66667 17.7781 6.46701 17.7781 6.22222C17.7781 5.97743 17.5784 5.77778 17.3336 5.77778ZM15.5558 10.2222C15.5558 9.97743 15.7555 9.77778 16.0003 9.77778C16.2451 9.77778 16.4447 9.97743 16.4447 10.2222C16.4447 10.467 16.2451 10.6667 16.0003 10.6667C15.7555 10.6667 15.5558 10.467 15.5558 10.2222ZM16.8892 11.1111C16.6444 11.1111 16.4447 11.3108 16.4447 11.5556C16.4447 11.8003 16.6444 12 16.8892 12C17.134 12 17.3336 11.8003 17.3336 11.5556C17.3336 11.3108 17.134 11.1111 16.8892 11.1111ZM22.6409 15.1111H15.3683L11.4777 18.1094C11.7624 18.4497 12.186 18.6667 12.667 18.6667C13.0107 18.6667 13.4326 18.3785 13.7555 18.0295C14.0784 17.6823 14.2815 17.3333 14.2815 17.3333L15.1114 17.5556C15.1114 18.4201 15.8024 19.1111 16.667 19.1111C17.1461 19.1111 17.4326 18.9167 17.6878 18.5972C17.943 18.2778 18.1218 17.8281 18.2416 17.4306L19.101 17.4601C19.101 17.4601 19.1322 17.6181 19.3076 17.8125C19.4829 18.0087 19.7781 18.2222 20.4291 18.2222C20.8735 18.2222 21.2208 18.0729 21.5246 17.7899C21.8284 17.5069 22.0801 17.0781 22.2416 16.5417L22.6409 15.1111ZM15.1114 15.5556C14.8666 15.5556 14.667 15.7552 14.667 16C14.667 16.2448 14.8666 16.4444 15.1114 16.4444C15.3562 16.4444 15.5558 16.2448 15.5558 16C15.5558 15.7552 15.3562 15.5556 15.1114 15.5556ZM18.667 16C18.667 15.7552 18.8666 15.5556 19.1114 15.5556C19.3562 15.5556 19.5558 15.7552 19.5558 16C19.5558 16.2448 19.3562 16.4444 19.1114 16.4444C18.8666 16.4444 18.667 16.2448 18.667 16Z" fill="#62AA51"/>
</svg>
