<svg width="40" height="40" viewBox="0 0 40 40" fill="none" xmlns="http://www.w3.org/2000/svg">
<path d="M20 0C18.5219 0 17.3125 1.03125 16.95 2.4H7.20005C5.88442 2.4 4.80005 3.48438 4.80005 4.8V36C4.80005 37.3156 5.88442 38.4 7.20005 38.4H32.8C34.1157 38.4 35.2 37.3156 35.2 36V4.8C35.2 3.48438 34.1157 2.4 32.8 2.4H25.65C25.6344 2.4 25.6157 2.4 25.6 2.4H23.05C22.6875 1.03125 21.4782 0 20 0ZM20 1.6C20.8938 1.6 21.6 2.30625 21.6 3.2C21.6 3.64062 21.9594 4 22.4 4H24.8V5.6H15.2V4H17.6C18.0407 4 18.4 3.64062 18.4 3.2C18.4 2.30625 19.1063 1.6 20 1.6ZM7.20005 4H13.6V6.4C13.6 6.84062 13.9594 7.2 14.4 7.2H25.6C26.0407 7.2 26.4 6.84062 26.4 6.4V4H32.8C33.2532 4 33.6 4.34688 33.6 4.8V36C33.6 36.4531 33.2532 36.8 32.8 36.8H7.20005C6.74692 36.8 6.40005 36.4531 6.40005 36V4.8C6.40005 4.34688 6.74692 4 7.20005 4ZM28.8 13.55C28.7563 13.5563 28.7157 13.5625 28.675 13.575C28.6594 13.5813 28.6407 13.5906 28.625 13.6C28.4188 13.6469 28.2375 13.7719 28.125 13.95L25.475 17.925L23.775 16.225C23.6094 16.0469 23.3688 15.9563 23.125 15.975C23.0907 15.9813 23.0563 15.9906 23.025 16C22.725 16.0531 22.4844 16.2719 22.4 16.5625C22.3157 16.8563 22.4032 17.1688 22.625 17.375L24.925 19.675C24.9407 19.6938 24.9563 19.7094 24.975 19.725L25.025 19.775C25.0344 19.7844 25.0407 19.7906 25.05 19.8C25.0594 19.8094 25.0657 19.8156 25.075 19.825C25.0844 19.8344 25.0907 19.8406 25.1 19.85C25.1313 19.8688 25.1657 19.8844 25.2 19.9C25.2157 19.9094 25.2344 19.9188 25.25 19.925C25.2657 19.9344 25.2844 19.9438 25.3 19.95C25.3094 19.95 25.3157 19.95 25.325 19.95C25.3407 19.9594 25.3594 19.9688 25.375 19.975C25.3844 19.975 25.3907 19.975 25.4 19.975C25.4157 19.9844 25.4344 19.9938 25.45 20C25.4594 20 25.4657 20 25.475 20C25.4907 20 25.5094 20 25.525 20C25.5344 20 25.5407 20 25.55 20C25.6 20.0031 25.65 20.0031 25.7 20C25.7094 20 25.7157 20 25.725 20C25.7844 19.9906 25.8438 19.9719 25.9 19.95C25.9157 19.9438 25.9344 19.9344 25.95 19.925C25.975 19.9188 26 19.9094 26.025 19.9C26.0438 19.8844 26.0594 19.8688 26.075 19.85C26.0907 19.8438 26.1094 19.8344 26.125 19.825C26.1532 19.8031 26.1782 19.7781 26.2 19.75C26.2188 19.725 26.2344 19.7 26.25 19.675C26.2594 19.6656 26.2657 19.6594 26.275 19.65L26.3 19.625C26.3094 19.6 26.3188 19.575 26.325 19.55L29.475 14.85C29.675 14.6031 29.7094 14.2625 29.5625 13.9812C29.4157 13.6969 29.1157 13.5281 28.8 13.55ZM10.975 16C10.5344 16.0625 10.225 16.4719 10.2875 16.9125C10.35 17.3531 10.7594 17.6625 11.2 17.6H19.2C19.4875 17.6031 19.7563 17.4531 19.9032 17.2031C20.0469 16.9531 20.0469 16.6469 19.9032 16.3969C19.7563 16.1469 19.4875 15.9969 19.2 16H11.2C11.175 16 11.15 16 11.125 16C11.1 16 11.075 16 11.05 16C11.025 16 11 16 10.975 16ZM28.8 23.95C28.7563 23.9563 28.7157 23.9625 28.675 23.975C28.6594 23.9813 28.6407 23.9906 28.625 24C28.4188 24.0469 28.2375 24.1719 28.125 24.35L25.475 28.325L23.775 26.625C23.6094 26.4469 23.3688 26.3563 23.125 26.375C23.0907 26.3813 23.0563 26.3906 23.025 26.4C22.725 26.4531 22.4844 26.6719 22.4 26.9625C22.3157 27.2563 22.4032 27.5688 22.625 27.775L24.925 30.075C24.9407 30.0938 24.9563 30.1094 24.975 30.125L25.025 30.175C25.0344 30.1844 25.0407 30.1906 25.05 30.2C25.0594 30.2094 25.0657 30.2156 25.075 30.225C25.0844 30.2344 25.0907 30.2406 25.1 30.25C25.1313 30.2688 25.1657 30.2844 25.2 30.3C25.2157 30.3094 25.2344 30.3188 25.25 30.325C25.2657 30.3344 25.2844 30.3438 25.3 30.35C25.3094 30.35 25.3157 30.35 25.325 30.35C25.3407 30.3594 25.3594 30.3688 25.375 30.375C25.3844 30.375 25.3907 30.375 25.4 30.375C25.4157 30.3844 25.4344 30.3938 25.45 30.4C25.4594 30.4 25.4657 30.4 25.475 30.4C25.4907 30.4 25.5094 30.4 25.525 30.4C25.5344 30.4 25.5407 30.4 25.55 30.4C25.6 30.4031 25.65 30.4031 25.7 30.4C25.7094 30.4 25.7157 30.4 25.725 30.4C25.7844 30.3906 25.8438 30.3719 25.9 30.35C25.9157 30.3438 25.9344 30.3344 25.95 30.325C25.975 30.3188 26 30.3094 26.025 30.3C26.0438 30.2844 26.0594 30.2688 26.075 30.25C26.0907 30.2438 26.1094 30.2344 26.125 30.225C26.1532 30.2031 26.1782 30.1781 26.2 30.15C26.2188 30.125 26.2344 30.1 26.25 30.075C26.2594 30.0656 26.2657 30.0594 26.275 30.05L26.3 30.025C26.3094 30 26.3188 29.975 26.325 29.95L29.475 25.25C29.675 25.0031 29.7094 24.6625 29.5625 24.3813C29.4157 24.0969 29.1157 23.9281 28.8 23.95ZM10.975 26.4C10.5344 26.4625 10.225 26.8719 10.2875 27.3125C10.35 27.7531 10.7594 28.0625 11.2 28H19.2C19.4875 28.0031 19.7563 27.8531 19.9032 27.6031C20.0469 27.3531 20.0469 27.0469 19.9032 26.7969C19.7563 26.5469 19.4875 26.3969 19.2 26.4H11.2C11.175 26.4 11.15 26.4 11.125 26.4C11.1 26.4 11.075 26.4 11.05 26.4C11.025 26.4 11 26.4 10.975 26.4Z" fill="#62AA51"/>
</svg>
