<svg width="32" height="30" viewBox="0 0 32 30" fill="none"
    xmlns="http://www.w3.org/2000/svg">
    <path fill-rule="evenodd" clip-rule="evenodd" d="M21.0155 0.193306L18.8688 1.0987L15.5523 1.47034C15.1 1.52174 14.6554 1.60476 14.2187 1.71151C14.2128 1.70954 14.2109 1.70756 14.207 1.70361L11.0153 0.252611C10.0755 -0.174385 8.95636 0.0331823 8.23106 0.770542L0.728492 8.37542C-0.047502 9.16418 -0.224927 10.3957 0.299551 11.3743L3.69793 17.708L2.67433 18.7953C1.82034 19.7066 1.83594 21.1161 2.71527 22.0057C3.14226 22.4406 3.71353 22.6798 4.31795 22.6798C4.37839 22.6798 4.43688 22.6659 4.49732 22.662L4.41739 22.749C3.65894 23.5674 3.67844 24.8345 4.46613 25.6332C4.86582 26.0384 5.3864 26.242 5.90893 26.242C6.41001 26.242 6.91109 26.0542 7.30884 25.6767L7.39463 25.5956C7.38878 25.6569 7.37513 25.7162 7.37513 25.7795C7.37513 26.3943 7.61105 26.9715 8.04194 27.4064C8.48648 27.8591 9.0675 28.0864 9.64657 28.0864C10.2061 28.0864 10.7657 27.8769 11.2064 27.4538L11.2492 27.4123C11.3038 27.9303 11.5281 28.4284 11.9044 28.8099C12.3508 29.2626 12.9377 29.492 13.5246 29.492C14.0608 29.492 14.5989 29.2982 15.0317 28.9147L15.5933 29.4168C16.028 29.8063 16.572 30 17.114 30C17.7068 30 18.2956 29.7707 18.7421 29.318C19.1769 28.8772 19.4167 28.292 19.4167 27.6673C19.4167 27.5804 19.4108 27.4914 19.4011 27.4044C20.2434 27.7168 21.2182 27.523 21.8792 26.8529C22.3588 26.3666 22.5869 25.7221 22.5674 25.0836C23.476 25.6174 24.6478 25.475 25.4102 24.7041C26.0029 24.1031 26.2134 23.255 26.038 22.4801C26.8081 22.658 27.6446 22.4406 28.2353 21.8416C29.1556 20.9085 29.2043 19.3982 28.3406 18.3999L27.703 17.6883C28.5375 16.8995 29.2394 15.9882 29.7834 14.9682L31.7019 11.3723C32.2245 10.3938 32.047 9.16418 31.2711 8.37937L23.7392 0.742866C23.2908 0.288194 22.7059 0.0331823 22.0995 0.00353014C21.7369 -0.0162384 21.3684 0.0470202 21.0155 0.193306ZM23.0334 1.45848L30.5672 9.09301C31.0312 9.56547 31.1365 10.3048 30.8246 10.89L28.906 14.4858C28.4166 15.405 27.783 16.2254 27.0323 16.9371L19.5766 8.6245C17.9875 7.01536 15.6283 6.54487 13.5597 7.43049L10.1905 8.86963C9.07725 9.34604 7.82942 9.27883 6.77071 8.68183C6.62253 8.5988 6.5309 8.45449 6.5153 8.28251C6.50165 8.1125 6.56794 7.95238 6.70052 7.84365L10.7677 4.53443C12.1754 3.38787 13.8677 2.67819 15.6615 2.47655L19.0482 2.097C19.0735 2.09502 19.093 2.08118 19.1164 2.07525C19.1398 2.06932 19.1632 2.0713 19.1866 2.06141L21.3996 1.12835C21.6101 1.03939 21.8324 1.00183 22.0508 1.01369C22.4134 1.03148 22.7644 1.18568 23.0334 1.45848ZM10.6078 1.17579L12.8012 2.17409C11.8498 2.56155 10.9529 3.08739 10.1438 3.74568L6.07661 7.05489C5.68666 7.37119 5.47999 7.86342 5.52288 8.36751C5.56383 8.8716 5.85044 9.32035 6.28718 9.56745C7.61495 10.3147 9.17863 10.3997 10.5805 9.80269L13.9477 8.36158C15.64 7.63806 17.5722 8.02354 18.8532 9.32232L27.5978 19.0721C28.1086 19.6651 28.0793 20.5665 27.5276 21.126C27.044 21.6143 26.2739 21.6637 25.7358 21.2387L23.8523 19.7521C23.6437 19.588 23.3454 19.6177 23.1719 19.8173C22.9964 20.017 23.0061 20.3214 23.1914 20.5112L24.7044 22.0432C25.2327 22.579 25.2327 23.4508 24.7044 23.9884C24.2208 24.4767 23.4507 24.5261 22.9106 24.1011L21.0291 22.6145C20.8205 22.4505 20.5222 22.4801 20.3487 22.6798C20.1732 22.8794 20.1829 23.1839 20.3681 23.3737L21.1753 24.1881C21.7037 24.7258 21.7037 25.5976 21.1753 26.1333C20.6918 26.6236 19.9217 26.673 19.3835 26.248L17.4981 24.7634C17.2915 24.5993 16.9932 24.627 16.8177 24.8266C16.6442 25.0263 16.6539 25.3307 16.8411 25.5185L18.0363 26.7323C18.2819 26.9814 18.4184 27.3135 18.4184 27.6673C18.4184 28.0192 18.2819 28.3513 18.0363 28.6004C17.5508 29.0926 16.7689 29.1183 16.2542 28.6558L9.88249 22.9565L6.8448 20.2423C6.01227 19.4951 5.32011 18.6154 4.78784 17.625L1.17693 10.89C0.863023 10.3048 0.968309 9.5635 1.4343 9.09301L8.93492 1.48616C9.20788 1.2094 9.57443 1.05718 9.94683 1.04334C10.171 1.03741 10.3972 1.07893 10.6078 1.17579ZM21.9182 2.39155L21.2104 3.10716C21.0155 3.30484 21.0155 3.62311 21.2104 3.8208C21.3079 3.91964 21.4366 3.96906 21.5653 3.96906C21.692 3.96906 21.8207 3.91964 21.9182 3.8208L22.622 3.10716C22.819 2.9075 22.819 2.58923 22.622 2.39155C22.5246 2.29073 22.3978 2.24131 22.2691 2.24131C22.1424 2.24131 22.0157 2.29073 21.9182 2.39155ZM23.6827 4.18058L22.9769 4.89422C22.7819 5.09388 22.7819 5.41215 22.9769 5.61181C23.0744 5.70867 23.2011 5.75809 23.3298 5.75809C23.4585 5.75809 23.5852 5.70867 23.6827 5.61181L24.3885 4.89422C24.5835 4.69653 24.5835 4.37826 24.3885 4.18058C24.291 4.07976 24.1643 4.03034 24.0356 4.03232C23.9069 4.03232 23.7802 4.08174 23.6827 4.18058ZM25.4472 5.96961L24.7414 6.68523C24.5445 6.88291 24.5445 7.20316 24.7414 7.40084C24.8369 7.49968 24.9656 7.5491 25.0924 7.5491C25.221 7.5491 25.3497 7.49968 25.4453 7.40084L26.153 6.68523C26.348 6.48754 26.348 6.1673 26.153 5.96961C26.0555 5.87077 25.9268 5.82135 25.8001 5.82135C25.6734 5.82135 25.5447 5.87077 25.4472 5.96961ZM27.2117 7.75865L26.5059 8.47426C26.3109 8.67194 26.3109 8.99219 26.5059 9.18987C26.6034 9.28872 26.7301 9.33814 26.8588 9.33814C26.9875 9.33814 27.1142 9.28872 27.2117 9.18987L27.9175 8.47426C28.1125 8.27658 28.1125 7.95633 27.9175 7.75865C27.82 7.65981 27.6913 7.61038 27.5646 7.61038C27.4379 7.61038 27.3092 7.65981 27.2117 7.75865ZM28.9762 9.54768L28.2704 10.2633C28.0754 10.461 28.0754 10.7812 28.2704 10.9789C28.3679 11.0778 28.4946 11.1272 28.6233 11.1272C28.752 11.1272 28.8787 11.0778 28.9762 10.9789L29.682 10.2633C29.877 10.0656 29.877 9.74537 29.682 9.54768C29.5845 9.44884 29.4559 9.39942 29.3291 9.39942C29.2024 9.39942 29.0737 9.44884 28.9762 9.54768ZM20.5183 15.1975C20.3233 15.3971 20.3233 15.7154 20.5183 15.9131L21.2241 16.6287C21.3216 16.7275 21.4503 16.777 21.577 16.777C21.7057 16.777 21.8343 16.7275 21.9318 16.6287C22.1268 16.431 22.1268 16.1108 21.9318 15.9131L21.2241 15.1975C21.1266 15.0986 20.9999 15.0492 20.8712 15.0492C20.7425 15.0492 20.6158 15.0986 20.5183 15.1975ZM18.7538 16.9865C18.5588 17.1862 18.5588 17.5064 18.7538 17.7041L19.4615 18.4177C19.5571 18.5166 19.6857 18.566 19.8125 18.566C19.9412 18.566 20.0698 18.5166 20.1654 18.4177C20.3623 18.22 20.3623 17.8998 20.1654 17.7041L19.4596 16.9865C19.3621 16.8877 19.2354 16.8402 19.1067 16.8402C18.978 16.8402 18.8513 16.8877 18.7538 16.9865ZM5.83679 20.6614L5.21483 21.292C4.73519 21.7764 3.90266 21.7783 3.41912 21.2901C2.92974 20.7919 2.91999 20.0032 3.39963 19.4931L4.21851 18.6233C4.6728 19.3686 5.21678 20.0506 5.83679 20.6614ZM16.9893 18.7775C16.7943 18.9732 16.7943 19.2935 16.9893 19.4912L17.6951 20.2087C17.7926 20.3056 17.9193 20.355 18.048 20.355C18.1766 20.355 18.3034 20.3056 18.4009 20.2087C18.5958 20.0111 18.5958 19.6908 18.4009 19.4912L17.6951 18.7775C17.5976 18.6767 17.4689 18.6293 17.3422 18.6293C17.2154 18.6293 17.0867 18.6767 16.9893 18.7775ZM15.2248 20.5666C15.0298 20.7642 15.0298 21.0825 15.2248 21.2802L15.9306 21.9978C16.028 22.0946 16.1548 22.146 16.2835 22.146C16.4121 22.146 16.5389 22.0946 16.6364 21.9978C16.8313 21.7981 16.8313 21.4798 16.6364 21.2802L15.9306 20.5666C15.8331 20.4657 15.7044 20.4163 15.5777 20.4163C15.4509 20.4163 15.3222 20.4657 15.2248 20.5666ZM8.54302 23.1107L6.62448 24.9393C6.21114 25.3327 5.57358 25.3228 5.16803 24.9136C4.76639 24.5064 4.75664 23.86 5.14464 23.4409L6.85455 21.5985L8.54302 23.1107ZM13.4583 22.3536C13.2633 22.5533 13.2633 22.8715 13.4583 23.0712L14.166 23.7848C14.2616 23.8837 14.3903 23.9351 14.517 23.9351C14.6457 23.9351 14.7744 23.8837 14.8699 23.7848C15.0668 23.5872 15.0668 23.2689 14.8699 23.0712L14.166 22.3536C14.0666 22.2548 13.9399 22.2053 13.8131 22.2053C13.6845 22.2053 13.5577 22.2548 13.4583 22.3536ZM11.5125 25.7656L10.52 26.7165C10.017 27.1988 9.23713 27.1889 8.74579 26.6928C8.50598 26.4476 8.37339 26.1234 8.37339 25.7775C8.37339 25.4335 8.50598 25.1113 8.74579 24.8681L9.57248 24.03L11.5125 25.7656ZM14.2674 28.2307C13.7605 28.5964 13.0606 28.551 12.6082 28.0924C12.2592 27.7385 12.1383 27.2028 12.3021 26.7283C12.3314 26.6473 12.3314 26.5662 12.3197 26.4891L14.2674 28.2307Z" fill="#62AA51"/>
</svg>
