<svg width="22" height="20" viewBox="0 0 22 20" fill="none"
    xmlns="http://www.w3.org/2000/svg">
    <path fill-rule="evenodd" clip-rule="evenodd" d="M11 0C8.16979 0 5.86667 2.32639 5.86667 5.18518V5.92593C5.86667 7.18461 6.34076 8.72975 7.15143 10.0159L2.2931 12.3626C0.899479 13.0353 0 14.4777 0 16.0373V18.8889C0 19.5009 0.494141 20 1.1 20H1.375C1.16846 20 1 19.8265 1 19.6138V17.75C1 17.8877 1.22461 18 1.5 18C1.77539 18 2 17.8877 2 17.75V17.25C2 17.1123 1.77539 17 1.5 17C1.22461 17 1 17.1123 1 17.25V16.6405C1 15.3099 1.75293 14.0789 2.91895 13.5057L8.00488 11C8.91309 12.1933 10.1201 13.0486 11.5 13.0486C12.8799 13.0486 14.0869 12.1948 14.9951 11.0015L20.0811 13.5057C21.2471 14.0789 22 15.3099 22 16.6405V16.0373C22 14.4777 21.1005 13.0353 19.7069 12.3626L14.8486 10.0159C15.6592 8.72975 16.1333 7.18461 16.1333 5.92593V5.18518C16.1333 2.32639 13.8302 0 11 0ZM22 18.8889C22 19.5009 21.5059 20 20.9 20H21.625C21.8315 20 22 19.8265 22 19.6138V18.8889ZM11.5 1C13.9814 1 16 2.9737 16 5.4V6.13333C16 8.72005 13.8818 12 11.5 12C9.11816 12 7 8.72005 7 6.13333V5.4C7 2.9737 9.01855 1 11.5 1ZM9.33333 15C9.14974 15 9 15.2246 9 15.5C9 15.7754 9.14974 16 9.33333 16H12.6667C12.8503 16 13 15.7754 13 15.5C13 15.2246 12.8503 15 12.6667 15H9.33333ZM3.5 17C3.22461 17 3 17.1123 3 17.25V17.75C3 17.8877 3.22461 18 3.5 18C3.77539 18 4 17.8877 4 17.75V17.25C4 17.1123 3.77539 17 3.5 17ZM5 17.25C5 17.1123 5.22461 17 5.5 17C5.77539 17 6 17.1123 6 17.25V17.75C6 17.8877 5.77539 18 5.5 18C5.22461 18 5 17.8877 5 17.75V17.25ZM7.5 17C7.22461 17 7 17.1123 7 17.25V17.75C7 17.8877 7.22461 18 7.5 18C7.77539 18 8 17.8877 8 17.75V17.25C8 17.1123 7.77539 17 7.5 17ZM9 17.25C9 17.1123 9.22461 17 9.5 17C9.77539 17 10 17.1123 10 17.25V17.75C10 17.8877 9.77539 18 9.5 18C9.22461 18 9 17.8877 9 17.75V17.25ZM11.5 17C11.2246 17 11 17.1123 11 17.25V17.75C11 17.8877 11.2246 18 11.5 18C11.7754 18 12 17.8877 12 17.75C12 17.8877 12.2246 18 12.5 18C12.7754 18 13 17.8877 13 17.75V17.25C13 17.1123 12.7754 17 12.5 17C12.2246 17 12 17.1123 12 17.25C12 17.1123 11.7754 17 11.5 17ZM14.5 17C14.2246 17 14 17.1123 14 17.25V17.75C14 17.8877 14.2246 18 14.5 18C14.7754 18 15 17.8877 15 17.75V17.25C15 17.1123 14.7754 17 14.5 17ZM16 17.25C16 17.1123 16.2246 17 16.5 17C16.7754 17 17 17.1123 17 17.25V17.75C17 17.8877 16.7754 18 16.5 18C16.2246 18 16 17.8877 16 17.75V17.25ZM18.5 17C18.2246 17 18 17.1123 18 17.25V17.75C18 17.8877 18.2246 18 18.5 18C18.7754 18 19 17.8877 19 17.75V17.25C19 17.1123 18.7754 17 18.5 17ZM20 17.25C20 17.1123 20.2246 17 20.5 17C20.7754 17 21 17.1123 21 17.25V17.75C21 17.8877 20.7754 18 20.5 18C20.2246 18 20 17.8877 20 17.75V17.25Z" fill="#62AA51"/>
</svg>
