<svg width="28" height="24" viewBox="0 0 28 24" fill="none"
    xmlns="http://www.w3.org/2000/svg">
    <path d="M2.40039 0.399902C1.30039 0.399902 0.400391 1.2999 0.400391 2.3999V17.5999C0.400391 18.6999 1.30039 19.5999 2.40039 19.5999H7.19414C8.53008 21.9843 11.077 23.5999 14.0004 23.5999C16.9238 23.5999 19.4707 21.9843 20.8066 19.5999H25.6004C26.7004 19.5999 27.6004 18.6999 27.6004 17.5999V2.3999C27.6004 1.2999 26.7004 0.399902 25.6004 0.399902H2.40039ZM2.40039 1.1999H25.6004C26.2676 1.1999 26.8004 1.73271 26.8004 2.3999V4.3999H1.20039V2.3999C1.20039 1.73271 1.7332 1.1999 2.40039 1.1999ZM1.20039 5.9999H26.8004V17.5999C26.8004 18.2671 26.2676 18.7999 25.6004 18.7999H21.2004C21.5863 17.8765 21.8004 16.8624 21.8004 15.7999C21.8004 11.4968 18.3035 7.9999 14.0004 7.9999C9.69727 7.9999 6.20039 11.4968 6.20039 15.7999C6.20039 16.8624 6.41445 17.8765 6.80039 18.7999H2.40039C1.7332 18.7999 1.20039 18.2671 1.20039 17.5999V5.9999ZM2.80039 7.9999C2.58008 7.9999 2.40039 8.17959 2.40039 8.3999C2.40039 8.62021 2.58008 8.7999 2.80039 8.7999C3.0207 8.7999 3.20039 8.62021 3.20039 8.3999C3.20039 8.17959 3.0207 7.9999 2.80039 7.9999ZM4.40039 7.9999C4.18008 7.9999 4.00039 8.17959 4.00039 8.3999C4.00039 8.62021 4.18008 8.7999 4.40039 8.7999C4.6207 8.7999 4.80039 8.62021 4.80039 8.3999C4.80039 8.17959 4.6207 7.9999 4.40039 7.9999ZM6.00039 7.9999C5.78008 7.9999 5.60039 8.17959 5.60039 8.3999C5.60039 8.62021 5.78008 8.7999 6.00039 8.7999C6.2207 8.7999 6.40039 8.62021 6.40039 8.3999C6.40039 8.17959 6.2207 7.9999 6.00039 7.9999ZM7.60039 7.9999C7.38008 7.9999 7.20039 8.17959 7.20039 8.3999C7.20039 8.62021 7.38008 8.7999 7.60039 8.7999C7.8207 8.7999 8.00039 8.62021 8.00039 8.3999C8.00039 8.17959 7.8207 7.9999 7.60039 7.9999ZM14.0004 8.7999C16.1488 8.7999 18.0676 9.76709 19.3504 11.2874C19.2566 11.364 19.2004 11.478 19.2004 11.5999C19.2004 11.8202 19.3801 11.9999 19.6004 11.9999C19.6832 11.9999 19.7645 11.9749 19.8316 11.9265C20.5691 13.0358 21.0004 14.3655 21.0004 15.7999C21.0004 17.3796 20.4738 18.8312 19.5941 19.9999C19.3754 20.0046 19.2004 20.1827 19.2004 20.3999C19.2004 20.4233 19.202 20.4468 19.2066 20.4702C17.9254 21.8983 16.0723 22.7999 14.0004 22.7999C10.1301 22.7999 7.00039 19.6702 7.00039 15.7999C7.00039 11.9296 10.1301 8.7999 14.0004 8.7999ZM10.0004 11.1999C9.78008 11.1999 9.60039 11.3796 9.60039 11.5999C9.60039 11.8202 9.78008 11.9999 10.0004 11.9999C10.2207 11.9999 10.4004 11.8202 10.4004 11.5999C10.4004 11.3796 10.2207 11.1999 10.0004 11.1999ZM11.6004 11.1999C11.3801 11.1999 11.2004 11.3796 11.2004 11.5999C11.2004 11.8202 11.3801 11.9999 11.6004 11.9999C11.8207 11.9999 12.0004 11.8202 12.0004 11.5999C12.0004 11.3796 11.8207 11.1999 11.6004 11.1999ZM13.2004 11.1999C12.9801 11.1999 12.8004 11.3796 12.8004 11.5999C12.8004 11.8202 12.9801 11.9999 13.2004 11.9999C13.4207 11.9999 13.6004 11.8202 13.6004 11.5999C13.6004 11.3796 13.4207 11.1999 13.2004 11.1999ZM14.8004 11.1999C14.5801 11.1999 14.4004 11.3796 14.4004 11.5999C14.4004 11.8202 14.5801 11.9999 14.8004 11.9999C15.0207 11.9999 15.2004 11.8202 15.2004 11.5999C15.2004 11.3796 15.0207 11.1999 14.8004 11.1999ZM16.4004 11.1999C16.1801 11.1999 16.0004 11.3796 16.0004 11.5999C16.0004 11.8202 16.1801 11.9999 16.4004 11.9999C16.6207 11.9999 16.8004 11.8202 16.8004 11.5999C16.8004 11.3796 16.6207 11.1999 16.4004 11.1999ZM18.0004 11.1999C17.7801 11.1999 17.6004 11.3796 17.6004 11.5999C17.6004 11.8202 17.7801 11.9999 18.0004 11.9999C18.2207 11.9999 18.4004 11.8202 18.4004 11.5999C18.4004 11.3796 18.2207 11.1999 18.0004 11.1999ZM10.1238 14.2233C9.10977 14.2233 8.48789 14.8999 8.48789 16.0046C8.48789 17.1093 9.11133 17.7874 10.1238 17.7874C10.991 17.7874 11.6191 17.2421 11.6473 16.4687H10.8238C10.7738 16.8312 10.4973 17.0702 10.127 17.0702C9.65352 17.0702 9.36445 16.6624 9.36445 16.0015C9.36445 15.3437 9.65351 14.9405 10.1254 14.9405C10.4941 14.9405 10.7738 15.189 10.8191 15.5562H11.6441C11.6191 14.7905 10.9754 14.2233 10.1238 14.2233ZM12.2816 14.314L13.3707 17.6952H14.4582L15.5191 14.314H14.5926L13.9613 16.8046H13.9176L13.2676 14.314H12.2816ZM16.102 14.314L17.1926 17.6952H18.2801L19.341 14.314H18.4129L17.7816 16.8046H17.7379L17.0879 14.314H16.102ZM10.0004 19.9999C9.78008 19.9999 9.60039 20.1796 9.60039 20.3999C9.60039 20.6202 9.78008 20.7999 10.0004 20.7999C10.2207 20.7999 10.4004 20.6202 10.4004 20.3999C10.4004 20.1796 10.2207 19.9999 10.0004 19.9999ZM11.6004 19.9999C11.3801 19.9999 11.2004 20.1796 11.2004 20.3999C11.2004 20.6202 11.3801 20.7999 11.6004 20.7999C11.8207 20.7999 12.0004 20.6202 12.0004 20.3999C12.0004 20.1796 11.8207 19.9999 11.6004 19.9999ZM13.2004 19.9999C12.9801 19.9999 12.8004 20.1796 12.8004 20.3999C12.8004 20.6202 12.9801 20.7999 13.2004 20.7999C13.4207 20.7999 13.6004 20.6202 13.6004 20.3999C13.6004 20.1796 13.4207 19.9999 13.2004 19.9999ZM14.8004 19.9999C14.5801 19.9999 14.4004 20.1796 14.4004 20.3999C14.4004 20.6202 14.5801 20.7999 14.8004 20.7999C15.0207 20.7999 15.2004 20.6202 15.2004 20.3999C15.2004 20.1796 15.0207 19.9999 14.8004 19.9999ZM16.4004 19.9999C16.1801 19.9999 16.0004 20.1796 16.0004 20.3999C16.0004 20.6202 16.1801 20.7999 16.4004 20.7999C16.6207 20.7999 16.8004 20.6202 16.8004 20.3999C16.8004 20.1796 16.6207 19.9999 16.4004 19.9999ZM18.0004 19.9999C17.7801 19.9999 17.6004 20.1796 17.6004 20.3999C17.6004 20.6202 17.7801 20.7999 18.0004 20.7999C18.2207 20.7999 18.4004 20.6202 18.4004 20.3999C18.4004 20.1796 18.2207 19.9999 18.0004 19.9999Z" fill="#101E8E"/>
</svg>
