<svg width="16" height="19" viewBox="0 0 16 19" fill="none" xmlns="http://www.w3.org/2000/svg">
<path d="M6.4 0C5.98125 0 5.55312 0.145345 5.25 0.445312C4.94688 0.74528 4.8 1.16895 4.8 1.58333V2.375H0V3.95833H0.8V16.625C0.8 17.9269 1.88438 19 3.2 19H12.8C14.1156 19 15.2 17.9269 15.2 16.625V3.95833H16V2.375H11.2V1.58333C11.2 1.16895 11.0531 0.74528 10.75 0.445312C10.4469 0.145345 10.0188 0 9.6 0H6.4ZM6.4 1.58333H9.6V2.375H6.4V1.58333ZM2.4 3.95833H13.6V16.625C13.6 17.0641 13.2438 17.4167 12.8 17.4167H3.2C2.75625 17.4167 2.4 17.0641 2.4 16.625V3.95833ZM4 6.33333V15.0417H5.6V6.33333H4ZM7.2 6.33333V15.0417H8.8V6.33333H7.2ZM10.4 6.33333V15.0417H12V6.33333H10.4Z" fill="#61AB51"/>
</svg>
