<svg width="40" height="40" viewBox="0 0 40 40" fill="none" xmlns="http://www.w3.org/2000/svg">
<path d="M7.5 4.5V35.5H32.5V11.793L25.207 4.5H7.5ZM8.5 5.5H24.5V12.5H31.5V34.5H8.5V5.5ZM25.5 6.20703L30.793 11.5H25.5V6.20703ZM11 6.5C10.7246 6.5 10.5 6.72461 10.5 7C10.5 7.27539 10.7246 7.5 11 7.5C11.2754 7.5 11.5 7.27539 11.5 7C11.5 6.72461 11.2754 6.5 11 6.5ZM11 8.5C10.7246 8.5 10.5 8.72461 10.5 9C10.5 9.27539 10.7246 9.5 11 9.5C11.2754 9.5 11.5 9.27539 11.5 9C11.5 8.72461 11.2754 8.5 11 8.5ZM11 10.5C10.7246 10.5 10.5 10.7246 10.5 11C10.5 11.2754 10.7246 11.5 11 11.5C11.2754 11.5 11.5 11.2754 11.5 11C11.5 10.7246 11.2754 10.5 11 10.5ZM11 12.5C10.7246 12.5 10.5 12.7246 10.5 13C10.5 13.2754 10.7246 13.5 11 13.5C11.2754 13.5 11.5 13.2754 11.5 13C11.5 12.7246 11.2754 12.5 11 12.5ZM11 14.5C10.7246 14.5 10.5 14.7246 10.5 15C10.5 15.2754 10.7246 15.5 11 15.5C11.2754 15.5 11.5 15.2754 11.5 15C11.5 14.7246 11.2754 14.5 11 14.5ZM11 16.5C10.7246 16.5 10.5 16.7246 10.5 17C10.5 17.2754 10.7246 17.5 11 17.5C11.2754 17.5 11.5 17.2754 11.5 17C11.5 16.7246 11.2754 16.5 11 16.5ZM14 17V18H27.5V17H14ZM11 18.5C10.7246 18.5 10.5 18.7246 10.5 19C10.5 19.2754 10.7246 19.5 11 19.5C11.2754 19.5 11.5 19.2754 11.5 19C11.5 18.7246 11.2754 18.5 11 18.5ZM14 20V21H25.5V20H14ZM11 20.5C10.7246 20.5 10.5 20.7246 10.5 21C10.5 21.2754 10.7246 21.5 11 21.5C11.2754 21.5 11.5 21.2754 11.5 21C11.5 20.7246 11.2754 20.5 11 20.5ZM11 22.5C10.7246 22.5 10.5 22.7246 10.5 23C10.5 23.2754 10.7246 23.5 11 23.5C11.2754 23.5 11.5 23.2754 11.5 23C11.5 22.7246 11.2754 22.5 11 22.5ZM14 23V24H27.5V23H14ZM11 24.5C10.7246 24.5 10.5 24.7246 10.5 25C10.5 25.2754 10.7246 25.5 11 25.5C11.2754 25.5 11.5 25.2754 11.5 25C11.5 24.7246 11.2754 24.5 11 24.5ZM14 26V27H25.5V26H14ZM11 26.5C10.7246 26.5 10.5 26.7246 10.5 27C10.5 27.2754 10.7246 27.5 11 27.5C11.2754 27.5 11.5 27.2754 11.5 27C11.5 26.7246 11.2754 26.5 11 26.5ZM11 28.5C10.7246 28.5 10.5 28.7246 10.5 29C10.5 29.2754 10.7246 29.5 11 29.5C11.2754 29.5 11.5 29.2754 11.5 29C11.5 28.7246 11.2754 28.5 11 28.5ZM11 30.5C10.7246 30.5 10.5 30.7246 10.5 31C10.5 31.2754 10.7246 31.5 11 31.5C11.2754 31.5 11.5 31.2754 11.5 31C11.5 30.7246 11.2754 30.5 11 30.5ZM11 32.5C10.7246 32.5 10.5 32.7246 10.5 33C10.5 33.2754 10.7246 33.5 11 33.5C11.2754 33.5 11.5 33.2754 11.5 33C11.5 32.7246 11.2754 32.5 11 32.5Z" fill="#62AA51"/>
</svg>
