<svg width="12" height="14" viewBox="0 0 12 14" fill="none"
    xmlns="http://www.w3.org/2000/svg">
    <path fill-rule="evenodd" clip-rule="evenodd" d="M1 0.75V1H0.75C0.336914 1 0 1.33691 0 1.75V13.25C0 13.6631 0.336914 14 0.75 14H9.75C10.1631 14 10.5 13.6631 10.5 13.25V13H10.75C11.1631 13 11.5 12.6631 11.5 12.25V3.41406C11.5 3.08008 11.3701 2.7666 11.1338 2.53027L8.96973 0.366211C8.7334 0.129883 8.41992 0 8.08594 0H1.75C1.33691 0 1 0.336914 1 0.75ZM8 0.5V2.75C8 3.16309 8.33691 3.5 8.75 3.5H11V12.25C11 12.3877 10.8877 12.5 10.75 12.5H1.75C1.6123 12.5 1.5 12.3877 1.5 12.25V0.75C1.5 0.612305 1.6123 0.5 1.75 0.5H8ZM8.61621 0.719726L10.7803 2.88379C10.8164 2.91992 10.8477 2.95898 10.875 3H8.75C8.6123 3 8.5 2.8877 8.5 2.75V0.625C8.54102 0.652344 8.58008 0.683594 8.61621 0.719726ZM1 1.5V12.25C1 12.6631 1.33691 13 1.75 13H10V13.25C10 13.3877 9.8877 13.5 9.75 13.5H0.75C0.612305 13.5 0.5 13.3877 0.5 13.25V1.75C0.5 1.6123 0.612305 1.5 0.75 1.5H1ZM4.25 4.75C4.25 4.8877 4.36133 5 4.5 5C4.63867 5 4.75 4.8877 4.75 4.75C4.75 4.33691 5.08691 4 5.5 4H6.25C6.66309 4 7 4.33691 7 4.75V4.95996C7 5.32422 6.76758 5.64746 6.4209 5.7627C5.87012 5.94629 5.5 6.45996 5.5 7.04004V7.5C5.5 7.6377 5.61133 7.75 5.75 7.75C5.88867 7.75 6 7.6377 6 7.5V7.04004C6 6.67578 6.23242 6.35254 6.5791 6.2373C7.12988 6.05371 7.5 5.54004 7.5 4.95996V4.75C7.5 4.06055 6.93945 3.5 6.25 3.5H5.5C4.81055 3.5 4.25 4.06055 4.25 4.75ZM5.25 8.75C5.25 9.02637 5.47363 9.25 5.75 9.25C6.02637 9.25 6.25 9.02637 6.25 8.75C6.25 8.47363 6.02637 8.25 5.75 8.25C5.47363 8.25 5.25 8.47363 5.25 8.75ZM2.25 10.75V11.25C2.25 11.3877 2.36133 11.5 2.5 11.5C2.63867 11.5 2.75 11.3877 2.75 11.25V10.75C2.75 10.6123 2.63867 10.5 2.5 10.5C2.36133 10.5 2.25 10.6123 2.25 10.75ZM3.5 10.75V11.25C3.5 11.3877 3.61133 11.5 3.75 11.5C3.88867 11.5 4 11.3877 4 11.25V10.75C4 10.6123 3.88867 10.5 3.75 10.5C3.61133 10.5 3.5 10.6123 3.5 10.75ZM4.75 10.75V11.25C4.75 11.3877 4.86133 11.5 5 11.5C5.13867 11.5 5.25 11.3877 5.25 11.25V10.75C5.25 10.6123 5.13867 10.5 5 10.5C4.86133 10.5 4.75 10.6123 4.75 10.75ZM6 10.75V11.25C6 11.3877 6.11133 11.5 6.25 11.5C6.38867 11.5 6.5 11.3877 6.5 11.25V10.75C6.5 10.6123 6.38867 10.5 6.25 10.5C6.11133 10.5 6 10.6123 6 10.75ZM7.25 10.75V11.25C7.25 11.3877 7.36133 11.5 7.5 11.5C7.63867 11.5 7.75 11.3877 7.75 11.25V10.75C7.75 10.6123 7.63867 10.5 7.5 10.5C7.36133 10.5 7.25 10.6123 7.25 10.75ZM8.5 10.75V11.25C8.5 11.3877 8.61133 11.5 8.75 11.5C8.88867 11.5 9 11.3877 9 11.25V10.75C9 10.6123 8.88867 10.5 8.75 10.5C8.61133 10.5 8.5 10.6123 8.5 10.75ZM9.75 10.75V11.25C9.75 11.3877 9.86133 11.5 10 11.5C10.1387 11.5 10.25 11.3877 10.25 11.25V10.75C10.25 10.6123 10.1387 10.5 10 10.5C9.86133 10.5 9.75 10.6123 9.75 10.75Z" fill="#101E8E"/>
</svg>
