<svg width="19" height="14" viewBox="0 0 19 14" fill="none"
    xmlns="http://www.w3.org/2000/svg">
    <path fill-rule="evenodd" clip-rule="evenodd" d="M0 0.875V12.8333C0 13.4771 0.522949 14 1.16667 14H15.3695C15.897 14 16.3607 13.6445 16.4974 13.1296L18.4787 5.16911C18.5436 4.90592 18.4855 4.63249 18.3192 4.41943C18.1517 4.20638 17.8999 4.08333 17.6287 4.08333H15.75V2.625C15.75 2.14307 15.3569 1.75 14.875 1.75H7.49788C7.26546 1.75 7.04785 1.65999 6.88265 1.49707L5.79574 0.42155C5.52116 0.149251 5.15658 0 4.77035 0H0.875C0.393066 0 0 0.393066 0 0.875ZM4.77035 0.583333C5.00277 0.583333 5.22038 0.67334 5.38558 0.836263L6.47135 1.91064C6.74707 2.18294 7.11165 2.33333 7.49788 2.33333H14.875C15.0356 2.33333 15.1667 2.46436 15.1667 2.625V4.08333H4.81592C4.27816 4.08333 3.81331 4.44792 3.68343 4.96859L1.75342 12.7456C1.75228 12.7513 1.59277 13.4167 1.16667 13.4167C0.845378 13.4167 0.583333 13.1546 0.583333 12.8333V0.875C0.583333 0.714356 0.714356 0.583333 0.875 0.583333H4.77035ZM17.6287 4.66667C17.7199 4.66667 17.8031 4.70768 17.8589 4.77946C17.9147 4.8501 17.9341 4.9401 17.9113 5.02783L15.9334 12.9837C15.8651 13.2389 15.6338 13.4167 15.3695 13.4167H2.10319C2.21598 13.231 2.28662 13.0339 2.32194 12.8789L2.76628 11.0833H13.125C13.2868 11.0833 13.4167 10.9535 13.4167 10.7917C13.4167 10.6299 13.2868 10.5 13.125 10.5H2.91211L4.24967 5.10986C4.31462 4.84896 4.54704 4.66667 4.81592 4.66667H17.6287ZM14 10.7917C14 10.9535 14.1299 11.0833 14.2917 11.0833H15.4583C15.6201 11.0833 15.75 10.9535 15.75 10.7917C15.75 10.6299 15.6201 10.5 15.4583 10.5H14.2917C14.1299 10.5 14 10.6299 14 10.7917ZM3.07161 11.8877L2.92578 12.471C2.8859 12.6271 2.98161 12.7855 3.1377 12.8242C3.16162 12.8311 3.18555 12.8333 3.20833 12.8333C3.33936 12.8333 3.45785 12.7445 3.49089 12.6123L3.63672 12.029C3.6766 11.8729 3.58089 11.7145 3.4248 11.6758C3.38607 11.6655 3.34619 11.6632 3.30859 11.6701C3.19694 11.6872 3.1001 11.7703 3.07161 11.8877ZM4.52995 11.8877L4.38411 12.471C4.34424 12.6271 4.43994 12.7855 4.59603 12.8242C4.61995 12.8311 4.64388 12.8333 4.66667 12.8333C4.79769 12.8333 4.91618 12.7445 4.94922 12.6123L5.09505 12.029C5.13493 11.8729 5.03923 11.7145 4.88314 11.6758C4.8444 11.6655 4.80452 11.6632 4.76693 11.6701C4.65527 11.6872 4.55843 11.7703 4.52995 11.8877ZM5.98828 11.8877L5.84245 12.471C5.80257 12.6271 5.89827 12.7855 6.05436 12.8242C6.07829 12.8311 6.10221 12.8333 6.125 12.8333C6.25602 12.8333 6.37451 12.7445 6.40755 12.6123L6.55339 12.029C6.59326 11.8729 6.49756 11.7145 6.34147 11.6758C6.30273 11.6655 6.26286 11.6632 6.22526 11.6701C6.11361 11.6872 6.01676 11.7703 5.98828 11.8877ZM7.44661 11.8877L7.30078 12.471C7.2609 12.6271 7.35661 12.7855 7.5127 12.8242C7.53662 12.8311 7.56055 12.8333 7.58333 12.8333C7.71436 12.8333 7.83285 12.7445 7.86589 12.6123L8.01172 12.029C8.05159 11.8729 7.95589 11.7145 7.7998 11.6758C7.76107 11.6655 7.72119 11.6632 7.68359 11.6701C7.57194 11.6872 7.4751 11.7703 7.44661 11.8877ZM8.90495 11.8877L8.75911 12.471C8.71924 12.6271 8.81494 12.7855 8.97103 12.8242C8.99495 12.8311 9.01888 12.8333 9.04167 12.8333C9.17269 12.8333 9.29118 12.7445 9.32422 12.6123L9.47005 12.029C9.50993 11.8729 9.41422 11.7145 9.25814 11.6758C9.2194 11.6655 9.17952 11.6632 9.14193 11.6701C9.03027 11.6872 8.93343 11.7703 8.90495 11.8877ZM10.3633 11.8877L10.2174 12.471C10.1776 12.6271 10.2733 12.7855 10.4294 12.8242C10.4533 12.8311 10.4772 12.8333 10.5 12.8333C10.631 12.8333 10.7495 12.7445 10.7826 12.6123L10.9284 12.029C10.9683 11.8729 10.8726 11.7145 10.7165 11.6758C10.6777 11.6655 10.6379 11.6632 10.6003 11.6701C10.4886 11.6872 10.3918 11.7703 10.3633 11.8877ZM11.8216 11.8877L11.6758 12.471C11.6359 12.6271 11.7316 12.7855 11.8877 12.8242C11.9116 12.8311 11.9355 12.8333 11.9583 12.8333C12.0894 12.8333 12.2078 12.7445 12.2409 12.6123L12.3867 12.029C12.4266 11.8729 12.3309 11.7145 12.1748 11.6758C12.1361 11.6655 12.0962 11.6632 12.0586 11.6701C11.9469 11.6872 11.8501 11.7703 11.8216 11.8877ZM13.2799 11.8877L13.1341 12.471C13.0942 12.6271 13.1899 12.7855 13.346 12.8242C13.37 12.8311 13.3939 12.8333 13.4167 12.8333C13.5477 12.8333 13.6662 12.7445 13.6992 12.6123L13.8451 12.029C13.8849 11.8729 13.7892 11.7145 13.6331 11.6758C13.5944 11.6655 13.5545 11.6632 13.5169 11.6701C13.4041 11.6872 13.3084 11.7703 13.2799 11.8877ZM14.7383 11.8877L14.5924 12.471C14.5526 12.6271 14.6483 12.7855 14.8044 12.8242C14.8283 12.8311 14.8522 12.8333 14.875 12.8333C15.006 12.8333 15.1245 12.7445 15.1576 12.6123L15.3034 12.029C15.3433 11.8729 15.2476 11.7145 15.0915 11.6758C15.0527 11.6655 15.0129 11.6632 14.9753 11.6701C14.8636 11.6872 14.7668 11.7703 14.7383 11.8877Z" fill="#101E8E"/>
</svg>
