<svg width="22" height="20" viewBox="0 0 22 20" fill="none"
    xmlns="http://www.w3.org/2000/svg">
    <path fill-rule="evenodd" clip-rule="evenodd" d="M5.89286 0.000564281C5.80999 0.000564281 5.72712 0.0261043 5.65806 0.0771848L4.32143 1.05823L2.98479 0.0771848C2.86663 -0.00995234 2.70703 -0.0249758 2.57352 0.0411281C2.44155 0.107232 2.35714 0.23944 2.35714 0.385169V16.9232H1.57143C0.704381 16.9232 0 17.6127 0 18.4616C0 19.3104 0.704381 20 1.57143 20H2C1.44922 20 1 19.5508 1 19C1 18.4492 1.44922 18 2 18H3V16.7382C3.22031 16.7382 3.4 16.5689 3.4 16.3613V15.6073C3.4 15.3997 3.22031 15.2304 3 15.2304V1.28272L3.96094 1.96155C4.10156 2.06168 4.29844 2.06168 4.43906 1.96155L5.8 1L7.16094 1.96155C7.30156 2.06168 7.49844 2.06168 7.63906 1.96155L9 1L10.3609 1.96155C10.5016 2.06315 10.6984 2.06168 10.8391 1.96155L12.2 1L13.5609 1.96155C13.7016 2.06315 13.8984 2.06168 14.0391 1.96155L15.4 1L16.7609 1.96155C16.9016 2.06168 17.0984 2.06168 17.2391 1.96155L18.5625 1.02651L19 1.43881V15.2304C18.7797 15.2304 18.6 15.3997 18.6 15.6073V16.3613C18.6 16.5689 18.7797 16.7382 19 16.7382V19H3V20H20V18H21C21.4678 18 21.8623 18.324 21.9706 18.759C21.8288 19.4658 21.1917 20 20.4286 20H21C21.5508 20 22 19.5508 22 19C22 18.917 21.9898 18.8363 21.9706 18.759C21.9899 18.6628 22 18.5633 22 18.4616C22 17.6127 21.2956 16.9232 20.4286 16.9232H19.6429V1.15438C19.6429 1.05222 19.6014 0.954564 19.5278 0.882451L18.7421 0.113241C18.6039 -0.0219712 18.3845 -0.0384969 18.2295 0.0771848L16.8929 1.05823L15.5578 0.0771848C15.4181 -0.0249758 15.2247 -0.0249758 15.0866 0.0771848L13.75 1.05823L12.4134 0.0771848C12.2753 -0.026478 12.0819 -0.0249758 11.9438 0.0771848L10.6071 1.05823L9.27051 0.0771848C9.13239 -0.0249758 8.93903 -0.0249758 8.80092 0.0771848L7.46429 1.05823L6.12765 0.0771848C6.05859 0.0261043 5.97573 0.000564281 5.89286 0.000564281ZM5 4.5C5 4.22461 5.1747 4 5.38889 4H11.6111C11.8253 4 12 4.22461 12 4.5C12 4.77539 11.8253 5 11.6111 5H9.61539C9.82722 5 10 5.22461 10 5.5C10 5.77539 9.82722 6 9.61539 6H5.38462C5.17278 6 5 5.77539 5 5.5C5 5.22461 5.17278 5 5.38462 5H5.38889C5.1747 5 5 4.77539 5 4.5ZM13.375 4C13.1685 4 13 4.22461 13 4.5C13 4.77539 13.1685 5 13.375 5H15.625C15.8315 5 16 4.77539 16 4.5C16 4.22461 15.8315 4 15.625 4H13.375ZM14.5 6C14.2935 6 14.125 6.17969 14.125 6.4V6.8C13.5054 6.8 13 7.33906 13 8V9.2C13 9.86094 13.5054 10.4 14.125 10.4H14.875C15.0815 10.4 15.25 10.5797 15.25 10.8V12C15.25 12.2203 15.0815 12.4 14.875 12.4H14.125C13.9185 12.4 13.75 12.2203 13.75 12V11.6C13.75 11.3797 13.5815 11.2 13.375 11.2C13.1685 11.2 13 11.3797 13 11.6V12C13 12.6609 13.5054 13.2 14.125 13.2V13.6C14.125 13.8203 14.2935 14 14.5 14C14.7065 14 14.875 13.8203 14.875 13.6V13.2C15.4946 13.2 16 12.6609 16 12V10.8C16 10.1391 15.4946 9.6 14.875 9.6H14.125C13.9185 9.6 13.75 9.42031 13.75 9.2V8C13.75 7.77969 13.9185 7.6 14.125 7.6H14.875C15.0815 7.6 15.25 7.77969 15.25 8V8.4C15.25 8.62031 15.4185 8.8 15.625 8.8C15.8315 8.8 16 8.62031 16 8.4V8C16 7.33906 15.4946 6.8 14.875 6.8V6.4C14.875 6.17969 14.7065 6 14.5 6ZM5 8.5C5 8.22461 5.18717 8 5.41667 8H9.58333C9.81283 8 10 8.22461 10 8.5C10 8.77539 9.81283 9 9.58333 9H5.41667C5.18717 9 5 8.77539 5 8.5ZM5.4 10C5.17969 10 5 10.2246 5 10.5C5 10.7754 5.17969 11 5.4 11H10.6C10.8203 11 11 10.7754 11 10.5C11 10.2246 10.8203 10 10.6 10H5.4ZM5 12.5C5 12.2246 5.14974 12 5.33333 12H6.66667C6.85026 12 7 12.2246 7 12.5C7 12.7754 6.85026 13 6.66667 13H5.33333C5.14974 13 5 12.7754 5 12.5ZM9.5 12C9.22461 12 9 12.2246 9 12.5C9 12.7754 9.22461 13 9.5 13H10.5C10.7754 13 11 12.7754 11 12.5C11 12.2246 10.7754 12 10.5 12H9.5ZM5 15.5C5 15.2246 5.22461 15 5.5 15C5.77539 15 6 15.2246 6 15.5V16.5C6 16.7754 5.77539 17 5.5 17C5.22461 17 5 16.7754 5 16.5V15.5ZM7.5 15C7.22461 15 7 15.2246 7 15.5V16.5C7 16.7754 7.22461 17 7.5 17C7.77539 17 8 16.7754 8 16.5V15.5C8 15.2246 7.77539 15 7.5 15ZM9 15.5C9 15.2246 9.22461 15 9.5 15C9.77539 15 10 15.2246 10 15.5V16.5C10 16.7754 9.77539 17 9.5 17C9.22461 17 9 16.7754 9 16.5V15.5ZM11.5 15C11.2246 15 11 15.2246 11 15.5V16.5C11 16.7754 11.2246 17 11.5 17C11.7754 17 12 16.7754 12 16.5V15.5C12 15.2246 11.7754 15 11.5 15ZM13 15.5C13 15.2246 13.2246 15 13.5 15C13.7754 15 14 15.2246 14 15.5V16.5C14 16.7754 13.7754 17 13.5 17C13.2246 17 13 16.7754 13 16.5V15.5ZM15.5 15C15.2246 15 15 15.2246 15 15.5V16.5C15 16.7754 15.2246 17 15.5 17C15.7754 17 16 16.7754 16 16.5C16 16.7754 16.2246 17 16.5 17C16.7754 17 17 16.7754 17 16.5V15.5C17 15.2246 16.7754 15 16.5 15C16.2246 15 16 15.2246 16 15.5C16 15.2246 15.7754 15 15.5 15Z" fill="#62AA51"/>
</svg>
