<svg width="28" height="21" viewBox="0 0 28 21" fill="none" xmlns="http://www.w3.org/2000/svg">
<path fill-rule="evenodd" clip-rule="evenodd" d="M2.09277 0.196289C1.4043 0.196289 0.842773 0.757812 0.842773 1.44629V18.5296C0.842773 19.4492 1.58984 20.1963 2.50944 20.1963H22.7992C23.5527 20.1963 24.2152 19.6885 24.4105 18.9528L27.2409 7.58073C27.3337 7.20475 27.2507 6.81413 27.013 6.50977C26.7738 6.2054 26.4141 6.02962 26.0267 6.02962H23.3428V3.94629C23.3428 3.25781 22.7812 2.69629 22.0928 2.69629H11.554C11.222 2.69629 10.9111 2.56771 10.6751 2.33496L9.1224 0.798503C8.73014 0.409505 8.20931 0.196289 7.65755 0.196289H2.09277ZM2.09277 1.02962H7.65755C7.98958 1.02962 8.30046 1.1582 8.53646 1.39095L10.0876 2.92578C10.4814 3.31478 11.0023 3.52962 11.554 3.52962H22.0928C22.3223 3.52962 22.5094 3.7168 22.5094 3.94629V6.02962H7.72266C6.95443 6.02962 6.29036 6.55046 6.10482 7.29427L3.34766 18.4043C3.34603 18.4124 3.11816 19.363 2.50944 19.363C2.05046 19.363 1.67611 18.9886 1.67611 18.5296V1.44629C1.67611 1.2168 1.86328 1.02962 2.09277 1.02962ZM26.0267 6.86296H7.72266C7.33854 6.86296 7.00651 7.12337 6.91374 7.49609L5.00293 15.1963H19.5928C19.8239 15.1963 20.0094 15.3818 20.0094 15.613C20.0094 15.8441 19.8239 16.0296 19.5928 16.0296H4.7946L4.15983 18.5947C4.10938 18.8161 4.00846 19.0977 3.84733 19.363H22.7992C23.1768 19.363 23.5072 19.109 23.6048 18.7445L26.4303 7.37891C26.4629 7.25358 26.4352 7.125 26.3555 7.02409C26.2757 6.92155 26.1569 6.86296 26.0267 6.86296ZM21.2594 15.1963C21.0283 15.1963 20.8428 15.3818 20.8428 15.613C20.8428 15.8441 21.0283 16.0296 21.2594 16.0296H22.9261C23.1572 16.0296 23.3428 15.8441 23.3428 15.613C23.3428 15.3818 23.1572 15.1963 22.9261 15.1963H21.2594ZM5.23079 17.1787C5.27148 17.0111 5.40983 16.8923 5.56934 16.8678C5.62305 16.8581 5.68001 16.8613 5.73535 16.876C5.95833 16.9313 6.09505 17.1576 6.03809 17.3805L5.82975 18.2139C5.78255 18.4027 5.61328 18.5296 5.42611 18.5296C5.39355 18.5296 5.35938 18.5264 5.3252 18.5166C5.10221 18.4613 4.96549 18.235 5.02246 18.012L5.23079 17.1787ZM7.65267 16.8678C7.49316 16.8923 7.35482 17.0111 7.31413 17.1787L7.10579 18.012C7.04883 18.235 7.18555 18.4613 7.40853 18.5166C7.44271 18.5264 7.47689 18.5296 7.50944 18.5296C7.69661 18.5296 7.86589 18.4027 7.91309 18.2139L8.12142 17.3805C8.17839 17.1576 8.04167 16.9313 7.81869 16.876C7.76335 16.8613 7.70638 16.8581 7.65267 16.8678ZM9.39746 17.1787C9.43815 17.0111 9.5765 16.8923 9.736 16.8678C9.78971 16.8581 9.84668 16.8613 9.90202 16.876C10.125 16.9313 10.2617 17.1576 10.2048 17.3805L9.99642 18.2139C9.94922 18.4027 9.77995 18.5296 9.59277 18.5296C9.56022 18.5296 9.52604 18.5264 9.49186 18.5166C9.26888 18.4613 9.13216 18.235 9.18913 18.012L9.39746 17.1787ZM11.8193 16.8678C11.6598 16.8923 11.5215 17.0111 11.4808 17.1787L11.2725 18.012C11.2155 18.235 11.3522 18.4613 11.5752 18.5166C11.6094 18.5264 11.6436 18.5296 11.6761 18.5296C11.8633 18.5296 12.0326 18.4027 12.0798 18.2139L12.2881 17.3805C12.3451 17.1576 12.2083 16.9313 11.9854 16.876C11.93 16.8613 11.873 16.8581 11.8193 16.8678ZM13.5641 17.1787C13.6048 17.0111 13.7432 16.8923 13.9027 16.8678C13.9564 16.8581 14.0133 16.8613 14.0687 16.876C14.2917 16.9313 14.4284 17.1576 14.3714 17.3805L14.1631 18.2139C14.1159 18.4027 13.9466 18.5296 13.7594 18.5296C13.7269 18.5296 13.6927 18.5264 13.6585 18.5166C13.4355 18.4613 13.2988 18.235 13.3558 18.012L13.5641 17.1787ZM15.986 16.8678C15.8265 16.8923 15.6882 17.0111 15.6475 17.1787L15.4391 18.012C15.3822 18.235 15.5189 18.4613 15.7419 18.5166C15.776 18.5264 15.8102 18.5296 15.8428 18.5296C16.0299 18.5296 16.1992 18.4027 16.2464 18.2139L16.4548 17.3805C16.5117 17.1576 16.375 16.9313 16.152 16.876C16.0967 16.8613 16.0397 16.8581 15.986 16.8678ZM17.7308 17.1787C17.7715 17.0111 17.9098 16.8923 18.0693 16.8678C18.123 16.8581 18.18 16.8613 18.2354 16.876C18.4583 16.9313 18.5951 17.1576 18.5381 17.3805L18.3298 18.2139C18.2826 18.4027 18.1133 18.5296 17.9261 18.5296C17.8936 18.5296 17.8594 18.5264 17.8252 18.5166C17.6022 18.4613 17.4655 18.235 17.5225 18.012L17.7308 17.1787ZM20.1527 16.8678C19.9915 16.8923 19.8548 17.0111 19.8141 17.1787L19.6058 18.012C19.5488 18.235 19.6855 18.4613 19.9085 18.5166C19.9427 18.5264 19.9769 18.5296 20.0094 18.5296C20.1966 18.5296 20.3659 18.4027 20.4131 18.2139L20.6214 17.3805C20.6784 17.1576 20.5417 16.9313 20.3187 16.876C20.2633 16.8613 20.2064 16.8581 20.1527 16.8678ZM21.8975 17.1787C21.9382 17.0111 22.0765 16.8923 22.236 16.8678C22.2897 16.8581 22.3467 16.8613 22.402 16.876C22.625 16.9313 22.7617 17.1576 22.7048 17.3805L22.4964 18.2139C22.4492 18.4027 22.2799 18.5296 22.0928 18.5296C22.0602 18.5296 22.026 18.5264 21.9919 18.5166C21.7689 18.4613 21.6322 18.235 21.6891 18.012L21.8975 17.1787Z" fill="#62AA51"/>
</svg>
