<svg width="22" height="24" viewBox="0 0 22 24" fill="none"
    xmlns="http://www.w3.org/2000/svg">
    <path d="M1.69012 0L12.8037 10.8509L15.8507 7.85425L2.37971 0.205031C2.15519 0.0768866 1.91464 0.00591447 1.69012 0ZM0.759978 0.504691C0.659748 0.680149 0.599609 0.887152 0.599609 1.11978V22.2064C0.599609 22.3759 0.635693 22.5277 0.695831 22.6638L12.066 11.5606L0.759978 0.504691ZM16.7808 8.37471L13.5254 11.5606L16.7808 14.7307L20.758 12.4911C21.3233 12.1697 21.4035 11.7617 21.3995 11.5448C21.3935 11.186 21.1629 10.8509 20.774 10.6458C20.4353 10.4664 17.9195 9.02529 16.7808 8.37471ZM12.8037 12.2703L1.5939 23.2C1.78033 23.1901 1.98279 23.1507 2.17123 23.0423C2.61024 22.7919 11.4887 17.743 11.4887 17.743L15.8667 15.2669L12.8037 12.2703Z" fill="white"/>
</svg>
