<svg width="18" height="14" viewBox="0 0 18 14" fill="none"
    xmlns="http://www.w3.org/2000/svg">
    <path fill-rule="evenodd" clip-rule="evenodd" d="M1.63782 0.751603C1.51302 0.811899 1.4345 0.938101 1.4359 1.07692V2.15385H1.07692C0.486579 2.15385 0 2.64042 0 3.23077V12.5641C0 13.1544 0.486579 13.641 1.07692 13.641H8.17788C8.3756 13.8598 8.65745 14 8.97436 14C9.29127 14 9.57312 13.8598 9.77083 13.641H16.8718C17.4621 13.641 17.9487 13.1544 17.9487 12.5641V3.23077C17.9487 2.64042 17.4621 2.15385 16.8718 2.15385H16.5128V1.07692C16.5142 0.938101 16.4357 0.811899 16.3109 0.751603C16.3109 0.751603 14.7839 0 12.5641 0C10.6697 0 9.34034 0.524439 8.97436 0.684295C8.60837 0.524439 7.27905 0 5.38462 0C3.16486 0 1.63782 0.751603 1.63782 0.751603ZM8.61538 1.32372V11.6891C8.08253 11.476 7.05749 11.1282 5.38462 11.1282C3.71174 11.1282 2.6867 11.476 2.15385 11.6891V2.58013C2.16366 2.53245 2.16366 2.48197 2.15385 2.43429V1.32372C2.41046 1.20733 3.54768 0.717949 5.38462 0.717949C7.22155 0.717949 8.35877 1.20733 8.61538 1.32372ZM15.7949 1.32372V2.44551C15.7851 2.49319 15.7851 2.54367 15.7949 2.59135V11.6891C15.262 11.476 14.237 11.1282 12.5641 11.1282C10.8912 11.1282 9.86619 11.476 9.33333 11.6891V1.32372C9.58994 1.20733 10.7272 0.717949 12.5641 0.717949C14.401 0.717949 15.5383 1.20733 15.7949 1.32372ZM11.8462 3.23077C11.8462 3.6276 12.1673 3.94872 12.5641 3.94872C12.9609 3.94872 13.2821 3.6276 13.2821 3.23077C13.2821 2.83393 12.9609 2.51282 12.5641 2.51282C12.1673 2.51282 11.8462 2.83393 11.8462 3.23077ZM1.4359 2.87179V12.2051C1.4345 12.3299 1.499 12.4449 1.60276 12.5108C1.70793 12.5781 1.83974 12.5851 1.95192 12.5304C1.95192 12.5304 3.3107 11.8462 5.38462 11.8462C7.40946 11.8462 8.73317 12.4884 8.79487 12.5192C8.79908 12.5234 8.80188 12.5262 8.80609 12.5304H8.81731C8.82853 12.5347 8.83974 12.5389 8.85096 12.5417C8.85797 12.5459 8.86639 12.5501 8.8734 12.5529C8.8776 12.5529 8.88041 12.5529 8.88461 12.5529C8.89163 12.5571 8.90004 12.5613 8.90705 12.5641C8.91126 12.5641 8.91406 12.5641 8.91827 12.5641C8.94071 12.5669 8.96314 12.5669 8.98558 12.5641C8.98978 12.5641 8.99259 12.5641 8.99679 12.5641C9.01923 12.5627 9.04167 12.5585 9.0641 12.5529C9.07532 12.5501 9.08654 12.5459 9.09776 12.5417C9.10897 12.5389 9.12019 12.5347 9.13141 12.5304C9.13141 12.5304 9.16226 12.5206 9.16506 12.5192C9.17348 12.5122 9.18049 12.5052 9.1875 12.4968C9.33894 12.4239 10.615 11.8462 12.5641 11.8462C14.638 11.8462 15.9968 12.5304 15.9968 12.5304C16.109 12.5851 16.2408 12.5781 16.346 12.5108C16.4497 12.4449 16.5142 12.3299 16.5128 12.2051V2.87179H16.8718C17.0751 2.87179 17.2308 3.02744 17.2308 3.23077V12.5641C17.2308 12.7674 17.0751 12.9231 16.8718 12.9231H1.07692C0.873598 12.9231 0.717949 12.7674 0.717949 12.5641V3.23077C0.717949 3.02744 0.873598 2.87179 1.07692 2.87179H1.4359ZM11.0946 5.41827C11.1128 5.61599 11.2895 5.76182 11.4872 5.74359H11.8462V9.33333H13.2821V5.38462C13.2821 5.1869 13.1208 5.02564 12.9231 5.02564H11.4872C11.476 5.02564 11.4647 5.02564 11.4535 5.02564C11.4423 5.02564 11.4311 5.02564 11.4199 5.02564C11.2222 5.04387 11.0763 5.22055 11.0946 5.41827Z" fill="#101E8E"/>
</svg>
