<svg width="37" height="37" viewBox="0 0 37 37" fill="none" xmlns="http://www.w3.org/2000/svg">
<path fill-rule="evenodd" clip-rule="evenodd" d="M18.3759 0.0125679C8.22612 0.0812134 0 8.33423 0 18.5C0 28.7083 8.29173 37 18.5 37C28.7083 37 37 28.7083 37 18.5C37 8.33529 28.7756 0.0829235 18.6273 0.0125679C18.5852 0.0050087 18.5427 0.000806118 18.5 0C18.4584 0.000970565 18.4169 0.00517251 18.3759 0.0125679ZM35.3913 18.5C35.3913 27.839 27.839 35.3913 18.5 35.3913C9.16101 35.3913 1.6087 27.839 1.6087 18.5C1.6087 9.16101 9.16101 1.6087 18.5 1.6087C27.839 1.6087 35.3913 9.16101 35.3913 18.5ZM7.59696 21.8375C7.47402 21.9175 7.37526 22.0295 7.31137 22.1615C7.24748 22.2935 7.22088 22.4404 7.23445 22.5864C7.24803 22.7324 7.30125 22.8719 7.38837 22.9899C7.38837 22.9899 11.596 28.9565 18.5 28.9565C25.404 28.9565 29.6116 22.9899 29.6116 22.9899C29.7358 22.8162 29.7858 22.6002 29.7508 22.3895C29.7157 22.1789 29.5984 21.9908 29.4247 21.8666C29.2509 21.7425 29.035 21.6924 28.8243 21.7275C28.6137 21.7625 28.4256 21.8798 28.3014 22.0536C28.3014 22.0536 24.4656 27.3478 18.5 27.3478C12.5344 27.3478 8.69858 22.0536 8.69858 22.0536C8.62179 21.9428 8.51839 21.8531 8.39788 21.7927C8.27737 21.7323 8.14362 21.7032 8.00892 21.708C7.86236 21.7128 7.7199 21.7576 7.59696 21.8375Z" fill="white"/>
</svg>
