<svg width="74" height="74" viewBox="0 0 74 74" fill="none" xmlns="http://www.w3.org/2000/svg">
<path d="M37 0.200195C36.9171 0.202126 36.8346 0.210484 36.7531 0.225195C16.5633 0.361744 0.199951 16.7785 0.199951 37.0002C0.199951 57.3064 16.6938 73.8002 37 73.8002C57.3061 73.8002 73.7999 57.3064 73.7999 37.0002C73.7999 16.7807 57.44 0.365146 37.2531 0.225195C37.1695 0.210159 37.0849 0.201799 37 0.200195ZM37 3.4002C55.577 3.4002 70.6 18.4232 70.6 37.0002C70.6 55.5772 55.577 70.6002 37 70.6002C18.4229 70.6002 3.39995 55.5772 3.39995 37.0002C3.39995 18.4232 18.4229 3.4002 37 3.4002ZM16.1312 43.3814C15.8397 43.3911 15.5563 43.4802 15.3117 43.6392C15.0672 43.7982 14.8707 44.021 14.7437 44.2835C14.6166 44.5461 14.5637 44.8384 14.5906 45.1288C14.6176 45.4193 14.7235 45.6968 14.8968 45.9314C14.8968 45.9314 23.2666 57.8002 37 57.8002C50.7333 57.8002 59.1031 45.9314 59.1031 45.9314C59.3501 45.5858 59.4496 45.1563 59.3799 44.7372C59.3102 44.3182 59.0768 43.9441 58.7312 43.6971C58.3856 43.4501 57.956 43.3505 57.537 43.4203C57.118 43.49 56.7438 43.7233 56.4968 44.0689C56.4968 44.0689 48.8666 54.6002 37 54.6002C25.1333 54.6002 17.5031 44.0689 17.5031 44.0689C17.3503 43.8486 17.1446 43.6702 16.9049 43.55C16.6652 43.4299 16.3992 43.3719 16.1312 43.3814Z" fill="#101E8E"/>
</svg>
