<svg width="40" height="40" viewBox="0 0 40 40" fill="none" xmlns="http://www.w3.org/2000/svg">
<path d="M20 1.60001C9.84741 1.60001 1.59998 9.84744 1.59998 20C1.59998 30.1526 9.84741 38.4 20 38.4C30.1525 38.4 38.4 30.1526 38.4 20C38.4 9.84744 30.1525 1.60001 20 1.60001ZM20 3.20001C29.2878 3.20001 36.8 10.7121 36.8 20C36.8 29.2879 29.2878 36.8 20 36.8C10.7121 36.8 3.19998 29.2879 3.19998 20C3.19998 10.7121 10.7121 3.20001 20 3.20001ZM20 8.80001C19.3635 8.80001 18.753 9.05286 18.3029 9.50295C17.8528 9.95304 17.6 10.5635 17.6 11.2C17.6 11.8365 17.8528 12.447 18.3029 12.8971C18.753 13.3471 19.3635 13.6 20 13.6C20.6365 13.6 21.2469 13.3471 21.697 12.8971C22.1471 12.447 22.4 11.8365 22.4 11.2C22.4 10.5635 22.1471 9.95304 21.697 9.50295C21.2469 9.05286 20.6365 8.80001 20 8.80001ZM16.8 16.8V18.4H17.6H18.4V28.8H17.6H16.8V30.4H17.6H18.4H21.6H22.4H23.2V28.8H22.4H21.6V16.8H20.8H17.6H16.8Z" fill="#62AA51"/>
</svg>
