<svg width="30" height="30" viewBox="0 0 30 30" fill="none" xmlns="http://www.w3.org/2000/svg">
<path fill-rule="evenodd" clip-rule="evenodd" d="M6.22417 5.10557V8.63555L6.95186 8.2115L7.25806 8.03434V16.9469H22.7419V8.03434L23.7758 8.63555V5.10557L15 0L6.22417 5.10557ZM22.8081 5.65966V6.95631L22.5662 6.81496L22.5643 6.81308C22.5246 6.78104 22.4811 6.75654 22.4338 6.73769L15 2.41238L7.56804 6.73769C7.5189 6.75465 7.47543 6.78104 7.43574 6.81308L7.19191 6.95631V5.65966L15 1.11572L22.8081 5.65966ZM21.7742 7.47083V13.5847C21.5077 13.5847 21.2903 13.8014 21.2903 14.0672C21.2903 14.3329 21.5077 14.5496 21.7742 14.5496V15.982H17.9032V14.5496C18.1697 14.5496 18.3871 14.3329 18.3871 14.0672C18.3871 13.8014 18.1697 13.5847 17.9032 13.5847V8.27746H12.0968V13.5847C11.8303 13.5847 11.6129 13.8014 11.6129 14.0672C11.6129 14.3329 11.8303 14.5496 12.0968 14.5496V15.982H8.22581V14.5496C8.49231 14.5496 8.70968 14.3329 8.70968 14.0672C8.70968 13.8014 8.49231 13.5847 8.22581 13.5847V7.47083L15 3.5281L21.7742 7.47083ZM0 11.1723V21.1008C0 21.6548 0.190902 22.192 0.542465 22.6236L6.39806 29.8098C6.5058 29.9512 6.68158 30.0209 6.85547 29.9945C7.02936 29.97 7.17679 29.8513 7.23727 29.6854C7.29965 29.5196 7.26562 29.3349 7.15033 29.2029L1.29284 22.0129C1.08304 21.7566 0.967742 21.4343 0.967742 21.1008V11.1723C0.967742 10.6333 1.39491 10.2074 1.93548 10.2074C2.47606 10.2074 2.90323 10.6333 2.90323 11.1723V19.5742L4.4966 21.1629C4.61757 21.2892 4.79902 21.3401 4.96724 21.2949C5.13735 21.2515 5.26966 21.1196 5.31313 20.95C5.35849 20.7822 5.30746 20.6013 5.18082 20.4807L5.12601 20.426C5.11656 20.4166 5.10711 20.4072 5.09766 20.3978C4.74798 20.0491 4.74798 19.4988 5.09766 19.1501C5.44733 18.8015 5.99924 18.8015 6.34892 19.1501L10.8209 23.6092C11.6375 24.4234 12.0968 25.5278 12.0968 26.6794V29.5064C12.0949 29.6798 12.1856 29.8418 12.3368 29.9304C12.488 30.0171 12.6733 30.0171 12.8245 29.9304C12.9757 29.8418 13.0664 29.6798 13.0645 29.5064V26.6794C13.0645 25.2734 12.5032 23.9221 11.5052 22.927L7.03314 18.4679C6.67402 18.1098 6.19771 17.9289 5.72329 17.9289C5.24887 17.9289 4.77256 18.1098 4.41343 18.4679L3.87097 19.0088V11.1723C3.87097 10.1112 2.99962 9.24242 1.93548 9.24242C0.871346 9.24242 0 10.1112 0 11.1723ZM16.9355 9.24242V15.982H13.0645V9.24242H16.9355ZM26.129 11.1723V19.0088L25.5866 18.4679C25.2274 18.1098 24.7511 17.9289 24.2767 17.9289C23.8023 17.9289 23.326 18.1098 22.9669 18.4679L18.4948 22.927C17.4968 23.9221 16.9355 25.2734 16.9355 26.6794V29.5064C16.9336 29.6798 17.0243 29.8418 17.1755 29.9304C17.3267 30.0171 17.512 30.0171 17.6632 29.9304C17.8144 29.8418 17.9051 29.6798 17.9032 29.5064V26.6794C17.9032 25.5278 18.3625 24.4234 19.1791 23.6092L23.6511 19.1501C24.0008 18.8015 24.5527 18.8015 24.9023 19.1501C25.252 19.4988 25.252 20.0491 24.9023 20.3978L24.8192 20.4807C24.6925 20.6013 24.6415 20.7822 24.6869 20.95C24.7303 21.1196 24.8627 21.2515 25.0328 21.2949C25.201 21.3401 25.3824 21.2892 25.5034 21.1629L25.5582 21.1083C25.5677 21.0989 25.5771 21.0894 25.5866 21.08L27.0968 19.5742V11.1723C27.0968 10.6333 27.5239 10.2074 28.0645 10.2074C28.6051 10.2074 29.0323 10.6333 29.0323 11.1723V21.1008C29.0323 21.4343 28.917 21.7566 28.7072 22.0129L22.8497 29.2029C22.7344 29.3349 22.7004 29.5196 22.7627 29.6854C22.8232 29.8513 22.9706 29.97 23.1445 29.9945C23.3184 30.0209 23.4942 29.9512 23.6019 29.8098L29.4575 22.6236C29.8091 22.192 30 21.6548 30 21.1008V11.1723C30 10.1112 29.1287 9.24242 28.0645 9.24242C27.0004 9.24242 26.129 10.1112 26.129 11.1723ZM9.67742 14.0672C9.67742 14.3329 9.89478 14.5496 10.1613 14.5496C10.4278 14.5496 10.6452 14.3329 10.6452 14.0672C10.6452 13.8014 10.4278 13.5847 10.1613 13.5847C9.89478 13.5847 9.67742 13.8014 9.67742 14.0672ZM19.3548 14.0672C19.3548 14.3329 19.5722 14.5496 19.8387 14.5496C20.1052 14.5496 20.3226 14.3329 20.3226 14.0672C20.3226 13.8014 20.1052 13.5847 19.8387 13.5847C19.5722 13.5847 19.3548 13.8014 19.3548 14.0672ZM5.32258 21.7868C5.32258 22.0525 5.53994 22.2692 5.80645 22.2692C6.07296 22.2692 6.29032 22.0525 6.29032 21.7868C6.29032 21.521 6.07296 21.3043 5.80645 21.3043C5.53994 21.3043 5.32258 21.521 5.32258 21.7868ZM23.7097 21.7868C23.7097 22.0525 23.927 22.2692 24.1935 22.2692C24.4601 22.2692 24.6774 22.0525 24.6774 21.7868C24.6774 21.521 24.4601 21.3043 24.1935 21.3043C23.927 21.3043 23.7097 21.521 23.7097 21.7868ZM6.29032 22.7517C6.29032 23.0175 6.50769 23.2342 6.77419 23.2342C7.0407 23.2342 7.25806 23.0175 7.25806 22.7517C7.25806 22.486 7.0407 22.2692 6.77419 22.2692C6.50769 22.2692 6.29032 22.486 6.29032 22.7517ZM22.7419 22.7517C22.7419 23.0175 22.9593 23.2342 23.2258 23.2342C23.4923 23.2342 23.7097 23.0175 23.7097 22.7517C23.7097 22.486 23.4923 22.2692 23.2258 22.2692C22.9593 22.2692 22.7419 22.486 22.7419 22.7517ZM7.25806 23.7167C7.25806 23.9824 7.47543 24.1991 7.74194 24.1991C8.00844 24.1991 8.22581 23.9824 8.22581 23.7167C8.22581 23.4509 8.00844 23.2342 7.74194 23.2342C7.47543 23.2342 7.25806 23.4509 7.25806 23.7167ZM21.7742 23.7167C21.7742 23.9824 21.9916 24.1991 22.2581 24.1991C22.5246 24.1991 22.7419 23.9824 22.7419 23.7167C22.7419 23.4509 22.5246 23.2342 22.2581 23.2342C21.9916 23.2342 21.7742 23.4509 21.7742 23.7167Z" fill="#62AA51"/>
</svg>
