<svg width="20" height="21" viewBox="0 0 20 21" fill="none"
    xmlns="http://www.w3.org/2000/svg">
    <path fill-rule="evenodd" clip-rule="evenodd" d="M9.99967 0C6.79818 0 4.19238 2.60579 4.19238 5.80729C4.19238 8.46029 5.58398 11.5023 6.9528 13.9193C8.32161 16.3363 9.68717 18.125 9.68717 18.125C9.76042 18.2243 9.87598 18.2845 9.99967 18.2845C10.1234 18.2845 10.2389 18.2243 10.3122 18.125C10.3122 18.125 11.6794 16.3118 13.0465 13.8802C14.4137 11.4486 15.807 8.40495 15.807 5.80729C15.807 2.60579 13.2012 0 9.99967 0ZM9.99967 0.78125C12.7829 0.78125 15.0257 3.02409 15.0257 5.80729C15.0257 8.12175 13.7106 11.1198 12.3695 13.5026C11.2741 15.4508 10.3626 16.7285 9.99967 17.2266C9.63509 16.735 8.72363 15.4736 7.62988 13.5417C6.29036 11.1751 4.97363 8.18359 4.97363 5.80729C4.97363 3.02409 7.21647 0.78125 9.99967 0.78125ZM7.09668 6.22396C7.09668 4.62565 8.40202 3.32031 10.0003 3.32031C11.5986 3.32031 12.904 4.62565 12.904 6.22396C12.904 7.82227 11.5986 9.1276 10.0003 9.1276C8.40202 9.1276 7.09668 7.82227 7.09668 6.22396ZM9.99967 4.12762C11.1634 4.12762 12.096 5.06024 12.096 6.22398C12.096 7.38772 11.1634 8.32033 9.99967 8.32033C8.83594 8.32033 7.90332 7.38772 7.90332 6.22398C7.90332 5.06024 8.83594 4.12762 9.99967 4.12762ZM1.78385 15.3385C2.82227 14.8356 4.23177 14.4499 5.89844 14.2057C6.12793 14.1699 6.3444 14.3278 6.38021 14.5573C6.41602 14.7868 6.25814 15.0033 6.02865 15.0391C4.42057 15.2751 3.06641 15.6494 2.14844 16.0938C1.68945 16.3167 1.33464 16.5592 1.11979 16.7839C0.904948 17.0085 0.833333 17.1956 0.833333 17.3698C0.833333 17.609 0.992839 17.8841 1.41927 18.2031C1.8457 18.5221 2.50814 18.8363 3.34635 19.1016C5.02279 19.6305 7.38932 19.974 10 19.974C12.6107 19.974 14.9772 19.6305 16.6536 19.1016C17.4919 18.8363 18.1543 18.5221 18.5807 18.2031C19.0072 17.8841 19.1667 17.609 19.1667 17.3698C19.1667 17.1956 19.0951 17.0085 18.8802 16.7839C18.6654 16.5592 18.3105 16.3167 17.8516 16.0938C16.9336 15.6494 15.5794 15.2751 13.9714 15.0391C13.7419 15.0033 13.584 14.7868 13.6198 14.5573C13.6556 14.3278 13.8721 14.1699 14.1016 14.2057C15.7682 14.4499 17.1777 14.8356 18.2161 15.3385C18.7354 15.5892 19.165 15.8691 19.4792 16.1979C19.7933 16.5267 20 16.9368 20 17.3698C20 17.9655 19.6191 18.4749 19.0755 18.8802C18.5319 19.2855 17.7979 19.6126 16.901 19.8958C15.109 20.4622 12.6823 20.8073 10 20.8073C7.31771 20.8073 4.89095 20.4622 3.09896 19.8958C2.20215 19.6126 1.4681 19.2855 0.924479 18.8802C0.38086 18.4749 0 17.9655 0 17.3698C0 16.9352 0.206706 16.5267 0.520833 16.1979C0.834961 15.8691 1.26465 15.5892 1.78385 15.3385Z" fill="#62AA51"/>
</svg>
