<svg width="225" height="44" viewBox="0 0 225 44" fill="none" xmlns="http://www.w3.org/2000/svg">
<path fill-rule="evenodd" clip-rule="evenodd" d="M44.2778 0H44.4564C43.4295 0.818435 42.4227 1.66198 41.4481 2.53945C40.8197 3.12177 40.1644 3.69509 39.6767 4.40255C39.5194 4.58929 39.6577 4.96148 39.9201 4.92414C40.2593 4.7814 40.4659 4.45621 40.7361 4.22118C41.7596 3.27761 42.9896 2.47355 44.3973 2.24968C46.3775 1.7927 48.4413 2.19902 50.2998 2.92516C49.179 3.07455 48.055 3.20742 46.9455 3.43043C46.4867 3.55342 45.9711 3.61052 45.6094 3.94343C45.9979 4.16301 46.4566 4.15421 46.8898 4.18941C47.7571 4.24543 48.6243 4.3652 49.4604 4.60668C51.1794 5.09113 52.7041 6.0963 54 7.29122C51.4695 6.71126 48.8052 6.58397 46.2536 7.11114C44.3326 7.51102 42.4818 8.36122 41.0406 9.69244C39.3118 11.3016 38.1309 13.5161 37.9332 15.8677C37.7435 17.8998 38.2022 19.9417 38.9667 21.8211C39.7393 23.6872 40.8053 25.4305 42.0833 27C40.9403 26.4915 39.8396 25.883 38.8151 25.1712C37.988 24.5868 37.191 23.931 36.606 23.1019C36.2766 22.6097 36.0055 22.0804 35.6395 21.6135C35.5243 21.4783 35.3212 21.3124 35.1382 21.4191C35.0791 21.5629 35.1147 21.7211 35.1515 21.8672C35.5243 23.2291 35.9797 24.5747 36.6328 25.8336C35.3169 24.7812 34.1447 23.4831 33.4997 21.9222C33.0721 20.8084 32.8889 19.6133 32.8789 18.4259C32.89 17.3561 33.0242 16.2575 33.5186 15.291C33.4829 15.2712 33.4102 15.2328 33.3734 15.2131C33.0453 15.4788 32.8835 15.8752 32.726 16.2511C32.0262 18.0404 31.4559 19.9131 31.3575 21.8398C30.8977 21.0885 30.6756 20.2196 30.5818 19.354C30.276 16.7694 31.5863 14.0707 33.7954 12.6603C34.185 12.3648 34.7665 12.3495 35.0377 11.9091C34.878 11.8234 34.6996 11.7562 34.5153 11.7938C33.8868 11.8816 33.3579 12.2538 32.8409 12.5878C31.3296 13.6105 29.9209 14.855 29 16.4389C29.1296 14.6473 30.0404 12.8569 31.6389 11.9256C33.1156 11.0082 34.9316 10.8105 36.6385 10.9599C36.9776 11.0082 37.182 10.6635 37.2745 10.3922C37.3683 10.167 37.1563 9.99659 37.0381 9.83196C35.9987 8.48958 35.4876 6.74431 35.6997 5.06258C35.9474 3.28877 37.134 1.7663 38.5739 0.737086C37.1072 2.74829 36.2064 5.34054 36.8459 7.8098C36.8906 8.02058 37.1886 8.02402 37.2802 7.84479C37.5212 7.42538 37.4811 6.91882 37.499 6.45326C37.5291 5.14178 37.9243 3.78953 38.8228 2.79552C39.3508 2.2486 39.9022 1.71801 40.5339 1.28743C41.6346 0.523945 42.964 0.187813 44.2778 0Z" fill="#62AA51"/>
<mask id="mask0_1_50592" style="mask-type:luminance" maskUnits="userSpaceOnUse" x="0" y="12" width="70" height="32">
<path fill-rule="evenodd" clip-rule="evenodd" d="M0 12H70V44H0V12Z" fill="white"/>
</mask>
<g mask="url(#mask0_1_50592)">
<path fill-rule="evenodd" clip-rule="evenodd" d="M39.7433 12C43.2065 12.9485 46.5412 14.4545 49.4089 16.6236C50.842 17.7042 52.1554 18.9414 53.3347 20.292C55.215 22.4501 56.7491 24.8746 58.2269 27.3147C59.2941 29.0311 60.0816 30.9026 60.7261 32.8118C61.6691 35.6562 62.3224 38.5953 62.7064 41.5651C65.2721 41.8329 67.8158 40.9396 70 39.6572C69.1726 40.5936 68.2029 41.4 67.1503 42.0743C65.27 43.243 63.0723 43.8466 60.8692 43.9712C56.504 44.2123 52.2643 42.897 48.1542 41.6015C42.44 39.8985 36.6783 38.2285 30.7456 37.4871C26.7376 36.9506 22.6763 37.9277 19 39.4865C19.3527 38.9533 19.8565 38.5445 20.37 38.1712C21.8389 37.151 23.4972 36.4273 25.1922 35.8676C28.5535 34.7826 32.1511 35.0248 35.6011 35.481C38.4953 35.7873 41.3108 36.5474 44.1174 37.2811C48.0642 38.3374 51.9846 39.4897 55.8918 40.6817C56.1025 37.2029 55.7687 33.6919 54.9178 30.3121C53.9337 26.591 52.0102 23.1604 49.5786 20.1884C46.8375 16.8967 43.495 14.0853 39.7433 12M5.05702 39.1146C7.26263 38.8102 9.49764 39.1505 11.6462 39.6838C13.7632 40.2137 15.814 40.9803 17.8985 41.6276C19.019 41.9992 20.1763 42.2582 21.3503 42.3629C22.6131 42.4848 23.9321 42.6614 25.1592 42.2235C25.8214 42.0003 26.4005 41.5915 27 41.2359C26.3152 42.1863 25.3511 42.8937 24.3127 43.3725C22.6919 44.1148 20.8361 44.1555 19.1311 43.7198C16.793 43.1668 14.5176 42.3711 12.2444 41.5867C10.2766 40.9454 8.27189 40.2983 6.19174 40.2473C4.08922 40.2402 1.97003 40.5633 0 41.3451C1.39642 40.0602 3.22825 39.3819 5.05702 39.1146" fill="#3A4275"/>
</g>
<path fill-rule="evenodd" clip-rule="evenodd" d="M139.008 12C139.555 12 140 11.5515 140 11.0001C140 10.4487 139.555 10 139.008 10C138.443 10 138 10.4393 138 11.0001C138 11.5609 138.443 12 139.008 12Z" fill="#1D1D1B"/>
<path fill-rule="evenodd" clip-rule="evenodd" d="M181.992 15C182.557 15 183 14.5607 183 14C183 13.4487 182.548 13 181.992 13C181.454 13 181 13.4579 181 14C181 14.5513 181.445 15 181.992 15Z" fill="#1D1D1B"/>
<path fill-rule="evenodd" clip-rule="evenodd" d="M177.001 17.3169C177.003 17.3386 177.004 17.361 177.004 17.3848V19.9054C177.004 22.934 178.893 26 182.502 26C184.185 26 185.609 25.329 186.62 24.0599C187.497 22.9593 188 21.4452 188 19.9054V15L186.046 15.3652L186.046 16.3044C186.049 16.3482 186.049 16.3959 186.049 16.4484V19.9054C186.049 21.8253 185.588 25.0461 182.502 25.0461C179.416 25.0461 178.955 21.8253 178.955 19.9054V17.6608C178.955 17.1946 178.767 16.7602 178.426 16.4378C178.084 16.1145 177.636 15.9499 177.165 15.9692L177 15.9765V17.3022L177.001 17.3169Z" fill="#1D1D1B"/>
<path fill-rule="evenodd" clip-rule="evenodd" d="M209 24.9918C209 25.5572 209.439 26 210 26C210.561 26 211 25.5572 211 24.9918C211 24.4448 210.551 24 210 24C209.449 24 209 24.4448 209 24.9918Z" fill="#1D1D1B"/>
<path fill-rule="evenodd" clip-rule="evenodd" d="M197.025 20.5808C197.019 20.569 197.01 20.5542 197 20.538C197.275 19.9556 197.42 19.3766 197.56 18.8155L197.591 18.6903L197.627 18.5739C197.994 17.0668 198.325 16 199.248 16H199.309C200.477 16.0506 201 17.6428 201 19.1983C201 20.7169 200.158 22 199.162 22C198.932 22 198.715 21.9525 198.512 21.8712C197.901 21.6272 197.408 21.077 197.025 20.5808ZM192.816 22.2578H194.21C195.012 22.2578 195.59 22.0592 196.074 21.6152C196.691 22.3406 197.48 23 199 23C200.502 23 201.733 22.3574 202.392 21.2336C203.035 21.9507 203.768 22.2578 204.826 22.2578H222.234C223.104 22.2578 223.834 22.0507 224.457 21.6293C224.635 21.5472 224.782 21.4712 224.919 21.3902L225 21.3423V20.9439L224.86 20.952L224.365 20.6267L224.266 20.7112C224.089 20.8626 223.887 20.9869 223.667 21.0809C223.642 21.0796 223.617 21.076 223.593 21.0698L223.536 21.0554L223.482 21.0779C223.314 21.1485 223.141 21.2058 222.968 21.2474C222.911 21.2611 222.85 21.2728 222.794 21.2828C222.708 21.2887 222.63 21.2917 222.556 21.2917C221.051 21.2917 220.187 20.0805 220.187 17.9687C220.187 15.947 220.948 14.9219 222.448 14.9219C222.745 14.9219 223.06 14.9872 223.355 15.1074L223.569 15.2321C223.932 15.5299 224.184 15.9855 224.319 16.586L224.348 16.7153H224.885V16.5515C224.885 16.1823 224.867 15.8677 224.831 15.6165C224.793 15.3431 224.701 15.117 224.557 14.9439C224.316 14.6624 223.936 14.4301 223.429 14.254C222.932 14.0813 222.337 13.9937 221.66 13.9937C220.915 13.9937 220.251 14.1708 219.683 14.5205C219.117 14.8694 218.676 15.3506 218.371 15.9506C218.069 16.5454 217.916 17.2161 217.916 17.9433C217.916 18.7017 218.091 19.4075 218.437 20.0409C218.62 20.3766 218.853 20.6857 219.128 20.9577C219.238 21.0751 219.355 21.187 219.48 21.2917H215.045C215.065 21.072 215.075 20.8486 215.075 20.6272C215.075 19.5172 214.842 18.4945 214.381 17.5875C213.918 16.6753 213.247 15.944 212.387 15.4137C211.526 14.883 210.515 14.6137 209.383 14.6137C208.347 14.6137 207.438 14.7473 206.68 15.0109C205.913 15.2776 205.339 15.6277 204.975 16.0519C204.767 16.3039 204.632 16.6377 204.575 17.0438C204.52 17.4277 204.493 17.9097 204.493 18.4766V18.6404H205.156L205.184 18.5113C205.401 17.5437 205.813 16.8134 206.409 16.341C207.005 15.8689 207.825 15.6296 208.849 15.6296C209.767 15.6296 210.541 15.8638 211.149 16.3256C211.763 16.7926 212.221 17.4082 212.511 18.1556C212.805 18.9137 212.955 19.7452 212.955 20.6272C212.955 20.8529 212.949 21.0707 212.937 21.2917H204.469C203.719 21.2917 203.173 20.5772 202.91 19.9037C202.942 19.717 202.958 19.5132 202.958 19.2977C202.958 17.6804 201.744 15.4399 199.465 15.4399C196.683 15.4399 196.213 17.2016 195.797 18.7566C195.588 19.5351 195.3 20.6012 194.798 21.0705C194.634 21.203 194.394 21.2532 194.234 21.2866L192.936 21.2921C192.257 21.2453 191.913 20.8122 191.913 20.0054V12.6206C191.913 12.1743 191.729 11.7584 191.396 11.4498C191.062 11.1418 190.624 10.982 190.162 11.0016L190 11.0086L190.001 19.9363C190.001 21.4767 190.948 22.2578 192.816 22.2578Z" fill="#1D1D1B"/>
<path fill-rule="evenodd" clip-rule="evenodd" d="M159.548 19.6681C159.735 20.1683 159.865 20.699 159.936 21.2542C159.979 21.5874 160 21.9291 160 22.2785C160 22.5183 159.994 22.7607 159.981 23H152.001L152 20.271C152.219 19.0365 152.828 18.1598 153.326 17.7513C153.933 17.2528 154.77 17 155.814 17C156.75 17 157.539 17.2474 158.159 17.7354C158.315 17.8585 158.462 17.9915 158.598 18.1342C159.007 18.562 159.326 19.0759 159.548 19.6681ZM172 13.5654C172 13.1092 171.806 12.6806 171.469 12.3894C171.131 12.0987 170.69 11.9801 170.259 12.0651L170.124 12.0918L170.125 12.9902C170.13 13.0453 170.13 13.1135 170.13 13.1854V21.1343C170.13 22.1932 169.733 22.7078 168.915 22.7078H168.181C167.076 22.7078 166.372 21.1511 166.372 20.0791V13.5066C166.372 13.0561 166.18 12.6329 165.847 12.3457C165.513 12.0588 165.078 11.9427 164.653 12.0268L164.518 12.0537V13.0018C164.519 13.0254 164.519 13.05 164.519 13.0763V21.189C164.519 22.2109 164.145 22.7078 163.374 22.7078H161.632C161.653 22.4711 161.663 22.2293 161.663 21.9881C161.663 20.8184 161.435 19.7407 160.984 18.7851C160.531 17.8237 159.875 17.053 159.034 16.4944C158.192 15.9352 157.203 15.6516 156.096 15.6516C155.083 15.6516 154.194 15.7921 153.453 16.0697C152.789 16.3187 152.273 16.6363 151.916 17.0154V16.5621L150.062 16.9129L150.062 17.8138C150.064 17.8548 150.064 17.9001 150.064 17.951V21.1343C150.064 21.4055 150.036 21.648 149.98 21.8549C149.826 22.4288 149.462 22.7078 148.866 22.7078H146.441C146.584 21.7464 146.603 20.7424 146.603 19.9702V17.0719C146.603 16.6164 146.41 16.1885 146.073 15.8977C145.736 15.607 145.297 15.4884 144.866 15.5727L144.731 15.5991V16.5801C144.733 16.6213 144.733 16.6655 144.733 16.7141L144.733 21.3268C144.626 23.9468 143.951 25.7405 140.923 26.588L140 26.8465L140.953 26.9267C141.53 26.9753 141.958 27 142.225 27C144.395 27 145.713 25.929 146.253 23.726H163.689C164.957 23.726 165.859 23.2933 166.303 22.4736C166.895 23.2821 167.664 23.726 168.478 23.726H169.282C170.933 23.726 172 22.73 172 21.189V13.5654Z" fill="#1D1D1B"/>
<path fill-rule="evenodd" clip-rule="evenodd" d="M137.987 15.4485C138.277 15.1826 138.638 15.0319 139.062 15C139.093 14.9998 139.39 15.0016 139.644 15.1175C139.645 15.1177 139.646 15.1182 139.647 15.1187C139.665 15.1268 139.682 15.1361 139.7 15.1454C139.705 15.1482 139.71 15.1508 139.715 15.1536C139.729 15.1617 139.742 15.1708 139.756 15.1798C139.763 15.1843 139.77 15.1882 139.776 15.1929C139.789 15.2022 139.801 15.2124 139.814 15.2226C139.82 15.2275 139.826 15.2322 139.832 15.2373C139.849 15.2531 139.866 15.2696 139.882 15.2876C139.961 15.3794 140 15.4916 140 15.63V18.3281C140 19.7596 139.287 20.983 138.447 21C137.809 20.9607 137.085 20.1036 137.017 18.8881C137.026 18.8625 137.028 18.8397 137.029 18.8258C137.029 18.8106 137.027 18.7741 137.01 18.7364C137.003 18.5843 137 18.4414 137 18.3C137 17.7128 137.082 17.1591 137.244 16.6548C137.403 16.1616 137.653 15.7556 137.987 15.4485ZM142 20.547V16.3793L141.999 16.3553L141.998 16.3548C141.994 16.0543 141.977 15.7951 141.947 15.5842C141.91 15.3174 141.819 15.0964 141.678 14.9265C141.441 14.6519 141.07 14.4254 140.574 14.2536C140.163 14.1112 139.669 14.0288 139.107 14.0087L139.032 14.0054C138.97 14.0028 138.908 14 138.844 14C138.115 14 137.465 14.1727 136.91 14.5134C136.539 14.7412 136.219 15.0311 135.964 15.3699C135.262 16.0967 134.906 17.093 134.906 18.3311C134.906 20.0462 136.482 21.2413 137.895 21.2413C138.8 21.2413 139.563 20.8758 140.062 20.2072V20.4941C140.062 21.1883 139.858 22.0157 138.883 22.0157L133.008 22.0161C132.312 21.9682 131.944 21.5148 131.944 20.7052V17.653C131.944 17.2018 131.757 16.7813 131.418 16.4693C131.079 16.1568 130.632 15.9966 130.166 16.0163L130 16.0235L130 17.3064L130.001 17.3236C130.004 17.3476 130.006 17.3723 130.006 17.3992V20.6348C130.006 22.2042 130.975 23 132.886 23H139.34C141.03 23 142 22.1058 142 20.547Z" fill="#1D1D1B"/>
<path fill-rule="evenodd" clip-rule="evenodd" d="M86 25.0083C86 24.4335 85.5701 24 85.0001 24C84.4205 24 84 24.424 84 25.0083C84 25.5645 84.4392 26 85.0001 26C85.5514 26 86 25.555 86 25.0083Z" fill="#1D1D1B"/>
<path fill-rule="evenodd" clip-rule="evenodd" d="M84 25.0083C84 24.4335 83.5737 24 83.0084 24C82.4147 24 82 24.4146 82 25.0083C82 25.5737 82.4336 26 83.0084 26C83.5643 26 84 25.5645 84 25.0083Z" fill="#1D1D1B"/>
<path fill-rule="evenodd" clip-rule="evenodd" d="M107 19.5712C107.148 18.2763 107.751 17.3153 108.263 16.8399C108.297 16.808 108.331 16.7785 108.364 16.7511C108.967 16.2525 109.8 16 110.837 16C110.975 16 111.117 16.007 111.284 16.0222C111.653 16.0559 111.999 16.1337 112.313 16.2534C112.63 16.3743 112.918 16.5365 113.169 16.7352C113.791 17.2281 114.256 17.8784 114.55 18.6679C114.849 19.4685 115 20.3468 115 21.2785C115 21.5183 114.994 21.7605 114.981 22H107L107 19.5712ZM120.469 12.3304C120.132 12.0564 119.691 11.9454 119.262 12.0254L119.127 12.0505L119.127 12.915C119.13 12.9641 119.13 13.0183 119.13 13.0802V20.5607C119.13 21.5573 118.733 22.0418 117.916 22.0418H116.637C116.658 21.8189 116.668 21.5914 116.668 21.3644C116.668 20.2637 116.44 19.2494 115.989 18.3499C115.537 17.4453 114.881 16.72 114.04 16.1941C113.198 15.6678 112.21 15.4009 111.103 15.4009C110.09 15.4009 109.201 15.5334 108.46 15.7945C107.768 16.0386 107.237 16.3527 106.88 16.7299V16.2578L105.026 16.588L105.026 17.4358C105.028 17.4744 105.028 17.517 105.028 17.5651V20.5607C105.028 20.8162 105 21.0442 104.944 21.2389C104.79 21.7792 104.426 22.0418 103.831 22.0418H101.933C101.953 21.8189 101.964 21.5914 101.964 21.3644C101.964 20.2637 101.735 19.2494 101.285 18.3499C100.832 17.4453 100.176 16.72 99.3355 16.1941C98.4937 15.6678 97.5054 15.4009 96.3984 15.4009C95.3853 15.4009 94.4961 15.5334 93.7557 15.7945C93.005 16.0593 92.4444 16.4063 92.0886 16.827C91.8846 17.077 91.7526 17.4079 91.6966 17.8107C91.6437 18.1914 91.6167 18.6695 91.6167 19.2317V19.3941H92.2648L92.293 19.2661C92.5047 18.3062 92.9076 17.5822 93.4904 17.1137C94.0725 16.6455 94.8752 16.4084 95.8759 16.4084C96.774 16.4084 97.5306 16.6405 98.1247 17.0987C98.7247 17.5615 99.1729 18.172 99.4568 18.9133C99.7445 19.6654 99.8905 20.49 99.8905 21.3644C99.8905 21.5889 99.8842 21.8165 99.8722 22.0418L91.5224 22.042C90.4992 21.976 90.048 20.8887 89.6094 19.8316C89.5292 19.6388 89.4536 19.4568 89.3755 19.2836C89.162 18.7756 88.9346 18.2646 88.7341 17.814C88.5974 17.5075 88.4686 17.2179 88.379 17.0059C87.5959 15.1724 86.7226 15.0233 85.7445 15.0233H85.1331C84.3946 15.0233 83.971 15.438 83.971 16.1614C83.971 17.0065 84.5294 18.2208 85.1768 19.6281C85.5354 20.4078 85.9058 21.2132 86.2232 22.0418L81.894 22.042C81.2195 21.9961 80.8773 21.5668 80.8773 20.7662V17.8138C80.8773 17.3696 80.697 16.9557 80.3693 16.6485C80.0411 16.3409 79.6088 16.1833 79.1587 16.2023L79 16.2093L79.0002 17.4461L79.0017 17.4649C79.0058 17.4946 79.008 17.521 79.008 17.548V20.6976C79.008 22.2254 79.9398 23 81.7775 23H88.5078L87.9084 21.5611C86.8777 19.087 86.4918 18.1611 86.2618 17.6503C86.1698 17.4571 86.1186 17.3244 86.0583 17.167L85.9824 16.9696C85.9 16.7517 85.7755 16.4226 85.842 16.1454C85.8692 16.0321 85.9691 15.9587 86.0863 15.9654C86.4537 15.9831 86.7347 16.2433 87.4312 17.7404C87.4796 17.8356 87.5285 17.9423 87.5865 18.0685C87.6285 18.1606 87.6743 18.2606 87.7241 18.3651C87.8419 18.6342 87.9838 18.945 88.1498 19.3093C88.4268 19.9162 88.7406 20.6042 89.0697 21.3775C89.5445 22.4692 90.4518 23 91.8435 23H118.283C119.934 23 121 22.0627 121 20.6122V13.436C121 13.007 120.807 12.604 120.469 12.3304Z" fill="#1D1D1B"/>
<path fill-rule="evenodd" clip-rule="evenodd" d="M123.001 23H123.042H123.396H125V13.4416C125 13.0223 124.8 12.6263 124.452 12.3545C124.156 12.1233 123.78 12.0042 123.396 12.0139V12L123.181 12.0312C123.169 12.0325 123.157 12.0337 123.144 12.0358L123.105 12.0428L123.042 12.0519V12.0535L123 12.0609V12.9907C123.001 13.0213 123.001 13.0533 123.001 13.0881V23Z" fill="#1D1D1B"/>
<mask id="mask1_1_50592" style="mask-type:luminance" maskUnits="userSpaceOnUse" x="90" y="30" width="3" height="14">
<path fill-rule="evenodd" clip-rule="evenodd" d="M90 30H93V44H90V30Z" fill="white"/>
</mask>
<g mask="url(#mask1_1_50592)">
<path fill-rule="evenodd" clip-rule="evenodd" d="M91.4889 40.1975C91.4889 40.6967 91.4612 41.154 91.406 41.5565C91.3452 42.0014 91.2507 42.3804 91.1252 42.6836C90.8864 43.2596 90.5347 43.5397 90.0501 43.5397H90V44H90.0501C90.8068 44 91.4056 43.8687 91.8298 43.6097C92.257 43.3481 92.5627 42.9362 92.7383 42.3857C92.8119 42.1558 92.8711 41.8825 92.9145 41.5735C92.9712 41.1708 93 40.7078 93 40.1975V30H91.4889V40.1975Z" fill="#1D1D1B"/>
</g>
<path fill-rule="evenodd" clip-rule="evenodd" d="M188 33.509C188 34.0673 187.851 34.5383 187.556 34.9089C187.26 35.282 186.892 35.5599 186.462 35.7351C186.029 35.9109 185.615 36 185.231 36H184V31.1671C184.454 31.0562 184.868 31 185.231 31C185.615 31 186.025 31.092 186.452 31.2737C186.876 31.4546 187.245 31.7357 187.548 32.1095C187.848 32.4806 188 32.9513 188 33.509ZM189.763 40.8614C189.42 40.5772 189.027 40.0658 188.595 39.3416L186.77 36.3032C187.558 36.1108 188.225 35.7878 188.751 35.3426C189.301 34.8781 189.58 34.1682 189.58 33.2324C189.58 31.9842 189.103 31.1224 188.162 30.6708C187.236 30.2256 186.2 30 185.084 30H182L182 31.8959C182.006 31.9993 182.008 32.0941 182.008 32.1855V41.8225H183.72V36.4114H184.874L186.633 39.3994C187.202 40.3711 187.729 41.0538 188.2 41.4286C188.412 41.5975 188.646 41.7315 188.897 41.8271C189.198 41.9418 189.522 42 189.86 42C190.075 42 190.287 41.9818 190.491 41.946C190.681 41.9123 190.833 41.8723 190.95 41.824L191 41.8027V41.3598L190.949 41.3545C190.501 41.3086 190.102 41.1428 189.763 40.8614Z" fill="#1D1D1B"/>
<path fill-rule="evenodd" clip-rule="evenodd" d="M129.179 37.5983L123.917 31.101C123.88 31.0577 123.843 31.0157 123.805 30.9748C123.526 30.6719 123.209 30.4364 122.863 30.2755C122.64 30.1712 122.371 30.095 122.067 30.0492L122 30.0391L122.001 42H123.821V33.8613L129.193 40.5015L130.316 41.8068L130.472 42H131V30H129.179V37.5983Z" fill="#1D1D1B"/>
<path fill-rule="evenodd" clip-rule="evenodd" d="M117 37H113L115 33L117 37ZM119.132 39.8989C119.09 39.8086 119.048 39.7154 119.006 39.6172L115.07 30.0357L115.056 30L115.017 30.0002C115.017 30.0002 114.823 30.0016 114.5 30.0016C114.177 30.0016 113.982 30.0002 113.982 30.0002L113.944 30L109.995 39.6163C109.952 39.7154 109.91 39.8086 109.867 39.9011L109 42L109.094 41.9913C109.574 41.9465 110.054 41.7906 110.52 41.5282C111.087 41.209 111.545 40.5799 111.88 39.6591L112.311 38.5402H116.689L117.119 39.6582C117.455 40.5799 117.913 41.209 118.48 41.5282C118.946 41.7906 119.426 41.9465 119.906 41.9913L120 42L119.134 39.9011L119.132 39.8989Z" fill="#1D1D1B"/>
<path fill-rule="evenodd" clip-rule="evenodd" d="M154.301 39.1194C154.057 39.7887 153.729 40.2665 153.325 40.539C152.918 40.8143 152.338 40.9539 151.602 40.9539H148.831V36.3464H153.356V35.3H148.831V31.0459H151.787C153.088 31.0459 153.721 31.655 153.721 32.908V33.0777H154.378V31.583C154.378 30.5474 153.83 30 152.792 30H147V42H152.943C153.652 42 154.126 41.6653 154.351 41.0055L155 39.1494L154.352 38.9789L154.301 39.1194Z" fill="#1D1D1B"/>
<path fill-rule="evenodd" clip-rule="evenodd" d="M101.967 38.8566L97.8053 30.0011H96L96.0002 42L96.0784 41.9709C96.2 41.9256 96.3004 41.881 96.3856 41.8351C96.58 41.7299 96.7568 41.5952 96.9107 41.4346C97.126 41.2101 97.2932 40.9356 97.4078 40.6182C97.6073 40.0643 97.7014 39.7047 97.7014 38.8019V33.845L101.423 41.7861L102.511 41.785L106.264 33.7757V38.724C106.264 39.6851 106.377 40.0687 106.564 40.586C106.681 40.91 106.852 41.1903 107.071 41.4191C107.228 41.5829 107.409 41.7206 107.609 41.8285C107.697 41.876 107.799 41.9214 107.922 41.9676L108 41.9969V30.0011L106.128 30L101.967 38.8566Z" fill="#1D1D1B"/>
<path fill-rule="evenodd" clip-rule="evenodd" d="M87 37H83L85.0001 33L87 37ZM89.1324 39.8989C89.0904 39.8086 89.048 39.7154 89.0056 39.6172L85.0703 30.0357L85.0556 30L85.0172 30.0002C85.017 30.0002 84.8228 30.0016 84.5001 30.0016C84.1771 30.0016 83.9824 30.0002 83.9821 30.0002L83.9437 30L79.9949 39.6161C79.952 39.7154 79.9096 39.8086 79.8667 39.9011L79 42L79.0942 41.9913C79.5744 41.9465 80.0542 41.7906 80.52 41.5282C81.0875 41.209 81.5453 40.5799 81.8802 39.6591L82.3114 38.5402H86.6886L87.1193 39.6582C87.4547 40.5799 87.9125 41.209 88.4798 41.5282C88.9458 41.7906 89.4256 41.9465 89.906 41.9913L90 42L89.1333 39.9011L89.1324 39.8989Z" fill="#1D1D1B"/>
<path fill-rule="evenodd" clip-rule="evenodd" d="M213.155 36.7971C212.675 37.0129 212.355 37.2951 212.205 37.6354C212.062 37.9571 211.99 38.3394 211.99 38.772V41.3652C211.644 41.5395 211.273 41.6765 210.887 41.7723C210.467 41.8767 209.95 41.9297 209.35 41.9297C208.1 41.9297 207.081 41.4906 206.321 40.6242C205.554 39.7516 205.165 38.3031 205.165 36.3193C205.165 35.3932 205.317 34.5199 205.617 33.7232C205.913 32.9381 206.38 32.2914 207.006 31.8015C207.625 31.3163 208.414 31.0705 209.35 31.0705C210.393 31.0705 211.229 31.3217 211.836 31.8171C212.443 32.3133 212.863 33.0802 213.084 34.0965L213.114 34.2336H213.792V34.06C213.792 33.4641 213.764 32.9577 213.709 32.5542C213.65 32.1274 213.512 31.776 213.298 31.5087C212.928 31.0651 212.344 30.6976 211.561 30.417C211.515 30.4006 211.468 30.3855 211.421 30.3706L211.381 30.358C210.644 30.1204 209.777 30 208.805 30C208.056 30 207.352 30.1213 206.712 30.3607C206.365 30.4901 206.039 30.6516 205.741 30.8406C204.864 31.398 204.18 32.1664 203.708 33.125C203.238 34.078 203 35.1528 203 36.3193C203 37.5353 203.273 38.6662 203.81 39.681C204.349 40.6982 205.11 41.5143 206.07 42.1064C206.417 42.3202 206.788 42.4986 207.173 42.6369C207.845 42.8778 208.578 43 209.35 43C210.244 43 211.065 42.9071 211.79 42.7235C211.891 42.698 211.992 42.6698 212.092 42.6398C212.713 42.4544 213.318 42.1839 213.89 41.8359L213.974 41.7852V38.7357C213.974 38.5708 213.982 38.4113 213.999 38.2553L214 36.5575L213.79 36.6006C213.548 36.6504 213.334 36.7165 213.155 36.7971Z" fill="#1D1D1B"/>
<path fill-rule="evenodd" clip-rule="evenodd" d="M142.738 35.8192L140.577 34.5931C139.891 34.1993 139.397 33.8525 139.111 33.5622C138.84 33.2881 138.709 32.9506 138.709 32.5304C138.709 32.0736 138.889 31.7136 139.26 31.4299C139.638 31.1412 140.081 30.9946 140.578 30.9946C141.537 30.9946 142.288 31.2263 142.81 31.6834C143.336 32.1434 143.699 32.9237 143.891 34.0024L143.915 34.1368H144.543V32.1775C144.543 31.7266 144.331 31.3263 143.912 30.9873C143.552 30.6965 143.099 30.4648 142.564 30.299L142.541 30.2918C142.495 30.2776 142.448 30.2631 142.4 30.2499C141.801 30.0841 141.188 30 140.578 30C139.94 30 139.365 30.1021 138.869 30.304C138.546 30.4353 138.253 30.6093 137.998 30.8208C137.336 31.3712 137 32.1102 137 33.0177C137 33.6752 137.166 34.2427 137.495 34.7046C137.818 35.1587 138.371 35.6103 139.139 36.0464L141.301 37.2734C141.961 37.643 142.442 37.9986 142.734 38.3299C143.011 38.646 143.151 39.0236 143.151 39.4526C143.151 39.9388 142.953 40.3078 142.546 40.5808C142.126 40.8624 141.612 41.0052 141.018 41.0052C140.058 41.0052 139.298 40.7676 138.759 40.2994C138.216 39.8283 137.843 39.0425 137.652 37.9638L137.628 37.8296H137V39.7887C137 40.2405 137.218 40.6439 137.649 40.988C138.037 41.2981 138.539 41.5427 139.141 41.7153L139.172 41.7245C139.192 41.7304 139.211 41.7362 139.232 41.7419C139.864 41.9132 140.519 42 141.176 42C141.836 42 142.428 41.9027 142.936 41.7111C143.321 41.5658 143.666 41.3635 143.96 41.11C144.65 40.5152 145 39.7145 145 38.7303C145 38.0911 144.822 37.5541 144.471 37.134C144.132 36.7291 143.549 36.2869 142.738 35.8192Z" fill="#1D1D1B"/>
<path fill-rule="evenodd" clip-rule="evenodd" d="M169.336 30.1494C169.208 30.1916 169.081 30.2425 168.958 30.3011C168.875 30.3405 168.803 30.3783 168.736 30.4168C168.218 30.7144 167.797 31.326 167.486 32.2346L165.672 37.5801L163.858 32.2344C163.638 31.5933 163.363 31.0971 163.039 30.7597L163 30.7188L162.961 30.7597C162.637 31.0971 162.362 31.5933 162.142 32.2346L160.328 37.5801L158.514 32.2344C158.203 31.326 157.782 30.7144 157.264 30.4166C157.197 30.3783 157.125 30.3405 157.042 30.3011C156.919 30.2425 156.792 30.1916 156.664 30.1494C156.478 30.0877 156.284 30.042 156.089 30.0131L156 30L156.679 31.9827C156.714 32.0746 156.749 32.1699 156.783 32.2716L159.996 41.6427L160.103 41.9622L160.119 42H160.54L160.651 41.6678L163 34.8312L165.349 41.6674L165.448 41.9622L165.463 42H165.884L166.003 41.6431L169.217 32.2714C169.251 32.1699 169.286 32.0746 169.322 31.981L170 30L169.911 30.0131C169.716 30.042 169.522 30.0877 169.336 30.1494Z" fill="#1D1D1B"/>
<path fill-rule="evenodd" clip-rule="evenodd" d="M179.301 39.1194C179.057 39.7887 178.729 40.2665 178.325 40.539C177.918 40.8143 177.339 40.9539 176.602 40.9539H173.831V36.3464H178.356V35.3H173.831V31.0459H176.787C178.088 31.0459 178.721 31.655 178.721 32.908V33.0777H179.378V31.583C179.378 30.5474 178.83 30 177.792 30H172V42H177.943C178.652 42 179.126 41.6653 179.351 41.0055L180 39.1494L179.352 38.9789L179.301 39.1194Z" fill="#1D1D1B"/>
<mask id="mask2_1_50592" style="mask-type:luminance" maskUnits="userSpaceOnUse" x="217" y="30" width="8" height="12">
<path fill-rule="evenodd" clip-rule="evenodd" d="M217 30H225V42H217V30Z" fill="white"/>
</mask>
<g mask="url(#mask2_1_50592)">
<path fill-rule="evenodd" clip-rule="evenodd" d="M224.352 38.9792L224.301 39.1194C224.058 39.7887 223.729 40.2665 223.326 40.539C222.918 40.8143 222.338 40.9539 221.602 40.9539H218.83V36.3464H223.356V35.3H218.83V31.0461H221.787C223.088 31.0461 223.721 31.655 223.721 32.9082V33.0779H224.378V31.583C224.378 30.5474 223.83 30 222.792 30H217V42H222.943C223.652 42 224.126 41.6653 224.351 41.0055L225 39.1496L224.352 38.9792Z" fill="#1D1D1B"/>
</g>
<path fill-rule="evenodd" clip-rule="evenodd" d="M200 37H196L198 33L200 37ZM202.132 39.8989C202.09 39.8086 202.048 39.7154 202.006 39.6172L198.07 30.0357L198.056 30L198.017 30.0002C198.017 30.0002 197.823 30.0016 197.5 30.0016C197.177 30.0016 196.982 30.0002 196.982 30.0002L196.944 30L192.995 39.6161C192.952 39.7154 192.91 39.8086 192.867 39.9011L192 42L192.094 41.9913C192.574 41.9465 193.054 41.7906 193.52 41.5282C194.087 41.209 194.545 40.5799 194.88 39.6591L195.311 38.5402H199.689L200.119 39.6582C200.455 40.5799 200.913 41.209 201.48 41.5282C201.946 41.7906 202.426 41.9465 202.906 41.9913L203 42L202.133 39.9011L202.132 39.8989Z" fill="#1D1D1B"/>
</svg>
