<svg width="226" height="44" viewBox="0 0 226 44" fill="none" xmlns="http://www.w3.org/2000/svg">
<path fill-rule="evenodd" clip-rule="evenodd" d="M44.0717 0H44.2496C43.227 0.828206 42.2244 1.68182 41.2539 2.56976C40.6281 3.15904 39.9756 3.7392 39.4899 4.45511C39.3333 4.64408 39.4711 5.02071 39.7323 4.98292C40.0701 4.83848 40.2758 4.50941 40.5449 4.27157C41.564 3.31673 42.7889 2.50308 44.1907 2.27653C46.1625 1.8141 48.2177 2.22527 50.0683 2.96008C48.9523 3.11126 47.833 3.24571 46.7281 3.47138C46.2713 3.59584 45.7579 3.65362 45.3977 3.99051C45.7846 4.21271 46.2414 4.2038 46.6727 4.23942C47.5363 4.29611 48.3999 4.41732 49.2325 4.66167C50.9443 5.15191 52.4626 6.16908 53.753 7.37827C51.2332 6.79138 48.58 6.66257 46.0391 7.19603C44.1262 7.60068 42.2832 8.46104 40.8481 9.80815C39.1266 11.4365 37.9506 13.6775 37.7538 16.0572C37.5649 18.1134 38.0216 20.1797 38.7829 22.0816C39.5523 23.97 40.6138 25.7341 41.8864 27.3223C40.7482 26.8078 39.6522 26.192 38.632 25.4717C37.8083 24.8803 37.0147 24.2167 36.4321 23.3776C36.1041 22.8796 35.8342 22.344 35.4697 21.8715C35.355 21.7347 35.1528 21.5668 34.9705 21.6748C34.9117 21.8203 34.9471 21.9804 34.9838 22.1283C35.355 23.5065 35.8085 24.8681 36.4588 26.142C35.1484 25.0771 33.9812 23.7634 33.3389 22.1839C32.9132 21.0568 32.7307 19.8474 32.7207 18.6458C32.7318 17.5633 32.8654 16.4516 33.3578 15.4735C33.3222 15.4535 33.2498 15.4147 33.2131 15.3947C32.8865 15.6636 32.7253 16.0648 32.5685 16.4451C31.8717 18.2557 31.3037 20.1508 31.2057 22.1005C30.7478 21.3403 30.5267 20.461 30.4333 19.585C30.1288 16.9696 31.4336 14.2387 33.6334 12.8115C34.0214 12.5124 34.6004 12.4969 34.8704 12.0512C34.7114 11.9646 34.5337 11.8966 34.3502 11.9346C33.7244 12.0234 33.1977 12.4001 32.6829 12.738C31.1779 13.773 29.7752 15.0324 28.8582 16.6351C28.9872 14.8221 29.8942 13.0104 31.4859 12.068C32.9564 11.1396 34.7649 10.9396 36.4645 11.0907C36.8022 11.1396 37.0058 10.7908 37.0979 10.5162C37.1913 10.2884 36.9801 10.1159 36.8624 9.94933C35.8274 8.59093 35.3185 6.82483 35.5296 5.12302C35.7764 3.32803 36.958 1.78739 38.3918 0.745885C36.9313 2.7811 36.0342 5.4043 36.671 7.90304C36.7156 8.11633 37.0123 8.11981 37.1035 7.93844C37.3435 7.51402 37.3036 7.00141 37.3214 6.53029C37.3513 5.20317 37.7449 3.83477 38.6396 2.82889C39.1654 2.27545 39.7145 1.73852 40.3436 1.3028C41.4396 0.5302 42.7635 0.190055 44.0717 0Z" fill="#62AA51"/>
<mask id="mask0_57_21011" style="mask-type:luminance" maskUnits="userSpaceOnUse" x="0" y="11" width="70" height="33">
<path fill-rule="evenodd" clip-rule="evenodd" d="M0 11.6978H69.6368V44H0V11.6978Z" fill="white"/>
</mask>
<g mask="url(#mask0_57_21011)">
<path fill-rule="evenodd" clip-rule="evenodd" d="M39.3201 11.6978C42.7902 12.6548 46.1315 14.1744 49.0049 16.363C50.4408 17.4533 51.7569 18.7016 52.9385 20.0644C54.8225 22.2419 56.3597 24.6882 57.8404 27.1503C58.9097 28.8821 59.6988 30.7704 60.3446 32.6968C61.2894 35.5668 61.9441 38.5323 62.3287 41.5289C64.8996 41.7991 67.4483 40.8977 69.6368 39.6038C68.8078 40.5486 67.8362 41.3623 66.7815 42.0426C64.8974 43.2218 62.6954 43.8308 60.4879 43.9566C56.114 44.1998 51.8659 42.8727 47.7477 41.5656C42.0222 39.8473 36.2491 38.1622 30.3046 37.4141C26.2886 36.8728 22.2193 37.8587 18.5357 39.4315C18.8891 38.8935 19.3939 38.481 19.9084 38.1044C21.3802 37.0751 23.0418 36.3448 24.7402 35.7801C28.1082 34.6854 31.7129 34.9297 35.1698 35.39C38.0697 35.6991 40.8907 36.466 43.7029 37.2063C47.6576 38.2721 51.5857 39.4348 55.5007 40.6375C55.7118 37.1274 55.3773 33.5848 54.5247 30.1746C53.5386 26.42 51.6114 22.9586 49.175 19.9599C46.4284 16.6386 43.0793 13.8019 39.3201 11.6978ZM5.00746 39.326C7.19147 39.0347 9.40458 39.3603 11.5321 39.8705C13.6284 40.3775 15.659 41.111 17.7231 41.7302C18.8326 42.0858 19.9786 42.3336 21.1411 42.4337C22.3915 42.5504 23.6976 42.7194 24.9126 42.3004C25.5684 42.0869 26.1418 41.6957 26.7354 41.3555C26.0573 42.2648 25.1027 42.9416 24.0744 43.3997C22.4695 44.1099 20.632 44.1488 18.9436 43.732C16.6284 43.2029 14.3753 42.4416 12.1244 41.6911C10.1759 41.0775 8.19083 40.4585 6.13107 40.4096C4.04915 40.4029 1.95073 40.712 0 41.46C1.38273 40.2306 3.19662 39.5816 5.00746 39.326Z" fill="#101E8E"/>
</g>
<path fill-rule="evenodd" clip-rule="evenodd" d="M139.093 12.3923C139.681 12.3923 140.159 11.9062 140.159 11.3086C140.159 10.7111 139.681 10.2248 139.093 10.2248C138.485 10.2248 138.009 10.7009 138.009 11.3086C138.009 11.9164 138.485 12.3923 139.093 12.3923Z" fill="#1D1D1B"/>
<path fill-rule="evenodd" clip-rule="evenodd" d="M182.273 14.9657C182.881 14.9657 183.357 14.4896 183.357 13.8818C183.357 13.2843 182.871 12.798 182.273 12.798C181.695 12.798 181.207 13.2943 181.207 13.8818C181.207 14.4794 181.685 14.9657 182.273 14.9657Z" fill="#1D1D1B"/>
<path fill-rule="evenodd" clip-rule="evenodd" d="M177.185 17.5167C177.187 17.538 177.189 17.5599 177.189 17.5832V20.0506C177.189 23.0155 179.014 26.0169 182.502 26.0169C184.129 26.0169 185.505 25.36 186.483 24.1176C187.33 23.0403 187.816 21.5581 187.816 20.0506V15.2487L185.928 15.6062L185.928 16.5256C185.93 16.5684 185.931 16.6151 185.931 16.6666V20.0506C185.931 21.9301 185.486 25.0831 182.502 25.0831C179.52 25.0831 179.074 21.9301 179.074 20.0506V17.8534C179.074 17.397 178.892 16.9718 178.563 16.6562C178.232 16.3397 177.799 16.1785 177.344 16.1974L177.184 16.2046V17.5024L177.185 17.5167Z" fill="#1D1D1B"/>
<path fill-rule="evenodd" clip-rule="evenodd" d="M209.283 25.3207C209.283 25.9285 209.759 26.4044 210.367 26.4044C210.974 26.4044 211.45 25.9285 211.45 25.3207C211.45 24.7328 210.964 24.2547 210.367 24.2547C209.769 24.2547 209.283 24.7328 209.283 25.3207Z" fill="#1D1D1B"/>
<path fill-rule="evenodd" clip-rule="evenodd" d="M197.077 21.4033C197.071 21.3918 197.062 21.3772 197.051 21.3614C197.335 20.7916 197.484 20.2252 197.628 19.6763L197.66 19.5538L197.698 19.44C198.076 17.9656 198.417 16.9219 199.369 16.9219H199.432C200.637 16.9714 201.176 18.529 201.176 20.0508C201.176 21.5364 200.308 22.7917 199.281 22.7917C199.043 22.7917 198.82 22.7452 198.61 22.6657C197.98 22.427 197.472 21.8888 197.077 21.4033ZM193.13 22.9852H194.504C195.295 22.9852 195.865 22.7823 196.342 22.329C196.951 23.0697 197.729 23.743 199.228 23.743C200.709 23.743 201.923 23.0869 202.573 21.9394C203.207 22.6716 203.93 22.9852 204.974 22.9852H222.14C222.998 22.9852 223.718 22.7737 224.332 22.3434C224.507 22.2595 224.652 22.182 224.788 22.0992L224.868 22.0504V21.6435L224.73 21.6518L224.241 21.3197L224.144 21.4059C223.969 21.5606 223.771 21.6874 223.553 21.7834C223.528 21.7821 223.504 21.7784 223.48 21.7721L223.424 21.7573L223.371 21.7804C223.205 21.8525 223.034 21.9109 222.864 21.9535C222.807 21.9674 222.748 21.9793 222.693 21.9895C222.607 21.9956 222.53 21.9987 222.457 21.9987C220.973 21.9987 220.121 20.7619 220.121 18.6055C220.121 16.5411 220.872 15.4944 222.351 15.4944C222.643 15.4944 222.955 15.5611 223.246 15.6838L223.457 15.8111C223.815 16.1152 224.063 16.5805 224.196 17.1936L224.225 17.3257H224.754V17.1584C224.754 16.7814 224.736 16.4601 224.701 16.2036C224.663 15.9245 224.572 15.6936 224.431 15.5168C224.193 15.2294 223.819 14.9922 223.319 14.8124C222.829 14.636 222.242 14.5465 221.574 14.5465C220.84 14.5465 220.184 14.7275 219.625 15.0846C219.067 15.4408 218.631 15.9321 218.331 16.5448C218.033 17.1521 217.882 17.837 217.882 18.5796C217.882 19.354 218.055 20.0746 218.396 20.7215C218.577 21.0642 218.806 21.3798 219.077 21.6576C219.185 21.7775 219.301 21.8918 219.424 21.9987H215.051C215.07 21.7743 215.081 21.5462 215.081 21.3201C215.081 20.1867 214.85 19.1424 214.396 18.2162C213.939 17.2849 213.278 16.5381 212.43 15.9966C211.581 15.4547 210.584 15.1797 209.467 15.1797C208.446 15.1797 207.549 15.3161 206.802 15.5852C206.045 15.8576 205.479 16.2151 205.121 16.6482C204.915 16.9056 204.782 17.2464 204.725 17.6611C204.672 18.0531 204.645 18.5453 204.645 19.1242V19.2914H205.298L205.327 19.1596C205.54 18.1715 205.946 17.4258 206.534 16.9434C207.122 16.4614 207.931 16.2171 208.94 16.2171C209.846 16.2171 210.609 16.4562 211.208 16.9278C211.814 17.4045 212.266 18.0331 212.552 18.7964C212.842 19.5705 212.989 20.4196 212.989 21.3201C212.989 21.5506 212.983 21.773 212.972 21.9987H204.621C203.881 21.9987 203.343 21.2691 203.084 20.5814C203.116 20.3907 203.132 20.1826 203.132 19.9626C203.132 18.3112 201.934 16.0233 199.686 16.0233C196.943 16.0233 196.479 17.8222 196.069 19.41C195.863 20.205 195.58 21.2936 195.085 21.7728C194.922 21.9081 194.686 21.9593 194.528 21.9934L193.248 21.9991C192.579 21.9513 192.24 21.5091 192.24 20.6852V13.1445C192.24 12.6888 192.058 12.2641 191.729 11.949C191.4 11.6345 190.968 11.4713 190.513 11.4913L190.353 11.4985L190.354 20.6146C190.354 22.1876 191.288 22.9852 193.13 22.9852Z" fill="#1D1D1B"/>
<path fill-rule="evenodd" clip-rule="evenodd" d="M159.637 18.7776C159.818 19.2611 159.944 19.7742 160.012 20.3109C160.053 20.633 160.074 20.9634 160.074 21.3011C160.074 21.5329 160.068 21.7673 160.056 21.9986H152.338L152.337 19.3604C152.548 18.1671 153.138 17.3195 153.619 16.9247C154.206 16.4427 155.016 16.1983 156.025 16.1983C156.931 16.1983 157.694 16.4375 158.293 16.9092C158.445 17.0283 158.586 17.1568 158.718 17.2948C159.114 17.7083 159.422 18.2051 159.637 18.7776ZM172.589 13.1396C172.589 12.6976 172.393 12.2823 172.053 12.0002C171.713 11.7184 171.268 11.6035 170.834 11.6859L170.697 11.7117L170.698 12.5823C170.703 12.6357 170.703 12.7017 170.703 12.7715V20.4738C170.703 21.4999 170.302 21.9986 169.478 21.9986H168.738C167.624 21.9986 166.913 20.4901 166.913 19.4514V13.0827C166.913 12.6461 166.72 12.2361 166.384 11.9578C166.048 11.6798 165.609 11.5673 165.18 11.6487L165.044 11.6748V12.5936C165.045 12.6164 165.045 12.6403 165.045 12.6657V20.5268C165.045 21.517 164.668 21.9986 163.891 21.9986H162.134C162.155 21.7692 162.165 21.5349 162.165 21.3011C162.165 20.1678 161.935 19.1234 161.481 18.1975C161.024 17.2659 160.362 16.5191 159.515 15.9779C158.665 15.4359 157.669 15.1612 156.552 15.1612C155.531 15.1612 154.634 15.2973 153.887 15.5663C153.217 15.8076 152.697 16.1153 152.338 16.4826V16.0435L150.468 16.3834L150.468 17.2563C150.47 17.2961 150.47 17.34 150.47 17.3893V20.4738C150.47 20.7366 150.441 20.9716 150.385 21.1721C150.23 21.7282 149.863 21.9986 149.262 21.9986H146.816C146.961 21.067 146.98 20.0941 146.98 19.3458V16.5374C146.98 16.096 146.785 15.6814 146.446 15.3997C146.106 15.1179 145.663 15.003 145.229 15.0847L145.092 15.1103V16.0608C145.094 16.1008 145.094 16.1436 145.094 16.1907L145.095 20.6604C144.987 23.1991 144.306 24.9372 141.253 25.7584L140.322 26.0089L141.282 26.0866C141.865 26.1337 142.296 26.1576 142.565 26.1576C144.754 26.1576 146.083 25.1198 146.627 22.9851H164.208C165.487 22.9851 166.396 22.5659 166.845 21.7716C167.441 22.5551 168.216 22.9851 169.037 22.9851H169.848C171.513 22.9851 172.589 22.0201 172.589 20.5268V13.1396Z" fill="#1D1D1B"/>
<path fill-rule="evenodd" clip-rule="evenodd" d="M137.385 15.1589C137.701 14.9106 138.094 14.7699 138.556 14.7401C138.59 14.7399 138.914 14.7416 139.19 14.8498C139.191 14.85 139.192 14.8505 139.193 14.8509C139.213 14.8585 139.232 14.8672 139.251 14.8759C139.256 14.8785 139.262 14.8809 139.267 14.8835C139.283 14.8911 139.298 14.8995 139.312 14.908C139.32 14.9121 139.327 14.9158 139.334 14.9202C139.349 14.9289 139.362 14.9384 139.375 14.948C139.382 14.9525 139.389 14.9569 139.395 14.9617C139.414 14.9764 139.432 14.9919 139.449 15.0086C139.536 15.0944 139.578 15.1991 139.578 15.3283V17.8475C139.578 19.1839 138.801 20.3262 137.886 20.3421C137.191 20.3054 136.402 19.5052 136.328 18.3703C136.338 18.3464 136.34 18.3251 136.341 18.3121C136.341 18.2979 136.339 18.2638 136.32 18.2287C136.313 18.0866 136.31 17.9532 136.31 17.8212C136.31 17.273 136.399 16.756 136.576 16.2851C136.748 15.8246 137.021 15.4456 137.385 15.1589ZM141.464 20.5267V16.3496L141.462 16.3255L141.462 16.3251C141.458 16.0238 141.442 15.764 141.413 15.5527C141.377 15.2853 141.29 15.0637 141.154 14.8935C140.925 14.6183 140.567 14.3913 140.089 14.219C139.692 14.0763 139.216 13.9938 138.675 13.9736L138.602 13.9703C138.543 13.9677 138.483 13.9649 138.421 13.9649C137.719 13.9649 137.092 14.138 136.557 14.4795C136.199 14.7077 135.891 14.9984 135.645 15.3379C134.969 16.0664 134.625 17.0649 134.625 18.3058C134.625 20.0247 136.144 21.2226 137.507 21.2226C138.379 21.2226 139.114 20.8562 139.596 20.1861V20.4737C139.596 21.1694 139.399 21.9987 138.459 21.9987L132.795 21.9991C132.125 21.9511 131.77 21.4967 131.77 20.6853V17.6261C131.77 17.1739 131.59 16.7525 131.263 16.4397C130.936 16.1265 130.505 15.966 130.056 15.9858L129.896 15.993L129.896 17.2788L129.897 17.296C129.9 17.3201 129.902 17.3448 129.902 17.3718V20.6147C129.902 22.1877 130.836 22.9852 132.678 22.9852H138.899C140.529 22.9852 141.464 22.0891 141.464 20.5267Z" fill="#1D1D1B"/>
<path fill-rule="evenodd" clip-rule="evenodd" d="M86.4397 25.3207C86.4397 24.713 85.9814 24.2547 85.3736 24.2547C84.7557 24.2547 84.3074 24.703 84.3074 25.3207C84.3074 25.9087 84.7757 26.3692 85.3736 26.3692C85.9614 26.3692 86.4397 25.8987 86.4397 25.3207Z" fill="#1D1D1B"/>
<path fill-rule="evenodd" clip-rule="evenodd" d="M83.884 25.3207C83.884 24.713 83.4333 24.2547 82.8356 24.2547C82.2078 24.2547 81.7693 24.693 81.7693 25.3207C81.7693 25.9185 82.2278 26.3692 82.8356 26.3692C83.4233 26.3692 83.884 25.9087 83.884 25.3207Z" fill="#1D1D1B"/>
<path fill-rule="evenodd" clip-rule="evenodd" d="M107.166 19.6507C107.31 18.3989 107.896 17.47 108.394 17.0104C108.427 16.9795 108.46 16.9511 108.492 16.9246C109.079 16.4426 109.889 16.1984 110.898 16.1984C111.031 16.1984 111.169 16.2052 111.332 16.2199C111.691 16.2525 112.028 16.3277 112.333 16.4434C112.642 16.5603 112.922 16.7171 113.166 16.9091C113.771 17.3857 114.223 18.0143 114.509 18.7775C114.8 19.5514 114.947 20.4005 114.947 21.3013C114.947 21.533 114.94 21.7672 114.928 21.9987H107.166L107.166 19.6507ZM120.872 11.9996C120.531 11.7175 120.087 11.6032 119.654 11.6855L119.517 11.7114L119.518 12.6015C119.521 12.6521 119.521 12.7079 119.521 12.7716V20.4737C119.521 21.4998 119.121 21.9987 118.296 21.9987H117.006C117.027 21.7691 117.038 21.535 117.038 21.3013C117.038 20.1679 116.807 19.1235 116.353 18.1974C115.897 17.266 115.235 16.5192 114.387 15.9778C113.538 15.4358 112.541 15.1611 111.425 15.1611C110.403 15.1611 109.506 15.2975 108.76 15.5664C108.061 15.8177 107.526 16.1411 107.166 16.5295V16.0434L105.296 16.3833L105.296 17.2562C105.298 17.296 105.298 17.3399 105.298 17.3894V20.4737C105.298 20.7367 105.27 20.9715 105.214 21.172C105.058 21.7283 104.691 21.9987 104.091 21.9987H102.176C102.197 21.7691 102.208 21.535 102.208 21.3013C102.208 20.1679 101.977 19.1235 101.523 18.1974C101.066 17.266 100.405 16.5192 99.5568 15.9778C98.7077 15.4358 97.711 15.1611 96.5945 15.1611C95.5728 15.1611 94.676 15.2975 93.9292 15.5664C93.172 15.839 92.6066 16.1963 92.2478 16.6294C92.0421 16.8868 91.909 17.2276 91.8525 17.6422C91.7991 18.0343 91.7719 18.5264 91.7719 19.1053V19.2726H92.4255L92.4539 19.1407C92.6674 18.1524 93.0738 17.407 93.6616 16.9246C94.2487 16.4426 95.0582 16.1984 96.0676 16.1984C96.9733 16.1984 97.7364 16.4374 98.3357 16.9091C98.9408 17.3857 99.3928 18.0143 99.6791 18.7775C99.9693 19.5519 100.117 20.4009 100.117 21.3013C100.117 21.5324 100.11 21.7667 100.098 21.9987L91.6768 21.9989C90.6448 21.9309 90.1898 20.8115 89.7473 19.723C89.6665 19.5245 89.5903 19.3371 89.5114 19.1587C89.2962 18.6357 89.0668 18.1096 88.8646 17.6457C88.7267 17.3301 88.5968 17.0319 88.5064 16.8136C87.7167 14.9258 86.8359 14.7723 85.8494 14.7723H85.2327C84.4879 14.7723 84.0607 15.1993 84.0607 15.9441C84.0607 16.8142 84.6239 18.0645 85.2768 19.5134C85.6384 20.3162 86.012 21.1455 86.3322 21.9987L81.9659 21.9989C81.2856 21.9516 80.9405 21.5096 80.9405 20.6853V17.6455C80.9405 17.188 80.7587 16.7619 80.4281 16.4456C80.0971 16.1289 79.6612 15.9667 79.2072 15.9862L79.0471 15.9934L79.0473 17.2669L79.0489 17.2862C79.053 17.3168 79.0552 17.344 79.0552 17.3718V20.6147C79.0552 22.1877 79.995 22.9853 81.8484 22.9853H88.6363L88.0318 21.5037C86.9923 18.9563 86.6031 18.003 86.3711 17.4771C86.2783 17.2782 86.2266 17.1415 86.1658 16.9795L86.0894 16.7762C86.0062 16.5518 85.8806 16.213 85.9477 15.9276C85.9751 15.8109 86.0759 15.7354 86.1941 15.7423C86.5646 15.7605 86.8481 16.0284 87.5505 17.5699C87.5994 17.6678 87.6487 17.7777 87.7071 17.9076C87.7495 18.0025 87.7957 18.1055 87.8459 18.213C87.9647 18.4902 88.1079 18.8101 88.2753 19.1852C88.5547 19.8101 88.8711 20.5184 89.203 21.3147C89.682 22.4388 90.597 22.9853 92.0006 22.9853H118.666C120.331 22.9853 121.407 22.0202 121.407 20.5267V13.138C121.407 12.6962 121.212 12.2813 120.872 11.9996Z" fill="#1D1D1B"/>
<path fill-rule="evenodd" clip-rule="evenodd" d="M123.416 22.9851H123.455H123.789H125.302V13.1357C125.302 12.7037 125.113 12.2955 124.785 12.0155C124.506 11.7773 124.151 11.6546 123.789 11.6645V11.6502L123.586 11.6824C123.574 11.6837 123.563 11.685 123.551 11.6871L123.514 11.6943L123.455 11.7036V11.7054L123.415 11.713V12.6711C123.416 12.7026 123.416 12.7356 123.416 12.7714V22.9851Z" fill="#1D1D1B"/>
<mask id="mask1_57_21011" style="mask-type:luminance" maskUnits="userSpaceOnUse" x="89" y="30" width="5" height="14">
<path fill-rule="evenodd" clip-rule="evenodd" d="M89.97 30.0157H93.3017V44H89.97V30.0157Z" fill="white"/>
</mask>
<g mask="url(#mask1_57_21011)">
<path fill-rule="evenodd" clip-rule="evenodd" d="M91.6236 40.2018C91.6236 40.7005 91.5927 41.1573 91.5315 41.5594C91.4639 42.0038 91.359 42.3824 91.2196 42.6851C90.9543 43.2605 90.5638 43.5403 90.0256 43.5403H89.97V44.0001H90.0256C90.8659 44.0001 91.531 43.8689 92.0021 43.6102C92.4765 43.3489 92.816 42.9375 93.0111 42.3876C93.0927 42.158 93.1586 41.885 93.2068 41.5763C93.2698 41.174 93.3017 40.7116 93.3017 40.2018V30.0157H91.6236V40.2018Z" fill="#1D1D1B"/>
</g>
<path fill-rule="evenodd" clip-rule="evenodd" d="M187.878 33.1696C187.878 33.7111 187.732 34.1679 187.446 34.5273C187.158 34.8892 186.799 35.1587 186.381 35.3286C185.96 35.4991 185.557 35.5856 185.183 35.5856H183.986V30.8983C184.428 30.7907 184.83 30.7362 185.183 30.7362C185.557 30.7362 185.956 30.8255 186.371 31.0016C186.784 31.1771 187.143 31.4497 187.438 31.8123C187.729 32.1722 187.878 32.6287 187.878 33.1696ZM189.91 40.6723C189.574 40.3934 189.188 39.8917 188.764 39.1812L186.976 36.2C187.748 36.0113 188.402 35.6944 188.918 35.2576C189.456 34.8019 189.73 34.1053 189.73 33.1872C189.73 31.9626 189.262 31.117 188.34 30.6739C187.432 30.2371 186.417 30.0157 185.322 30.0157H182.3L182.3 31.8759C182.305 31.9773 182.308 32.0703 182.308 32.16V41.6152H183.986V36.3062H185.117L186.841 39.2379C187.399 40.1912 187.916 40.8611 188.377 41.2288C188.585 41.3945 188.815 41.5259 189.061 41.6198C189.356 41.7323 189.673 41.7894 190.005 41.7894C190.216 41.7894 190.424 41.7716 190.624 41.7364C190.809 41.7034 190.959 41.6641 191.073 41.6167L191.122 41.5959V41.1612L191.072 41.156C190.633 41.1111 190.242 40.9484 189.91 40.6723Z" fill="#1D1D1B"/>
<path fill-rule="evenodd" clip-rule="evenodd" d="M128.675 37.3605L123.622 31.08C123.587 31.0381 123.552 30.9975 123.516 30.9579C123.247 30.6651 122.943 30.4375 122.611 30.282C122.396 30.1812 122.139 30.1076 121.846 30.0633L121.782 30.0535L121.783 41.6153H123.53V33.7482L128.689 40.1668L129.766 41.4286L129.917 41.6153H130.424V30.0157H128.675V37.3605Z" fill="#1D1D1B"/>
<path fill-rule="evenodd" clip-rule="evenodd" d="M116.153 37.5688H112.659L114.406 33.3467L116.153 37.5688ZM118.936 39.707C118.895 39.6186 118.853 39.5273 118.812 39.4311L114.963 30.0491L114.949 30.0142L114.911 30.0144C114.911 30.0144 114.721 30.0157 114.406 30.0157C114.09 30.0157 113.899 30.0144 113.899 30.0144L113.862 30.0142L110 39.4303C109.958 39.5273 109.917 39.6186 109.875 39.7091L109.027 41.7643L109.119 41.7559C109.589 41.712 110.058 41.5593 110.514 41.3023C111.069 40.9898 111.516 40.3738 111.844 39.4722L112.265 38.3766H116.546L116.967 39.4713C117.295 40.3738 117.743 40.9898 118.297 41.3023C118.753 41.5593 119.222 41.712 119.692 41.7559L119.784 41.7643L118.937 39.7091L118.936 39.707Z" fill="#1D1D1B"/>
<path fill-rule="evenodd" clip-rule="evenodd" d="M154.737 38.887C154.484 39.5464 154.143 40.0171 153.724 40.2856C153.301 40.5568 152.698 40.6943 151.934 40.6943H149.055V36.155H153.755V35.1241H149.055V30.9329H152.125C153.477 30.9329 154.134 31.533 154.134 32.7674V32.9347H154.817V31.462C154.817 30.4418 154.247 29.9025 153.17 29.9025H147.154V41.725H153.327C154.063 41.725 154.555 41.3953 154.789 40.7452L155.463 38.9165L154.79 38.7486L154.737 38.887Z" fill="#1D1D1B"/>
<path fill-rule="evenodd" clip-rule="evenodd" d="M101.443 38.7309L97.4203 30.0156H95.6753L95.6755 41.8246L95.7511 41.7959C95.8686 41.7514 95.9657 41.7075 96.048 41.6623C96.2359 41.5587 96.4068 41.4262 96.5556 41.2681C96.7637 41.0472 96.9253 40.777 97.0361 40.4647C97.229 39.9195 97.32 39.5657 97.32 38.6771V33.7986L100.917 41.6141L101.969 41.613L105.597 33.7304V38.6004C105.597 39.5463 105.707 39.9238 105.887 40.433C106 40.7518 106.165 41.0277 106.377 41.2529C106.529 41.4141 106.703 41.5496 106.897 41.6558C106.982 41.7025 107.081 41.7473 107.199 41.7927L107.275 41.8216V30.0156L105.466 30.0145L101.443 38.7309Z" fill="#1D1D1B"/>
<path fill-rule="evenodd" clip-rule="evenodd" d="M85.8583 37.5688H82.3642L84.1114 33.3467L85.8583 37.5688ZM88.6412 39.707C88.6001 39.6186 88.5587 39.5273 88.5172 39.4311L84.6689 30.0491L84.6546 30.0142L84.617 30.0144C84.6168 30.0144 84.427 30.0157 84.1114 30.0157C83.7955 30.0157 83.6051 30.0144 83.6048 30.0144L83.5673 30.0142L79.7058 39.43C79.6639 39.5273 79.6224 39.6186 79.5804 39.7091L78.7329 41.7643L78.825 41.7559C79.2946 41.712 79.7638 41.5593 80.2192 41.3023C80.7742 40.9898 81.2219 40.3738 81.5494 39.4722L81.971 38.3766H86.2515L86.6727 39.4713C87.0006 40.3738 87.4483 40.9898 88.003 41.3023C88.4587 41.5593 88.9279 41.712 89.3977 41.7559L89.4896 41.7643L88.6421 39.7091L88.6412 39.707Z" fill="#1D1D1B"/>
<path fill-rule="evenodd" clip-rule="evenodd" d="M213.078 36.1712C212.618 36.3791 212.311 36.6508 212.167 36.9786C212.031 37.2883 211.962 37.6565 211.962 38.0731V40.5703C211.629 40.7382 211.274 40.87 210.904 40.9624C210.502 41.0629 210.006 41.114 209.431 41.114C208.233 41.114 207.257 40.6911 206.528 39.8568C205.793 39.0164 205.42 37.6215 205.42 35.7112C205.42 34.8193 205.566 33.9783 205.854 33.2111C206.137 32.4551 206.585 31.8323 207.184 31.3606C207.778 30.8933 208.534 30.6566 209.431 30.6566C210.43 30.6566 211.232 30.8986 211.814 31.3755C212.396 31.8534 212.798 32.5919 213.01 33.5706L213.038 33.7027H213.688V33.5354C213.688 32.9616 213.662 32.474 213.608 32.0854C213.552 31.6744 213.42 31.336 213.215 31.0786C212.861 30.6514 212.3 30.2976 211.55 30.0273C211.506 30.0115 211.461 29.9969 211.415 29.9826L211.378 29.9704C210.671 29.7417 209.841 29.6257 208.909 29.6257C208.191 29.6257 207.516 29.7426 206.902 29.973C206.571 30.0977 206.258 30.2532 205.973 30.4353C205.132 30.972 204.476 31.712 204.024 32.6351C203.573 33.5528 203.345 34.5878 203.345 35.7112C203.345 36.8821 203.607 37.9712 204.122 38.9484C204.638 39.928 205.367 40.7139 206.288 41.284C206.62 41.49 206.976 41.6618 207.345 41.7949C207.989 42.0269 208.691 42.1446 209.431 42.1446C210.288 42.1446 211.075 42.0551 211.77 41.8783C211.866 41.8538 211.963 41.8266 212.059 41.7977C212.654 41.6192 213.234 41.3588 213.782 41.0236L213.863 40.9747V38.0381C213.863 37.8793 213.871 37.7258 213.887 37.5755L213.888 35.9406L213.686 35.982C213.454 36.03 213.25 36.0937 213.078 36.1712Z" fill="#1D1D1B"/>
<path fill-rule="evenodd" clip-rule="evenodd" d="M142.655 35.6194L140.514 34.3491C139.835 33.9412 139.346 33.582 139.062 33.2811C138.794 32.9973 138.664 32.6476 138.664 32.2123C138.664 31.739 138.842 31.366 139.21 31.0722C139.584 30.7731 140.023 30.6212 140.516 30.6212C141.466 30.6212 142.209 30.8613 142.726 31.3348C143.247 31.8113 143.607 32.6198 143.797 33.7373L143.821 33.8765H144.442V31.8467C144.442 31.3795 144.232 30.9649 143.818 30.6136C143.461 30.3124 143.012 30.0724 142.482 29.9006L142.46 29.8932C142.414 29.8784 142.367 29.8634 142.32 29.8497C141.727 29.6779 141.12 29.5908 140.516 29.5908C139.884 29.5908 139.314 29.6966 138.823 29.9058C138.503 30.0417 138.212 30.222 137.96 30.4412C137.304 31.0113 136.971 31.777 136.971 32.7171C136.971 33.3982 137.136 33.9862 137.462 34.4647C137.781 34.9352 138.329 35.403 139.09 35.8548L141.232 37.1259C141.885 37.5088 142.362 37.8772 142.65 38.2204C142.925 38.548 143.064 38.9391 143.064 39.3835C143.064 39.8872 142.868 40.2695 142.465 40.5523C142.049 40.844 141.539 40.992 140.951 40.992C140 40.992 139.247 40.7459 138.713 40.2608C138.176 39.7728 137.807 38.9587 137.617 37.8412L137.593 37.7022H136.971V39.7317C136.971 40.1998 137.188 40.6177 137.615 40.9741C137.999 41.2954 138.496 41.5489 139.092 41.7276L139.122 41.7372C139.142 41.7433 139.162 41.7494 139.182 41.7552C139.809 41.9327 140.457 42.0226 141.107 42.0226C141.761 42.0226 142.348 41.9218 142.851 41.7233C143.232 41.5728 143.574 41.3632 143.865 41.1006C144.549 40.4843 144.895 39.6548 144.895 38.6353C144.895 37.973 144.719 37.4167 144.371 36.9815C144.036 36.562 143.458 36.104 142.655 35.6194Z" fill="#1D1D1B"/>
<path fill-rule="evenodd" clip-rule="evenodd" d="M169.92 29.9575C169.79 29.9994 169.661 30.05 169.536 30.1082C169.452 30.1473 169.378 30.1849 169.31 30.2231C168.784 30.5188 168.357 31.1263 168.04 32.0288L166.197 37.3384L164.354 32.0286C164.13 31.3917 163.85 30.8989 163.521 30.5637L163.482 30.5231L163.442 30.5637C163.113 30.8989 162.833 31.3917 162.609 32.0288L160.766 37.3384L158.923 32.0286C158.607 31.1263 158.179 30.5188 157.653 30.2229C157.585 30.1849 157.511 30.1473 157.427 30.1082C157.302 30.05 157.173 29.9994 157.043 29.9575C156.854 29.8962 156.658 29.8508 156.459 29.8222L156.368 29.8091L157.058 31.7785C157.094 31.8698 157.129 31.9645 157.164 32.0655L160.43 41.3736L160.538 41.691L160.554 41.7285H160.982L161.094 41.3986L163.482 34.6079L165.869 41.3982L165.969 41.691L165.985 41.7285H166.412L166.534 41.3741L169.799 32.0653C169.834 31.9645 169.869 31.8698 169.906 31.7768L170.595 29.8091L170.504 29.8222C170.306 29.8508 170.109 29.8962 169.92 29.9575Z" fill="#1D1D1B"/>
<path fill-rule="evenodd" clip-rule="evenodd" d="M180.08 38.887C179.827 39.5464 179.487 40.0171 179.067 40.2856C178.644 40.5568 178.042 40.6943 177.277 40.6943H174.399V36.155H179.098V35.1241H174.399V30.9329H177.469C178.82 30.9329 179.477 31.533 179.477 32.7674V32.9347H180.16V31.462C180.16 30.4418 179.591 29.9025 178.513 29.9025H172.498V41.725H178.67C179.406 41.725 179.899 41.3953 180.132 40.7452L180.806 38.9165L180.133 38.7486L180.08 38.887Z" fill="#1D1D1B"/>
<mask id="mask2_57_21011" style="mask-type:luminance" maskUnits="userSpaceOnUse" x="216" y="29" width="10" height="13">
<path fill-rule="evenodd" clip-rule="evenodd" d="M216.912 29.9025H225.22V41.725H216.912V29.9025Z" fill="white"/>
</mask>
<g mask="url(#mask2_57_21011)">
<path fill-rule="evenodd" clip-rule="evenodd" d="M224.547 38.7488L224.494 38.887C224.241 39.5464 223.9 40.0171 223.481 40.2856C223.058 40.5568 222.456 40.6943 221.691 40.6943H218.813V36.155H223.512V35.1241H218.813V30.9331H221.883C223.234 30.9331 223.892 31.533 223.892 32.7676V32.9349H224.574V31.462C224.574 30.4418 224.005 29.9025 222.927 29.9025H216.912V41.725H223.084C223.821 41.725 224.313 41.3953 224.546 40.7452L225.22 38.9167L224.547 38.7488Z" fill="#1D1D1B"/>
</g>
<path fill-rule="evenodd" clip-rule="evenodd" d="M199.297 37.5688H195.802L197.549 33.3467L199.297 37.5688ZM202.079 39.707C202.038 39.6186 201.997 39.5273 201.955 39.4311L198.107 30.0491L198.093 30.0142L198.055 30.0144C198.055 30.0144 197.865 30.0157 197.549 30.0157C197.234 30.0157 197.043 30.0144 197.043 30.0144L197.005 30.0142L193.144 39.43C193.102 39.5273 193.061 39.6186 193.019 39.7091L192.171 41.7643L192.263 41.7559C192.733 41.712 193.202 41.5593 193.657 41.3023C194.212 40.9898 194.66 40.3738 194.988 39.4722L195.409 38.3766H199.69L200.111 39.4713C200.439 40.3738 200.887 40.9898 201.441 41.3023C201.897 41.5593 202.366 41.712 202.836 41.7559L202.928 41.7643L202.08 39.7091L202.079 39.707Z" fill="#1D1D1B"/>
</svg>
