<svg width="74" height="74" viewBox="0 0 74 74" fill="none" xmlns="http://www.w3.org/2000/svg">
<path d="M37 0.200195C16.6938 0.200195 0.199951 16.694 0.199951 37.0002C0.199951 57.3064 16.6938 73.8002 37 73.8002C57.3061 73.8002 73.7999 57.3064 73.7999 37.0002C73.7999 16.7807 57.44 0.365146 37.2531 0.225195C37.1695 0.210159 37.0849 0.201799 37 0.200195ZM37 3.4002C55.577 3.4002 70.6 18.4232 70.6 37.0002C70.6 55.5772 55.577 70.6002 37 70.6002C18.4229 70.6002 3.39995 55.5772 3.39995 37.0002C3.39995 18.4232 18.4229 3.4002 37 3.4002ZM37 50.0669C26.6888 50.0669 19.8687 50.2689 19.8687 50.2689C19.7151 50.4164 19.5925 50.593 19.5081 50.7884C19.4236 50.9838 19.379 51.1941 19.3768 51.4069C19.3747 51.6198 19.415 51.831 19.4955 52.0281C19.5759 52.2251 19.6949 52.4042 19.8454 52.5547C19.996 52.7052 20.175 52.8242 20.3721 52.9047C20.5692 52.9851 20.7803 53.0255 20.9932 53.0233C21.2061 53.0211 21.4164 52.9765 21.6118 52.8921C21.8072 52.8076 21.9838 52.685 22.1312 52.5314C22.1312 52.5314 28.1111 53.2669 37 53.2669C45.8888 53.2669 51.8687 52.5314 51.8687 52.5314C52.0161 52.685 52.1927 52.8076 52.3881 52.8921C52.5835 52.9765 52.7938 53.0211 53.0067 53.0233C53.2196 53.0255 53.4307 52.9851 53.6278 52.9047C53.8249 52.8242 54.0039 52.7052 54.1545 52.5547C54.305 52.4042 54.424 52.2251 54.5044 52.0281C54.5849 51.831 54.6252 51.6198 54.6231 51.4069C54.6209 51.1941 54.5763 50.9838 54.4918 50.7884C54.4074 50.593 54.2848 50.4164 54.1312 50.2689C54.1312 50.2689 47.3111 50.0669 37 50.0669Z" fill="#101E8E"/>
</svg>
