<svg width="28" height="28" viewBox="0 0 28 28" fill="none"
    xmlns="http://www.w3.org/2000/svg">
    <path fill-rule="evenodd" clip-rule="evenodd" d="M5.06055 0.732422C5.5332 0.259766 6.16016 0 6.82812 0H21.5C22.3262 0 23 0.673828 23 1.5V9H27C27.5508 9 28 9.44922 28 10V20C28 20.5508 27.5508 21 27 21H23V26.5C23 27.3262 22.3262 28 21.5 28H1.5C0.673828 28 0 27.3262 0 26.5V6.82812C0 6.16016 0.259766 5.5332 0.732422 5.06055L5.06055 0.732422ZM21.5 1H7V5.5C7 6.32617 6.32617 7 5.5 7H1V26.5C1 26.7754 1.22461 27 1.5 27H21.5C21.7754 27 22 26.7754 22 26.5V21H6C5.44922 21 5 20.5508 5 20V10C5 9.44922 5.44922 9 6 9H22V1.5C22 1.22461 21.7754 1 21.5 1ZM6 1.25V5.5C6 5.77539 5.77539 6 5.5 6H1.25C1.30469 5.91797 1.36719 5.83984 1.43945 5.76758L5.76758 1.43945C5.83984 1.36719 5.91797 1.30469 6 1.25ZM27 10H6V20H27V10ZM2.5 24C2.22266 24 2 24.2246 2 24.5V25.5C2 25.7754 2.22266 26 2.5 26C2.77734 26 3 25.7754 3 25.5V24.5C3 24.2246 2.77734 24 2.5 24ZM4.5 24.5C4.5 24.2246 4.72266 24 5 24C5.27734 24 5.5 24.2246 5.5 24.5V25.5C5.5 25.7754 5.27734 26 5 26C4.72266 26 4.5 25.7754 4.5 25.5V24.5ZM7.5 24C7.22266 24 7 24.2246 7 24.5V25.5C7 25.7754 7.22266 26 7.5 26C7.77734 26 8 25.7754 8 25.5V24.5C8 24.2246 7.77734 24 7.5 24ZM9.5 24.5C9.5 24.2246 9.72266 24 10 24C10.2773 24 10.5 24.2246 10.5 24.5V25.5C10.5 25.7754 10.2773 26 10 26C9.72266 26 9.5 25.7754 9.5 25.5V24.5ZM12.5 24C12.2227 24 12 24.2246 12 24.5V25.5C12 25.7754 12.2227 26 12.5 26C12.7773 26 13 25.7754 13 25.5V24.5C13 24.2246 12.7773 24 12.5 24ZM14.5 24.5C14.5 24.2246 14.7227 24 15 24C15.2773 24 15.5 24.2246 15.5 24.5V25.5C15.5 25.7754 15.2773 26 15 26C14.7227 26 14.5 25.7754 14.5 25.5V24.5ZM17.5 24C17.2227 24 17 24.2246 17 24.5V25.5C17 25.7754 17.2227 26 17.5 26C17.7773 26 18 25.7754 18 25.5V24.5C18 24.2246 17.7773 24 17.5 24ZM19.5 24.5C19.5 24.2246 19.7227 24 20 24C20.2773 24 20.5 24.2246 20.5 24.5V25.5C20.5 25.7754 20.2773 26 20 26C19.7227 26 19.5 25.7754 19.5 25.5V24.5Z" fill="#62AA51"/>
    <path d="M10.3779 15.5879V18H8.80078V10.998H11.2715C13.0358 10.998 13.918 11.7419 13.918 13.2295C13.918 13.9326 13.6641 14.5023 13.1562 14.9385C12.6517 15.3714 11.9762 15.5879 11.1299 15.5879H10.3779ZM10.3779 12.209V14.3916H10.998C11.8379 14.3916 12.2578 14.0238 12.2578 13.2881C12.2578 12.5687 11.8379 12.209 10.998 12.209H10.3779ZM14.9434 18V10.998H17.4238C19.9108 10.998 21.1543 12.1357 21.1543 14.4111C21.1543 15.5016 20.8141 16.3724 20.1338 17.0234C19.4567 17.6745 18.5534 18 17.4238 18H14.9434ZM16.5205 12.2822V16.7207H17.3018C17.9854 16.7207 18.5208 16.5156 18.9082 16.1055C19.2988 15.6953 19.4941 15.137 19.4941 14.4307C19.4941 13.7633 19.3005 13.2393 18.9131 12.8584C18.529 12.4743 17.9886 12.2822 17.292 12.2822H16.5205ZM26.3643 12.2822H23.8936V14.001H26.1641V15.2803H23.8936V18H22.3164V10.998H26.3643V12.2822Z" fill="#62AA51"/>
</svg>
