<svg width="25" height="20" viewBox="0 0 25 20" fill="none"
    xmlns="http://www.w3.org/2000/svg">
    <path fill-rule="evenodd" clip-rule="evenodd" d="M0 0V20H25V0H0ZM1 1H24V14H18.6602L15.1602 11.5H12.207L10.1641 9.45703L7.73047 9.94531L5.57812 6.71484L1 11.293V1ZM16.5 6.25C16.5 5.01367 17.5137 4 18.75 4C19.9863 4 21 5.01367 21 6.25C21 7.48633 19.9863 8.5 18.75 8.5C17.5137 8.5 16.5 7.48633 16.5 6.25ZM18.75 5C19.4453 5 20 5.55469 20 6.25C20 6.94531 19.4453 7.5 18.75 7.5C18.0547 7.5 17.5 6.94531 17.5 6.25C17.5 5.55469 18.0547 5 18.75 5ZM7.26953 11.0547L5.42188 8.28516L1 12.707V19H24V15H18.3398L14.8398 12.5H11.793L9.83594 10.543L7.26953 11.0547Z" fill="#62AA51"/>
</svg>
