<svg width="24" height="24" viewBox="0 0 24 24" fill="none" xmlns="http://www.w3.org/2000/svg">
<path d="M6.3 2.81482V11.7H6C5.66836 11.7 5.4 11.9683 5.4 12.3C5.4 12.6316 5.66836 12.9 6 12.9H18C18.3316 12.9 18.6 12.6316 18.6 12.3C18.6 11.9683 18.3316 11.7 18 11.7H17.7V2.81482L16.8023 3.26365L16.2246 2.96482L15.6023 3.26599L15 2.96482L14.4 3.26482L13.8 2.96482L13.2023 3.26365L12.6246 2.96482L12 3.26716L11.3754 2.96482L10.8 3.26248L10.2246 2.96482L9.6 3.26716L8.97539 2.96482L8.39531 3.26482L7.77539 2.96482L7.19766 3.26365L6.3 2.81482ZM7.78477 3.63513L8.40469 3.93513L8.98477 3.63513L9.6 3.93279L10.2152 3.63513L10.8 3.93748L11.3848 3.63513L12 3.93279L12.6152 3.63513L13.1977 3.9363L13.8 3.63513L14.4 3.93513L15 3.63513L15.5977 3.93396L16.2152 3.63513L16.7977 3.9363L17.1 3.78513V12.3H6.9V3.78513L7.20234 3.9363L7.78477 3.63513ZM8.1 5.99998V6.59998H12.9V5.99998H8.1ZM14.1 5.99998V6.59998H15.9V5.99998H14.1ZM8.1 7.79998V8.39998H11.7V7.79998H8.1ZM14.1 7.79998V8.39998H15.9V7.79998H14.1ZM5.1 8.99998C3.94336 8.99998 3 9.94334 3 11.1V20.7H3.6V11.1C3.6 10.2679 4.26797 9.59998 5.1 9.59998H5.7V8.99998H5.1ZM18.3 8.99998V9.59998H18.9C19.732 9.59998 20.4 10.2679 20.4 11.1V20.7H21V11.1C21 9.94334 20.0566 8.99998 18.9 8.99998H18.3ZM7.8 10.2C7.63477 10.2 7.5 10.3347 7.5 10.5C7.5 10.6652 7.63477 10.8 7.8 10.8C7.96523 10.8 8.1 10.6652 8.1 10.5C8.1 10.3347 7.96523 10.2 7.8 10.2ZM9 10.2C8.83477 10.2 8.7 10.3347 8.7 10.5C8.7 10.6652 8.83477 10.8 9 10.8C9.16523 10.8 9.3 10.6652 9.3 10.5C9.3 10.3347 9.16523 10.2 9 10.2ZM10.2 10.2C10.0348 10.2 9.9 10.3347 9.9 10.5C9.9 10.6652 10.0348 10.8 10.2 10.8C10.3652 10.8 10.5 10.6652 10.5 10.5C10.5 10.3347 10.3652 10.2 10.2 10.2ZM11.4 10.2C11.2348 10.2 11.1 10.3347 11.1 10.5C11.1 10.6652 11.2348 10.8 11.4 10.8C11.5652 10.8 11.7 10.6652 11.7 10.5C11.7 10.3347 11.5652 10.2 11.4 10.2ZM12.6 10.2C12.4348 10.2 12.3 10.3347 12.3 10.5C12.3 10.6652 12.4348 10.8 12.6 10.8C12.7652 10.8 12.9 10.6652 12.9 10.5C12.9 10.3347 12.7652 10.2 12.6 10.2ZM13.8 10.2C13.6348 10.2 13.5 10.3347 13.5 10.5C13.5 10.6652 13.6348 10.8 13.8 10.8C13.9652 10.8 14.1 10.6652 14.1 10.5C14.1 10.3347 13.9652 10.2 13.8 10.2ZM15 10.2C14.8348 10.2 14.7 10.3347 14.7 10.5C14.7 10.6652 14.8348 10.8 15 10.8C15.1652 10.8 15.3 10.6652 15.3 10.5C15.3 10.3347 15.1652 10.2 15 10.2ZM16.2 10.2C16.0348 10.2 15.9 10.3347 15.9 10.5C15.9 10.6652 16.0348 10.8 16.2 10.8C16.3652 10.8 16.5 10.6652 16.5 10.5C16.5 10.3347 16.3652 10.2 16.2 10.2ZM6.3 14.4C5.97188 14.4 5.7 14.6719 5.7 15V16.8C5.7 17.1281 5.97188 17.4 6.3 17.4H18C18.3281 17.4 18.6 17.1281 18.6 16.8V15C18.6 14.6719 18.3281 14.4 18 14.4H6.3ZM6.3 15H18V16.8H6.3V15ZM6.3 18.3C5.97188 18.3 5.7 18.5719 5.7 18.9V20.1C5.7 20.4281 5.97188 20.7 6.3 20.7H7.5C7.82813 20.7 8.1 20.4281 8.1 20.1V18.9C8.1 18.5719 7.82813 18.3 7.5 18.3H6.3ZM9.3 18.3C8.97188 18.3 8.7 18.5719 8.7 18.9V20.1C8.7 20.4281 8.97188 20.7 9.3 20.7H10.5C10.8281 20.7 11.1 20.4281 11.1 20.1V18.9C11.1 18.5719 10.8281 18.3 10.5 18.3H9.3ZM12.3 18.3C11.9719 18.3 11.7 18.5719 11.7 18.9V20.1C11.7 20.4281 11.9719 20.7 12.3 20.7H13.5C13.8281 20.7 14.1 20.4281 14.1 20.1V18.9C14.1 18.5719 13.8281 18.3 13.5 18.3H12.3ZM16.8 18.3C16.4719 18.3 16.2 18.5719 16.2 18.9V20.1C16.2 20.4281 16.4719 20.7 16.8 20.7H18C18.3281 20.7 18.6 20.4281 18.6 20.1V18.9C18.6 18.5719 18.3281 18.3 18 18.3H16.8ZM6.3 18.9H7.5V20.1H6.3V18.9ZM9.3 18.9H10.5V20.1H9.3V18.9ZM12.3 18.9H13.5V20.1H12.3V18.9ZM16.8 18.9H18V20.1H16.8V18.9Z"/>
</svg>
