<svg width="37" height="37" viewBox="0 0 37 37" fill="none"
    xmlns="http://www.w3.org/2000/svg">
    <path fill-rule="evenodd" clip-rule="evenodd" d="M2.10058 0C0.949217 0 0 0.926066 0 2.04935V29.2683C0 29.6713 0.336914 30 0.749999 30H20.25C20.5195 30.0028 20.7715 29.8656 20.9092 29.637C21.0439 29.4083 21.0439 29.1282 20.9092 28.8995C20.7715 28.6709 20.5195 28.5337 20.25 28.5365H1.5V6.58536H31.5V19.7561C31.497 20.019 31.6377 20.2648 31.872 20.3992C32.1064 20.5306 32.3935 20.5306 32.6279 20.3992C32.8623 20.2648 33.0029 20.019 33 19.7561V2.04935C33 0.926066 32.0507 0 30.8994 0H2.10058ZM1.60059 1H30.3994C30.748 1 31 1.26875 31 1.64062V5H1V1.64062C1 1.26875 1.25195 1 1.60059 1ZM5 12V11H8V12H5ZM10 11V12H27V11H10ZM5 16V15H8V16H5ZM10 15V16H27V15H10ZM5 19V18H8V19H5ZM10 18V19H27V18H10ZM5 23V22H8V23H5ZM10 22V23H22V22H10ZM22 29.5C22 25.3662 25.3662 22 29.5 22C33.6338 22 37 25.3662 37 29.5C37 33.6338 33.6338 37 29.5 37C25.3662 37 22 33.6338 22 29.5ZM30 24C33.3223 24 36 26.6777 36 30C36 33.3223 33.3223 36 30 36C26.6777 36 24 33.3223 24 30C24 26.6777 26.6777 24 30 24ZM28.5708 28.9283V25H30V29.6425L26.8542 32L26 30.8561L28.5708 28.9283Z" fill="#101E8E"/>
</svg>
