<svg width="24" height="24" viewBox="0 0 24 24" fill="none" xmlns="http://www.w3.org/2000/svg">
<path fill-rule="evenodd" clip-rule="evenodd" d="M12 0C5.37876 0 0 5.37876 0 12C0 18.6212 5.37876 24 12 24C18.6212 24 24 18.6212 24 12C24 5.37876 18.6212 0 12 0ZM12 1.04348C18.0573 1.04348 22.9565 5.9427 22.9565 12C22.9565 14.991 21.7586 17.6964 19.82 19.6722C18.9859 19.0599 17.9924 18.7142 17.0974 18.4027L17.0968 18.4025C16.9676 18.3575 16.8404 18.3133 16.716 18.269C16.161 18.0715 15.6619 17.8758 15.2976 17.6576C14.9486 17.4486 14.7548 17.2339 14.6525 16.9871C14.6096 16.451 14.6129 16.0085 14.6166 15.5132V15.5132L14.6179 15.3383C14.6445 15.3118 14.6743 15.2886 14.7047 15.265L14.7047 15.2649C14.7465 15.2324 14.7894 15.199 14.8268 15.1549C14.9791 14.9751 15.1342 14.7566 15.2823 14.5109C15.5361 14.0895 15.7209 13.5741 15.8244 13.0516C15.8708 13.028 15.9181 13.0098 15.9651 12.9917C16.0781 12.9482 16.1891 12.9055 16.2799 12.7897C16.5173 12.4872 16.6775 12.0614 16.7486 11.4681C16.8117 10.9442 16.6429 10.5839 16.4256 10.3074C16.6594 9.54315 16.9489 8.32775 16.8505 7.06997C16.7965 6.37799 16.6223 5.68145 16.2035 5.10224C15.8036 4.54926 15.1543 4.15177 14.3234 4.00781C13.7956 3.40861 12.9572 3.12636 11.9552 3.12636H11.9501H11.946C9.70108 3.16757 8.25264 4.09671 7.63247 5.51393C7.04276 6.86157 7.16953 8.53928 7.59273 10.286C7.36524 10.5625 7.18703 10.9297 7.25136 11.4681C7.32276 12.0612 7.48291 12.4872 7.72011 12.7897C7.81086 12.9055 7.92176 12.9482 8.0348 12.9917C8.0818 13.0097 8.12917 13.028 8.17561 13.0516C8.27911 13.5737 8.46388 14.0884 8.71773 14.5099C8.86578 14.7556 9.02073 14.9739 9.17323 15.1539C9.21076 15.1982 9.25381 15.232 9.29571 15.2649C9.32596 15.2886 9.3556 15.3119 9.38213 15.3383L9.38334 15.516C9.38692 16.0099 9.39012 16.4516 9.34749 16.9871C9.24537 17.233 9.05185 17.4479 8.70346 17.6576C8.33969 17.8766 7.84123 18.0734 7.28702 18.2721C7.15986 18.3177 7.02973 18.3633 6.89744 18.4096C6.0055 18.7221 5.01579 19.0689 4.18207 19.6743C2.24224 17.6982 1.04348 14.992 1.04348 12C1.04348 5.9427 5.9427 1.04348 12 1.04348ZM13.6926 4.74762C13.5268 4.45672 12.9214 4.17185 11.9592 4.17086C9.97378 4.2086 9.04965 4.87746 8.58832 5.93173C8.12652 6.98703 8.19441 8.55918 8.64334 10.287L8.74015 10.663L8.412 10.862C8.4132 10.8612 8.4138 10.8609 8.41387 10.861C8.41502 10.8625 8.24593 10.9941 8.2877 11.3438C8.34361 11.8082 8.46208 12.0445 8.54144 12.1457C8.6208 12.247 8.65446 12.234 8.6464 12.2334L9.07643 12.269L9.12228 12.698C9.16162 13.0661 9.36895 13.5693 9.61141 13.9718C9.73265 14.1731 9.86159 14.3512 9.97011 14.4793C10.0342 14.5549 10.1007 14.6135 10.1354 14.6441C10.1596 14.6653 10.1684 14.6731 10.1505 14.6637L10.4297 14.8105V15.1264C10.4297 15.2781 10.431 15.4237 10.4323 15.5671C10.437 16.0773 10.4414 16.5593 10.3849 17.1868L10.3787 17.2561L10.3543 17.3213C10.1492 17.8721 9.7222 18.2619 9.24151 18.5513C8.76081 18.8407 8.20936 19.0502 7.63961 19.2544C7.5609 19.2826 7.4819 19.3108 7.40276 19.339C6.53861 19.6471 5.65764 19.9611 4.96977 20.4039C6.87187 21.9962 9.32161 22.9565 12 22.9565C14.6794 22.9565 17.1299 21.9953 19.0323 20.4018C18.3417 19.9522 17.4519 19.637 16.5786 19.3276C16.5078 19.3025 16.437 19.2775 16.3665 19.2524C15.7964 19.0495 15.2435 18.8409 14.7615 18.5523C14.2796 18.2637 13.851 17.8739 13.6457 17.3213L13.6213 17.2561L13.6151 17.1868C13.5583 16.5601 13.5628 16.0788 13.5676 15.57C13.5689 15.4256 13.5703 15.2791 13.5703 15.1264V14.8105L13.8487 14.6652C13.832 14.6739 13.8408 14.6661 13.8645 14.6452C13.8992 14.6146 13.9658 14.556 14.0299 14.4803C14.1384 14.3523 14.2674 14.173 14.3886 13.9718C14.6311 13.5694 14.8384 13.0666 14.8777 12.698L14.9236 12.269L15.3536 12.2334C15.3451 12.2341 15.3792 12.2469 15.4586 12.1457C15.538 12.0445 15.6566 11.808 15.7123 11.3438C15.7546 10.9926 15.5857 10.8626 15.5867 10.8613C15.5868 10.8612 15.5872 10.8615 15.5882 10.8621L15.2354 10.6478L15.3668 10.2534C15.5735 9.63187 15.899 8.28883 15.8101 7.15149C15.7657 6.58283 15.6201 6.07647 15.3577 5.71365C15.0953 5.35083 14.7291 5.0965 14.0737 5.00543L13.82 4.97079L13.6926 4.74762Z" fill="white"/>
</svg>
