<svg width="38" height="38" viewBox="0 0 38 38" fill="none" xmlns="http://www.w3.org/2000/svg">
<g clip-path="url(#clip0_57_21202)">
<path d="M3.04004 0V36.48H20.52C20.7932 36.483 21.0485 36.3405 21.188 36.103C21.3246 35.8655 21.3246 35.5745 21.188 35.337C21.0485 35.0995 20.7932 34.957 20.52 34.96H4.56004V1.52H18.24V12.16H28.88V19C28.8771 19.2731 29.0196 19.5284 29.2571 19.668C29.4946 19.8045 29.7855 19.8045 30.023 19.668C30.2605 19.5284 30.403 19.2731 30.4 19V11.0912L30.1863 10.8538L19.5463 0.21375L19.3088 0H3.04004ZM19.76 2.6125L27.7875 10.64H19.76V2.6125ZM29.64 21.28C25.0444 21.28 21.28 25.0444 21.28 29.64C21.28 34.2356 25.0444 38 29.64 38C34.2357 38 38 34.2356 38 29.64C38 25.0444 34.2357 21.28 29.64 21.28ZM29.64 22.8C31.2461 22.8 32.7216 23.3641 33.8913 24.2962L24.2963 33.8913C23.3641 32.7216 22.8 31.2461 22.8 29.64C22.8 25.8756 25.8757 22.8 29.64 22.8ZM34.9838 25.3888C35.916 26.5584 36.48 28.0339 36.48 29.64C36.48 33.4044 33.4044 36.48 29.64 36.48C28.0339 36.48 26.5585 35.9159 25.3888 34.9837L34.9838 25.3888Z" fill="#62AA51"/>
</g>
<defs>
<clipPath id="clip0_57_21202">
<rect width="38" height="38" fill="white"/>
</clipPath>
</defs>
</svg>
