<svg width="18" height="18" viewBox="0 0 18 18" fill="none"
    xmlns="http://www.w3.org/2000/svg">
    <path fill-rule="evenodd" clip-rule="evenodd" d="M13.6273 7.14735C13.6273 3.57556 10.7187 0.666992 7.14694 0.666992C3.57515 0.666992 0.666584 3.57556 0.666584 7.14735C0.666584 10.7191 3.57515 13.6277 7.14694 13.6277C8.69868 13.6277 10.1213 13.0835 11.2377 12.1696L16.4017 17.3337L17.3333 16.4021L12.1692 11.2381C13.083 10.1217 13.6273 8.69909 13.6273 7.14735ZM1.96266 7.14735C1.96266 4.27675 4.27635 1.96306 7.14694 1.96306C10.0175 1.96306 12.3312 4.27675 12.3312 7.14735C12.3312 10.0179 10.0175 12.3316 7.14694 12.3316C4.27635 12.3316 1.96266 10.0179 1.96266 7.14735Z" fill="#101E8E"/>
</svg>
