<svg
    width="70"
    height="70"
    fill="none"
    xmlns="http://www.w3.org/2000/svg"
  >
    <path
      d="M56.471 15.827a5.832 5.832 0 0 1-.003 8.247 5.833 5.833 0 1 1-8.248-8.248 5.832 5.832 0 0 1 8.251.001Z"
      fill="#62AA51"
    />
    <path
      d="M20.376 15.77a4.375 4.375 0 1 0 0 8.75 4.375 4.375 0 0 0 0-8.75Z"
      fill="#62AA51"
      fill-opacity="0.6"
    />
    <path
      d="M13.752 31.64a4.376 4.376 0 1 0 0 8.752 4.376 4.376 0 0 0 0-8.752Z"
      fill="#62AA51"
      fill-opacity="0.4"
    />
    <path
      d="M23.472 48.823a4.376 4.376 0 1 1-6.194 6.184 4.376 4.376 0 0 1 6.194-6.184Zm30.405 1.756a2.92 2.92 0 0 1 0 4.126 2.918 2.918 0 1 1 0-4.126Zm6.432-16.08c.855.854.86 2.238.003 3.095a2.195 2.195 0 0 1-3.096-.003 2.187 2.187 0 0 1 .003-3.09 2.18 2.18 0 0 1 3.09-.003ZM36.275 54.891a3.646 3.646 0 1 0 0 7.292 3.646 3.646 0 0 0 0-7.292Z"
      fill="#62AA51"
      fill-opacity="0.2"
    />
    <path
      d="M39.852 9.915a5.103 5.103 0 1 1-7.219 7.217 5.104 5.104 0 0 1 7.219-7.217Z"
      fill="#62AA51"
      fill-opacity="0.8"
    />
  </svg>