<svg width="29" height="30" viewBox="0 0 29 30" fill="none"
    xmlns="http://www.w3.org/2000/svg">
    <path fill-rule="evenodd" clip-rule="evenodd" d="M2.96017 3.98438L2.60361 4.42057L3.09202 4.69959C3.09202 4.69959 3.21364 4.75439 3.40215 5.05022C3.59066 5.34605 3.80328 5.85746 3.80328 6.72712C3.80328 7.82084 3.99513 8.62352 4.10041 8.98717C3.91833 9.19666 3.80328 9.46578 3.80328 9.7619C3.80328 10.0371 3.87873 10.2556 3.93977 10.4725C3.97029 10.5809 4.0002 10.6814 4.01963 10.7561C4.03906 10.8309 4.04098 10.9055 4.04098 10.8333C4.04098 11.4196 4.5254 11.9048 5.11066 11.9048H5.27408C5.35036 13.4469 6.08529 14.8084 7.20636 15.7143H7.13115V17.2805C6.49874 17.4721 5.19976 17.8935 3.87013 18.51C2.94904 18.9372 2.01939 19.4525 1.29159 20.0679C0.563791 20.6833 0 21.4308 0 22.3251V24.7619H13.7869V23.8095H0.95082V22.3251C0.95082 21.8471 1.28537 21.3194 1.90535 20.7952C2.52534 20.271 3.39345 19.7812 4.2694 19.375C5.38935 18.8557 6.46437 18.4897 7.13115 18.2794V18.6979L7.19336 18.8077C7.19336 18.8077 8.19957 20.4762 10.459 20.4762C12.7185 20.4762 13.7247 18.8077 13.7247 18.8077L13.7869 18.6979V18.2803C14.3464 18.4568 15.1999 18.7475 16.1175 19.1406L14.3505 20.3209C13.999 20.5558 13.7869 20.9528 13.7869 21.3765V21.8527H13.9262C14.0819 22.2031 14.387 22.4625 14.7377 22.5725V30H28.0492V22.5725C28.3999 22.4625 28.705 22.2031 28.8607 21.8527H29V21.3765C29 20.953 28.7882 20.5561 28.4364 20.3209L21.3934 15.6185L17.0516 18.5175C15.726 17.9028 14.4214 17.4729 13.7869 17.2805V15.7143H13.7117C14.8327 14.8083 15.5677 13.4466 15.644 11.9048H15.8074C16.3926 11.9048 16.877 11.4196 16.877 10.8333C16.877 10.9055 16.879 10.8309 16.8984 10.7561C16.9178 10.6814 16.9477 10.5809 16.9783 10.4725C17.0393 10.2556 17.1148 10.0371 17.1148 9.7619C17.1148 9.48619 17.015 9.23387 16.8548 9.03088C16.8927 8.72944 17.1148 6.93691 17.1148 5.63523C17.1148 4.21976 16.7263 3.14434 16.0256 2.43676C15.3737 1.77852 14.4764 1.50156 13.5185 1.46205C13.4178 1.31872 13.3071 1.1101 12.8528 0.797991C12.2597 0.390564 11.3226 0 9.98361 0C6.10318 0 2.96017 3.98438 2.96017 3.98438ZM12.3152 1.58296C12.7618 1.88982 12.9011 2.14472 12.9011 2.14472L13.0385 2.38095H13.3115C14.1733 2.38095 14.8637 2.6148 15.3515 3.10733C15.8392 3.59986 16.1639 4.39022 16.1639 5.63523C16.1639 6.64311 16.021 7.94677 15.9485 8.57329C15.9409 8.57314 15.9338 8.57143 15.9262 8.57143C15.7309 8.57143 15.7259 8.60783 15.6885 8.63653V7.53999C15.6885 6.16122 15.1116 5.27606 14.5232 4.79539C13.9348 4.31471 13.318 4.20015 13.318 4.20015L13.0784 4.15644L12.9029 4.32478C12.9029 4.32478 12.6678 4.55921 12.0747 4.83073C11.4815 5.10225 10.5622 5.38318 9.27049 5.38318C8.5373 5.38318 7.58722 5.63902 6.75695 6.22024C6.01906 6.73678 5.41499 7.5687 5.28336 8.65141C5.2276 8.61967 5.23136 8.57143 4.9918 8.57143C4.98513 8.57143 4.97895 8.57318 4.9723 8.57329C4.88238 8.23526 4.7541 7.61911 4.7541 6.72712C4.7541 5.69821 4.49131 4.98893 4.20441 4.53869C4.10755 4.38669 4.08398 4.41293 3.98806 4.31362C4.40218 3.84592 7.02489 0.952381 9.98361 0.952381C11.1415 0.952381 11.8685 1.2761 12.3152 1.58296ZM13.9225 5.53385C14.3246 5.86234 14.7377 6.41257 14.7377 7.53999V10.3218L15.4703 9.85119C15.617 9.75689 15.7735 9.65864 15.8937 9.58891C15.9207 9.57325 15.9346 9.56673 15.9569 9.5545C16.0669 9.57633 16.1639 9.64288 16.1639 9.7619C16.1639 9.77431 16.1205 10.0085 16.0627 10.2139C16.0338 10.3166 16.0043 10.4194 15.9792 10.5162C15.954 10.6129 15.9262 10.6781 15.9262 10.8333C15.9262 10.9043 15.8782 10.9524 15.8074 10.9524H14.7377V11.6546C14.7377 13.7675 13.2161 15.5109 11.2139 15.8687L11.0793 15.8929L10.9781 15.9859C10.8367 16.1147 10.6596 16.1905 10.459 16.1905C10.2584 16.1905 10.0814 16.1147 9.93997 15.9859L9.83875 15.8929L9.70412 15.8687C7.70196 15.5113 6.18033 13.768 6.18033 11.6546V10.9524H5.11066C5.03985 10.9524 4.9918 10.9043 4.9918 10.8333C4.9918 10.6781 4.96402 10.6129 4.93888 10.5162C4.91374 10.4194 4.88421 10.3166 4.85531 10.2139C4.7975 10.0085 4.7541 9.77431 4.7541 9.7619C4.7541 9.64288 4.85118 9.57633 4.96116 9.5545C4.98346 9.56672 4.9973 9.57325 5.0243 9.58891C5.1445 9.65866 5.3012 9.75676 5.44771 9.85119L6.18033 10.3227V9.05506C6.18033 8.0923 6.65437 7.4542 7.30107 7.00149C7.94777 6.54878 8.78045 6.33557 9.27049 6.33557C10.7006 6.33557 11.7621 6.02034 12.4693 5.69661C12.9848 5.46063 13.1165 5.31845 13.265 5.19717C13.3551 5.21863 13.5818 5.2556 13.9225 5.53385ZM7.81542 10.2092C7.68169 10.3432 7.60656 10.5248 7.60656 10.7143C7.60656 10.9037 7.68169 11.0854 7.81542 11.2194C7.94916 11.3533 8.13054 11.4286 8.31967 11.4286C8.5088 11.4286 8.69019 11.3533 8.82392 11.2194C8.95765 11.0854 9.03279 10.9037 9.03279 10.7143C9.03279 10.5248 8.95765 10.3432 8.82392 10.2092C8.69019 10.0753 8.5088 10 8.31967 10C8.13054 10 7.94916 10.0753 7.81542 10.2092ZM12.0941 10.2092C11.9604 10.3432 11.8852 10.5248 11.8852 10.7143C11.8852 10.9037 11.9604 11.0854 12.0941 11.2194C12.2278 11.3533 12.4092 11.4286 12.5984 11.4286C12.7875 11.4286 12.9689 11.3533 13.1026 11.2194C13.2363 11.0854 13.3115 10.9037 13.3115 10.7143C13.3115 10.5248 13.2363 10.3432 13.1026 10.2092C12.9689 10.0753 12.7875 10 12.5984 10C12.4092 10 12.2278 10.0753 12.0941 10.2092ZM9.41163 16.7597C9.70152 16.9868 10.0587 17.1429 10.459 17.1429C10.8594 17.1429 11.2165 16.9868 11.5064 16.7597C11.9776 16.6626 12.4223 16.4994 12.8361 16.2853V18.404C12.7663 18.5261 12.1698 19.5238 10.459 19.5238C8.74827 19.5238 8.15175 18.5261 8.08197 18.404V16.2853C8.49576 16.4993 8.94044 16.6627 9.41163 16.7597ZM27.908 21.1133C27.9964 21.1723 28.0492 21.2705 28.0492 21.3765C28.0492 21.6556 27.79 21.7946 27.558 21.6397L21.3934 17.5233L15.2289 21.6397C14.9969 21.7946 14.7377 21.6556 14.7377 21.3765C14.7377 21.2697 14.7901 21.1726 14.8788 21.1133L21.3934 16.7625L27.908 21.1133ZM27.0306 22.4321H27.0315C27.0531 22.4465 27.0764 22.4528 27.0984 22.4656V27.1429C26.9723 27.1429 26.8514 27.193 26.7622 27.2823C26.673 27.3716 26.6229 27.4928 26.6229 27.619C26.6229 27.7453 26.673 27.8665 26.7622 27.9558C26.8514 28.0451 26.9723 28.0952 27.0984 28.0952V29.0476H23.7705V23.3333H19.0164V23.8095V29.0476H15.6885V28.0952C15.8146 28.0952 15.9355 28.0451 16.0247 27.9558C16.1138 27.8665 16.1639 27.7453 16.1639 27.619C16.1639 27.4928 16.1138 27.3716 16.0247 27.2823C15.9355 27.193 15.8146 27.1429 15.6885 27.1429V22.4656C15.7105 22.4528 15.7338 22.4465 15.7554 22.4321H15.7563L21.3934 18.6672L27.0306 22.4321ZM2.51629 22.0442C2.42714 22.1335 2.37705 22.2547 2.37705 22.381C2.37705 22.5072 2.42714 22.6284 2.51629 22.7177C2.60545 22.807 2.72637 22.8571 2.85246 22.8571C2.97855 22.8571 3.09947 22.807 3.18862 22.7177C3.27778 22.6284 3.32787 22.5072 3.32787 22.381C3.32787 22.2547 3.27778 22.1335 3.18862 22.0442C3.09947 21.9549 2.97855 21.9048 2.85246 21.9048C2.72637 21.9048 2.60545 21.9549 2.51629 22.0442ZM4.41793 22.0442C4.32878 22.1335 4.27869 22.2547 4.27869 22.381C4.27869 22.5072 4.32878 22.6284 4.41793 22.7177C4.50709 22.807 4.62801 22.8571 4.7541 22.8571C4.88018 22.8571 5.00111 22.807 5.09026 22.7177C5.17942 22.6284 5.22951 22.5072 5.22951 22.381C5.22951 22.2547 5.17942 22.1335 5.09026 22.0442C5.00111 21.9549 4.88018 21.9048 4.7541 21.9048C4.62801 21.9048 4.50709 21.9549 4.41793 22.0442ZM6.31957 22.0442C6.23042 22.1335 6.18033 22.2547 6.18033 22.381C6.18033 22.5072 6.23042 22.6284 6.31957 22.7177C6.40873 22.807 6.52965 22.8571 6.65574 22.8571C6.78182 22.8571 6.90275 22.807 6.9919 22.7177C7.08106 22.6284 7.13115 22.5072 7.13115 22.381C7.13115 22.2547 7.08106 22.1335 6.9919 22.0442C6.90275 21.9549 6.78182 21.9048 6.65574 21.9048C6.52965 21.9048 6.40873 21.9549 6.31957 22.0442ZM8.22121 22.0442C8.13205 22.1335 8.08197 22.2547 8.08197 22.381C8.08197 22.5072 8.13205 22.6284 8.22121 22.7177C8.31037 22.807 8.43129 22.8571 8.55738 22.8571C8.68346 22.8571 8.80439 22.807 8.89354 22.7177C8.9827 22.6284 9.03279 22.5072 9.03279 22.381C9.03279 22.2547 8.9827 22.1335 8.89354 22.0442C8.80439 21.9549 8.68346 21.9048 8.55738 21.9048C8.43129 21.9048 8.31037 21.9549 8.22121 22.0442ZM10.1229 22.0442C10.0337 22.1335 9.98361 22.2547 9.98361 22.381C9.98361 22.5072 10.0337 22.6284 10.1229 22.7177C10.212 22.807 10.3329 22.8571 10.459 22.8571C10.5851 22.8571 10.706 22.807 10.7952 22.7177C10.8843 22.6284 10.9344 22.5072 10.9344 22.381C10.9344 22.2547 10.8843 22.1335 10.7952 22.0442C10.706 21.9549 10.5851 21.9048 10.459 21.9048C10.3329 21.9048 10.212 21.9549 10.1229 22.0442ZM12.0245 22.0442C11.9353 22.1335 11.8852 22.2547 11.8852 22.381C11.8852 22.5072 11.9353 22.6284 12.0245 22.7177C12.1136 22.807 12.2346 22.8571 12.3607 22.8571C12.4867 22.8571 12.6077 22.807 12.6968 22.7177C12.786 22.6284 12.8361 22.5072 12.8361 22.381C12.8361 22.2547 12.786 22.1335 12.6968 22.0442C12.6077 21.9549 12.4867 21.9048 12.3607 21.9048C12.2346 21.9048 12.1136 21.9549 12.0245 22.0442ZM22.8197 24.2857V29.0476H19.9672V24.2857H22.8197ZM17.254 27.2823C17.1648 27.3716 17.1148 27.4928 17.1148 27.619C17.1148 27.7453 17.1648 27.8665 17.254 27.9558C17.3432 28.0451 17.4641 28.0952 17.5902 28.0952C17.7162 28.0952 17.8372 28.0451 17.9263 27.9558C18.0155 27.8665 18.0656 27.7453 18.0656 27.619C18.0656 27.4928 18.0155 27.3716 17.9263 27.2823C17.8372 27.193 17.7162 27.1429 17.5902 27.1429C17.4641 27.1429 17.3432 27.193 17.254 27.2823ZM24.8606 27.2823C24.7714 27.3716 24.7213 27.4928 24.7213 27.619C24.7213 27.7453 24.7714 27.8665 24.8606 27.9558C24.9497 28.0451 25.0706 28.0952 25.1967 28.0952C25.3228 28.0952 25.4437 28.0451 25.5329 27.9558C25.622 27.8665 25.6721 27.7453 25.6721 27.619C25.6721 27.4928 25.622 27.3716 25.5329 27.2823C25.4437 27.193 25.3228 27.1429 25.1967 27.1429C25.0706 27.1429 24.9497 27.193 24.8606 27.2823Z" fill="#62AA51"/>
</svg>
