<svg width="17" height="20" viewBox="0 0 17 20" fill="none"
    xmlns="http://www.w3.org/2000/svg">
    <path fill-rule="evenodd" clip-rule="evenodd" d="M6.57805 0.621134C7.15272 0.207045 7.827 0 8.5 0C9.173 0.00126239 9.84728 0.207045 10.4219 0.621134L11.3044 1.25489H16.0192C16.5581 1.25489 17 1.69171 17 2.22447V2.31481C17 2.14142 16.8503 2 16.6667 2H12.6562C12.8763 2.27054 13 2.60749 13 2.95674V3.25926H15C15.3672 3.25926 15.6667 3.5421 15.6667 3.88889V14.6467C15.6667 14.8976 15.5625 15.1374 15.3737 15.3132L13.0964 17.464C12.9102 17.6424 12.6562 17.7407 12.3906 17.7407H12.3333V16C12.3333 15.9381 12.3419 15.8781 12.3578 15.8211L13.3333 15.3333H15V4H12.9401C12.8034 4.38672 12.4336 4.66667 12 4.66667H6C5.56641 4.66667 5.19661 4.38672 5.0599 4H3V5.25C3 5.1123 3.22266 5 3.5 5C3.77734 5 4 5.1123 4 5.25V5.75C4 5.8877 3.77734 6 3.5 6C3.22266 6 3 5.8877 3 5.75V17.7407C2.63281 17.7407 2.33333 17.4579 2.33333 17.1111V3.88889C2.33333 3.5421 2.63281 3.25926 3 3.25926H5V3.6962C5 3.86353 5.15723 4 5.35 4H11.65C11.8428 4 12 3.86353 12 3.6962V3.10047C12 2.80854 11.8387 2.53204 11.5666 2.36234L11.2727 2.17722L10.3129 1.56962L10.1488 1.46638C9.97173 1.35481 9.78371 1.26326 9.58876 1.19173C9.42357 1.07116 9.22006 1 9 1C8.93879 1 8.87886 1.00551 8.82068 1.01605C8.71411 1.00535 8.60703 1 8.5 1C7.92305 1 7.34473 1.15546 6.85117 1.46638L6.68711 1.56962L5.72734 2.17722L5.4334 2.36234C5.16133 2.53204 5 2.80854 5 3.10047V2.95674C5 2.60749 5.1237 2.27054 5.34375 2H1.33333C1.14974 2 1 2.14142 1 2.31481V18.6852C1 18.8586 1.14974 19 1.33333 19H16.6667C16.8503 19 17 18.8586 17 18.6852V19.0304C17 19.5632 16.5581 20 16.0192 20H0.980769C0.441857 20 0 19.5632 0 19.0304V2.22447C0 1.69171 0.441857 1.25489 0.980769 1.25489H5.69561L6.57805 0.621134ZM8.82068 1.01605C8.3541 1.1006 8 1.50913 8 2C8 2.55208 8.44792 3 9 3C9.55208 3 10 2.55208 10 2C10 1.66798 9.83799 1.37363 9.58876 1.19173C9.3412 1.10089 9.08246 1.04233 8.82068 1.01605ZM13.3333 15.3333L14 15H12V16L12.3578 15.8211C12.4363 15.5403 12.6947 15.3333 13 15.3333H13.3333ZM3 17.7407H12.3333V18H3V17.7407ZM5.5 5C5.22266 5 5 5.1123 5 5.25V5.75C5 5.8877 5.22266 6 5.5 6C5.77734 6 6 5.8877 6 5.75V5.25C6 5.1123 5.77734 5 5.5 5ZM7 5.25C7 5.1123 7.22266 5 7.5 5C7.77734 5 8 5.1123 8 5.25C8 5.1123 8.22266 5 8.5 5C8.77734 5 9 5.1123 9 5.25V5.75C9 5.8877 8.77734 6 8.5 6C8.22266 6 8 5.8877 8 5.75C8 5.8877 7.77734 6 7.5 6C7.22266 6 7 5.8877 7 5.75V5.25ZM10 5.25C10 5.1123 10.2227 5 10.5 5C10.7773 5 11 5.1123 11 5.25C11 5.1123 11.2227 5 11.5 5C11.7773 5 12 5.1123 12 5.25V5.75C12 5.8877 11.7773 6 11.5 6C11.2227 6 11 5.8877 11 5.75C11 5.8877 10.7773 6 10.5 6C10.2227 6 10 5.8877 10 5.75V5.25ZM13 5.25C13 5.1123 13.2227 5 13.5 5C13.7773 5 14 5.1123 14 5.25V5.75C14 5.8877 13.7773 6 13.5 6C13.2227 6 13 5.8877 13 5.75V5.25ZM12.625 8C12.5298 8 12.4331 8.03255 12.3599 8.09766L11.125 9.19531L10.6401 8.76432C10.4937 8.63411 10.2563 8.63411 10.1099 8.76432C9.96338 8.89453 9.96338 9.10547 10.1099 9.23568L10.8599 9.90234C10.9331 9.96745 11.0283 10 11.125 10C11.2217 10 11.3169 9.96745 11.3901 9.90234L12.8901 8.56901C13.0366 8.4388 13.0366 8.22786 12.8901 8.09766C12.8169 8.03255 12.7202 8 12.625 8ZM4 9.5C4 9.22461 4.16699 9 4.375 9H6.625C6.83301 9 7 9.22461 7 9.5C7 9.77539 6.83301 10 6.625 10H4.375C4.16699 10 4 9.77539 4 9.5ZM8.33333 9C8.14844 9 8 9.22461 8 9.5C8 9.77539 8.14844 10 8.33333 10H9.66667C9.85156 10 10 9.77539 10 9.5C10 9.22461 9.85156 9 9.66667 9H8.33333ZM11.0977 12.0977C11.1628 12.0326 11.2487 12 11.3333 12C11.418 12 11.5039 12.0326 11.569 12.0977L12 12.5286L12.431 12.0977C12.5612 11.9674 12.7721 11.9674 12.9023 12.0977C13.0326 12.2279 13.0326 12.4388 12.9023 12.569L12.4714 13L12.9023 13.431C13.0326 13.5612 13.0326 13.7721 12.9023 13.9023C12.8372 13.9674 12.7526 14 12.6667 14C12.5807 14 12.4961 13.9674 12.431 13.9023L12 13.4714L11.569 13.9023C11.5039 13.9674 11.4193 14 11.3333 14C11.2474 14 11.1628 13.9674 11.0977 13.9023C10.9674 13.7721 10.9674 13.5612 11.0977 13.431L11.5286 13L11.0977 12.569C10.9674 12.4388 10.9674 12.2279 11.0977 12.0977ZM4.3125 12C4.13916 12 4 12.2246 4 12.5C4 12.7754 4.13916 13 4.3125 13H8.6875C8.86084 13 9 12.7754 9 12.5C9 12.2246 8.86084 12 8.6875 12H4.3125Z" fill="#62AA51"/>
</svg>
