<svg width="25" height="25" viewBox="0 0 25 25" fill="current" stroke="current" xmlns="http://www.w3.org/2000/svg">
<path d="M18 1.5C17.1777 1.5 16.5 2.17773 16.5 3C16.5 3.24219 16.5684 3.46875 16.6719 3.67188L13.0156 6.46875L13.625 7.26562L17.4062 4.375C17.5898 4.45508 17.7891 4.5 18 4.5C18.1191 4.5 18.2324 4.48047 18.3438 4.45312L21.8438 10.5469C21.6289 10.8066 21.5 11.1406 21.5 11.5C21.5 11.7344 21.5586 11.957 21.6562 12.1562L18.5938 16.2031L18 17H22.5C23.3223 17 24 16.3223 24 15.5V12.6094C24.3047 12.334 24.5 11.9395 24.5 11.5C24.5 10.6777 23.8223 10 23 10C22.8965 10 22.8008 10.0117 22.7031 10.0312L19.1875 3.92188C19.3848 3.66797 19.5 3.34375 19.5 3C19.5 2.17773 18.8223 1.5 18 1.5ZM18 2.5C18.2812 2.5 18.5 2.71875 18.5 3C18.5 3.28125 18.2812 3.5 18 3.5C17.7188 3.5 17.5 3.28125 17.5 3C17.5 2.71875 17.7188 2.5 18 2.5ZM8 6C7.45312 6 7 6.45312 7 7V10H4C3.17773 10 2.5 10.6777 2.5 11.5V14C2.5 14.8223 3.17773 15.5 4 15.5H5.5V16.5H4C2.34961 16.5 1 17.8496 1 19.5C1 21.1504 2.34961 22.5 4 22.5H14C15.6504 22.5 17 21.1504 17 19.5C17 17.8496 15.6504 16.5 14 16.5H12.5V15.5H14C14.8223 15.5 15.5 14.8223 15.5 14V11.5156C15.5 11.0703 15.3516 10.6328 15.0781 10.2812L12.1875 6.57812C11.9043 6.21289 11.4785 6 11.0156 6H8ZM8 7H11.0156C11.1699 7 11.3105 7.06641 11.4062 7.1875L14.2969 10.9062C14.4297 11.0781 14.4961 11.2832 14.5 11.5H8.78125L8 10.3281V7ZM4 11H7.21875L8.07812 12.2812L8.23438 12.5H14.5V14C14.5 14.2832 14.2832 14.5 14 14.5H4C3.7168 14.5 3.5 14.2832 3.5 14V11.5C3.5 11.2168 3.7168 11 4 11ZM23 11C23.2812 11 23.5 11.2188 23.5 11.5C23.5 11.7812 23.2812 12 23 12C22.7188 12 22.5 11.7812 22.5 11.5C22.5 11.2188 22.7188 11 23 11ZM22.3906 12.8594C22.5781 12.9453 22.7812 13 23 13V15.5C23 15.7832 22.7832 16 22.5 16H20.0156L22.3906 12.8594ZM6.5 15.5H11.5V16.5H6.5V15.5ZM4 17.5H14C15.1094 17.5 16 18.3906 16 19.5C16 20.6094 15.1094 21.5 14 21.5H4C2.89062 21.5 2 20.6094 2 19.5C2 18.3906 2.89062 17.5 4 17.5ZM4 18.5C3.44727 18.5 3 18.9473 3 19.5C3 20.0527 3.44727 20.5 4 20.5C4.55273 20.5 5 20.0527 5 19.5C5 18.9473 4.55273 18.5 4 18.5ZM7 18.5C6.44727 18.5 6 18.9473 6 19.5C6 20.0527 6.44727 20.5 7 20.5C7.55273 20.5 8 20.0527 8 19.5C8 18.9473 7.55273 18.5 7 18.5ZM11 18.5C10.4473 18.5 10 18.9473 10 19.5C10 20.0527 10.4473 20.5 11 20.5C11.5527 20.5 12 20.0527 12 19.5C12 18.9473 11.5527 18.5 11 18.5ZM14 18.5C13.4473 18.5 13 18.9473 13 19.5C13 20.0527 13.4473 20.5 14 20.5C14.5527 20.5 15 20.0527 15 19.5C15 18.9473 14.5527 18.5 14 18.5Z"/>
</svg>
