<svg width="123" height="40" viewBox="0 0 123 40" fill="none"
    xmlns="http://www.w3.org/2000/svg">
    <mask id="mask0_1_12787" style="mask-type:alpha" maskUnits="userSpaceOnUse" x="0" y="0" width="123" height="40">
        <path d="M0 0H122.066V40H0V0Z" fill="white"/>
    </mask>
    <g mask="url(#mask0_1_12787)">
        <path d="M122 34.5935C122 37.5783 119.587 40 116.609 40H5.39311C2.41521 40 0 37.5783 0 34.5935V5.40469C0 2.4208 2.41521 0 5.39311 0H116.609C119.587 0 122 2.4208 122 5.40469V34.5935Z" fill="black"/>
    </g>
    <path d="M31.8314 26.4637C31.1853 27.8968 30.8764 28.5357 30.0437 29.8015C28.883 31.5691 27.2471 33.7699 25.2199 33.7881C23.4185 33.8046 22.9551 32.6155 20.5103 32.6292C18.0664 32.643 17.5555 33.8092 15.7532 33.7929C13.7261 33.7744 12.176 31.7866 11.0153 30.0199C7.76892 25.0782 7.42893 19.2782 9.4314 16.1955C10.8544 14.0038 13.0982 12.7216 15.2094 12.7216C17.3581 12.7216 18.7089 13.8996 20.4847 13.8996C22.2084 13.8996 23.2586 12.7197 25.7427 12.7197C27.6209 12.7197 29.6105 13.7415 31.0281 15.51C26.3834 18.0554 27.1374 24.6907 31.8314 26.4637Z" fill="white"/>
    <path d="M23.8591 10.7458C24.7602 9.5878 25.4466 7.95091 25.198 6.2793C23.7238 6.38075 21.9992 7.31846 20.992 8.54133C20.0771 9.65178 19.3231 11.2987 19.6174 12.899C21.226 12.9484 22.8921 11.9869 23.8591 10.7458Z" fill="white"/>
    <path d="M42.8236 18.3712C42.9808 18.9817 43.1499 19.616 43.3684 20.3014L44.6214 23.9307H41.0542L42.2899 20.2777C42.4782 19.6864 42.6573 19.0457 42.8236 18.3712ZM41.7205 16.1201L37.0703 29.8084H39.1998L40.5881 25.6051H45.0902L46.5178 29.8084H48.7067L44.0364 16.1201H41.7205Z" fill="white"/>
    <path d="M54.2085 21.3835C56.0547 21.3835 56.8809 23.0935 56.8809 24.7879C56.8809 26.9732 55.8271 28.3313 54.1299 28.3313C52.972 28.3313 51.9694 27.5435 51.6906 26.4093C51.6422 26.2338 51.6166 26.0017 51.6166 25.7393V24.0741C51.6166 23.9233 51.6504 23.7405 51.6824 23.5623C51.6933 23.5066 51.7043 23.4499 51.7125 23.3941C52.0215 22.2097 53.0469 21.3835 54.2085 21.3835ZM54.7249 19.668C53.3138 19.668 52.1841 20.2127 51.432 21.2482L51.3497 19.8864H49.4551L49.467 20.0601C49.5227 20.9082 49.5456 21.8423 49.5456 23.1821V33.7337H51.6166V28.8093C52.2591 29.5779 53.2855 30.0258 54.448 30.0258C55.6581 30.0258 56.7731 29.5524 57.5856 28.6914C58.4931 27.7327 58.9721 26.3554 58.9721 24.7084C58.9721 23.2534 58.5562 21.9958 57.7684 21.0709C56.997 20.1661 55.9167 19.668 54.7249 19.668Z" fill="white"/>
    <path d="M64.8736 21.3835C66.7188 21.3835 67.546 23.0935 67.546 24.7879C67.546 26.9732 66.4904 28.3313 64.795 28.3313C63.637 28.3313 62.6335 27.5435 62.3547 26.4093C62.3072 26.2338 62.2816 26.0017 62.2816 25.7393V24.0741C62.2816 23.9224 62.3154 23.7387 62.3483 23.5605C62.3584 23.5047 62.3684 23.4499 62.3776 23.3941C62.6856 22.2097 63.711 21.3835 64.8736 21.3835ZM65.389 19.668C63.9788 19.668 62.8492 20.2127 62.097 21.2482L62.0138 19.8864H60.1201L60.1311 20.0601C60.1868 20.9091 60.2106 21.8423 60.2106 23.1821V33.7337H62.2816V28.8093C62.9241 29.5779 63.9496 30.0258 65.1121 30.0258C66.3222 30.0258 67.4381 29.5524 68.2515 28.6914C69.1573 27.7327 69.6362 26.3554 69.6362 24.7084C69.6362 23.2534 69.2203 21.9958 68.4325 21.0709C67.662 20.1661 66.5808 19.668 65.389 19.668Z" fill="white"/>
    <path d="M78.7501 21.9198C76.8171 21.1713 76.1974 20.5827 76.1974 19.4951C76.1974 18.5793 76.9249 17.6553 78.5518 17.6553C79.8935 17.6553 80.7517 18.1223 80.9829 18.2658L81.1584 18.3746L81.7424 16.6463L81.6272 16.5787C81.2799 16.3749 80.291 15.9023 78.6112 15.9023C75.9699 15.9023 74.1255 17.4606 74.1255 19.6925C74.1255 21.4921 75.2807 22.7506 77.7603 23.6527C79.5178 24.3089 80.1722 24.9815 80.1722 26.1359C80.1722 27.441 79.1632 28.2517 77.54 28.2517C76.4826 28.2517 75.395 27.9437 74.5551 27.4053L74.375 27.2902L73.8193 29.0587L73.9217 29.1263C74.7031 29.6482 76.1746 30.0256 77.4212 30.0256C80.9811 30.0256 82.2432 27.8559 82.2432 25.9969C82.2432 24.0813 81.2315 22.8986 78.7501 21.9198Z" fill="white"/>
    <path d="M85.9709 17.5283L83.9391 18.1663V19.8863H82.4521V21.5415H83.9391V26.6112C83.9391 27.8377 84.174 28.6959 84.6566 29.2397C85.1191 29.7469 85.831 30.0257 86.66 30.0257C87.4432 30.0257 87.9989 29.8712 88.2612 29.7789L88.3773 29.7378L88.2777 28.0799L88.0793 28.1402C87.817 28.2206 87.5483 28.2517 87.116 28.2517C86.3136 28.2517 85.9709 27.7436 85.9709 26.5518V21.5415H88.4687V19.8863H85.9709V17.5283Z" fill="white"/>
    <path d="M93.541 21.3039C95.4045 21.3039 96.2527 23.12 96.2527 24.808C96.2527 26.8836 95.0947 28.3907 93.5017 28.3907H93.4816C91.9114 28.3907 90.7708 26.9092 90.7708 24.8674C90.7708 23.0935 91.6281 21.3039 93.541 21.3039ZM93.6013 19.668C90.7032 19.668 88.6797 21.8313 88.6797 24.9259C88.6797 27.9292 90.6383 30.0258 93.4423 30.0258H93.4615C95.8323 30.0258 98.3831 28.3743 98.3831 24.7477C98.3831 23.2735 97.9271 22.0077 97.0634 21.0846C96.1942 20.1588 94.9969 19.668 93.6013 19.668Z" fill="white"/>
    <path d="M104.726 19.7648L104.602 19.7329C104.42 19.6872 104.271 19.668 104.087 19.668C103.003 19.668 102.032 20.3059 101.491 21.3359L101.429 19.8864H99.5713L99.5832 20.0601C99.638 20.8799 99.6609 21.8011 99.6609 23.0423L99.6417 29.8083H101.713V24.5302C101.713 24.2423 101.733 23.9709 101.77 23.7268C102.003 22.4592 102.859 21.6403 103.949 21.6403C104.161 21.6403 104.327 21.6576 104.505 21.675L104.726 21.6979V19.7648Z" fill="white"/>
    <path d="M109.244 21.2251C109.875 21.2251 110.387 21.4207 110.764 21.8045C111.36 22.4114 111.464 23.3043 111.478 23.733H106.755C106.947 22.5366 107.695 21.2251 109.244 21.2251ZM109.382 19.6494C106.625 19.6494 104.699 21.852 104.699 25.0061C104.699 28.0441 106.615 30.0072 109.581 30.0072C111.14 30.0072 112.225 29.6645 112.859 29.3784L112.984 29.3218L112.586 27.779L112.413 27.8485C111.849 28.0779 111.099 28.3118 109.818 28.3118C108.919 28.3118 106.843 28.0157 106.716 25.3095L113.401 25.3296L113.428 25.1971C113.47 24.9869 113.491 24.7036 113.491 24.3325C113.491 22.1728 112.415 19.6494 109.382 19.6494Z" fill="white"/>
    <path d="M38.0099 12.5088C38.2447 12.5472 38.5866 12.5472 38.9503 12.5472C40.9363 12.5563 42.0148 11.5473 42.0148 9.79801C42.0258 8.25069 41.0643 7.29836 39.0993 7.29836C38.6195 7.29836 38.2557 7.33766 38.0099 7.38518V12.5088ZM37.0703 6.77009C37.647 6.69332 38.3197 6.63574 39.0563 6.63574C40.3916 6.63574 41.3421 6.90536 41.9727 7.43362C42.6244 7.96189 42.9982 8.72138 42.9982 9.76968C42.9982 10.8262 42.6244 11.6917 41.9618 12.2876C41.2781 12.8927 40.1677 13.2198 38.7684 13.2198C38.0958 13.2198 37.5511 13.2007 37.0703 13.1431V6.77009Z" fill="white"/>
    <path d="M46.3613 12.6322C47.2588 12.6322 47.9314 11.8727 47.9314 10.8162C47.9314 10.0274 47.4937 9.0376 46.3832 9.0376C45.2828 9.0376 44.8021 9.96069 44.8021 10.8445C44.8021 11.8635 45.4428 12.6322 46.3512 12.6322H46.3613ZM46.3293 13.2665C44.941 13.2665 43.8516 12.3443 43.8516 10.8737C43.8516 9.31636 44.9949 8.40332 46.4152 8.40332C47.8995 8.40332 48.903 9.37394 48.903 10.7869C48.903 12.517 47.5686 13.2665 46.3403 13.2665H46.3293Z" fill="white"/>
    <path d="M50.3902 8.50879L51.0848 10.865C51.2237 11.3832 51.3626 11.873 51.4586 12.3547H51.4906C51.6076 11.8831 51.7785 11.3832 51.9494 10.8741L52.7939 8.50879H53.5844L54.3851 10.8357C54.577 11.3832 54.7269 11.8831 54.8439 12.3547H54.8759C54.9618 11.8831 55.1007 11.3932 55.2716 10.8448L56.0082 8.50879H56.9377L55.2716 13.1617H54.4171L53.6265 10.9417C53.4455 10.4125 53.2956 9.951 53.1668 9.40355H53.1458C53.0178 9.96106 52.8579 10.4509 52.676 10.9509L51.8434 13.1617H50.9888L49.4287 8.50879H50.3902Z" fill="white"/>
    <path d="M57.8779 9.76876C57.8779 9.27797 57.8669 8.89411 57.835 8.50842H58.6685L58.7215 9.26883H58.7425C58.9993 8.83562 59.5971 8.40332 60.4516 8.40332C61.1672 8.40332 62.2777 8.78809 62.2777 10.3839V13.1614H61.3381V10.4789C61.3381 9.72946 61.0283 9.0961 60.1418 9.0961C59.5331 9.0961 59.0523 9.49001 58.8814 9.96069C58.8394 10.0658 58.8175 10.2203 58.8175 10.3546V13.1614H57.8779V9.76876Z" fill="white"/>
    <path d="M63.8047 6.33691H64.7451V13.1614H63.8047V6.33691Z" fill="white"/>
    <path d="M68.4404 12.6322C69.3379 12.6322 70.0105 11.8727 70.0105 10.8162C70.0105 10.0274 69.5728 9.0376 68.4623 9.0376C67.3619 9.0376 66.8812 9.96069 66.8812 10.8445C66.8812 11.8635 67.5219 12.6322 68.4303 12.6322H68.4404ZM68.4084 13.2665C67.0201 13.2665 65.9307 12.3443 65.9307 10.8737C65.9307 9.31636 67.0731 8.40332 68.4943 8.40332C69.9786 8.40332 70.9821 9.37394 70.9821 10.7869C70.9821 12.517 69.6477 13.2665 68.4193 13.2665H68.4084Z" fill="white"/>
    <path d="M74.8921 10.7869C73.8666 10.7677 72.7031 10.9313 72.7031 11.8352C72.7031 12.3927 73.1089 12.6422 73.5787 12.6422C74.2623 12.6422 74.7001 12.2575 74.8491 11.8635C74.882 11.7776 74.8921 11.6808 74.8921 11.5948V10.7869ZM75.8106 12.0463C75.8106 12.4503 75.8316 12.8433 75.8855 13.1614H75.041L74.956 12.5746H74.924C74.6462 12.9402 74.0805 13.2665 73.3438 13.2665C72.2974 13.2665 71.7627 12.6038 71.7627 11.9303C71.7627 10.8061 72.8731 10.191 74.8701 10.2011V10.1042C74.8701 9.72032 74.7531 9.01841 73.6957 9.02846C73.204 9.02846 72.7031 9.15276 72.3394 9.37394L72.1255 8.80729C72.5533 8.56692 73.183 8.40332 73.8346 8.40332C75.4258 8.40332 75.8106 9.37394 75.8106 10.3071V12.0463Z" fill="white"/>
    <path d="M80.8405 10.4031C80.8405 10.287 80.8304 10.1527 80.7975 10.0375C80.6595 9.50924 80.1468 9.06689 79.4421 9.06689C78.4697 9.06689 77.893 9.83552 77.893 10.8546C77.893 11.806 78.4167 12.5838 79.4202 12.5838C80.0508 12.5838 80.6275 12.1999 80.7975 11.5757C80.8304 11.4596 80.8405 11.3445 80.8405 11.2101V10.4031ZM81.78 6.33691V11.9595C81.78 12.3726 81.7919 12.8433 81.823 13.1614H80.9794L80.9373 12.3544H80.9154C80.6275 12.8726 80.0079 13.2665 79.1643 13.2665C77.914 13.2665 76.9425 12.316 76.9425 10.9021C76.9315 9.34473 78.0109 8.40336 79.2602 8.40336C80.0618 8.40336 80.5955 8.73969 80.8194 9.10527H80.8405V6.33691H81.78Z" fill="white"/>
    <path d="M87.7411 12.6322C88.6377 12.6322 89.3103 11.8727 89.3103 10.8162C89.3103 10.0274 88.8735 9.0376 87.7621 9.0376C86.6617 9.0376 86.1819 9.96069 86.1819 10.8445C86.1819 11.8635 86.8226 12.6322 87.7301 12.6322H87.7411ZM87.7082 13.2665C86.3199 13.2665 85.2305 12.3443 85.2305 10.8737C85.2305 9.31636 86.3738 8.40332 87.7941 8.40332C89.2793 8.40332 90.2828 9.37394 90.2828 10.7869C90.2828 12.517 88.9475 13.2665 87.7201 13.2665H87.7082Z" fill="white"/>
    <path d="M91.4687 9.76876C91.4687 9.27797 91.4578 8.89411 91.4258 8.50842H92.2584L92.3123 9.26883H92.3333C92.5902 8.83562 93.1879 8.40332 94.0424 8.40332C94.758 8.40332 95.8685 8.78809 95.8685 10.3839V13.1614H94.929V10.4789C94.929 9.72946 94.6191 9.0961 93.7326 9.0961C93.1239 9.0961 92.6432 9.49001 92.4723 9.96069C92.4293 10.0658 92.4083 10.2203 92.4083 10.3546V13.1614H91.4687V9.76876Z" fill="white"/>
    <path d="M100.793 7.39453V8.50864H102.139V9.15297H100.793V11.6618C100.793 12.2385 100.975 12.5657 101.498 12.5657C101.754 12.5657 101.904 12.5465 102.043 12.5081L102.086 13.1515C101.904 13.2091 101.616 13.2667 101.252 13.2667C100.814 13.2667 100.462 13.1323 100.238 12.9121C99.9808 12.6516 99.8748 12.2385 99.8748 11.691V9.15297H99.0732V8.50864H99.8748V7.65409L100.793 7.39453Z" fill="white"/>
    <path d="M103.196 6.33691H104.136V9.23962H104.158C104.307 8.99925 104.542 8.77808 104.831 8.64373C105.108 8.49018 105.439 8.40336 105.792 8.40336C106.486 8.40336 107.597 8.78813 107.597 10.393V13.1614H106.657V10.489C106.657 9.7295 106.348 9.10527 105.461 9.10527C104.852 9.10527 104.383 9.49005 104.201 9.95068C104.147 10.0658 104.136 10.191 104.136 10.3546V13.1614H103.196V6.33691Z" fill="white"/>
    <path d="M112.403 10.3742C112.413 9.84497 112.157 8.99957 111.111 8.99957C110.149 8.99957 109.743 9.78831 109.669 10.3742H112.403ZM109.658 10.9801C109.679 12.1235 110.481 12.5941 111.421 12.5941C112.093 12.5941 112.51 12.489 112.852 12.3638L113.023 12.9597C112.691 13.0941 112.114 13.2577 111.293 13.2577C109.711 13.2577 108.75 12.3062 108.75 10.9125C108.75 9.4995 109.679 8.39453 111.185 8.39453C112.873 8.39453 113.311 9.72982 113.311 10.5853C113.311 10.7589 113.301 10.8933 113.279 10.9892L109.658 10.9801Z" fill="white"/>
</svg>
