<svg width="122" height="40" viewBox="0 0 122 40" fill="none"
    xmlns="http://www.w3.org/2000/svg">
    <path d="M122 34.5938C122 37.5794 119.586 40 116.608 40H5.39286C2.41505 40 0 37.5794 0 34.5938V5.4053C0 2.41969 2.41505 0 5.39286 0H116.608C119.586 0 122 2.41969 122 5.4053V34.5938Z" fill="black"/>
    <path d="M10.6901 8L21.8037 18.8509L24.8507 15.8542L11.3797 8.20503C11.1552 8.07689 10.9146 8.00591 10.6901 8ZM9.75998 8.50469C9.65975 8.68015 9.59961 8.88715 9.59961 9.11978V30.2064C9.59961 30.3759 9.63569 30.5277 9.69583 30.6638L21.066 19.5606L9.75998 8.50469ZM25.7808 16.3747L22.5254 19.5606L25.7808 22.7307L29.758 20.4911C30.3233 20.1697 30.4035 19.7617 30.3995 19.5448C30.3935 19.186 30.1629 18.8509 29.774 18.6458C29.4353 18.4664 26.9195 17.0253 25.7808 16.3747ZM21.8037 20.2703L10.5939 31.2C10.7803 31.1901 10.9828 31.1507 11.1712 31.0423C11.6102 30.7919 20.4887 25.743 20.4887 25.743L24.8667 23.2669L21.8037 20.2703Z" fill="white"/>
    <path d="M94.0261 19.3823C93.1904 19.3823 92.5865 19.5986 92.2132 20.0303C91.84 20.4619 91.649 21.1497 91.6384 22.0918V22.3497C91.6384 23.4221 91.8303 24.1895 92.2132 24.652C92.5962 25.1135 93.2108 25.3452 94.0561 25.3452C94.7628 25.3452 95.3164 25.0782 95.7168 24.5443C96.1172 24.0103 96.3169 23.2737 96.3169 22.3361C96.3169 21.3841 96.1172 20.6538 95.7168 20.1452C95.3164 19.6366 94.7522 19.3823 94.0261 19.3823ZM94.2054 26.3126C93.6732 26.3126 93.1865 26.2212 92.7464 26.0375C92.3063 25.8547 91.9369 25.5723 91.6384 25.1913H91.5492C91.6083 25.6375 91.6384 26.0601 91.6384 26.4592V29.6004H90.4004V18.5398H91.4076L91.5792 19.5841H91.6384C91.9573 19.1669 92.3276 18.8646 92.7503 18.6791C93.173 18.4936 93.6587 18.4004 94.2054 18.4004C95.2902 18.4004 96.1268 18.7461 96.7163 19.4384C97.3057 20.1307 97.6004 21.1008 97.6004 22.3497C97.6004 23.604 97.3008 24.5769 96.7017 25.2719C96.1016 25.966 95.2699 26.3126 94.2054 26.3126Z" fill="#F8F9F9"/>
    <path d="M100.8 25.6004H100V14.4004H100.8V25.6004Z" fill="#F8F9F9"/>
    <path d="M104.373 25.4343C105.126 25.4343 105.717 25.2345 106.146 24.8349C106.576 24.4352 106.792 23.8752 106.792 23.1557V22.4572L105.582 22.5067C104.621 22.5397 103.929 22.6836 103.503 22.9403C103.078 23.1969 102.866 23.5956 102.866 24.1364C102.866 24.5599 102.998 24.8816 103.263 25.1025C103.528 25.3234 103.898 25.4343 104.373 25.4343ZM107.104 26.2592L106.863 25.1593H106.806C106.407 25.6442 106.01 25.9714 105.615 26.1428C105.219 26.3151 104.725 26.4004 104.133 26.4004C103.342 26.4004 102.722 26.2033 102.273 25.8083C101.824 25.4132 101.6 24.8514 101.6 24.1217C101.6 22.5608 102.888 21.7423 105.465 21.6671L106.82 21.625V21.1456C106.82 20.5388 106.686 20.0906 106.416 19.8009C106.146 19.5122 105.715 19.3674 105.124 19.3674C104.459 19.3674 103.706 19.5645 102.866 19.9595L102.495 19.064C102.888 18.8569 103.319 18.6946 103.788 18.5773C104.256 18.46 104.725 18.4004 105.196 18.4004C106.147 18.4004 106.853 18.6057 107.312 19.0145C107.77 19.4242 108 20.0796 108 20.9824V26.2592H107.104Z" fill="#F8F9F9"/>
    <path d="M108.8 18.4004H110.046L111.726 22.8082C112.096 23.8153 112.324 24.5411 112.413 24.9882H112.47C112.53 24.7482 112.657 24.3376 112.851 23.7566C113.045 23.1766 113.679 21.3905 114.752 18.4004H116L112.7 27.2022C112.373 28.0728 111.992 28.6895 111.555 29.0542C111.119 29.418 110.583 29.6004 109.948 29.6004C109.593 29.6004 109.243 29.5601 108.897 29.4813V28.5429C109.154 28.5997 109.441 28.6272 109.759 28.6272C110.557 28.6272 111.127 28.1763 111.468 27.2737L111.895 26.1731L108.8 18.4004Z" fill="#F8F9F9"/>
    <path d="M71.7077 23.2713C72.0757 22.8848 72.1075 22.3478 72.1075 22.045C72.1075 20.8359 71.4187 18.9545 70.0882 18.9545C69.6702 18.9545 69.2222 19.1725 68.965 19.5086C68.6932 19.8619 68.6124 20.3151 68.6124 20.7521C68.6124 21.8775 69.2376 23.7417 70.6171 23.7417C71.0179 23.7417 71.4496 23.5408 71.7077 23.2713ZM71.2424 26.4637C71.1142 26.4466 71.0334 26.4466 70.8743 26.4466C70.7298 26.4466 69.8628 26.4799 69.1903 26.716C68.8377 26.8493 67.8108 27.253 67.8108 28.446C67.8108 29.638 68.9177 30.4958 70.6335 30.4958C72.1721 30.4958 72.9909 29.7218 72.9909 28.6811C72.9909 27.8233 72.4611 27.3711 71.2424 26.4637ZM72.3811 19.005C72.7491 19.3239 73.5189 19.9961 73.5189 21.2729C73.5189 22.5154 72.8455 23.1038 72.1721 23.6579C71.963 23.8759 71.7231 24.112 71.7231 24.4824C71.7231 24.8509 71.963 25.0527 72.1403 25.2041L72.7182 25.6735C73.4235 26.2952 74.0641 26.8664 74.0641 28.0261C74.0641 29.6047 72.6046 31.2004 69.8474 31.2004C67.5218 31.2004 66.4004 30.0417 66.4004 28.7982C66.4004 28.1927 66.6876 27.3368 67.6345 26.7484C68.6278 26.1105 69.9764 26.0267 70.6971 25.9753C70.4717 25.6735 70.2164 25.3545 70.2164 24.8337C70.2164 24.549 70.2963 24.3805 70.3763 24.1787C70.1991 24.1958 70.0237 24.212 69.8628 24.212C68.1634 24.212 67.2019 22.8848 67.2019 21.5756C67.2019 20.8025 67.5391 19.9447 68.227 19.3239C69.1413 18.5346 70.2318 18.4004 71.0988 18.4004H74.4004L73.3744 19.005H72.3811Z" fill="#F8F9F9"/>
    <path d="M64.3274 24.2475C64.7132 23.7127 64.8099 23.0451 64.8099 22.3928C64.8099 20.9231 64.135 18.1173 62.1432 18.1173C61.6133 18.1173 61.0835 18.3345 60.6977 18.6863C60.0712 19.2694 59.9581 20.0052 59.9581 20.7239C59.9581 22.3767 60.7451 25.098 62.6895 25.098C63.316 25.098 63.959 24.7813 64.3274 24.2475ZM62.3192 25.5996C59.7656 25.5996 58.4004 23.5287 58.4004 21.6579C58.4004 19.4695 60.1186 17.5996 62.5618 17.5996C64.9221 17.5996 66.4004 19.5197 66.4004 21.5413C66.4004 23.5117 64.9385 25.5996 62.3192 25.5996Z" fill="#F8F9F9"/>
    <path d="M55.5276 24.2475C55.9133 23.7127 56.01 23.0451 56.01 22.3928C56.01 20.9231 55.3342 18.1173 53.3424 18.1173C52.8126 18.1173 52.2818 18.3345 51.8969 18.6863C51.2704 19.2694 51.1582 20.0052 51.1582 20.7239C51.1582 22.3767 51.9443 25.098 53.8896 25.098C54.5162 25.098 55.1582 24.7813 55.5276 24.2475ZM53.5194 25.5996C50.9649 25.5996 49.5996 23.5287 49.5996 21.6579C49.5996 19.4695 51.3187 17.5996 53.7601 17.5996C56.1213 17.5996 57.5996 19.5197 57.5996 21.5413C57.5996 23.5117 56.1377 25.5996 53.5194 25.5996Z" fill="#F8F9F9"/>
    <path d="M48.1734 25.5855L45.8124 26.1242C44.8551 26.2715 43.9966 26.4004 43.0888 26.4004C38.5326 26.4004 36.7998 23.0903 36.7998 20.4975C36.7998 17.3348 39.2587 14.4004 43.4691 14.4004C44.3611 14.4004 45.2186 14.5302 45.9942 14.742C47.232 15.0845 47.8099 15.508 48.1734 15.753L46.8032 17.042L46.2253 17.1718L46.6382 16.519C46.0771 15.9813 45.0527 14.9869 43.1055 14.9869C40.4975 14.9869 38.5326 16.9444 38.5326 19.7978C38.5326 22.862 40.7781 25.7485 44.376 25.7485C45.433 25.7485 45.9774 25.5367 46.4723 25.3406V22.7156L43.9808 22.8463L45.3007 22.1447H48.7998L48.371 22.5517C48.2555 22.6502 48.2387 22.6834 48.2061 22.8123C48.1883 22.9596 48.1734 23.4328 48.1734 23.5958V25.5855Z" fill="#F8F9F9"/>
    <path d="M77.6253 25.1421C77.1245 25.0903 77.019 24.9896 77.019 24.3258V14.7113C77.0225 14.6748 77.0242 14.6374 77.0276 14.6019C77.0885 14.0082 77.2403 13.9065 77.7119 13.5996H75.5391L74.4004 14.2116H75.5614V14.2192L75.5605 14.2135V24.6999C75.5605 25.0395 75.5005 25.0903 75.1507 25.5996H77.8388L78.4004 25.2265C78.1423 25.192 77.8842 25.1757 77.6253 25.1421Z" fill="#F8F9F9"/>
    <path d="M83.0685 20.0273C83.3956 19.911 83.568 19.8107 83.568 19.5781C83.568 18.9132 82.7933 18.1472 81.8618 18.1472C81.1723 18.1472 79.8813 18.6636 79.8813 20.4595C79.8813 20.7423 79.9156 21.0421 79.9332 21.3419L83.0685 20.0273ZM84.6875 24.9839C84.4985 25.0842 84.3085 25.2015 84.1204 25.2837C83.5504 25.5334 82.9647 25.5996 82.4475 25.5996C81.8971 25.5996 81.0351 25.5656 80.1566 24.9508C78.9342 24.1186 78.4004 22.6877 78.4004 21.4412C78.4004 18.8631 80.5709 17.5996 82.3447 17.5996C82.9647 17.5996 83.6033 17.749 84.1204 18.0649C84.9804 18.6125 85.2047 19.3284 85.3242 19.7105L81.2771 21.2918L79.9509 21.392C80.3809 23.5039 81.8618 24.7343 83.4995 24.7343C84.377 24.7343 85.0147 24.4345 85.6004 24.1526L84.6875 24.9839Z" fill="#F8F9F9"/>
    <path d="M86.0617 18.4754V19.2004H85.9376V18.4754H85.5996V18.4004H86.3996V18.4754H86.0617Z" fill="#F8F9F9"/>
    <path d="M87.1075 19.2004V18.4685H87.1031L86.8413 19.2004H86.7609L86.4977 18.4685H86.494V19.2004H86.4004V18.4004H86.5613L86.7997 19.0473H86.8026L87.038 18.4004H87.2004V19.2004H87.1075Z" fill="#F8F9F9"/>
    <path d="M38.8343 9.81184C38.5462 8.96536 38.4021 8.5086 38.4021 8.43978H38.3617C38.3617 8.50324 38.2131 8.96089 37.9157 9.81184H38.8343ZM39.9998 11.2H39.1922C39.1922 11.0918 39.1161 10.7861 38.9628 10.2811H37.7964C37.6386 10.7772 37.5597 11.0838 37.5597 11.2H36.7998C36.7998 11.1365 36.9962 10.6118 37.389 9.62682C37.7817 8.64179 37.979 8.10011 37.979 8H38.9325C38.9325 8.09296 39.1106 8.62749 39.4666 9.60358C39.8218 10.5797 39.9998 11.1115 39.9998 11.2Z" fill="#FAFBFB"/>
    <path d="M43.1998 11.2H42.6476C42.6476 11.133 42.4426 10.7781 42.0327 10.1363C41.6033 9.45877 41.3585 8.99575 41.2992 8.74726H41.2634C41.3008 9.1057 41.3187 9.43017 41.3187 9.72067C41.3187 10.1256 41.3293 10.6181 41.3504 11.2H40.7998C40.8226 10.6923 40.834 10.1345 40.834 9.5267C40.834 8.92782 40.8226 8.41922 40.7998 8H41.4643C41.4643 8.0867 41.6489 8.43352 42.0165 9.03955C42.4093 9.68313 42.6346 10.1202 42.6923 10.3499H42.7257C42.6899 9.98436 42.672 9.65631 42.672 9.3667C42.672 8.92246 42.6614 8.46659 42.6411 8H43.1998C43.1787 8.40581 43.1689 8.91531 43.1689 9.5267C43.1689 10.1426 43.1787 10.7003 43.1998 11.2Z" fill="#FAFBFB"/>
    <path d="M46.4056 9.58766C46.4056 9.27735 46.2977 9.01642 46.0797 8.80397C45.8629 8.59151 45.5318 8.48485 45.0854 8.48485C45.0018 8.48485 44.8875 8.4919 44.7416 8.50689C44.7617 8.83041 44.7712 9.16804 44.7712 9.52066C44.7712 9.90678 44.7807 10.2894 44.7997 10.6693C44.9267 10.6905 45.0526 10.701 45.1784 10.701C45.5952 10.701 45.9041 10.5926 46.1051 10.3775C46.3051 10.1615 46.4056 9.89796 46.4056 9.58766ZM47.2 9.48364C47.2 9.94292 47.0233 10.344 46.6711 10.6861C46.3178 11.029 45.8227 11.2 45.1869 11.2C44.9002 11.2 44.5046 11.1903 44 11.1709C44.0254 10.6834 44.0381 10.1325 44.0381 9.52066C44.0381 8.93179 44.0254 8.43019 44 8.01499H44.5088C44.5924 8.01499 44.7162 8.01234 44.8812 8.00705C45.0462 8.00264 45.1541 8 45.2049 8C45.9041 8 46.4119 8.14545 46.7271 8.43636C47.0424 8.72727 47.2 9.07636 47.2 9.48364Z" fill="#FAFBFB"/>
    <path d="M49.5462 8.94923C49.5462 8.62452 49.3516 8.46261 48.9631 8.46261C48.8207 8.46261 48.6948 8.47417 48.5855 8.49641C48.6021 8.74996 48.6104 9.07912 48.6104 9.48568C48.694 9.48835 48.7644 9.49013 48.8224 9.49013C49.3052 9.49013 49.5462 9.30954 49.5462 8.94923ZM50.4 11.2H49.7259C49.5503 10.6226 49.4153 10.2668 49.3209 10.1316C49.2265 9.99544 49.0749 9.92783 48.8654 9.92783C48.7768 9.92783 48.6932 9.92872 48.6128 9.9305C48.6128 10.3495 48.6195 10.773 48.6327 11.2H48C48.0199 10.708 48.0298 10.152 48.0298 9.53461C48.0298 8.94034 48.0199 8.43414 48 8.01512H48.3942C48.4398 8.01512 48.535 8.01245 48.6799 8.00712C48.8248 8.00267 48.959 8 49.0816 8C49.7789 8 50.1267 8.25621 50.1267 8.76864C50.1267 9.17431 49.9279 9.45721 49.5304 9.61735V9.65382C49.6836 9.70008 49.8178 9.82819 49.9337 10.039C50.0489 10.2508 50.2046 10.6378 50.4 11.2Z" fill="#FAFBFB"/>
    <path d="M53.7063 9.6051C53.7063 9.27932 53.6167 9.01478 53.4375 8.81148C53.2583 8.60904 53.037 8.50782 52.7737 8.50782C52.5287 8.50782 52.3211 8.60989 52.1501 8.81404C51.9792 9.01818 51.8941 9.27677 51.8941 9.58809C51.8941 9.91303 51.9837 10.1767 52.1639 10.38C52.344 10.5842 52.5652 10.6854 52.8267 10.6854C53.0708 10.6854 53.2793 10.5833 53.4503 10.3783C53.6212 10.1725 53.7063 9.91558 53.7063 9.6051ZM54.4002 9.53706C54.4002 10.0159 54.2429 10.4132 53.9275 10.7279C53.613 11.0426 53.2226 11.2 52.7591 11.2C52.3165 11.2 51.9453 11.0554 51.6473 10.7662C51.3492 10.477 51.2002 10.1095 51.2002 9.66294C51.2002 9.1849 51.3575 8.78767 51.6729 8.47294C51.9874 8.15736 52.3769 8 52.8413 8C53.2839 8 53.6541 8.1446 53.9531 8.43296C54.2512 8.72132 54.4002 9.08963 54.4002 9.53706Z" fill="#FAFBFB"/>
    <path d="M55.2004 11.2H54.4004C54.4251 10.6923 54.4374 10.1345 54.4374 9.5267C54.4374 8.92782 54.4251 8.41922 54.4004 8H55.2004C55.1757 8.41296 55.1634 8.92156 55.1634 9.5267C55.1634 10.1444 55.1757 10.7021 55.2004 11.2Z" fill="#FAFBFB"/>
    <path d="M58.4066 9.58766C58.4066 9.27735 58.2977 9.01642 58.0808 8.80397C57.8629 8.59151 57.5318 8.48485 57.0854 8.48485C57.0018 8.48485 56.8875 8.4919 56.7416 8.50689C56.7617 8.83041 56.7712 9.16804 56.7712 9.52066C56.7712 9.90678 56.7807 10.2894 56.7997 10.6693C56.9267 10.6905 57.0526 10.701 57.1784 10.701C57.5952 10.701 57.9041 10.5926 58.1051 10.3775C58.3061 10.1615 58.4066 9.89796 58.4066 9.58766ZM59.2 9.48364C59.2 9.94292 59.0233 10.344 58.6711 10.6861C58.3178 11.029 57.8227 11.2 57.1869 11.2C56.9002 11.2 56.5046 11.1903 56 11.1709C56.0254 10.6834 56.0381 10.1325 56.0381 9.52066C56.0381 8.93179 56.0254 8.43019 56 8.01499H56.5099C56.5924 8.01499 56.7172 8.01234 56.8822 8.00705C57.0462 8.00264 57.1541 8 57.2049 8C57.9041 8 58.4119 8.14545 58.7271 8.43636C59.0424 8.72727 59.2 9.07636 59.2 9.48364Z" fill="#FAFBFB"/>
    <path d="M62.8343 9.81184C62.5462 8.96536 62.4021 8.5086 62.4021 8.43978H62.3617C62.3617 8.50324 62.2131 8.96089 61.9157 9.81184H62.8343ZM63.9998 11.2H63.1922C63.1922 11.0918 63.1161 10.7861 62.9628 10.2811H61.7964C61.6386 10.7772 61.5597 11.0838 61.5597 11.2H60.7998C60.7998 11.1365 60.9962 10.6118 61.389 9.62682C61.7817 8.64179 61.9781 8.10011 61.9781 8H62.9325C62.9325 8.09296 63.1106 8.62749 63.4657 9.60358C63.8218 10.5797 63.9998 11.1115 63.9998 11.2Z" fill="#FAFBFB"/>
    <path d="M66.5477 8.98393C66.5477 8.63431 66.3089 8.45994 65.8303 8.45994C65.7109 8.45994 65.5851 8.47239 65.4519 8.49641C65.4703 8.80511 65.4795 9.15385 65.4795 9.5444C65.5217 9.54707 65.5704 9.54885 65.6264 9.54885C66.2409 9.54885 66.5477 9.36024 66.5477 8.98393ZM67.1998 8.8496C67.1998 9.23926 67.0501 9.52661 66.7516 9.71254C66.4522 9.89847 66.0857 9.99188 65.6512 9.99188C65.5722 9.99188 65.5162 9.9901 65.4822 9.98654C65.4822 10.2935 65.4914 10.6974 65.5098 11.2H64.7998C64.8218 10.7294 64.8329 10.1734 64.8329 9.53461C64.8329 8.94657 64.8218 8.44037 64.7998 8.01512H65.2398C65.3022 8.01512 65.4216 8.01245 65.598 8.00712C65.7752 8.00267 65.9286 8 66.0581 8C66.3778 8 66.6478 8.07028 66.8691 8.21084C67.0896 8.35051 67.1998 8.56403 67.1998 8.8496Z" fill="#FAFBFB"/>
    <path d="M69.7485 8.98393C69.7485 8.63431 69.5087 8.45994 69.0309 8.45994C68.9106 8.45994 68.7847 8.47239 68.6515 8.49641C68.6698 8.80511 68.679 9.15385 68.679 9.5444C68.7213 9.54707 68.77 9.54885 68.826 9.54885C69.4407 9.54885 69.7485 9.36024 69.7485 8.98393ZM70.4 8.8496C70.4 9.23926 70.2502 9.52661 69.9516 9.71254C69.653 9.89847 69.2855 9.99188 68.8508 9.99188C68.7718 9.99188 68.7158 9.9901 68.6818 9.98654C68.6818 10.2935 68.691 10.6974 68.7093 11.2H68C68.0211 10.7294 68.0322 10.1734 68.0322 9.53461C68.0322 8.94657 68.0211 8.44037 68 8.01512H68.4392C68.5017 8.01512 68.6211 8.01245 68.7985 8.00712C68.9749 8.00267 69.1283 8 69.2579 8C69.5776 8 69.8487 8.07028 70.0692 8.21084C70.2897 8.35051 70.4 8.56403 70.4 8.8496Z" fill="#FAFBFB"/>
    <path d="M74.5063 9.6051C74.5063 9.27932 74.4167 9.01478 74.2366 8.81148C74.0575 8.60904 73.8363 8.50782 73.573 8.50782C73.329 8.50782 73.1206 8.60989 72.9497 8.81404C72.7787 9.01818 72.6937 9.27677 72.6937 9.58809C72.6937 9.91303 72.7833 10.1767 72.9643 10.38C73.1444 10.5842 73.3646 10.6854 73.6261 10.6854C73.871 10.6854 74.0785 10.5833 74.2494 10.3783C74.4203 10.1725 74.5063 9.91558 74.5063 9.6051ZM75.2 9.53706C75.2 10.0159 75.0419 10.4132 74.7274 10.7279C74.4121 11.0426 74.0227 11.2 73.5584 11.2C73.116 11.2 72.7458 11.0554 72.447 10.7662C72.149 10.477 72 10.1095 72 9.66294C72 9.1849 72.1572 8.78767 72.4725 8.47294C72.7879 8.15736 73.1773 8 73.6416 8C74.084 8 74.4542 8.1446 74.7521 8.43296C75.0501 8.72132 75.2 9.08963 75.2 9.53706Z" fill="#FAFBFB"/>
    <path d="M78.4 11.2H77.8478C77.8478 11.133 77.6428 10.7781 77.2329 10.1363C76.8035 9.45877 76.5587 8.99575 76.4994 8.74726H76.4636C76.5002 9.1057 76.5189 9.43017 76.5189 9.72067C76.5189 10.1256 76.5294 10.6181 76.5506 11.2H76C76.0228 10.6923 76.0342 10.1345 76.0342 9.5267C76.0342 8.92782 76.0228 8.41922 76 8H76.6645C76.6645 8.0867 76.8491 8.43352 77.2167 9.03955C77.6095 9.68313 77.834 10.1202 77.8925 10.3499H77.9259C77.8901 9.98436 77.8722 9.65631 77.8722 9.3667C77.8722 8.92246 77.8616 8.46659 77.8413 8H78.4C78.3789 8.40581 78.3691 8.91531 78.3691 9.5267C78.3691 10.1426 78.3789 10.7003 78.4 11.2Z" fill="#FAFBFB"/>
</svg>
