<svg width="42" height="30" viewBox="0 0 42 30" fill="none"
    xmlns="http://www.w3.org/2000/svg">
    <path d="M42 26C42 28.209 40.209 30 38 30H4C1.791 30 0 28.209 0 26V4C0 1.791 1.791 0 4 0H38C40.209 0 42 1.791 42 4V26Z" fill="#1565C0"/>
    <path d="M12.186 9.99831L9.55998 17.8303C9.55998 17.8303 8.89298 14.5173 8.82698 14.1013C7.33198 10.6903 5.12598 10.8803 5.12598 10.8803L7.72598 20.9983V20.9963H10.887L15.258 9.99831H12.186ZM14.689 20.9983H17.56L19.296 9.99831H16.389L14.689 20.9983ZM35.008 9.99831H31.987L27.277 20.9983H30.129L30.717 19.4273H34.313L34.619 20.9983H37.232L35.008 9.99831ZM31.513 17.3263L33.076 13.1693L33.894 17.3263H31.513ZM23.369 13.2043C23.369 12.5983 23.867 12.1473 25.295 12.1473C26.223 12.1473 27.286 12.8213 27.286 12.8213L27.752 10.5123C27.752 10.5123 26.394 9.99731 25.061 9.99731C22.042 9.99731 20.485 11.4413 20.485 13.2693C20.485 16.5753 24.464 16.1223 24.464 17.8203C24.464 18.1113 24.233 18.7843 22.576 18.7843C20.914 18.7843 19.817 18.1753 19.817 18.1753L19.322 20.3913C19.322 20.3913 20.385 20.9973 22.439 20.9973C24.498 20.9973 27.354 19.4573 27.354 17.2453C27.354 14.5843 23.369 14.3923 23.369 13.2043Z" fill="white"/>
    <path d="M9.2124 15.945L8.2464 11.197C8.2464 11.197 7.8094 10.168 6.6734 10.168C5.5374 10.168 2.2334 10.168 2.2334 10.168C2.2334 10.168 7.8944 11.84 9.2124 15.945Z" fill="#FFC107"/>
</svg>
