<svg width="18" height="24" viewBox="0 0 18 24" fill="none" xmlns="http://www.w3.org/2000/svg">
<path fill-rule="evenodd" clip-rule="evenodd" d="M6.27357 2.88C6.27357 1.29563 7.56919 0 9.15357 0C10.7379 0 12.0336 1.29563 12.0336 2.88C12.0336 4.46438 10.7379 5.76 9.15357 5.76C7.56919 5.76 6.27357 4.46438 6.27357 2.88ZM11.0736 2.88C11.0736 1.81313 10.2204 0.96 9.15357 0.96C8.08669 0.96 7.23357 1.81313 7.23357 2.88C7.23357 3.94687 8.08669 4.8 9.15357 4.8C10.2204 4.8 11.0736 3.94687 11.0736 2.88ZM6.94857 6.24C6.68232 6.24 6.41419 6.315 6.16857 6.435C6.16669 6.43594 6.16388 6.43547 6.16107 6.435C6.15826 6.43453 6.15544 6.43406 6.15357 6.435L1.99857 8.295C1.51107 8.505 1.23544 8.94563 1.11357 9.375L0.0485673 13.125C-0.163308 13.9031 0.341067 14.6906 1.11357 14.895C0.438567 15.8381 0.0335673 16.995 0.0335673 18.24C0.0335673 21.4163 2.61732 24 5.79357 24C8.19732 24 10.2561 22.5112 11.1186 20.415L14.0886 23.385C14.1804 23.475 14.3061 23.5238 14.4336 23.52H16.8336C17.0061 23.5219 17.1673 23.4319 17.2554 23.2819C17.3417 23.1319 17.3417 22.9481 17.2554 22.7981C17.1673 22.6481 17.0061 22.5581 16.8336 22.56H14.6436L11.4336 19.35C11.5048 18.9881 11.5536 18.6225 11.5536 18.24C11.5536 17.91 11.5161 17.595 11.4636 17.28H12.4836L14.0286 20.955C14.0295 20.9587 14.0328 20.9606 14.0361 20.9625C14.0393 20.9644 14.0426 20.9662 14.0436 20.97C14.3211 21.7069 15.0786 22.2169 15.9036 22.08L15.9186 22.065C16.9536 21.8719 17.5592 20.7788 17.1786 19.8V19.785L15.1686 14.52C15.1648 14.5106 15.1592 14.4994 15.1536 14.49C14.8911 13.8975 14.3267 13.44 13.6236 13.44H10.4886L11.1186 9.33C11.3492 7.71375 10.1023 6.24 8.43357 6.24H6.94857ZM8.43357 7.2H6.94857C6.83607 7.2 6.72357 7.2225 6.58857 7.29C6.57919 7.29562 6.56794 7.30125 6.55857 7.305L2.38857 9.18C2.20482 9.25875 2.09794 9.38625 2.02857 9.63L0.978567 13.38C0.914818 13.6144 1.10982 13.9294 1.41357 13.98H1.42857C1.60669 14.0156 1.88794 13.8112 1.96857 13.545L2.83857 10.53C2.87607 10.3894 2.97544 10.2731 3.10857 10.215L6.28857 8.91C6.44794 8.84812 6.62982 8.87813 6.76294 8.98687C6.89607 9.09375 6.96169 9.26625 6.93357 9.435L6.43857 12.525C7.57482 12.6525 8.61544 13.1081 9.45357 13.8L10.1736 9.195C10.3273 8.1225 9.54919 7.2 8.43357 7.2ZM5.85357 10.14L5.47857 12.495C4.62169 12.5419 3.81169 12.7725 3.09357 13.155L3.69357 11.01L5.85357 10.14ZM10.5936 18.24C10.5936 15.5831 8.45044 13.44 5.79357 13.44C3.13669 13.44 0.993567 15.5831 0.993567 18.24C0.993567 20.8969 3.13669 23.04 5.79357 23.04C8.45044 23.04 10.5936 20.8969 10.5936 18.24ZM10.0686 14.4H13.6236C13.8729 14.4 14.1429 14.6025 14.2686 14.865C14.2704 14.8687 14.2733 14.8706 14.2761 14.8725C14.2789 14.8744 14.2817 14.8762 14.2836 14.88L16.2936 20.145C16.4736 20.595 16.2336 21.0169 15.7536 21.12C15.4329 21.1725 15.0411 20.9344 14.9286 20.625V20.595L13.2486 16.62C13.1754 16.4363 12.9954 16.3181 12.7986 16.32H11.2236C10.9686 15.6038 10.5673 14.955 10.0686 14.4ZM4.83357 18.24C4.83357 17.7094 5.26294 17.28 5.79357 17.28C6.32419 17.28 6.75357 17.7094 6.75357 18.24C6.75357 18.7706 6.32419 19.2 5.79357 19.2C5.26294 19.2 4.83357 18.7706 4.83357 18.24Z" fill="#101E8E"/>
</svg>
